<svg width="800" height="1048" viewBox="0 0 800 1048" fill="none" xmlns="http://www.w3.org/2000/svg">
<g clip-path="url(#clip0_1890_1698)">
<path d="M180.433 14.5921L630.184 10.6123L665.342 49.0832L695.192 156.536L702.489 248.071L695.192 379.402L702.489 513.387V632.779L720.4 773.397L695.192 940.547L630.184 1001.57H180.433L105.474 940.547L81.5938 835.747V692.476L97.5141 646.045L105.474 482.212L97.5141 279.245V176.435L123.385 102.81L135.325 49.0832L151.909 29.8477L180.433 14.5921Z" fill="#4A73F1"/>
<path fill-rule="evenodd" clip-rule="evenodd" d="M307.133 0.663496C307.133 0.221303 307.133 -0.220892 307.133 -0.663086C365.066 -0.663086 422.997 -0.663086 480.93 -0.663086C499.062 0.221303 517.193 1.10569 535.325 1.99008C459.264 1.09047 383.2 0.648279 307.133 0.663496Z" fill="#384A79"/>
<path fill-rule="evenodd" clip-rule="evenodd" d="M307.129 0.663683C383.197 0.648465 459.261 1.09066 535.322 1.99026C557.066 2.4946 578.737 4.04229 600.33 6.6333C612.274 7.80539 623.773 10.2375 634.824 13.9295C632.302 13.8409 629.87 14.283 627.527 15.2561C625.977 14.5815 624.871 13.4759 624.211 11.9396C617.625 10.7295 610.991 10.0662 604.31 9.94976C604.31 11.2763 604.31 12.6029 604.31 13.9295C598.079 13.4797 591.888 12.5953 585.736 11.2763C578.653 11.852 571.577 12.5153 564.509 13.2662C567.38 15.2439 570.034 17.2338 572.469 19.2358C569.816 19.2358 567.163 19.2358 564.509 19.2358C560.411 17.5317 555.989 16.6474 551.242 16.5827C551.242 15.2561 551.242 13.9295 551.242 12.6029C561.648 10.2471 572.261 8.47833 583.083 7.29659C572.526 5.36577 562.133 5.80797 551.906 8.62318C550.579 7.73878 549.252 6.8544 547.925 5.97001C546.069 5.97167 544.079 6.41386 541.955 7.29659C540.491 5.79586 540.932 4.69038 543.282 3.98014C457.052 2.24274 370.816 1.80055 284.576 2.65356C271.708 2.99238 258.884 3.87677 246.101 5.30672C245.495 5.85586 245.052 6.51915 244.775 7.29659C239.936 8.07465 235.293 9.40123 230.844 11.2763C224.822 8.17057 218.41 6.84399 211.607 7.29659C211.607 8.62318 211.607 9.94976 211.607 11.2763C204.427 11.0771 197.35 10.1927 190.38 8.62318C190.566 10.7772 189.681 12.3249 187.726 13.2662C184.723 13.5796 181.848 14.2428 179.103 15.2561C178.661 14.8139 178.218 14.3717 177.776 13.9295C174.826 15.991 171.509 17.3176 167.826 17.9093C165.159 15.6921 162.064 14.8077 158.539 15.2561C161.512 13.7694 164.609 12.2217 167.826 10.613C213.957 3.27233 260.391 -0.0441272 307.129 0.663683Z" fill="#132E67"/>
<path fill-rule="evenodd" clip-rule="evenodd" d="M564.511 19.2351C461.956 13.0248 359.359 12.3615 256.717 17.2452C233.648 18.134 210.651 19.9029 187.729 22.5515C172.465 25.0993 159.198 31.5111 147.928 41.787C147.125 39.763 145.578 38.4364 143.284 37.8072C142.643 36.5496 142.423 35.223 142.621 33.8275C145.395 33.5866 148.048 34.0288 150.581 35.154C152.059 33.5316 152.281 31.7629 151.244 29.8477C147.507 31.1824 145.074 29.8558 143.948 25.868C148.038 21.3467 152.901 17.8091 158.541 15.2553C162.066 14.8069 165.162 15.6914 167.828 17.9085C171.511 17.3168 174.828 15.9902 177.778 13.9287C178.22 14.3709 178.663 14.8132 179.105 15.2553C181.85 14.2421 184.725 13.5788 187.729 13.2654C189.683 12.3242 190.568 10.7765 190.382 8.6224C197.353 10.1919 204.429 11.0763 211.609 11.2756C211.609 9.94898 211.609 8.6224 211.609 7.29582C218.413 6.84322 224.825 8.1698 230.846 11.2756C235.295 9.40046 239.938 8.07387 244.777 7.29582C245.054 6.51838 245.497 5.85509 246.103 5.30595C258.886 3.876 271.71 2.9916 284.578 2.65278C370.819 1.79978 457.054 2.24197 543.284 3.97936C540.935 4.6896 540.493 5.79508 541.958 7.29582C544.082 6.41309 546.072 5.9709 547.928 5.96924C549.254 6.85363 550.581 7.73801 551.908 8.6224C562.135 5.8072 572.529 5.36499 583.085 7.29582C572.263 8.47755 561.65 10.2463 551.244 12.6021C551.244 13.9287 551.244 15.2553 551.244 16.5819C555.991 16.6466 560.413 17.5309 564.511 19.2351Z" fill="#09296B"/>
<path fill-rule="evenodd" clip-rule="evenodd" d="M630.847 105.463C634.421 143.845 636.189 182.316 636.153 220.876C632.064 218.393 628.526 215.298 625.54 211.59C624.979 193.018 624.315 174.445 623.55 155.873C622.385 145.909 620.838 136.182 618.906 126.689C618.465 126.689 618.021 126.689 617.58 126.689C617.8 117.834 617.58 108.99 616.916 100.157C616.408 99.4193 615.745 98.9772 614.926 98.8303C614.993 92.8015 612.781 87.9373 608.293 84.2379C606.589 80.2798 603.493 78.2899 599.006 78.2683C590.175 77.3248 581.331 76.6615 572.472 76.2784C560.7 75.4129 548.76 74.3074 536.651 72.962C455.499 71.8582 374.571 72.0794 293.865 73.6252C266.21 73.6877 238.791 74.5722 211.609 76.2784C208.693 75.7744 206.482 76.6589 204.976 78.9316C201.331 78.5158 197.793 78.9581 194.362 80.2582C192.382 81.1086 191.055 82.4352 190.382 84.2379C188.05 86.4144 186.06 89.0676 184.412 92.1974C182.943 98.7995 181.617 105.432 180.432 112.096C179.428 131.122 178.321 150.137 177.115 169.139C174.873 183.003 173.99 197.153 174.462 211.59C169.659 214.181 165.679 217.717 162.522 222.202C162.415 186.768 163.742 151.392 166.502 116.076C169.087 98.6527 171.077 80.965 172.472 63.0126C173.15 59.8577 174.035 56.7624 175.125 53.7265C182.078 46.3885 190.702 42.6299 200.996 42.4506C333.694 41.1514 466.364 41.5936 599.006 43.7771C604.015 44.5626 608.88 45.8892 613.599 47.7569C621.927 51.344 626.129 57.7557 626.203 66.9923C627.596 80.033 629.144 92.8567 630.847 105.463Z" fill="black" fill-opacity="0.2"/>
<path fill-rule="evenodd" clip-rule="evenodd" d="M535.325 74.9516C535.325 75.3938 535.325 75.8361 535.325 76.2782C535.325 76.7204 535.325 77.1627 535.325 77.6048C517.636 77.6048 499.946 77.6048 482.257 77.6048C476.065 77.6048 469.875 77.6048 463.683 77.6048C445.551 77.6048 427.42 77.6048 409.288 77.6048C403.097 77.6048 396.906 77.6048 390.715 77.6048C372.583 77.6048 354.452 77.6048 336.32 77.6048C330.128 77.6048 323.938 77.6048 317.746 77.6048C299.614 77.6048 281.483 77.6048 263.351 77.6048C257.603 77.6048 251.853 77.6048 246.104 77.6048C232.36 77.3342 218.65 77.7763 204.977 78.9314C206.482 76.6587 208.694 75.7743 211.61 76.2782C319.511 75.1199 427.415 74.6777 535.325 74.9516Z" fill="black" fill-opacity="0.15"/>
<path fill-rule="evenodd" clip-rule="evenodd" d="M317.743 77.6055C323.935 77.6055 330.125 77.6055 336.317 77.6055C336.275 113.871 335.833 150.131 334.99 186.385C328.357 186.385 321.723 186.385 315.09 186.385C316.442 150.181 317.327 113.922 317.743 77.6055Z" fill="#101010" fill-opacity="0.5"/>
<path fill-rule="evenodd" clip-rule="evenodd" d="M390.713 77.6055C396.905 77.6055 403.095 77.6055 409.287 77.6055C409.287 113.423 409.287 149.241 409.287 185.059C421.469 184.625 433.409 185.068 445.108 186.385C416.806 186.385 388.502 186.385 360.199 186.385C370.126 185.069 380.296 184.627 390.713 185.059C390.713 149.241 390.713 113.423 390.713 77.6055Z" fill="#101010" fill-opacity="0.5"/>
<path fill-rule="evenodd" clip-rule="evenodd" d="M246.101 77.6055C251.85 77.6055 257.599 77.6055 263.348 77.6055C263.4 115.199 262.958 152.786 262.021 190.365C256.273 190.365 250.523 190.365 244.774 190.365C243.463 152.937 243.905 115.351 246.101 77.6055Z" fill="#101010" fill-opacity="0.5"/>
<path fill-rule="evenodd" clip-rule="evenodd" d="M263.35 77.6055C281.482 77.6055 299.613 77.6055 317.745 77.6055C317.328 113.922 316.443 150.181 315.091 186.385C305.836 187.281 296.549 187.944 287.231 188.375C285.59 188.683 284.263 189.346 283.251 190.365C276.617 190.365 269.984 190.365 263.35 190.365C262.908 190.365 262.465 190.365 262.023 190.365C262.96 152.786 263.402 115.199 263.35 77.6055Z" fill="black" fill-opacity="0.25"/>
<path fill-rule="evenodd" clip-rule="evenodd" d="M535.324 77.6055C541.516 77.6055 547.706 77.6055 553.898 77.6055C553.565 79.8213 552.68 81.8111 551.245 83.5751C553.578 90.4846 554.685 97.7808 554.561 105.464C555.851 134.203 556.956 162.946 557.878 191.692C551.28 190.811 544.647 190.369 537.978 190.365C538.179 152.738 537.296 115.152 535.324 77.6055Z" fill="#101010" fill-opacity="0.5"/>
<path fill-rule="evenodd" clip-rule="evenodd" d="M553.896 77.6051C569.516 77.1693 584.995 78.2749 600.33 80.9216C603.153 81.7907 605.807 82.8963 608.29 84.238C612.779 87.9375 614.99 92.8016 614.924 98.8304C614.725 108.41 615.61 117.696 617.577 126.689C617.413 134.076 618.298 141.151 620.231 147.914C621.151 154.951 621.594 162.026 621.557 169.139C621.454 181.987 621.896 194.811 622.884 207.61C621.115 207.61 619.346 207.61 617.577 207.61C609.516 204.487 601.556 201.391 593.697 198.324C588.698 197.56 583.833 196.013 579.103 193.681C572.041 193.019 564.966 192.798 557.876 193.018C557.876 192.576 557.876 192.133 557.876 191.691C556.954 162.945 555.848 134.202 554.559 105.463C554.682 97.7804 553.576 90.4842 551.242 83.5747C552.678 81.8108 553.563 79.8209 553.896 77.6051Z" fill="black" fill-opacity="0.25"/>
<path fill-rule="evenodd" clip-rule="evenodd" d="M336.319 77.6055C354.451 77.6055 372.582 77.6055 390.714 77.6055C390.714 113.423 390.714 149.241 390.714 185.059C380.296 184.627 370.126 185.069 360.199 186.385C351.797 186.385 343.394 186.385 334.992 186.385C335.835 150.131 336.276 113.871 336.319 77.6055Z" fill="black" fill-opacity="0.25"/>
<path fill-rule="evenodd" clip-rule="evenodd" d="M409.285 77.6055C427.417 77.6055 445.548 77.6055 463.68 77.6055C464.471 112.976 465.134 148.351 465.67 183.732C468.378 185.393 471.474 186.278 474.957 186.385C478.539 186.53 481.856 185.867 484.907 184.395C482.714 148.915 481.83 113.318 482.254 77.6055C499.943 77.6055 517.633 77.6055 535.322 77.6055C537.293 115.152 538.177 152.738 537.975 190.365C532.668 190.365 527.361 190.365 522.055 190.365C517.633 190.365 513.21 190.365 508.788 190.365C487.816 188.298 466.589 187.415 445.106 187.712C445.106 187.27 445.106 186.827 445.106 186.385C433.407 185.068 421.467 184.625 409.285 185.059C409.285 149.241 409.285 113.423 409.285 77.6055Z" fill="black" fill-opacity="0.25"/>
<path fill-rule="evenodd" clip-rule="evenodd" d="M463.68 77.6055C469.871 77.6055 476.062 77.6055 482.253 77.6055C481.83 113.318 482.714 148.915 484.907 184.395C481.855 185.867 478.539 186.53 474.957 186.385C471.474 186.278 468.378 185.393 465.67 183.732C465.134 148.351 464.47 112.976 463.68 77.6055Z" fill="#101010" fill-opacity="0.5"/>
<path fill-rule="evenodd" clip-rule="evenodd" d="M190.38 84.2383C189.202 87.8771 187.654 91.4146 185.737 94.8509C183.41 119.865 180.535 144.628 177.113 169.14C178.319 150.138 179.426 131.123 180.43 112.097C181.615 105.433 182.941 98.7999 184.41 92.1978C186.058 89.068 188.048 86.4148 190.38 84.2383Z" fill="black" fill-opacity="0.15"/>
<path fill-rule="evenodd" clip-rule="evenodd" d="M246.104 77.6054C243.908 115.35 243.467 152.937 244.777 190.365C238.011 191.039 231.378 192.365 224.877 194.345C212.596 195.145 201.099 198.239 190.383 203.631C186.307 205.201 182.327 206.97 178.442 208.937C176.748 207.353 175.863 205.143 175.789 202.304C176.893 191.276 177.336 180.222 177.116 169.14C180.537 144.628 183.412 119.865 185.739 94.851C187.656 91.4146 189.205 87.8771 190.383 84.2383C191.055 82.4356 192.382 81.109 194.363 80.2585C197.794 78.9585 201.332 78.5162 204.976 78.932C218.649 77.7769 232.36 77.3348 246.104 77.6054Z" fill="black" fill-opacity="0.25"/>
<path fill-rule="evenodd" clip-rule="evenodd" d="M135.986 80.2578C131.241 122.202 127.039 164.211 123.383 206.283C122.053 243.482 119.842 280.626 116.749 317.716C115.651 337.401 115.872 356.858 117.413 376.086C113.973 405.17 111.762 434.354 110.779 463.64C110.703 410.362 110.482 356.857 110.116 303.124C106.592 297.927 104.381 292.179 103.482 285.878C98.2368 235.686 101.775 186.16 114.096 137.301C119.068 125.151 124.375 113.212 130.016 101.483C131.663 94.1372 133.653 87.062 135.986 80.2578Z" fill="black" fill-opacity="0.25"/>
<path fill-rule="evenodd" clip-rule="evenodd" d="M634.827 13.929C653.776 20.7155 666.821 33.5392 673.964 52.3999C675.856 63.4353 677.626 74.4901 679.271 85.5644C688.172 101.153 695.249 117.514 700.498 134.648C715.734 196.766 716.839 259.116 703.815 321.696C702.807 371.885 702.807 422.295 703.815 472.926C702.488 472.926 701.162 472.926 699.835 472.926C699.627 474.748 699.848 476.518 700.498 478.233C702.861 481.203 704.851 484.298 706.469 487.519C707.421 489.69 707.641 491.901 707.132 494.152C706.69 493.71 706.247 493.267 705.805 492.825C704.317 501.647 702.327 510.27 699.835 518.694C699.835 524.442 699.835 530.191 699.835 535.939C701.093 536.58 702.42 536.8 703.815 536.602C703.214 537.873 702.331 538.98 701.162 539.919C697.206 540.579 693.225 540.801 689.221 540.582C689.221 548.1 689.221 555.616 689.221 563.134C706.91 563.134 724.601 563.134 742.289 563.134C725.272 564.236 708.025 564.9 690.548 565.124C689.221 569.104 686.568 571.757 682.588 573.083C683.194 573.633 683.637 574.296 683.915 575.073C691.737 578.209 699.254 581.304 706.469 584.359C706.247 602.052 706.469 619.741 707.132 637.423C707.501 638.638 708.164 639.521 709.122 640.076C714.044 652.595 718.246 665.418 721.726 678.547C723.956 687.707 725.062 696.993 725.042 706.405C725.042 743.991 725.042 781.578 725.042 819.164C724.085 818.61 723.421 817.726 723.052 816.511C722.611 805.899 722.167 795.286 721.726 784.673C721.503 798.844 720.839 812.995 719.736 827.124C716.955 833.92 715.407 840.996 715.092 848.349C714.109 838.912 712.561 829.626 710.449 820.491C711.623 780.257 711.844 740.017 711.112 699.772C711.371 683.764 706.507 669.614 696.518 657.321C695.428 654.286 694.543 651.19 693.865 648.035C692.066 625.526 691.403 602.974 691.875 580.38C688.337 580.38 684.8 580.38 681.261 580.38C681.535 576.406 680.651 572.869 678.608 569.767C677.939 560.001 676.833 550.271 675.291 540.582C666.68 497.301 658.498 453.967 650.747 410.577C651.629 407.661 652.514 404.566 653.401 401.291C655.485 402.364 657.696 402.807 660.034 402.618C660.034 400.849 660.034 399.08 660.034 397.311C664.969 426.016 670.498 454.759 676.618 483.539C674.742 455.295 672.752 426.995 670.648 398.638C673.029 393.305 674.577 387.557 675.291 381.392C676.615 390.635 677.499 399.921 677.945 409.25C678.442 398.258 678.662 387.424 678.608 376.749C677.178 375.855 676.293 374.529 675.954 372.769C674.666 367.319 674.888 362.234 676.618 357.514C678.06 360.74 678.723 360.297 678.608 356.187C680.018 361.678 680.903 367.426 681.261 373.433C684.131 402.123 686.563 430.866 688.558 459.661C688.03 408.81 687.587 357.958 687.231 307.104C692.16 295.231 694.814 282.85 695.192 269.959C699.511 226.964 696.416 184.513 685.905 142.607C678.431 123.711 670.691 105.139 662.688 86.891C665.511 53.8113 650.917 33.2493 618.906 25.2049C603.303 22.6973 587.824 20.7074 572.472 19.2353C570.036 17.2332 567.383 15.2433 564.512 13.2657C571.579 12.5148 578.656 11.8515 585.739 11.2758C591.891 12.5947 598.081 13.4791 604.313 13.929C604.313 12.6024 604.313 11.2758 604.313 9.94922C610.994 10.0656 617.627 10.7289 624.213 11.9391C624.874 13.4754 625.979 14.581 627.53 15.2555C629.873 14.2825 632.305 13.8403 634.827 13.929Z" fill="#0A2867"/>
<path fill-rule="evenodd" clip-rule="evenodd" d="M315.091 186.385C321.724 186.385 328.358 186.385 334.991 186.385C343.393 186.385 351.797 186.385 360.199 186.385C388.501 186.385 416.805 186.385 445.107 186.385C445.107 186.827 445.107 187.27 445.107 187.711C407.075 187.711 369.044 187.711 331.011 187.711C316.62 188.002 302.469 188.885 288.557 190.365C286.788 190.365 285.018 190.365 283.25 190.365C284.262 189.346 285.589 188.682 287.23 188.375C296.549 187.943 305.836 187.28 315.091 186.385Z" fill="#101010" fill-opacity="0.4"/>
<path fill-rule="evenodd" clip-rule="evenodd" d="M445.109 189.038C445.109 188.596 445.109 188.153 445.109 187.711C466.593 187.414 487.82 188.298 508.791 190.365C487.552 190.365 466.325 189.921 445.109 189.038Z" fill="#101010" fill-opacity="0.4"/>
<path fill-rule="evenodd" clip-rule="evenodd" d="M331.013 187.711C317.148 189.953 302.997 190.836 288.559 190.364C302.47 188.885 316.622 188.001 331.013 187.711Z" fill="#101010" fill-opacity="0.4"/>
<path fill-rule="evenodd" clip-rule="evenodd" d="M331.013 187.711C369.046 187.711 407.077 187.711 445.109 187.711C445.109 188.153 445.109 188.596 445.109 189.038C409.727 188.816 374.35 189.038 338.973 189.701C342.953 190.143 346.933 190.586 350.913 191.027C345.92 192.334 340.835 192.997 335.656 193.017C328.677 192.227 321.822 191.785 315.093 191.691C293.006 192.922 270.894 194.027 248.758 195.007C239.246 198.072 229.518 199.398 219.57 198.987C222.971 197.975 222.971 197.311 219.57 196.997C215.106 197.666 210.684 198.55 206.303 199.65C207.472 201.602 209.241 202.707 211.61 202.967C204.5 202.383 197.425 202.604 190.383 203.63C201.099 198.239 212.596 195.144 224.877 194.344C237.953 193.616 250.778 192.289 263.351 190.364C269.985 190.364 276.618 190.364 283.252 190.364C285.02 190.364 286.79 190.364 288.559 190.364C302.997 190.836 317.148 189.953 331.013 187.711Z" fill="#172760"/>
<path fill-rule="evenodd" clip-rule="evenodd" d="M662.688 86.8916C670.691 105.14 678.431 123.712 685.905 142.608C696.416 184.513 699.511 226.964 695.192 269.96C694.814 282.85 692.16 295.231 687.231 307.104C687.587 357.959 688.03 408.811 688.558 459.661C686.563 430.866 684.131 402.123 681.261 373.433C683.249 277.58 677.057 182.066 662.688 86.8916Z" fill="black" fill-opacity="0.25"/>
<path fill-rule="evenodd" clip-rule="evenodd" d="M244.775 190.364C250.524 190.364 256.274 190.364 262.023 190.364C262.464 190.364 262.908 190.364 263.349 190.364C250.776 192.289 237.951 193.616 224.875 194.344C231.376 192.365 238.009 191.038 244.775 190.364Z" fill="#101010" fill-opacity="0.4"/>
<path fill-rule="evenodd" clip-rule="evenodd" d="M445.107 189.038C466.323 189.922 487.55 190.365 508.789 190.365C513.211 190.365 517.634 190.365 522.056 190.365C533.739 192.052 545.679 192.937 557.877 193.018C569.666 194.748 581.606 196.517 593.698 198.324C601.557 201.391 609.517 204.488 617.578 207.61C617.578 208.495 618.02 208.937 618.905 208.937C620.301 211.266 622.512 212.151 625.538 211.59C628.525 215.298 632.063 218.393 636.152 220.876C641.752 226.315 646.396 232.506 650.082 239.448C664.989 276.963 674.498 315.877 678.606 356.188C678.722 360.297 678.059 360.74 676.616 357.514C674.886 362.234 674.665 367.319 675.953 372.77C676.291 374.529 677.176 375.855 678.606 376.75C678.661 387.425 678.441 398.259 677.943 409.251C677.497 399.921 676.614 390.635 675.29 381.393C674.576 387.557 673.028 393.305 670.646 398.638C668.788 376.819 665.913 355.151 662.023 333.636C659.997 335.919 658.67 338.572 658.043 341.595C656.94 360.24 657.603 378.812 660.033 397.312C660.033 399.08 660.033 400.85 660.033 402.618C657.695 402.808 655.483 402.365 653.399 401.291C652.513 404.567 651.628 407.662 650.746 410.577C649.134 400.905 647.807 391.177 646.766 381.393C646.545 369.004 646.766 356.621 647.429 344.248C650.175 333.138 653.05 322.084 656.053 311.084C652.931 294.666 648.509 278.747 642.786 263.327C637.818 241.774 624.993 226.96 604.311 218.886C581.44 211.702 558.001 207.722 533.996 206.947C442.892 200.865 351.791 200.865 260.696 206.947C241.863 207.864 223.29 210.517 204.975 214.907C180.543 222.313 164.181 238.01 155.887 262C149.609 278.69 144.744 295.936 141.293 313.737C150.79 335.299 154.106 357.851 151.243 381.393C148.823 394.555 147.276 407.821 146.6 421.19C141.403 445.468 136.096 469.789 130.679 494.152C130.451 488.801 129.788 483.494 128.689 478.233C126.583 476.605 124.814 477.047 123.383 479.56C122.767 478.772 122.545 477.887 122.719 476.907C132.687 438.547 138.877 399.413 141.293 359.504C141.679 351.099 140.574 342.919 137.976 334.962C137.534 334.52 137.091 334.077 136.65 333.636C135.596 337.577 134.711 341.557 133.996 345.575C129.043 387.937 125.285 430.387 122.719 472.927C116.604 476.398 116.162 475.735 121.393 470.937C120.135 470.296 118.808 470.076 117.412 470.274C117.85 461.826 117.407 453.423 116.086 445.069C115.106 452.22 113.779 459.295 112.106 466.294C111.048 465.688 110.605 464.803 110.779 463.641C111.762 434.355 113.973 405.17 117.412 376.086C120.841 341.035 127.254 306.544 136.65 272.613C140.789 253.275 149.412 236.473 162.52 222.203C165.678 217.718 169.658 214.181 174.461 211.59C176.486 211.687 177.813 210.802 178.441 208.937C182.325 206.97 186.305 205.201 190.381 203.631C197.423 202.605 204.498 202.384 211.608 202.967C209.239 202.707 207.47 201.602 206.301 199.651C210.682 198.551 215.104 197.666 219.568 196.998C222.969 197.312 222.969 197.975 219.568 198.988C229.516 199.399 239.245 198.072 248.756 195.008C270.892 194.027 293.004 192.922 315.091 191.691C321.82 191.786 328.675 192.227 335.655 193.018C340.833 192.998 345.918 192.335 350.912 191.028C346.931 190.586 342.951 190.143 338.971 189.701C374.348 189.038 409.726 188.817 445.107 189.038Z" fill="#08296A"/>
<path fill-rule="evenodd" clip-rule="evenodd" d="M642.786 263.326C648.51 278.746 652.932 294.665 656.053 311.083C653.051 322.083 650.176 333.138 647.43 344.248C646.766 356.621 646.546 369.003 646.766 381.392C645.245 374.571 644.139 367.496 643.45 360.167C642.786 327.89 642.565 295.61 642.786 263.326Z" fill="black" fill-opacity="0.25"/>
<path fill-rule="evenodd" clip-rule="evenodd" d="M155.887 262C156.557 306.75 155.23 351.41 151.907 395.985C149.753 404.295 147.985 412.697 146.6 421.19C147.276 407.821 148.823 394.555 151.243 381.392C154.106 357.851 150.789 335.299 141.293 313.737C144.744 295.935 149.609 278.69 155.887 262Z" fill="black" fill-opacity="0.25"/>
<path fill-rule="evenodd" clip-rule="evenodd" d="M122.719 476.907C122.719 475.58 122.719 474.253 122.719 472.927C125.284 430.387 129.043 387.937 133.996 345.575C134.711 341.557 135.596 337.577 136.649 333.636C137.091 334.077 137.534 334.521 137.976 334.962C140.573 342.919 141.679 351.099 141.293 359.504C138.877 399.413 132.686 438.547 122.719 476.907Z" fill="#396DB6"/>
<path fill-rule="evenodd" clip-rule="evenodd" d="M670.647 398.638C672.751 426.995 674.741 455.295 676.617 483.54C670.497 454.759 664.969 426.016 660.034 397.312C657.604 378.812 656.941 360.24 658.044 341.595C658.671 338.572 659.998 335.919 662.024 333.636C665.914 355.152 668.789 376.819 670.647 398.638Z" fill="#386EB6"/>
<path fill-rule="evenodd" clip-rule="evenodd" d="M94.8604 321.696C95.4149 365.304 96.7416 409.081 98.8405 453.028C98.5203 456.728 97.6359 460.266 96.1871 463.641C96.7425 465.195 97.627 466.522 98.8405 467.62C97.0716 470.274 97.0716 472.927 98.8405 475.58C96.9179 476.471 95.149 477.356 93.5337 478.233C93.0915 478.233 92.6492 478.233 92.207 478.233C93.6809 426.072 94.5654 373.892 94.8604 321.696Z" fill="#1C2F65"/>
<path fill-rule="evenodd" clip-rule="evenodd" d="M703.814 321.696C704.137 376.98 705.022 432.255 706.467 487.519C704.85 484.298 702.86 481.203 700.497 478.233C699.847 476.518 699.625 474.748 699.834 472.927C701.16 472.927 702.487 472.927 703.814 472.927C702.805 422.295 702.805 371.885 703.814 321.696Z" fill="#273862"/>
<path fill-rule="evenodd" clip-rule="evenodd" d="M143.949 25.8682C145.075 29.856 147.508 31.1826 151.245 29.8479C152.282 31.7631 152.06 33.5318 150.582 35.1542C148.049 34.029 145.396 33.5868 142.622 33.8277C142.424 35.2232 142.644 36.5498 143.285 37.8074C145.579 38.4366 147.126 39.7632 147.929 41.7872C143.715 45.7819 140.84 50.6461 139.305 56.3796C137.86 64.3018 136.754 72.2613 135.988 80.258C133.655 87.0622 131.665 94.1374 130.018 101.483C124.377 113.212 119.07 125.152 114.098 137.301C101.777 186.16 98.2387 235.686 103.484 285.878C104.383 292.18 106.594 297.928 110.118 303.124C110.483 356.857 110.705 410.362 110.781 463.64C110.607 464.802 111.05 465.687 112.108 466.293C113.782 459.294 115.108 452.22 116.088 445.068C117.41 453.423 117.852 461.826 117.415 470.273C118.81 470.076 120.137 470.296 121.395 470.937C116.164 475.735 116.606 476.398 122.721 472.926C122.721 474.253 122.721 475.58 122.721 476.906C122.548 477.887 122.769 478.771 123.385 479.559C124.817 477.047 126.585 476.605 128.691 478.233C129.79 483.494 130.453 488.8 130.682 494.152C126.914 514.334 124.26 534.675 122.721 555.174C121.441 563.344 120.557 571.746 120.068 580.38C115.646 580.38 111.223 580.38 106.801 580.38C107.022 602.494 106.801 624.604 106.138 646.709C100.519 657.507 95.2121 668.561 90.2172 679.873C88.629 690.004 87.3023 700.174 86.2371 710.385C85.6881 755.098 86.7936 799.76 89.5538 844.369C91.6804 866.864 92.5648 889.416 92.2072 912.025C91.4287 892.234 89.6597 872.335 86.9004 852.329C88.0385 845.006 87.1541 837.93 84.247 831.104C85.0001 828.624 85.8846 826.191 86.9004 823.807C84.3967 811.732 82.4066 799.572 80.9303 787.326C80.3824 790.951 79.4979 794.489 78.2769 797.939C79.5589 790.656 78.6744 783.58 75.6235 776.714C75.1813 787.768 74.739 798.824 74.2968 809.878C72.6892 782.043 72.0259 754.184 72.3067 726.304C71.1443 697.504 76.6723 670.087 88.8905 644.056C89.5534 634.337 89.7745 624.609 89.5538 614.871C90.8713 603.616 91.3136 592.118 90.8805 580.38C94.3431 578.758 97.881 578.758 101.494 580.38C106.371 579.155 111.014 577.387 115.424 575.073C115.867 575.515 116.309 575.958 116.751 576.4C119.332 570.735 119.332 564.987 116.751 559.154C115.867 562.692 114.982 562.692 114.098 559.154C113.105 561.585 111.778 563.796 110.118 565.787C90.7507 564.913 71.5135 564.028 52.4062 563.134C70.6031 563.552 88.7347 563.11 106.801 561.807C109.363 554.948 110.026 547.872 108.791 540.582C103.877 539.801 99.2333 538.474 94.8606 536.602C97.5503 536.817 100.204 536.596 102.821 535.939C101.356 534.439 101.799 533.332 104.148 532.623C104.59 530.854 105.032 529.085 105.474 527.316C102.941 513.744 99.1825 500.478 94.1973 487.519C93.5385 484.454 93.3173 481.359 93.5339 478.233C95.1492 477.356 96.9181 476.471 98.8407 475.58C97.0719 472.926 97.0719 470.273 98.8407 467.62C97.6272 466.522 96.7427 465.195 96.1873 463.64C97.6361 460.266 98.5205 456.728 98.8407 453.028C96.7418 409.081 95.4151 365.303 94.8606 321.696C86.4061 284.566 83.5316 246.979 86.2371 208.937C88.2389 165.295 99.2947 124.171 119.405 85.5644C121.328 73.1139 123.539 60.7325 126.038 48.4201C128.464 42.6784 131.56 37.372 135.325 32.5011C137.683 29.4633 140.557 27.2523 143.949 25.8682Z" fill="#0A2866"/>
<path fill-rule="evenodd" clip-rule="evenodd" d="M328.358 349.554C416.822 349.217 505.269 350.324 593.698 352.871C611.253 353.349 622.529 361.972 627.528 378.739C638.463 435.937 647.528 493.423 654.726 551.195C655.251 563.273 651.714 573.886 644.112 583.033C641.152 584.894 638.057 586.442 634.825 587.676C603.712 593.574 572.313 597.11 540.63 598.288C425.113 605.27 309.69 603.943 194.361 594.309C181.432 593.288 169.05 590.192 157.213 585.022C151.613 580.24 147.855 574.271 145.936 567.114C143.926 557.473 143.485 547.744 144.61 537.929C151.583 488.235 159.543 438.71 168.49 389.352C170.545 369.176 181.381 357.015 200.994 352.871C243.66 351.617 286.114 350.512 328.358 349.554Z" fill="#123172"/>
<path fill-rule="evenodd" clip-rule="evenodd" d="M630.845 483.539C636.535 509.618 639.41 536.15 639.469 563.134C638.198 569.474 634.438 573.232 628.192 574.41C596.58 579.734 564.74 582.829 532.669 583.696C427.802 588.837 322.992 587.952 218.242 581.043C203.593 579.711 189 577.943 174.46 575.737C161.601 572.774 156.294 564.593 158.54 551.195C160.578 525.15 164.115 499.503 169.154 474.253C169.472 478.338 169.03 482.317 167.827 486.192C168.34 487.811 169.445 488.696 171.144 488.846C253.514 459.832 338.644 447.229 426.533 451.038C479.081 453.282 530.823 460.579 581.757 472.927C597.995 478.294 614.358 483.158 630.845 487.519C630.845 486.192 630.845 484.866 630.845 483.539Z" fill="#389ADB"/>
<path fill-rule="evenodd" clip-rule="evenodd" d="M630.846 483.539C630.846 484.865 630.846 486.192 630.846 487.519C614.359 483.158 597.996 478.294 581.758 472.926C530.824 460.578 479.083 453.282 426.535 451.038C338.645 447.229 253.516 459.831 171.145 488.845C169.447 488.695 168.342 487.81 167.828 486.192C169.031 482.317 169.473 478.337 169.155 474.253C172.697 441.055 178.667 408.334 187.065 376.086C190.069 372.195 193.829 369.32 198.342 367.463C332.338 364.856 466.334 364.856 600.332 367.463C606.073 369.55 610.273 373.309 612.936 378.739C620.19 413.461 626.16 448.395 630.846 483.539Z" fill="#45AEF0"/>
<path fill-rule="evenodd" clip-rule="evenodd" d="M41.7918 496.805C35.6076 497.708 29.4164 499.255 23.218 501.448C20.2953 505.109 19.8531 509.089 21.8913 513.387C42.6716 514.051 63.4566 514.272 84.2462 514.051C84.2462 511.397 84.2462 508.744 84.2462 506.091C86.4273 515.538 89.0807 525.044 92.2064 534.613C92.6523 535.979 93.5369 536.642 94.8598 536.602C99.2325 538.474 103.876 539.801 108.79 540.582C110.026 547.872 109.362 554.948 106.8 561.808C88.7339 563.11 70.6023 563.552 52.4054 563.134C33.9971 565.733 21.8356 558.215 15.9212 540.582C15.0367 530.411 15.0367 520.242 15.9212 510.071C16.7453 503.937 20.0621 499.735 25.8714 497.468C31.1599 496.806 36.4667 496.585 41.7918 496.805Z" fill="#0D2F6F"/>
<path fill-rule="evenodd" clip-rule="evenodd" d="M763.514 498.132C767.944 498.649 772.367 499.312 776.781 500.122C780.115 504.462 782.325 509.326 783.414 514.714C782.779 524.732 781.672 534.682 780.098 544.562C775.911 549.305 773.037 554.391 771.474 559.818C762.035 562.861 752.306 563.966 742.287 563.134C724.598 563.134 706.908 563.134 689.219 563.134C689.219 555.617 689.219 548.1 689.219 540.582C693.223 540.801 697.203 540.58 701.159 539.919C702.328 538.98 703.211 537.874 703.812 536.603C705.86 533.857 707.628 530.762 709.119 527.317C710.411 518.633 712.18 510.232 714.426 502.112C714.155 506.115 713.714 510.095 713.099 514.051C734.774 514.272 756.443 514.051 778.108 513.388C778.109 511.532 778.552 509.542 779.434 507.418C778.771 506.091 778.108 504.765 777.444 503.438C772.829 501.463 768.185 499.693 763.514 498.132Z" fill="#0D2F6F"/>
<path fill-rule="evenodd" clip-rule="evenodd" d="M21.8922 483.539C18.7558 488.214 14.5547 491.751 9.2885 494.152C6.55692 498.727 4.56687 503.592 3.31835 508.744C1.9939 521.095 1.55167 533.476 1.99165 545.888C0.673497 533.748 0.231264 521.367 0.664954 508.744C2.94519 496.294 10.0209 487.893 21.8922 483.539Z" fill="#223059"/>
<path fill-rule="evenodd" clip-rule="evenodd" d="M92.2044 478.232C92.6466 478.232 93.0889 478.232 93.5311 478.232C93.3144 481.359 93.5356 484.454 94.1944 487.518C99.1796 500.478 102.939 513.744 105.471 527.316C105.029 529.084 104.587 530.854 104.145 532.622C101.796 533.332 101.353 534.438 102.818 535.939C100.201 536.595 97.5474 536.817 94.8578 536.602C93.5348 536.642 92.6503 535.979 92.2044 534.612C89.0787 525.044 86.4253 515.537 84.2442 506.091C83.7718 501.81 81.5607 498.935 77.6107 497.468C65.6786 496.805 53.7383 496.584 41.7898 496.805C36.4647 496.584 31.1579 496.806 25.8694 497.468C20.06 499.735 16.7433 503.936 15.9191 510.07C15.0346 520.241 15.0346 530.411 15.9191 540.582C21.8336 558.215 33.995 565.732 52.4034 563.134C71.5107 564.028 90.7478 564.913 110.115 565.787C111.775 563.796 113.102 561.584 114.095 559.154C114.979 562.692 115.864 562.692 116.748 559.154C119.33 564.987 119.33 570.735 116.748 576.4C116.306 575.958 115.864 575.515 115.422 575.073C111.011 577.386 106.368 579.155 101.491 580.379C97.8781 578.758 94.3402 578.758 90.8777 580.379C81.8383 579.065 72.5515 578.622 63.017 579.053C50.9252 579.541 38.9849 578.436 27.1961 575.736C16.896 571.845 9.37809 564.991 4.64219 555.174C3.75772 552.079 2.87327 548.983 1.98879 545.888C1.54881 533.475 1.99104 521.094 3.31549 508.744C4.56401 503.591 6.55406 498.727 9.28564 494.151C14.5518 491.75 18.753 488.214 21.8893 483.539C41.7022 481.257 61.6027 480.594 81.5908 481.549C85.0535 483.514 88.5912 485.062 92.2044 486.192C92.2044 483.539 92.2044 480.886 92.2044 478.232Z" fill="#072159"/>
<path fill-rule="evenodd" clip-rule="evenodd" d="M41.7894 496.805C53.738 496.585 65.6783 496.805 77.6103 497.468C81.5603 498.936 83.7714 501.81 84.2438 506.091C84.2438 508.744 84.2438 511.398 84.2438 514.051C63.4542 514.272 42.6692 514.051 21.8889 513.387C19.8507 509.089 20.2929 505.11 23.2156 501.448C29.414 499.255 35.6052 497.709 41.7894 496.805Z" fill="#103981"/>
<path fill-rule="evenodd" clip-rule="evenodd" d="M799.336 510.071C799.336 521.126 799.336 532.181 799.336 543.236C793.944 565.208 779.792 576.926 756.881 578.39C740.967 579.054 725.047 579.275 709.12 579.054C709.12 599.394 709.12 619.736 709.12 640.076C708.162 639.522 707.499 638.638 707.13 637.423C706.467 619.741 706.245 602.053 706.467 584.36C699.252 581.305 691.735 578.21 683.913 575.074C683.635 574.296 683.192 573.633 682.586 573.084C686.566 571.757 689.219 569.104 690.546 565.124C708.023 564.9 725.27 564.237 742.287 563.135C752.307 563.966 762.035 562.861 771.475 559.818C773.038 554.391 775.911 549.305 780.098 544.562C781.673 534.682 782.78 524.733 783.415 514.714C782.326 509.326 780.116 504.463 776.782 500.122C772.368 499.313 767.944 498.649 763.515 498.132C747.601 497.148 731.68 496.926 715.753 497.469C714.643 498.81 714.201 500.358 714.427 502.112C712.181 510.232 710.412 518.633 709.12 527.317C707.629 530.762 705.86 533.857 703.813 536.603C702.417 536.801 701.091 536.58 699.833 535.94C699.833 530.192 699.833 524.442 699.833 518.694C702.325 510.27 704.315 501.648 705.803 492.826C706.245 493.267 706.688 493.711 707.13 494.152C707.639 491.901 707.419 489.691 706.467 487.519C709.789 485.338 713.327 483.349 717.08 481.55C737.043 481.146 756.943 482.031 776.782 484.203C790.331 487.789 797.848 496.411 799.336 510.071Z" fill="#0C2359"/>
<path fill-rule="evenodd" clip-rule="evenodd" d="M763.516 498.132C768.187 499.693 772.831 501.463 777.447 503.438C778.11 504.765 778.773 506.091 779.437 507.418C778.554 509.542 778.111 511.532 778.11 513.388C756.445 514.051 734.776 514.273 713.102 514.051C713.716 510.095 714.158 506.115 714.428 502.112C714.203 500.358 714.645 498.81 715.755 497.469C731.682 496.926 747.602 497.148 763.516 498.132Z" fill="#113A82"/>
<path fill-rule="evenodd" clip-rule="evenodd" d="M151.906 395.984C150.966 409.695 149.86 423.404 148.589 437.108C147.05 434.061 145.724 434.503 144.609 438.435C143.766 444.398 142.439 450.146 140.629 455.681C139.744 460.987 139.744 466.293 140.629 471.6C141.071 471.158 141.514 470.715 141.956 470.273C144.6 472.801 143.937 474.35 139.966 474.916C141.778 478.892 142.663 483.093 142.619 487.519C140.439 487.545 138.671 486.66 137.312 484.865C136.67 489.676 135.122 494.098 132.669 498.131C130.751 507.433 128.982 516.719 127.362 525.989C126.478 530.854 126.478 535.717 127.362 540.582C130.073 545.311 129.852 549.954 126.699 554.511C129.083 560.32 131.736 566.069 134.659 571.757C133.168 572.087 131.841 572.75 130.679 573.746C132.562 584.744 134.11 595.8 135.322 606.911C138.005 609.593 140.658 612.246 143.283 614.87C144.307 614.678 145.192 614.236 145.936 613.544C146.378 610.891 146.821 608.238 147.263 605.584C147.922 608.649 148.142 611.744 147.926 614.87C155.057 614.435 162.132 614.877 169.153 616.197C173.699 618.532 174.14 621.405 170.48 624.82C177.19 625.563 180.287 629.322 179.767 636.096C183.305 636.096 186.842 636.096 190.38 636.096C190.09 637.655 190.532 638.981 191.707 640.076C198.946 637.184 206.464 635.414 214.261 634.769C214.832 631.087 216.378 627.99 218.904 625.483C225.133 625.17 231.545 625.613 238.142 626.81C244.047 627.888 249.574 629.658 254.725 632.116C256.977 630.97 258.524 629.202 259.369 626.81C268.214 625.041 277.058 625.041 285.903 626.81C290.051 627.446 293.81 628.773 297.18 630.789C300.079 628.083 303.395 626.314 307.13 625.483C306.839 627.042 307.281 628.368 308.457 629.463C313.1 626.438 317.965 625.997 323.05 628.136C340.201 625.912 357.448 624.807 374.792 624.82C376.422 622.791 378.412 621.243 380.762 620.177C387.712 622.301 395.009 623.627 402.652 624.157C416.776 625.482 430.928 625.924 445.107 625.483C445.107 623.715 445.107 621.945 445.107 620.177C463.304 619.759 481.436 620.201 499.501 621.503C502.209 620.527 504.863 619.422 507.462 618.187C518.544 617.964 529.6 617.301 540.629 616.197C545.936 618.187 537.838 616.131 548.589 617.524C543.356 618.838 558.613 619.28 553.233 618.85C553.007 620.604 556.766 618.172 557.876 619.513C560.88 619.827 563.755 620.49 566.5 621.503C567.141 622.761 567.361 624.088 567.163 625.483C575.191 624.557 582.709 625.884 589.717 629.463C590.755 631.889 589.871 633.879 587.064 635.432C596.397 637.972 592.417 638.413 601.657 635.432C602.984 633.443 602.321 634.769 602.984 632.779C602.984 631.011 604.311 629.905 604.311 628.136C608.673 628.703 612.653 627.818 616.251 625.483C617.551 628.914 617.993 632.452 617.578 636.096C619.346 636.096 621.116 636.096 622.885 636.096C622.885 632.558 622.885 629.021 622.885 625.483C625.538 625.483 628.191 625.483 630.845 625.483C631.63 621.998 632.072 618.46 632.171 614.87C634.132 615.218 635.901 614.776 637.478 613.544C639.428 607.662 642.745 606.777 647.428 610.891C649.517 608.922 651.285 606.711 652.735 604.258C653.826 607.729 654.489 611.267 654.725 614.87C656.494 614.87 658.264 614.87 660.032 614.87C659.756 618.081 660.199 621.176 661.359 624.157C662.453 625.332 663.78 625.774 665.339 625.483C665.127 623.229 665.347 621.018 666.002 618.85C666.82 629.91 667.703 640.966 668.656 652.015C669.097 646.708 669.541 641.402 669.982 636.096C670.424 638.307 670.867 640.517 671.309 642.729C671.809 640.816 672.914 639.489 674.626 638.749C674.4 667.558 672.852 696.301 669.982 724.977C668.656 730.725 667.329 736.474 666.002 742.222C663.362 747.624 659.602 752.046 654.725 755.488C648.722 757.877 642.53 759.867 636.152 761.458C618.796 763.803 601.549 766.677 584.41 770.081C460.573 780.541 336.749 780.541 212.934 770.081C198.578 766.548 183.984 764.116 169.153 762.784C159.48 760.923 150.193 758.048 141.293 754.162C133.742 744.562 129.984 733.508 130.016 720.997C125.997 665.794 123.565 610.521 122.719 555.174C124.258 534.675 126.911 514.334 130.679 494.151C136.096 469.789 141.403 445.467 146.599 421.189C147.984 412.697 149.753 404.294 151.906 395.984Z" fill="black" fill-opacity="0.15"/>
<path fill-rule="evenodd" clip-rule="evenodd" d="M122.719 555.175C123.565 610.521 125.997 665.795 130.015 720.998C129.984 733.509 133.742 744.563 141.292 754.162C134.622 751.379 127.766 749.169 120.728 747.529C110.228 749.185 104.036 755.376 102.155 766.101C100.363 785.806 101.69 805.263 106.135 824.471C112.639 843.798 125.685 856.4 145.272 862.279C149.828 863.019 154.25 864.124 158.539 865.595C158.392 866.414 157.95 867.077 157.213 867.585C154.781 867.806 152.348 868.027 149.916 868.248C142.567 866.867 135.27 866.867 128.025 868.248C127.107 867.552 126.443 866.667 126.035 865.595C124.088 868.667 121.656 869.109 118.738 866.922C116.306 868.585 113.652 869.47 110.778 869.575C110.778 868.248 110.778 866.922 110.778 865.595C109.009 865.595 107.24 865.595 105.471 865.595C105.471 863.827 105.471 862.057 105.471 860.289C98.3258 860.695 95.0091 857.158 95.5212 849.676C94.6312 848.678 93.5257 848.235 92.2044 848.349C91.3199 847.023 90.4355 845.696 89.551 844.37C86.7908 799.761 85.6853 755.099 86.2343 710.385C87.2995 700.174 88.6262 690.005 90.2144 679.874C95.2093 668.562 100.516 657.507 106.135 646.709C106.798 624.604 107.019 602.494 106.798 580.38C111.22 580.38 115.643 580.38 120.065 580.38C120.554 571.746 121.438 563.344 122.719 555.175Z" fill="black" fill-opacity="0.3"/>
<path fill-rule="evenodd" clip-rule="evenodd" d="M141.292 754.162C150.193 758.049 159.48 760.924 169.153 762.785C183.984 764.117 198.578 766.549 212.934 770.081C222.752 775.992 231.154 783.51 238.141 792.633C246.551 812.584 249.647 833.366 247.428 854.982C245.97 860.333 243.317 864.976 239.468 868.912C232.119 870.962 224.601 872.069 216.914 872.228C197.284 871.322 177.826 869.111 158.539 865.595C154.25 864.124 149.828 863.019 145.272 862.279C125.685 856.401 112.639 843.798 106.135 824.471C101.69 805.263 100.363 785.806 102.155 766.101C104.036 755.376 110.228 749.185 120.728 747.529C127.766 749.169 134.622 751.379 141.292 754.162Z" fill="#17235A"/>
<path fill-rule="evenodd" clip-rule="evenodd" d="M178.443 776.714C175.348 776.714 172.251 776.714 169.156 776.714C154.066 775.155 139.915 770.734 126.701 763.448C126.259 763.448 125.817 763.448 125.375 763.448C123.089 761.714 120.656 761.714 118.078 763.448C116.321 776.205 115.658 789.029 116.088 801.919C115.205 796.853 114.763 791.546 114.761 786C114.581 777.467 115.466 769.066 117.415 760.795C120.868 759.386 124.406 759.166 128.028 760.132C130.501 763.602 133.596 764.708 137.315 763.448C138.613 764.081 139.718 764.964 140.632 766.101C145.186 763.948 149.83 762.179 154.562 760.795C154.142 764.87 154.583 768.85 155.889 772.734C163.558 774.166 171.077 775.492 178.443 776.714Z" fill="#272950"/>
<path fill-rule="evenodd" clip-rule="evenodd" d="M551.243 831.104C551.897 816.709 555.657 803.001 562.52 789.98C568.816 782.13 576.113 775.497 584.41 770.081C601.549 766.677 618.796 763.803 636.151 761.458C642.53 759.867 648.722 757.878 654.725 755.488C660.162 753.435 665.469 751.003 670.646 748.192C685.361 746.376 693.985 752.789 696.516 767.428C698.383 787.667 696.613 807.566 691.21 827.124C684.435 845.837 671.39 857.556 652.072 862.278C623.363 869.748 594.176 872.843 564.51 871.564C558.505 869.098 554.305 864.897 551.906 858.962C551.243 849.686 551.022 840.4 551.243 831.104Z" fill="#172359"/>
<path fill-rule="evenodd" clip-rule="evenodd" d="M677.279 763.448C673.015 764.695 669.035 766.685 665.339 769.418C662.722 770.075 660.068 770.296 657.379 770.081C662.211 767.794 667.074 765.361 671.973 762.785C674.05 761.77 675.819 761.992 677.279 763.448Z" fill="#D1BB84"/>
<path fill-rule="evenodd" clip-rule="evenodd" d="M212.934 770.081C336.748 780.541 460.573 780.541 584.41 770.081C576.112 775.497 568.816 782.13 562.519 789.98C555.656 803.002 551.896 816.709 551.242 831.104C551.119 822.663 551.56 814.262 552.569 805.899C547.176 806.091 542.532 804.323 538.638 800.592C538.197 812.973 537.754 825.356 537.312 837.737C534.942 845.487 533.616 853.446 533.332 861.615C528.337 865.852 525.02 871.159 523.381 877.534C523.895 879.888 524.778 882.099 526.035 884.167C522.786 886.038 519.911 885.595 517.411 882.841C516.748 883.504 516.085 884.167 515.421 884.83C516.429 886.742 517.313 888.732 518.075 890.8C517.411 891.242 516.748 891.685 516.085 892.127C513.788 890.48 511.356 889.154 508.788 888.147C514.496 883.542 519.582 878.236 524.045 872.228C534.408 851.143 537.946 829.034 534.658 805.899C531.697 798.959 526.612 794.316 519.401 791.97C476.955 792.484 434.5 793.148 392.038 793.96C360.61 794.059 329.211 793.174 297.842 791.306C291.209 791.528 284.575 791.748 277.942 791.97C273.833 793.658 270.295 796.091 267.328 799.266C267.328 797.939 267.328 796.613 267.328 795.286C262.275 794.388 258.516 796.158 256.051 800.592C255.027 800.4 254.142 799.958 253.398 799.266C252.956 804.13 252.513 808.994 252.071 813.858C251.148 809.734 249.601 805.976 247.428 802.582C247.87 802.141 248.313 801.697 248.754 801.256C247.107 800.843 245.78 801.506 244.774 803.246C243.1 799.777 241.553 796.239 240.131 792.633C239.216 790.991 238.552 790.991 238.141 792.633C231.153 783.51 222.751 775.992 212.934 770.081Z" fill="#183A7E"/>
<path fill-rule="evenodd" clip-rule="evenodd" d="M657.378 770.081C659.139 786.044 658.917 801.963 656.715 817.838C647.525 828.957 635.805 835.812 621.557 838.4C603.436 840.58 585.304 840.801 567.163 839.063C567.163 843.928 567.163 848.791 567.163 853.656C566.721 853.656 566.278 853.656 565.836 853.656C565.268 839.359 566.373 825.209 569.153 811.205C571.616 800.493 577.587 792.533 587.063 787.327C592.334 786.444 597.199 784.675 601.657 782.02C620.387 779.481 638.961 775.501 657.378 770.081Z" fill="#FDE389"/>
<path fill-rule="evenodd" clip-rule="evenodd" d="M169.152 776.714C172.248 776.714 175.344 776.714 178.439 776.714C187.226 778.242 196.071 779.79 204.973 781.357C207.121 781.67 208.448 782.775 208.953 784.673C195.596 781.888 182.329 779.234 169.152 776.714Z" fill="#373847"/>
<path fill-rule="evenodd" clip-rule="evenodd" d="M126.699 763.448C139.913 770.734 154.064 775.155 169.154 776.714C182.33 779.235 195.597 781.888 208.955 784.674C218.334 788.972 224.746 796.046 228.192 805.899C230.667 815.487 232.216 825.217 232.835 835.084C232.835 836.852 232.835 838.622 232.835 840.39C216.969 840.976 201.049 840.313 185.074 838.4C179.879 836.938 174.572 836.053 169.154 835.747C162.145 832.461 155.068 829.586 147.926 827.124C148.124 825.729 147.904 824.402 147.263 823.144C142.105 818.576 139.451 812.828 139.303 805.899C137.816 794.797 139.363 784.184 143.946 774.061C142.848 772.847 141.521 771.964 139.966 771.408C138.93 773.049 137.603 774.375 135.986 775.387C135.544 774.946 135.101 774.503 134.659 774.061C135.544 773.176 136.428 772.293 137.313 771.408C134.248 768.777 130.71 767.451 126.699 767.428C126.699 766.101 126.699 764.775 126.699 763.448Z" fill="#FDE389"/>
<path fill-rule="evenodd" clip-rule="evenodd" d="M601.66 782.021C597.202 784.675 592.337 786.445 587.066 787.327C587.951 786.442 588.835 785.559 589.72 784.674C593.57 783.244 597.55 782.36 601.66 782.021Z" fill="#EAD7AB"/>
<path fill-rule="evenodd" clip-rule="evenodd" d="M125.375 763.448C123.606 763.448 121.837 763.448 120.068 763.448C117.714 777.468 116.829 791.619 117.414 805.898C116.972 805.898 116.53 805.898 116.088 805.898C116.088 804.572 116.088 803.245 116.088 801.919C115.658 789.028 116.321 776.204 118.078 763.448C120.656 761.714 123.088 761.714 125.375 763.448Z" fill="#E4CC92"/>
<path fill-rule="evenodd" clip-rule="evenodd" d="M125.373 763.448C125.815 763.448 126.258 763.448 126.7 763.448C126.7 764.775 126.7 766.101 126.7 767.428C130.711 767.451 134.249 768.777 137.313 771.408C136.429 772.293 135.545 773.176 134.66 774.061C135.102 774.503 135.545 774.946 135.987 775.387C137.604 774.375 138.931 773.049 139.967 771.408C141.522 771.964 142.848 772.847 143.947 774.061C139.363 784.184 137.816 794.797 139.304 805.899C139.452 812.828 142.106 818.576 147.264 823.144C147.905 824.402 148.125 825.729 147.927 827.124C155.069 829.586 162.145 832.461 169.154 835.747C174.573 836.053 179.879 836.938 185.075 838.4C201.049 840.313 216.97 840.976 232.836 840.39C232.455 845.731 231.128 850.816 228.856 855.646C218.695 856.309 208.523 856.529 198.342 856.309C192.605 855.743 186.855 855.299 181.095 854.982C179.768 854.982 178.441 854.982 177.114 854.982C177.114 854.541 177.114 854.098 177.114 853.656C165.146 850.928 153.206 847.833 141.294 844.37C137.292 843.251 133.754 841.262 130.68 838.4C128.503 836.902 127.176 834.913 126.7 832.431C125.458 827.285 123.247 822.863 120.066 819.165C118.046 815.012 117.162 810.591 117.413 805.899C116.828 791.62 117.712 777.469 120.066 763.448C121.835 763.448 123.604 763.448 125.373 763.448Z" fill="#FCCC68"/>
<path fill-rule="evenodd" clip-rule="evenodd" d="M677.28 763.448C678.603 763.408 679.488 764.071 679.934 765.438C682.897 780.171 683.339 794.985 681.26 809.878C679.279 813.968 677.953 818.391 677.28 823.144C672.695 834.139 664.735 841.877 653.4 846.359C646.389 848.774 639.314 850.764 632.172 852.329C623.853 853.935 615.451 854.82 606.965 854.982C593.335 854.432 580.068 854.432 567.164 854.982C567.164 854.54 567.164 854.097 567.164 853.656C567.164 848.791 567.164 843.928 567.164 839.063C585.305 840.801 603.437 840.579 621.559 838.4C635.806 835.812 647.526 828.957 656.716 817.838C658.919 801.963 659.14 786.044 657.38 770.081C660.069 770.296 662.722 770.074 665.34 769.418C669.036 766.685 673.016 764.695 677.28 763.448Z" fill="#FACB69"/>
<path fill-rule="evenodd" clip-rule="evenodd" d="M725.043 706.405C726.129 710.126 726.793 714.106 727.033 718.345C727.254 732.937 727.474 747.529 727.696 762.122C726.526 815.862 724.757 869.367 722.389 922.638C722.775 896.303 722.333 869.993 721.062 843.707C723.5 835.702 724.826 827.521 725.043 819.165C725.043 781.579 725.043 743.991 725.043 706.405Z" fill="#23325D"/>
<path fill-rule="evenodd" clip-rule="evenodd" d="M72.3047 827.124C74.5098 848.087 75.3943 869.312 74.9581 890.8C73.1993 869.819 72.3148 848.593 72.3047 827.124Z" fill="#243258"/>
<path fill-rule="evenodd" clip-rule="evenodd" d="M678.608 569.768C680.651 572.869 681.535 576.407 681.262 580.38C684.8 580.38 688.337 580.38 691.875 580.38C691.403 602.975 692.066 625.526 693.865 648.036C694.543 651.191 695.428 654.287 696.519 657.322C706.508 669.614 711.371 683.765 711.112 699.773C711.845 740.017 711.623 780.258 710.449 820.492C709.142 825.976 708.701 831.725 709.122 837.737C707.415 850.417 705.425 863.241 703.152 876.208C698.907 891.917 689.84 903.635 675.955 911.363C652.632 918.591 628.751 923.013 604.313 924.628C473.454 932.133 342.554 932.576 211.61 925.955C187.613 924.392 163.732 921.739 139.968 917.995C118.904 913.295 104.974 900.693 98.1772 880.188C95.2473 869.741 93.2572 859.128 92.207 848.35C93.5283 848.236 94.6338 848.679 95.5238 849.676C95.0117 857.158 98.3284 860.695 105.474 860.289C105.474 862.057 105.474 863.827 105.474 865.595C107.243 865.595 109.012 865.595 110.781 865.595C110.781 866.922 110.781 868.249 110.781 869.575C113.655 869.47 116.308 868.586 118.741 866.922C121.659 869.11 124.091 868.668 126.038 865.595C126.446 866.667 127.109 867.552 128.028 868.249C135.273 866.868 142.57 866.868 149.918 868.249C152.35 868.027 154.783 867.807 157.215 867.585C157.953 867.077 158.395 866.414 158.542 865.595C177.828 869.111 197.287 871.322 216.917 872.228C224.604 872.069 232.122 870.963 239.471 868.912C243.319 864.976 245.973 860.333 247.431 854.983C249.649 833.366 246.554 812.584 238.144 792.633C238.555 790.991 239.219 790.991 240.134 792.633C241.556 796.239 243.103 799.777 244.777 803.246C245.783 801.507 247.11 800.844 248.758 801.256C248.316 801.698 247.873 802.141 247.431 802.583C249.604 805.976 251.151 809.734 252.074 813.859C252.516 808.994 252.959 804.131 253.401 799.266C254.145 799.959 255.03 800.401 256.054 800.593C258.519 796.158 262.278 794.388 267.331 795.287C267.331 796.613 267.331 797.94 267.331 799.266C265.616 801.047 264.511 803.258 264.015 805.899C262.157 830.806 267.021 854.243 278.608 876.208C289.559 890.068 303.931 896.923 321.726 896.77C377.039 899.824 432.318 899.381 487.564 895.444C495.087 894.189 502.164 891.757 508.791 888.147C511.359 889.154 513.791 890.481 516.088 892.127C516.751 891.685 517.414 891.242 518.078 890.801C517.316 888.732 516.433 886.742 515.424 884.831C516.088 884.168 516.751 883.504 517.414 882.841C519.914 885.595 522.789 886.038 526.038 884.168C524.781 882.099 523.898 879.888 523.384 877.535C525.023 871.159 528.34 865.853 533.335 861.616C533.619 853.447 534.945 845.487 537.315 837.737C537.757 825.356 538.2 812.974 538.641 800.593C542.535 804.323 547.179 806.092 552.572 805.899C551.564 814.262 551.122 822.663 551.245 831.104C551.025 840.401 551.245 849.687 551.908 858.963C554.307 864.898 558.508 869.099 564.512 871.565C594.178 872.844 623.366 869.749 652.074 862.279C671.392 857.556 684.438 845.837 691.212 827.125C696.616 807.567 698.385 787.668 696.519 767.428C693.987 752.79 685.364 746.377 670.648 748.193C665.471 751.004 660.165 753.436 654.728 755.489C659.605 752.047 663.365 747.625 666.005 742.223C667.331 736.475 668.658 730.726 669.985 724.978C672.854 696.302 674.403 667.559 674.628 638.75C677.664 615.892 678.99 592.897 678.608 569.768Z" fill="black" fill-opacity="0.3"/>
<path fill-rule="evenodd" clip-rule="evenodd" d="M72.3058 726.304C72.0249 754.184 72.6883 782.043 74.2959 809.878C74.738 798.824 75.1804 787.768 75.6226 776.714C78.6734 783.58 79.5579 790.656 78.276 797.939C79.4969 794.489 80.3814 790.951 80.9294 787.326C82.4057 799.572 84.3958 811.732 86.8995 823.808C85.8836 826.191 84.9991 828.624 84.2461 831.104C87.1532 837.93 88.0375 845.006 86.8995 852.329C89.6588 872.335 91.4278 892.234 92.2063 912.025C92.0048 929.208 94.2159 946.012 98.8398 962.435C111.163 983.88 129.737 996.482 154.561 1000.24C156.33 1001.13 156.33 1002.01 154.561 1002.9C156.789 1003.42 158.999 1003.2 161.195 1002.23C164.746 1002.56 167.841 1003.89 170.482 1006.21C172.612 1005.45 174.823 1005.01 177.115 1004.89C209.801 1008.2 242.525 1011.07 275.291 1013.51C319.298 1014.54 363.3 1015.65 407.298 1016.83C428.09 1016.68 448.875 1016.24 469.652 1015.5C475.592 1015.63 481.341 1016.51 486.9 1018.15C489.184 1018 489.404 1017.34 487.563 1016.16C539.225 1014.74 590.523 1009.88 641.46 1001.57C673.372 995.741 693.936 977.39 703.152 946.516C704.323 910.168 706.313 873.909 709.122 837.737C708.7 831.725 709.142 825.975 710.448 820.491C712.561 829.626 714.109 838.912 715.092 848.349C715.406 840.996 716.955 833.92 719.735 827.124C720.839 812.995 721.503 798.844 721.725 784.673C722.167 795.286 722.61 805.899 723.052 816.511C723.421 817.726 724.084 818.61 725.042 819.164C724.826 827.521 723.499 835.702 721.062 843.706C722.333 869.992 722.775 896.303 722.389 922.638C727.608 976.999 704.17 1012.15 652.074 1028.1C604.628 1036.05 556.867 1041.14 508.79 1043.36C501.715 1043.36 494.638 1043.36 487.563 1043.36C430.955 1043.58 374.349 1043.36 317.745 1042.69C311.469 1042.47 306.383 1041.37 302.488 1039.38C281.975 1038.2 261.411 1038.2 240.797 1039.38C240.827 1035.9 239.057 1034.13 235.49 1034.07C232.768 1035.41 229.893 1036.3 226.866 1036.72C221.436 1035.34 216.129 1033.57 210.946 1031.42C197.103 1033.83 183.173 1033.17 169.155 1029.43C166.766 1029.01 166.324 1028.12 167.828 1026.77C164.847 1025.04 161.752 1024.15 158.541 1024.12C159.64 1025.34 160.967 1026.22 162.521 1026.77C157.676 1027.44 152.813 1027.66 147.928 1027.44C112.947 1020.46 89.7294 1000.12 78.276 966.415C75.3372 941.303 74.2316 916.098 74.9592 890.8C75.3954 869.312 74.5109 848.087 72.3058 827.124C71.5135 803.467 70.629 779.809 69.6524 756.152C69.5055 745.913 70.3899 735.964 72.3058 726.304Z" fill="#062158"/>
<path fill-rule="evenodd" clip-rule="evenodd" d="M508.79 888.147C502.163 891.757 495.087 894.188 487.563 895.443C432.318 899.381 377.038 899.824 321.725 896.77C303.93 896.922 289.558 890.068 278.608 876.208C267.02 854.242 262.156 830.806 264.014 805.899C264.51 803.258 265.615 801.046 267.331 799.266C270.297 796.092 273.835 793.659 277.944 791.97C284.578 791.748 291.211 791.528 297.845 791.307C329.213 793.174 360.612 794.059 392.04 793.96C434.503 793.148 476.957 792.485 519.404 791.97C526.614 794.317 531.699 798.96 534.661 805.899C537.948 829.035 534.41 851.143 524.047 872.228C519.584 878.236 514.499 883.543 508.79 888.147Z" fill="#0B1E53"/>
<path fill-rule="evenodd" clip-rule="evenodd" d="M709.12 837.736C706.311 873.908 704.321 910.168 703.149 946.516C693.934 977.39 673.37 995.74 641.458 1001.57C590.521 1009.88 539.222 1014.74 487.561 1016.16C489.402 1017.34 489.182 1018 486.897 1018.15C481.339 1016.51 475.59 1015.63 469.65 1015.5C448.873 1016.24 428.087 1016.68 407.295 1016.82C363.298 1015.65 319.295 1014.54 275.289 1013.51C242.523 1011.07 209.799 1008.2 177.113 1004.89C174.82 1005.01 172.61 1005.45 170.479 1006.21C167.839 1003.89 164.744 1002.56 161.193 1002.23C158.997 1003.2 156.787 1003.42 154.559 1002.9C156.328 1002.01 156.328 1001.13 154.559 1000.24C129.734 996.482 111.161 983.879 98.8377 962.435C94.2137 946.012 92.0027 929.208 92.2042 912.025C92.5617 889.416 91.6773 866.864 89.5508 844.369C90.4353 845.696 91.3197 847.022 92.2042 848.349C93.2544 859.127 95.2444 869.74 98.1743 880.187C104.971 900.692 118.901 913.294 139.965 917.995C163.729 921.738 187.61 924.391 211.607 925.954C342.551 932.575 473.451 932.132 604.31 924.627C628.748 923.012 652.629 918.59 675.952 911.362C689.837 903.634 698.904 891.917 703.149 876.207C705.422 863.24 707.412 850.416 709.12 837.736Z" fill="#0C2C6C"/>
<path fill-rule="evenodd" clip-rule="evenodd" d="M471.642 954.476C472.083 954.476 472.526 954.476 472.968 954.476C472.968 954.918 472.968 955.361 472.968 955.803C473.285 958.412 472.844 960.845 471.642 963.099C474.04 975.102 474.704 987.263 473.632 999.58C472.968 1001.13 471.863 1002.23 470.315 1002.9C446.249 1004.36 422.146 1005.02 398.01 1004.89C377.888 1004.66 357.767 1004.44 337.645 1004.22C333.502 1003.95 329.522 1003.06 325.705 1001.57C324.175 987.3 323.953 972.929 325.041 958.456C326.34 956.041 328.33 954.493 331.011 953.813C377.918 952.742 424.794 952.964 471.642 954.476Z" fill="#95A4BD"/>
<path fill-rule="evenodd" clip-rule="evenodd" d="M98.8398 861.615C104.911 866.233 110.66 871.318 116.087 876.871C145.232 884.606 174.861 889.469 204.976 891.463C235.461 893.981 265.975 895.971 296.518 897.433C296.518 898.76 296.518 900.086 296.518 901.413C301.144 900.439 305.566 899.997 309.785 900.086C312.364 901 315.018 901.663 317.745 902.076C375.7 903.192 433.633 902.528 491.543 900.086C493.637 899.028 495.847 898.364 498.177 898.096C544.249 894.996 590.24 891.016 636.153 886.157C654.513 883.463 672.202 878.599 689.221 871.565C692.222 867.131 693.327 867.353 692.538 872.228C687.834 879.143 681.863 884.671 674.628 888.81C660.614 896.576 645.578 901.439 629.52 903.403C525.814 912.982 421.89 916.078 317.745 912.689C257.185 911.87 197.042 906.564 137.314 896.77C118.869 891.104 106.044 879.385 98.8398 861.615Z" fill="#113173"/>
<path fill-rule="evenodd" clip-rule="evenodd" d="M593.697 857.636C585.824 860.282 577.864 860.725 569.816 858.962C577.765 858.344 585.725 857.902 593.697 857.636Z" fill="#2E2C36"/>
<path fill-rule="evenodd" clip-rule="evenodd" d="M232.834 835.084C235.131 842.639 234.246 849.935 230.181 856.973C227.705 858.279 225.052 858.943 222.22 858.962C214.295 857.891 206.335 857.449 198.34 857.636C198.34 857.194 198.34 856.751 198.34 856.309C208.521 856.53 218.693 856.309 228.854 855.646C231.127 850.816 232.453 845.731 232.834 840.39C232.834 838.622 232.834 836.852 232.834 835.084Z" fill="#D7BA82"/>
<path fill-rule="evenodd" clip-rule="evenodd" d="M181.094 854.982C186.854 855.299 192.604 855.743 198.341 856.309C198.341 856.751 198.341 857.194 198.341 857.636C193.015 857.856 187.709 857.634 182.42 856.972C181.683 856.464 181.241 855.801 181.094 854.982Z" fill="#2F2C3C"/>
<path fill-rule="evenodd" clip-rule="evenodd" d="M143.948 847.022C154.695 850.704 165.752 852.914 177.115 853.655C177.115 854.097 177.115 854.54 177.115 854.982C168.241 855.241 159.396 855.462 150.581 855.645C152.35 854.76 154.12 853.877 155.888 852.992C151.387 851.933 146.965 850.607 142.621 849.012C143.359 848.504 143.801 847.841 143.948 847.022Z" fill="#23274D"/>
<path fill-rule="evenodd" clip-rule="evenodd" d="M632.174 852.329C629.108 854.409 625.57 855.516 621.56 855.646C613.615 856.573 605.654 857.236 597.68 857.635C600.775 856.751 603.871 855.867 606.967 854.982C615.452 854.82 623.854 853.936 632.174 852.329Z" fill="#342E3C"/>
<path fill-rule="evenodd" clip-rule="evenodd" d="M606.965 854.982C603.87 855.867 600.773 856.751 597.678 857.635C596.351 857.635 595.025 857.635 593.698 857.635C585.726 857.902 577.766 858.344 569.817 858.962C568.933 857.635 568.049 856.309 567.164 854.982C580.068 854.432 593.335 854.432 606.965 854.982Z" fill="#EAC878"/>
<path fill-rule="evenodd" clip-rule="evenodd" d="M141.293 844.369C153.205 847.833 165.146 850.928 177.114 853.655C165.751 852.914 154.694 850.704 143.946 847.022C143.061 846.137 142.178 845.254 141.293 844.369Z" fill="#E1C488"/>
<path fill-rule="evenodd" clip-rule="evenodd" d="M120.066 819.164C123.247 822.863 125.458 827.284 126.7 832.43C124.291 830.283 122.522 827.63 121.393 824.47C120.951 822.702 120.509 820.932 120.066 819.164Z" fill="#DFC18B"/>
<path fill-rule="evenodd" clip-rule="evenodd" d="M681.261 809.879C681.479 813.443 681.257 816.981 680.598 820.492C679.659 821.66 678.552 822.544 677.281 823.145C677.954 818.392 679.281 813.969 681.261 809.879Z" fill="#393749"/>
<path fill-rule="evenodd" clip-rule="evenodd" d="M116.087 805.898C116.529 805.898 116.972 805.898 117.414 805.898C117.163 810.591 118.047 815.012 120.067 819.164C120.51 820.933 120.952 822.702 121.394 824.471C116.848 819.261 115.079 813.07 116.087 805.898Z" fill="#373440"/>
<path fill-rule="evenodd" clip-rule="evenodd" d="M279.271 808.552C278.329 813.009 280.099 815.441 284.578 815.848C363.284 818.228 442.002 818.449 520.731 816.511C520.731 815.185 520.731 813.858 520.731 812.532C523.219 832.499 519.018 851.071 508.127 868.248C496.224 878.346 482.293 882.989 466.336 882.177C415.816 885.679 365.402 884.794 315.092 879.524C311.599 878.963 308.725 877.415 306.469 874.881C303.604 875.806 300.729 875.362 297.845 873.554C296.67 872.46 296.228 871.133 296.518 869.575C292.731 867.805 289.414 865.152 286.568 861.615C286.102 856.234 284.333 851.37 281.261 847.023C279.992 837.637 278.443 828.351 276.618 819.164C276.335 815.149 277.219 811.612 279.271 808.552Z" fill="#132C60"/>
<path fill-rule="evenodd" clip-rule="evenodd" d="M520.728 812.531C520.728 813.858 520.728 815.185 520.728 816.511C441.999 818.449 363.282 818.228 284.576 815.848C280.097 815.441 278.327 813.009 279.269 808.552C279.416 807.733 279.858 807.07 280.596 806.562C286.787 806.34 292.978 806.12 299.169 805.898C365.283 807.656 431.396 807.656 497.511 805.898C504.366 806.12 511.22 806.34 518.075 806.562C519.51 808.326 520.395 810.316 520.728 812.531Z" fill="#253A78"/>
<path fill-rule="evenodd" clip-rule="evenodd" d="M589.72 784.674C588.835 785.559 587.951 786.442 587.067 787.327C577.59 792.534 571.62 800.493 569.156 811.205C566.377 825.209 565.272 839.36 565.839 853.656C561.455 842.413 561.455 830.916 565.839 819.165C564.048 814.125 565.153 809.702 569.156 805.899C569.813 803.282 570.034 800.629 569.819 797.94C571.146 797.94 572.473 797.94 573.8 797.94C573.904 796.043 573.463 794.273 572.473 792.633C573.655 791.187 574.982 791.187 576.453 792.633C578.377 790.842 579.262 788.632 579.106 786C582.696 785.901 586.235 785.459 589.72 784.674Z" fill="#2C2C4A"/>
<path fill-rule="evenodd" clip-rule="evenodd" d="M471.64 954.476C424.793 952.963 377.917 952.742 331.01 953.812C328.329 954.493 326.339 956.041 325.04 958.456C323.952 972.929 324.173 987.299 325.703 1001.57C329.52 1003.06 333.5 1003.95 337.643 1004.22C357.765 1004.44 377.886 1004.66 398.008 1004.89C422.145 1005.02 446.247 1004.36 470.313 1002.9C471.862 1002.23 472.967 1001.13 473.63 999.58C474.702 987.262 474.039 975.101 471.64 963.099C472.842 960.845 473.284 958.412 472.967 955.802C473.785 955.95 474.449 956.391 474.957 957.129C475.842 972.163 475.842 987.199 474.957 1002.23C474.293 1002.9 473.63 1003.56 472.967 1004.22C448.285 1005.75 423.519 1006.41 398.672 1006.21C374.232 1006.42 349.91 1005.75 325.703 1004.22C324.598 1003.12 323.491 1002.01 322.386 1000.91C321.501 986.314 321.501 971.721 322.386 957.129C323.338 956.407 324.001 955.522 324.376 954.476C325.423 954.1 326.308 953.437 327.03 952.486C374.791 951.601 422.552 951.601 470.313 952.486C471.051 952.994 471.493 953.657 471.64 954.476Z" fill="#95A8CB"/>
<path fill-rule="evenodd" clip-rule="evenodd" d="M324.378 954.476C324.003 955.522 323.34 956.407 322.388 957.129C321.503 971.721 321.503 986.314 322.388 1000.91C323.493 1002.01 324.6 1003.12 325.705 1004.22C349.912 1005.75 374.234 1006.42 398.674 1006.21C423.521 1006.41 448.287 1005.75 472.969 1004.22C473.632 1003.56 474.295 1002.9 474.959 1002.23C475.844 987.198 475.844 972.163 474.959 957.129C474.451 956.391 473.787 955.949 472.969 955.802C472.969 955.36 472.969 954.917 472.969 954.476C474.737 954.476 476.507 954.476 478.276 954.476C478.497 970.843 478.276 987.204 477.612 1003.56C476.507 1004.66 475.401 1005.77 474.295 1006.88C425.208 1007.76 376.12 1007.76 327.032 1006.88C324.715 1006.25 322.504 1005.37 320.398 1004.22C320.268 987.789 320.268 971.206 320.398 954.476C321.725 954.476 323.052 954.476 324.378 954.476Z" fill="#1B3267"/>
<path fill-rule="evenodd" clip-rule="evenodd" d="M240.795 1039.38C209.348 1037.65 178.391 1033.67 147.926 1027.44C152.811 1027.66 157.674 1027.44 162.519 1026.77C160.965 1026.22 159.638 1025.33 158.539 1024.12C161.75 1024.15 164.845 1025.04 167.826 1026.77C166.322 1028.12 166.764 1029.01 169.153 1029.43C183.171 1033.17 197.101 1033.83 210.944 1031.42C216.127 1033.57 221.434 1035.34 226.864 1036.72C229.891 1036.3 232.766 1035.41 235.488 1034.07C239.055 1034.13 240.825 1035.9 240.795 1039.38Z" fill="#1B2B58"/>
<path fill-rule="evenodd" clip-rule="evenodd" d="M487.563 1043.36C480.488 1044.24 473.411 1045.12 466.336 1046.01C427.862 1046.01 389.387 1046.01 350.913 1046.01C313.94 1044.84 277.236 1042.63 240.797 1039.38C261.411 1038.19 281.975 1038.19 302.488 1039.38C306.384 1041.37 311.469 1042.47 317.745 1042.69C374.349 1043.36 430.955 1043.58 487.563 1043.36Z" fill="#1A2954"/>
</g>
<defs>
<clipPath id="clip0_1890_1698">
<rect width="800" height="1048" fill="white"/>
</clipPath>
</defs>
</svg>
