<svg width="950" height="1529" viewBox="0 0 950 1529" fill="none" xmlns="http://www.w3.org/2000/svg">
<path d="M177.535 43.1333L340.567 26.1719H653.719L788.503 57.6716L844.192 523.706L856.298 1079.39L866.791 1314.43L856.298 1414.58L125.074 1425.89L83.1055 1343.51V1286.97L102.476 548.744L129.917 140.055L177.535 43.1333Z" fill="#FEC03C"/>
<path fill-rule="evenodd" clip-rule="evenodd" d="M697.299 47.1707C692.642 47.6657 688.337 47.1273 684.386 45.5553C664.007 42.7866 643.56 39.825 623.047 36.6708C606.376 35.8634 589.696 35.5942 573.007 35.8631C559.017 35.8631 545.029 35.8631 531.039 35.8631C477.499 34.2809 423.694 34.2809 369.62 35.8631C356.662 36.3978 343.748 35.8594 330.88 34.2477C344.84 32.9039 358.828 32.0962 372.849 31.8247C373.386 31.2863 373.925 30.7477 374.463 30.2093C366.93 29.94 359.398 29.6709 351.864 29.4016C329.339 31.2382 306.74 33.3919 284.069 35.8631C275.296 35.8009 266.687 34.724 258.242 32.6324C257.888 30.7343 258.426 29.1189 259.856 27.7863C261.643 28.6293 263.527 29.1677 265.506 29.4016C279.372 26.5928 293.36 24.4391 307.474 22.9402C325.374 23.5953 343.13 23.5953 360.742 22.9402C370.203 19.7768 380.156 18.1614 390.605 18.094C403.442 19.019 416.356 18.7499 429.345 17.2864C515.681 14.323 601.502 18.3614 686.807 29.4016C689.562 29.1619 692.253 28.6234 694.878 27.7863C704.105 31.2312 713.522 33.9234 723.126 35.8631C718.369 37.19 713.527 37.9977 708.599 38.2862C716.996 40.4697 716.996 42.3542 708.599 43.94C713.485 46.1317 718.058 45.5933 722.319 42.3246C723.11 44.4136 723.38 46.5675 723.126 48.7861C714.458 48.9604 705.85 48.4218 697.299 47.1707Z" fill="#303555"/>
<path fill-rule="evenodd" clip-rule="evenodd" d="M836.119 224.862C836.119 228.093 836.119 231.324 836.119 234.554C834.505 234.554 832.891 234.554 831.277 234.554C831.277 238.323 831.277 242.093 831.277 245.862C829.38 246.216 827.766 245.678 826.434 244.247C824.634 238.932 823.02 233.548 821.592 228.093C816.683 184.281 810.494 140.666 803.028 97.248C802.702 100.084 801.895 102.776 800.607 105.325C798.456 103.709 796.302 102.094 794.15 100.479C793.074 101.017 791.999 101.556 790.922 102.094C789.329 107.374 788.791 112.759 789.308 118.248C788.336 88.444 773.809 68.2519 745.725 57.6714C729.331 54.2324 713.19 50.7326 697.3 47.1715C705.85 48.4226 714.458 48.9612 723.126 48.7869C723.38 46.5683 723.11 44.4144 722.319 42.3254C718.058 45.5941 713.485 46.1325 708.599 43.9407C716.996 42.3549 716.996 40.4704 708.599 38.2869C713.527 37.9984 718.369 37.1908 723.126 35.8639C713.522 33.9242 704.105 31.232 694.878 27.787C692.254 28.6241 689.563 29.1627 686.807 29.4024C601.503 18.3622 515.682 14.3237 429.345 17.2871C416.356 18.7507 403.443 19.0198 390.605 18.0948C380.156 18.1622 370.203 19.7775 360.743 22.9409C343.13 23.5961 325.374 23.5961 307.475 22.9409C293.36 24.4398 279.372 26.5936 265.506 29.4024C263.527 29.1685 261.643 28.6301 259.856 27.787C258.426 29.1197 257.889 30.7351 258.242 32.6331C266.688 34.7247 275.296 35.8017 284.069 35.8639C306.74 33.3927 329.339 31.2389 351.865 29.4024C359.398 29.6717 366.93 29.9408 374.463 30.2101C373.926 30.7485 373.387 31.2871 372.849 31.8255C358.828 32.097 344.84 32.9047 330.88 34.2485C343.749 35.8602 356.662 36.3986 369.621 35.8639C369.621 36.4023 369.621 36.9409 369.621 37.4793C342.677 38.5588 315.773 40.1742 288.912 42.3254C278.478 39.41 267.448 37.2562 255.821 35.8639C253.937 36.4023 252.055 36.9409 250.171 37.4793C264.491 39.4284 264.759 41.5821 250.978 43.9407C247.81 42.1228 244.851 39.969 242.1 37.4793C243.942 35.9842 243.942 34.6381 242.1 33.4408C238.916 32.6404 235.687 32.3713 232.415 32.6331C232.415 31.0178 232.415 29.4024 232.415 27.787C227.221 27.5433 226.683 26.1972 230.801 23.7486C226.131 21.8929 221.289 21.0852 216.273 21.3256C257.038 12.4993 298.469 6.84554 340.565 4.36417C460.969 -4.0587 580.956 -0.289395 700.528 15.6718C730.599 18.4815 759.115 26.5584 786.08 39.9023C805.595 54.0793 817.162 73.1945 820.784 97.248C827.091 139.666 832.203 182.204 836.119 224.862Z" fill="#2B324F"/>
<path fill-rule="evenodd" clip-rule="evenodd" d="M413.207 29.402C461.106 28.8637 508.994 29.4023 556.869 31.0174C532.926 31.5558 508.981 32.0943 485.038 32.6327C460.532 32.6318 436.588 31.5548 413.207 29.402Z" fill="#27366A"/>
<path fill-rule="evenodd" clip-rule="evenodd" d="M464.859 111.786C470.267 111.519 475.647 111.789 481.001 112.594C484.314 114.096 486.735 116.519 488.265 119.863C489.342 208.17 489.342 296.476 488.265 384.784C482.063 392.321 474.262 394.476 464.859 391.245C463.42 386.748 461.537 382.441 459.21 378.322C458.133 292.707 458.133 207.093 459.21 121.478C461.46 118.428 463.342 115.198 464.859 111.786Z" fill="#070707" fill-opacity="0.25"/>
<path fill-rule="evenodd" clip-rule="evenodd" d="M542.34 111.787C556.454 110.566 563.718 117.027 564.131 131.172C566.667 208.226 570.165 285.226 574.623 362.169C580.615 387.408 571.467 396.561 547.182 389.631C544.73 381.262 543.384 372.647 543.147 363.785C540.591 289.479 538.17 215.172 535.883 140.864C536.152 133.325 536.42 125.788 536.69 118.249C538.911 116.302 540.793 114.149 542.34 111.787Z" fill="#070707" fill-opacity="0.25"/>
<path fill-rule="evenodd" clip-rule="evenodd" d="M619.82 111.786C636.015 111.572 643.816 119.648 643.226 136.017C650.178 214.033 656.365 292.109 661.789 370.246C663.466 391.961 654.318 398.154 634.348 388.822C632.388 385.025 631.042 380.986 630.312 376.707C625.328 296.435 619.678 216.206 613.363 136.017C613.633 130.093 613.901 124.171 614.17 118.248C616.391 116.301 618.274 114.148 619.82 111.786Z" fill="#070707" fill-opacity="0.25"/>
<path fill-rule="evenodd" clip-rule="evenodd" d="M311.508 111.787C326.247 109.277 333.781 115.469 334.107 130.364C327.821 212.439 322.171 294.555 317.158 376.708C315.167 381.226 312.746 385.533 309.894 389.631C307.439 391.952 304.478 393.03 301.016 392.862C289.399 394.159 284.287 389.043 285.681 377.516C291.623 292.096 298.348 206.752 305.858 121.479C308.109 118.43 309.991 115.199 311.508 111.787Z" fill="#070707" fill-opacity="0.25"/>
<path fill-rule="evenodd" clip-rule="evenodd" d="M388.993 111.786C408.999 109.2 416.53 117.814 411.591 137.632C409.326 217.348 406.368 297.041 402.713 376.706C402.292 387.978 396.373 393.362 384.957 392.86C381.307 392.959 378.079 391.881 375.272 389.629C373.503 380.334 372.696 370.912 372.851 361.36C375.789 281.377 379.286 201.416 383.343 121.478C385.593 118.428 387.475 115.197 388.993 111.786Z" fill="#070707" fill-opacity="0.25"/>
<path fill-rule="evenodd" clip-rule="evenodd" d="M216.275 21.3255C221.29 21.0852 226.132 21.8928 230.802 23.7486C226.684 26.1972 227.222 27.5432 232.416 27.787C232.416 29.4024 232.416 31.0177 232.416 32.6331C235.688 32.3713 238.917 32.6404 242.101 33.4408C243.943 34.6381 243.943 35.9842 242.101 37.4792C244.852 39.969 247.811 42.1228 250.979 43.9407C264.76 41.5821 264.492 39.4283 250.172 37.4792C252.056 36.9408 253.938 36.4023 255.822 35.8639C267.449 37.2561 278.479 39.4099 288.913 42.3253C261.633 46.5164 234.192 51.0932 206.589 56.056C185.171 61.8791 170.374 75.0713 162.199 95.6326C157.367 128.94 153.331 162.323 150.093 195.786C145.472 222.859 142.243 250.32 140.408 278.169C137.901 292.38 136.287 306.918 135.565 321.784C133.214 330.02 132.137 338.634 132.337 347.63C128.796 379.838 126.106 412.145 124.266 444.553C120.82 468.98 118.668 493.749 117.809 518.86C116.484 523.934 115.677 529.319 115.388 535.013C114.581 673.934 114.312 812.855 114.581 951.779C114.098 954.937 112.484 957.092 109.739 958.24C107.639 956.005 107.639 953.582 109.739 950.971C108.124 949.626 106.51 948.278 104.896 946.933C103.048 939.371 103.048 937.756 104.896 942.087C106.51 942.087 108.124 942.087 109.739 942.087C110.258 938.497 109.182 935.535 106.51 933.202C108.379 907.206 108.647 881.092 107.317 854.857C106.241 851.626 105.166 848.395 104.089 845.164C103.732 850.726 102.118 851.264 99.2464 846.78C97.2771 842.401 95.9325 837.824 95.2109 833.049C96.4103 801.57 97.4869 770.071 98.4393 738.55C96.6298 671.254 96.3602 603.948 97.6322 536.629C106.447 420.685 117.209 307.07 129.916 195.786C133.277 157.285 139.464 119.324 148.479 81.9019C150.093 79.4789 151.707 77.0558 153.321 74.6328C155.238 76.8843 156.314 76.615 156.55 73.8251C154.621 71.3495 154.621 68.9265 156.55 66.5559C155.218 65.1252 153.604 64.5868 151.707 64.9405C151.259 61.9579 152.335 59.804 154.936 58.479C156.366 59.8117 156.903 61.4271 156.55 63.3252C166.965 61.872 168.041 58.6412 159.778 53.6329C158.702 54.7099 157.626 55.7867 156.55 56.8637C154.79 54.8816 152.637 53.5354 150.093 52.8252C158.461 50.4206 167.069 47.1899 175.92 43.133C176.658 42.4643 177.197 41.6566 177.534 40.71C175.127 39.5088 172.706 38.4318 170.27 37.4792C169.491 39.0106 169.223 40.626 169.463 42.3253C166.372 42.7849 163.683 42.2463 161.392 40.71C177.6 28.8385 195.896 22.377 216.275 21.3255Z" fill="#323554"/>
<path fill-rule="evenodd" clip-rule="evenodd" d="M836.122 224.862C839.294 243.904 841.447 263.289 842.579 283.016C840.561 283.14 839.217 284.217 838.543 286.246C837.715 276.75 835.832 267.597 832.894 258.785C833.231 257.838 833.77 257.031 834.508 256.362C832.356 257.439 830.203 258.515 828.051 259.593C828.589 259.055 829.128 258.515 829.665 257.977C828.432 254.635 827.625 251.135 827.244 247.477C826.915 258.328 826.108 269.096 824.823 279.785C826.75 283.214 827.825 286.985 828.051 291.092C833.483 347.146 838.863 403.146 844.193 459.091C844.129 462.207 843.591 465.168 842.579 467.976C845.573 488.943 848.264 509.943 850.65 530.975C850.112 531.513 849.573 532.052 849.036 532.59C850.534 533.217 851.61 534.295 852.264 535.821C850.119 614.956 850.119 694.11 852.264 773.281C851.315 796.647 849.162 819.532 845.807 841.934C844.731 841.396 843.656 840.856 842.579 840.318C838.658 847.284 836.776 854.823 836.929 862.934C836.658 834.119 835.851 805.58 834.508 777.319C834.508 768.704 834.508 760.088 834.508 751.473C835.803 753.819 836.61 756.51 836.929 759.55C838.414 679.297 837.875 599.066 835.315 518.86C834.51 525.84 834.24 532.839 834.508 539.859C833.431 532.86 832.356 525.859 831.28 518.86C831.252 515.524 830.715 512.293 829.665 509.167C828.741 495.154 827.665 481.155 826.437 467.168C824.038 441.345 821.887 415.499 819.98 389.63C819.842 382.592 819.302 375.592 818.366 368.63C818.566 359.634 817.49 351.019 815.138 342.784C814.174 337.226 813.099 331.84 811.909 326.631C811.909 325.015 811.909 323.4 811.909 321.785C811.866 312.818 810.789 304.203 808.681 295.939C808.681 294.323 808.681 292.708 808.681 291.092C808.324 276.722 806.71 262.722 803.839 249.093C802.357 231.312 800.743 213.543 798.996 195.786C799.648 187.252 798.573 179.175 795.768 171.555C793.085 153.859 790.932 136.09 789.311 118.248C788.794 112.759 789.332 107.374 790.925 102.094C792.002 101.556 793.077 101.017 794.153 100.479C796.305 102.094 798.458 103.71 800.61 105.325C801.898 102.776 802.705 100.084 803.031 97.248C810.497 140.666 816.686 184.281 821.595 228.093C823.023 233.548 824.637 238.932 826.437 244.247C827.769 245.678 829.383 246.216 831.28 245.862C831.28 242.093 831.28 238.323 831.28 234.555C832.894 234.555 834.508 234.555 836.122 234.555C836.122 231.324 836.122 228.093 836.122 224.862Z" fill="#2F3555"/>
<path fill-rule="evenodd" clip-rule="evenodd" d="M80.6845 803.165C82.2869 816.33 82.825 829.791 82.2986 843.549C67.233 843.549 52.1672 843.549 37.1016 843.549C51.3351 841.945 65.8627 841.406 80.6845 841.934C80.6845 829.011 80.6845 816.088 80.6845 803.165Z" fill="#6A6E83"/>
<path fill-rule="evenodd" clip-rule="evenodd" d="M109.742 958.241C107.59 959.856 105.437 961.471 103.285 963.087C101.201 962.704 99.587 963.242 98.4426 964.702C96.5669 996.733 96.2973 1029.04 97.6355 1061.62C97.9276 1066.79 98.7347 1071.63 100.057 1076.16C100.26 1084.38 101.337 1092.46 103.285 1100.39C100.791 1099.21 99.4466 1097.06 99.2496 1093.93C98.7121 1088.55 98.173 1083.16 97.6355 1077.78C94.1133 1088.35 90.6154 1098.85 87.1433 1109.28C88.8898 1143.23 88.8898 1176.89 87.1433 1210.24C88.2199 1211.32 89.295 1212.39 90.3716 1213.47C89.8131 1215.4 89.0061 1215.4 87.9504 1213.47C86.8334 1214.98 87.1029 1216.06 88.7575 1216.7C88.2232 1255.75 88.7607 1294.52 90.3716 1333.01C95.3498 1365.73 114.181 1385.92 146.868 1393.58C175.127 1398.92 203.644 1402.69 232.42 1404.89C282.931 1408.6 333.509 1410.49 384.153 1410.54C442.844 1414.75 501.492 1414.75 560.098 1410.54C635.219 1411.1 710.009 1406.52 784.47 1396.81C803.879 1392.92 821.635 1385.38 837.738 1374.2C848.771 1364.51 855.227 1352.39 857.108 1337.85C858.719 1298.29 859.256 1258.44 858.722 1218.32C859.343 1260.77 860.958 1303.31 863.565 1345.93C867.506 1346.17 868.583 1344.82 866.793 1341.89C868.88 1341.1 871.033 1340.83 873.25 1341.08C875.07 1301.28 875.34 1261.43 874.057 1221.55C871.106 1224.1 867.878 1226.25 864.372 1228.01C864.213 1222.18 862.33 1217.07 858.722 1212.66C859.595 1203.94 860.133 1194.78 860.336 1185.2C859.644 1174.12 858.569 1163.09 857.108 1152.08C858.185 1143.47 859.26 1134.85 860.336 1126.24C859.799 1121.93 859.26 1117.62 858.722 1113.32C857.129 1118.6 856.591 1123.98 857.108 1129.47C854.152 1128.58 851.463 1128.58 849.037 1129.47C847.92 1128.62 847.113 1127.54 846.616 1126.24C846.34 1139.45 845.533 1152.37 844.194 1165.01C844.194 1149.93 844.194 1134.85 844.194 1119.78C838.185 1117.69 838.185 1115.8 844.194 1114.12C843.118 1113.59 842.043 1113.05 840.966 1112.51C843.731 1110.28 845.884 1107.59 847.423 1104.43C846.047 1101.64 844.433 1101.37 842.58 1103.62C844.6 1099.37 846.214 1095.06 847.423 1090.7C850.417 1048.46 851.224 1005.92 849.844 963.087C845.741 960.37 841.168 958.754 836.123 958.241C835.586 958.241 835.047 958.241 834.509 958.241C832.969 941.093 832.432 923.862 832.895 906.549C834.506 863.749 835.044 820.674 834.509 777.319C835.852 805.58 836.659 834.119 836.931 862.934C836.777 854.823 838.659 847.284 842.58 840.319C843.657 840.856 844.732 841.396 845.809 841.934C849.163 819.532 851.316 796.647 852.265 773.281C850.12 694.11 850.12 614.957 852.265 535.821C851.612 534.295 850.535 533.217 849.037 532.59C849.574 532.053 850.114 531.513 850.651 530.975C848.265 509.943 845.575 488.943 842.58 467.976C843.592 465.168 844.13 462.207 844.194 459.091C838.864 403.146 833.484 347.146 828.053 291.093C827.827 286.985 826.752 283.214 824.824 279.785C826.109 269.096 826.916 258.328 827.245 247.478C827.626 251.135 828.434 254.635 829.667 257.978C829.129 258.515 828.59 259.055 828.053 259.593C830.204 258.515 832.358 257.44 834.509 256.362C833.772 257.031 833.232 257.839 832.895 258.785C835.833 267.597 837.717 276.75 838.545 286.247C839.218 284.218 840.562 283.14 842.58 283.016C852.362 370.507 860.163 458.275 865.986 546.321C866.793 644.857 867.062 743.395 866.793 841.934C933.32 833.944 959.954 863.021 946.695 929.164C942.843 950.517 930.2 962.901 908.762 966.317C894.234 966.317 879.706 966.317 865.179 966.317C865.179 1000.78 865.179 1035.24 865.179 1069.7C864.916 1073.51 865.184 1077.28 865.986 1081.01C870.462 1087.98 873.69 1095.52 875.671 1103.62C876.748 1183.31 876.748 1263.01 875.671 1342.7C873.773 1353.47 869.737 1363.17 863.565 1371.78C862.057 1373.5 861.518 1375.65 861.95 1378.24C860.252 1378 858.638 1378.26 857.108 1379.04C847.413 1389.04 836.114 1397.12 823.21 1403.28C805.398 1409.57 787.102 1413.88 768.328 1416.2C654.47 1425.71 540.401 1429.74 426.121 1428.31C380.949 1426.33 335.751 1424.99 290.53 1424.27C281.676 1421.94 272.798 1421.67 263.896 1423.47C236.339 1419.82 208.628 1417.4 180.766 1416.2C158.229 1414.37 136.707 1408.99 116.199 1400.04C114.533 1397.42 112.379 1395.53 109.742 1394.39C101.776 1389.93 94.7816 1384.01 88.7575 1376.62C85.0707 1392.66 84.5327 1408.81 87.1433 1425.08C85.1288 1419.52 83.7839 1413.6 83.1078 1407.31C82.5698 1394.39 82.0317 1381.47 81.4936 1368.54C76.1547 1359.52 72.3884 1349.83 70.1944 1339.47C69.1182 1261.93 69.1182 1184.39 70.1944 1106.85C72.2187 1097.42 75.9851 1088.81 81.4936 1081.01C81.7928 1042.78 81.5237 1004.55 80.6866 966.317C63.998 966.586 47.3182 966.317 30.6469 965.51C17.1838 961.728 7.76785 953.383 2.39875 940.471C-0.799585 916.793 -0.799585 893.101 2.39875 869.395C8.69455 853.67 20.2629 845.055 37.1037 843.549C52.1693 843.549 67.2351 843.549 82.3007 843.549C82.8271 829.791 82.289 816.33 80.6866 803.165C80.0779 706.227 80.8849 609.304 83.1078 512.398C90.801 419.678 99.4111 327.064 108.935 234.555C114.521 184.351 120.978 134.274 128.305 84.3252C133.959 65.3671 144.989 50.8288 161.396 40.7102C163.686 42.2466 166.375 42.7852 169.467 42.3256C169.226 40.6262 169.494 39.0109 170.274 37.4795C172.709 38.4321 175.131 39.509 177.537 40.7102C177.2 41.6568 176.661 42.4645 175.923 43.1333C167.073 47.1901 158.464 50.4209 150.096 52.8255C152.64 53.5356 154.794 54.8819 156.553 56.8639C157.63 55.787 158.705 54.7102 159.781 53.6332C168.044 58.6415 166.968 61.8722 156.553 63.3254C156.907 61.4274 156.369 59.812 154.939 58.4793C152.338 59.8042 151.262 61.9582 151.711 64.9408C153.607 64.587 155.221 65.1254 156.553 66.5562C154.624 68.9267 154.624 71.3498 156.553 73.8253C156.317 76.6152 155.241 76.8845 153.325 74.633C151.711 77.0561 150.096 79.4791 148.482 81.9022C139.467 119.324 133.28 157.285 129.919 195.786C117.212 307.07 106.451 420.686 97.6355 536.629C96.3635 603.948 96.6331 671.254 98.4426 738.55C97.4902 770.071 96.4135 801.571 95.2142 833.049C95.9357 837.824 97.2803 842.401 99.2496 846.78C102.121 851.264 103.735 850.726 104.092 845.165C105.169 848.395 106.244 851.626 107.321 854.857C108.651 881.092 108.383 907.206 106.513 933.202C109.185 935.535 110.262 938.497 109.742 942.087C108.128 942.087 106.513 942.087 104.899 942.087C103.051 937.756 103.051 939.371 104.899 946.933C106.513 948.279 108.128 949.626 109.742 950.971C107.642 953.582 107.642 956.005 109.742 958.241Z" fill="#2A314F"/>
<path fill-rule="evenodd" clip-rule="evenodd" d="M38.7157 859.703C54.3287 859.435 69.9325 859.703 85.5269 860.511C89.727 861.937 93.225 864.36 96.0191 867.78C96.8262 877.997 97.0942 888.227 96.8262 898.472C70.9622 898.42 45.1353 898.688 19.3455 899.28C12.8015 879.126 19.2582 865.934 38.7157 859.703Z" fill="#373E5F"/>
<path fill-rule="evenodd" clip-rule="evenodd" d="M861.944 859.703C876.481 859.435 891.009 859.703 905.527 860.511C915.922 861.228 923.186 866.342 927.318 875.857C928.124 883.916 928.394 891.993 928.126 900.087C902.823 899.772 877.535 898.965 852.259 897.664C849.949 885.728 851.294 874.153 856.294 862.934C858.396 861.989 860.28 860.913 861.944 859.703Z" fill="#383D5F"/>
<path fill-rule="evenodd" clip-rule="evenodd" d="M834.506 751.473C834.506 680.934 834.506 610.398 834.506 539.859C834.239 532.839 834.508 525.839 835.314 518.859C837.874 599.066 838.413 679.296 836.928 759.55C836.608 756.509 835.801 753.818 834.506 751.473Z" fill="#2A3665"/>
<path fill-rule="evenodd" clip-rule="evenodd" d="M377.697 526.937C449.797 526.937 521.896 526.937 593.997 526.937C619.869 527.066 645.696 528.143 671.478 530.167C672.153 531.334 673.228 532.141 674.706 532.59C688.685 533.398 702.675 533.666 716.675 533.398C722.055 533.398 727.437 533.398 732.817 533.398C759.184 535.687 779.362 548.072 793.349 570.552C796.209 576.711 797.553 583.172 797.384 589.936C797.114 613.096 797.384 636.25 798.191 659.397C798.474 666.697 799.281 673.698 800.612 680.397C800.612 689.011 800.612 697.628 800.612 706.243C801.46 743.12 802.536 779.736 803.841 816.088C804.11 861.328 804.38 906.558 804.648 951.779C800.754 960.256 794.566 966.178 786.085 969.548C747.551 971.65 709.35 974.88 671.478 979.24C662.869 979.24 654.259 979.24 645.651 979.24C658.468 976.32 671.919 974.974 686.005 975.202C680.22 973.469 674.303 972.391 668.249 971.971C669.326 971.433 670.401 970.894 671.478 970.356C688.924 967.791 706.141 965.905 723.132 964.702C720.355 962.385 717.127 961.04 713.447 960.664C720.98 960.126 728.512 959.586 736.045 959.048C734.048 958.673 732.434 957.866 731.203 956.625C746.481 954.333 762.085 952.986 778.014 952.587C780.966 952.146 783.387 950.798 785.278 948.548C787.107 936.864 787.914 925.019 787.699 913.01C787.699 901.958 787.16 891.188 786.085 880.703C786.123 818.207 784.779 755.747 782.049 693.32C780.548 690.005 778.127 687.582 774.785 686.051C574.089 684.973 373.392 684.973 172.696 686.051C167.122 688.842 164.163 693.42 163.818 699.781C161.09 782.422 160.283 864.806 161.396 946.933C162.102 949.475 163.716 951.361 166.239 952.587C180.008 953.18 193.459 954.525 206.594 956.625C200.771 958.764 194.315 959.841 187.223 959.856C177.462 959.853 167.777 959.045 158.168 957.433C158.706 956.895 159.245 956.355 159.782 955.817C157.739 955.318 155.855 954.511 154.133 953.394C153.029 955.468 153.298 957.354 154.94 959.048C167.766 961.81 180.68 963.964 193.68 965.51C186.487 965.345 180.031 966.692 174.31 969.548C170.544 969.548 166.777 969.548 163.011 969.548C155.019 967.837 148.832 963.531 144.448 956.625C142.146 940.061 141.339 923.368 142.026 906.549C143.408 868.046 144.483 829.277 145.255 790.242C146.017 722.387 147.363 654.541 149.29 586.705C153.33 567.343 163.823 552.805 180.767 543.09C186.389 541.068 192.303 539.721 198.519 539.052C199.416 538.433 199.326 538.244 200.946 537.436C204.175 536.629 203.37 536.629 206.596 535.821C215.204 535.283 223.812 533.936 232.42 533.398C249.992 534.043 267.211 532.967 284.074 530.167C296.941 528.838 309.854 528.3 322.815 528.552C341.132 528.641 359.426 528.103 377.697 526.937Z" fill="#28304C"/>
<path fill-rule="evenodd" clip-rule="evenodd" d="M800.61 837.088C802.488 872.35 802.757 907.888 801.417 943.702C800.768 941.486 799.961 939.333 798.996 937.241C800.591 903.93 801.13 870.547 800.61 837.088Z" fill="#18306C"/>
<path fill-rule="evenodd" clip-rule="evenodd" d="M148.481 738.55C150.626 777.055 150.626 815.824 148.481 854.856C146.376 816.05 146.376 777.282 148.481 738.55Z" fill="#212F5A"/>
<path fill-rule="evenodd" clip-rule="evenodd" d="M786.083 880.702C787.158 891.188 787.697 901.958 787.697 913.01C787.912 925.019 787.105 936.864 785.276 948.548C783.386 950.798 780.964 952.145 778.012 952.586C762.083 952.985 746.479 954.333 731.201 956.625C642.547 962.975 553.767 965.668 464.861 964.702C378.638 965.718 292.548 963.027 206.592 956.625C193.457 954.525 180.006 953.179 166.237 952.586C163.714 951.36 162.1 949.475 161.395 946.933C162.857 907.648 163.395 868.34 163.009 829.011C176.991 826.18 190.442 821.604 203.363 815.28C267.214 794.228 332.856 782.381 400.293 779.742C532.706 772.709 660.764 792.361 784.469 838.703C783.942 852.997 784.48 866.998 786.083 880.702Z" fill="#3E98D7"/>
<path fill-rule="evenodd" clip-rule="evenodd" d="M786.079 880.702C784.476 866.998 783.938 852.997 784.465 838.703C660.76 792.361 532.702 772.708 400.289 779.742C332.852 782.381 267.21 794.228 203.359 815.28C190.438 821.604 176.987 826.18 163.005 829.011C163.391 868.34 162.853 907.648 161.391 946.933C160.277 864.806 161.084 782.422 163.812 699.781C164.157 693.42 167.116 688.842 172.69 686.05C373.386 684.973 574.084 684.973 774.78 686.05C778.121 687.582 780.542 690.005 782.043 693.319C784.773 755.747 786.118 818.207 786.079 880.702Z" fill="#61A9E3"/>
<path fill-rule="evenodd" clip-rule="evenodd" d="M413.205 541.475C522.041 539.843 630.728 542.806 739.269 550.359C759.577 554.557 773.298 566.133 780.431 585.09C780.912 603.146 781.719 621.183 782.852 639.205C784.085 651.178 779.78 660.332 769.939 666.666C571.932 667.743 373.927 667.743 175.92 666.666C171.639 664.945 168.68 661.984 167.042 657.781C165.965 635.704 165.965 613.628 167.042 591.551C171.108 567.564 185.366 553.834 209.818 550.359C277.822 546.201 345.617 543.24 413.205 541.475Z" fill="#363C5E"/>
<path fill-rule="evenodd" clip-rule="evenodd" d="M609.486 644.052C608.409 644.052 607.334 644.052 606.258 644.052C516.364 644.564 426.509 644.024 336.689 642.436C331.871 639.226 328.643 634.918 327.004 629.513C326.549 613.813 327.087 598.198 328.618 582.668C331.598 577.262 335.903 573.224 341.532 570.552C429.235 569.475 516.94 569.475 604.643 570.552C612.873 572.867 618.522 577.983 621.592 585.898C622.669 599.899 622.669 613.897 621.592 627.898C620.272 635.411 616.236 640.797 609.486 644.052Z" fill="#FDD774"/>
<path fill-rule="evenodd" clip-rule="evenodd" d="M124.265 444.553C124.093 466.202 123.286 487.74 121.844 509.168C125.121 504.276 129.426 500.508 134.758 497.86C135.537 496.329 135.805 494.713 135.565 493.014C149.982 487.142 165.049 482.566 180.762 479.283C213.557 474.434 246.378 470.127 279.227 466.36C294.369 465.058 309.436 465.326 324.424 467.168C343.137 464.772 361.968 463.427 380.92 463.129C449.245 461.185 517.58 460.645 585.921 461.514C623.001 464.511 660.127 466.664 697.3 467.976C699.862 469.368 702.552 470.446 705.371 471.206C734.378 473.568 762.895 478.414 790.922 485.745C795.419 490.148 800.799 492.841 807.064 493.822C812.696 499.726 818.614 505.38 824.82 510.783C826.134 507.122 826.941 503.352 827.241 499.475C827.55 503.042 828.357 506.273 829.663 509.168C830.712 512.293 831.249 515.524 831.277 518.86C831.277 527.475 831.277 536.091 831.277 544.706C830.2 544.706 829.125 544.706 828.049 544.706C809.776 525.867 787.717 513.752 761.867 508.36C710.452 501.491 658.798 496.645 606.906 493.822C528.19 493.048 449.633 492.778 371.235 493.014C316.103 498.147 260.681 502.186 204.974 505.129C184.439 506.105 165.069 511.49 146.864 521.283C136.969 527.011 128.898 534.55 122.651 543.898C121.121 544.678 119.507 544.946 117.809 544.706C117.809 536.091 117.809 527.475 117.809 518.86C118.667 493.749 120.819 468.98 124.265 444.553Z" fill="white" fill-opacity="0.25"/>
<path fill-rule="evenodd" clip-rule="evenodd" d="M671.473 530.167C680.081 530.167 688.691 530.167 697.3 530.167C703.756 531.244 710.213 532.32 716.67 533.398C702.67 533.666 688.68 533.398 674.701 532.59C673.222 532.141 672.147 531.333 671.473 530.167Z" fill="#35333A"/>
<path fill-rule="evenodd" clip-rule="evenodd" d="M206.588 956.625C292.544 963.027 378.633 965.718 464.857 964.702C553.762 965.668 642.542 962.975 731.196 956.625C732.428 957.866 734.042 958.674 736.039 959.048C728.506 959.586 720.974 960.126 713.44 960.664C717.121 961.04 720.349 962.386 723.126 964.702C706.135 965.906 688.918 967.791 671.472 970.356C670.395 970.894 669.32 971.433 668.243 971.971C674.297 972.391 680.214 973.469 685.999 975.202C671.912 974.974 658.461 976.32 645.645 979.24C619.813 979.51 593.986 979.24 568.164 978.433C590.732 976.762 613.331 975.685 635.96 975.202C636.497 974.664 637.036 974.125 637.574 973.587C635.253 973.233 633.101 972.425 631.117 971.164C642.213 967.166 653.512 966.088 665.015 967.933C672.737 967.374 680.269 966.027 687.614 963.894C667.662 962.736 647.755 963.274 627.889 965.51C579.194 965.78 530.5 966.048 481.805 966.317C401.343 966.235 320.904 965.427 240.485 963.894C229.317 965.663 218.018 967.01 206.588 967.933C232.402 970.206 258.228 972.359 284.068 974.394C275.526 976.002 266.918 976.54 258.241 976.01C256.09 976.01 253.936 976.01 251.785 976.01C249.994 974.734 247.843 973.926 245.328 973.587C232.426 972.779 219.512 972.511 206.588 972.779C196.226 970.031 185.466 968.955 174.304 969.548C180.025 966.692 186.481 965.345 193.674 965.51C180.673 963.964 167.76 961.811 154.934 959.048C153.292 957.354 153.023 955.469 154.127 953.395C155.849 954.511 157.733 955.318 159.776 955.818C159.239 956.356 158.7 956.895 158.162 957.433C167.771 959.045 177.456 959.853 187.217 959.856C194.308 959.841 200.765 958.764 206.588 956.625Z" fill="#213054"/>
<path fill-rule="evenodd" clip-rule="evenodd" d="M908.759 966.317C895.064 967.921 881.074 968.459 866.79 967.933C867.324 1002.13 866.785 1036.06 865.176 1069.7C865.176 1035.24 865.176 1000.78 865.176 966.317C879.703 966.317 894.231 966.317 908.759 966.317Z" fill="#64687C"/>
<path fill-rule="evenodd" clip-rule="evenodd" d="M103.282 963.087C106.201 963.073 108.892 963.88 111.353 965.51C107.216 997.672 109.637 1029.71 118.617 1061.62C123.203 1077 132.62 1088.57 146.865 1096.36C174.579 1105.28 203.097 1110.67 232.417 1112.51C266.997 1112.52 301.433 1114.68 335.725 1118.97C422.353 1120.05 508.979 1120.05 595.608 1118.97C603.309 1117.61 610.842 1115.72 618.206 1113.32C625.359 1116.59 632.892 1117.4 640.805 1115.74C640.267 1115.2 639.728 1114.66 639.191 1114.12C681.401 1114.81 723.37 1112.12 765.097 1106.05C797.503 1104.8 818.757 1088.92 828.857 1058.39C837.357 1027.85 840.316 996.887 837.735 965.51C839.393 964.682 841.007 963.874 842.577 963.087C844.711 962.813 846.595 963.35 848.227 964.703C848.9 1006.71 848.631 1048.71 847.42 1090.7C846.211 1095.06 844.597 1099.37 842.577 1103.62C836.342 1110.58 828.81 1115.7 819.979 1118.97C808.215 1122 796.378 1124.69 784.467 1127.05C756.451 1130.91 728.471 1134.95 700.529 1139.16C687.078 1145.09 677.393 1154.78 671.474 1168.24C662.472 1191.89 661.395 1215.85 668.246 1240.12C675.142 1250.98 685.096 1256.09 698.108 1255.47C725.974 1253.89 753.683 1251.2 781.239 1247.39C787.726 1247.16 794.183 1246.62 800.609 1245.78C789.939 1248.2 779.179 1250.62 768.325 1253.05C739.428 1257.25 707.144 1260.48 671.474 1262.74C647.224 1263.41 623.012 1264.76 598.836 1266.78C588.72 1264.56 578.497 1263.48 568.167 1263.55C564.181 1264.87 559.878 1265.67 555.253 1265.97C492.289 1266.32 429.336 1267.13 366.394 1268.39C354.188 1268.41 342.351 1266.8 330.882 1263.55C329.19 1264.97 327.307 1266.05 325.232 1266.78C313.701 1265.53 302.133 1264.46 290.527 1263.55C287.945 1263.63 285.523 1264.17 283.264 1265.16C282.457 1264.35 281.649 1263.55 280.842 1262.74C250.049 1261.32 219.379 1258.63 188.834 1254.66C185.212 1254.58 182.521 1253.24 180.763 1250.62C187.22 1250.62 193.677 1250.62 200.133 1250.62C219.127 1254.23 238.498 1255.58 258.244 1254.66C261.832 1253.75 265.06 1252.4 267.929 1250.62C276.156 1246.04 281.268 1239.04 283.264 1229.62C284.071 1219.41 284.339 1209.18 284.071 1198.93C281.84 1189.26 279.419 1179.56 276.807 1169.85C276.198 1167.53 274.854 1165.91 272.771 1165.01C266.859 1153.44 257.981 1144.82 246.137 1139.16C210.259 1134.21 174.477 1128.56 138.794 1122.2C124.499 1118.64 112.662 1111.37 103.282 1100.39C101.334 1092.46 100.257 1084.38 100.054 1076.16C98.7143 1039.03 98.1767 1001.87 98.4398 964.703C99.5843 963.242 101.198 962.704 103.282 963.087Z" fill="black" fill-opacity="0.15"/>
<path fill-rule="evenodd" clip-rule="evenodd" d="M598.837 980.855C554.468 983.156 509.81 984.233 464.86 984.086C438.758 984.086 412.931 983.548 387.379 982.471C457.861 981.479 528.347 980.939 598.837 980.855Z" fill="#47454C"/>
<path fill-rule="evenodd" clip-rule="evenodd" d="M206.59 972.779C219.515 972.511 232.428 972.779 245.33 973.587C247.845 973.926 249.997 974.734 251.787 976.01C236.422 975.724 221.356 974.647 206.59 972.779Z" fill="#30323D"/>
<path fill-rule="evenodd" clip-rule="evenodd" d="M645.647 979.24C630.335 980.846 614.732 981.384 598.836 980.855C528.346 980.939 457.86 981.479 387.378 982.471C360.447 982.803 333.545 982.265 306.669 980.855C296.279 978.369 285.517 977.292 274.385 977.625C268.668 978.13 263.288 977.591 258.244 976.009C266.92 976.539 275.528 976.001 284.071 974.394C258.231 972.358 232.404 970.205 206.59 967.932C218.02 967.01 229.319 965.663 240.488 963.894C320.906 965.427 401.346 966.235 481.808 966.317C530.503 966.047 579.196 965.779 627.891 965.509C647.757 963.274 667.665 962.736 687.616 963.894C680.271 966.026 672.74 967.373 665.017 967.932C653.515 966.088 642.215 967.165 631.12 971.163C633.103 972.425 635.255 973.232 637.576 973.586C637.039 974.124 636.5 974.664 635.962 975.201C613.333 975.684 590.734 976.762 568.167 978.432C593.989 979.24 619.815 979.51 645.647 979.24Z" fill="#29304A"/>
<path fill-rule="evenodd" clip-rule="evenodd" d="M568.169 1263.55C503.6 1263.82 439.033 1263.55 374.467 1262.74C358.643 1262.79 343.577 1259.56 329.27 1253.05C320.646 1242.27 314.458 1230.16 310.707 1216.7C307.873 1203.19 305.451 1189.46 303.443 1175.51C303.345 1167.01 307.112 1161.09 314.743 1157.74C410.793 1157.38 506.837 1156.57 602.874 1155.32C612.916 1155.25 622.869 1156.06 632.736 1157.74C640.055 1160.74 643.283 1166.12 642.421 1173.89C640.029 1196.69 634.649 1218.77 626.28 1240.12C621.539 1248.69 614.543 1254.61 605.295 1257.89C592.684 1259.73 580.308 1261.62 568.169 1263.55Z" fill="#2D3554"/>
<path fill-rule="evenodd" clip-rule="evenodd" d="M326.039 1169.85C425.513 1171.46 525.054 1172 624.662 1171.47C622.598 1193.9 616.948 1215.43 607.713 1236.08C605.423 1237.63 603.002 1238.98 600.45 1240.12C587.183 1243.16 573.73 1244.78 560.095 1244.97C502.522 1246.05 444.951 1246.05 387.378 1244.97C373.015 1244.52 358.755 1243.18 344.602 1240.93C338.466 1236.4 334.161 1230.47 331.688 1223.16C329.945 1212.14 327.254 1201.37 323.617 1190.85C322.006 1183.35 322.814 1176.35 326.039 1169.85Z" fill="#1F2540"/>
<path fill-rule="evenodd" clip-rule="evenodd" d="M103.282 1100.39C112.662 1111.37 124.499 1118.63 138.794 1122.2C174.478 1128.56 210.259 1134.21 246.137 1139.16C257.981 1144.82 266.859 1153.44 272.771 1165.01C274.944 1175.34 277.635 1185.57 280.842 1195.7C281.943 1196.9 283.02 1197.98 284.071 1198.93C284.339 1209.17 284.071 1219.4 283.264 1229.62C281.269 1239.04 276.156 1246.04 267.929 1250.62C245.355 1252.06 222.756 1252.06 200.133 1250.62C193.677 1250.62 187.22 1250.62 180.763 1250.62C175.624 1249.29 170.244 1248.22 164.621 1247.39C157.488 1245.01 149.955 1243.94 142.023 1244.16C129.508 1243.21 117.671 1239.98 106.511 1234.47C101.71 1230.21 96.8677 1225.9 91.9832 1221.55C92.101 1219.08 91.0243 1217.46 88.7548 1216.7C87.1003 1216.06 86.8307 1214.98 87.9477 1213.47C89.0034 1215.4 89.8105 1215.4 90.369 1213.47C89.2923 1212.39 88.2173 1211.32 87.1406 1210.24C88.8872 1176.89 88.8872 1143.23 87.1406 1109.28C90.6127 1098.85 94.1107 1088.35 97.6328 1077.78C98.1703 1083.16 98.7095 1088.55 99.247 1093.93C99.4439 1097.06 100.789 1099.21 103.282 1100.39Z" fill="#2E3353"/>
<path fill-rule="evenodd" clip-rule="evenodd" d="M117.81 1127.85C117.265 1144.63 118.072 1161.32 120.232 1177.93C123.323 1187.5 128.972 1195.31 137.18 1201.35C148.502 1206.48 160.341 1209.71 172.692 1211.05C203.804 1214.54 235.011 1216.42 266.315 1216.7C266.315 1218.85 266.315 1221.01 266.315 1223.16C265.061 1227.38 262.37 1230.34 258.244 1232.05C217.775 1234.34 177.96 1230.57 138.795 1220.74C124.504 1214.78 114.282 1204.82 108.125 1190.85C107.392 1182.93 105.778 1175.39 103.283 1168.24C102.747 1152.05 103.284 1135.9 104.897 1119.78C109.247 1122.49 113.55 1125.18 117.81 1127.85Z" fill="#F9BB41"/>
<path fill-rule="evenodd" clip-rule="evenodd" d="M103.281 1168.24C105.777 1175.39 107.391 1182.93 108.124 1190.85C104.484 1183.96 102.87 1176.42 103.281 1168.24Z" fill="#997B4B"/>
<path fill-rule="evenodd" clip-rule="evenodd" d="M117.81 1127.85C127.545 1132.58 137.767 1136.08 148.479 1138.35C176.316 1143.18 204.296 1146.95 232.416 1149.66C249.846 1154.18 260.876 1165.22 265.507 1182.78C269.221 1194.91 270.298 1207.3 268.736 1219.93C268.287 1221.41 267.48 1222.49 266.314 1223.16C266.314 1221.01 266.314 1218.85 266.314 1216.7C235.01 1216.43 203.803 1214.54 172.692 1211.05C160.34 1209.71 148.502 1206.48 137.18 1201.35C128.972 1195.31 123.322 1187.5 120.231 1177.93C118.071 1161.32 117.264 1144.63 117.81 1127.85Z" fill="#FDD774"/>
<path fill-rule="evenodd" clip-rule="evenodd" d="M844.195 1119.78C842.593 1119.5 841.518 1120.04 840.966 1121.39C837.291 1122.93 834.062 1125.08 831.281 1127.85C821.362 1132.09 811.139 1135.59 800.612 1138.35C769.926 1142.56 739.257 1146.86 708.603 1151.28C687.856 1162.35 677.634 1179.85 677.934 1203.78C676.089 1209.39 675.819 1215.31 677.127 1221.55C678.321 1224.48 680.205 1226.64 682.776 1228.01C685.283 1231.05 688.512 1232.67 692.462 1232.85C727.928 1236.76 762.903 1234.07 797.383 1224.78C824.787 1216.73 839.852 1198.42 842.58 1169.85C844.04 1168.71 844.577 1167.09 844.195 1165.01C845.533 1152.37 846.34 1139.45 846.616 1126.24C847.113 1127.54 847.92 1128.62 849.037 1129.47C851.463 1128.58 854.153 1128.58 857.108 1129.47C856.592 1123.98 857.129 1118.6 858.722 1113.32C859.26 1117.62 859.799 1121.93 860.336 1126.24C859.26 1134.85 858.185 1143.47 857.108 1152.08C858.569 1163.09 859.644 1174.12 860.336 1185.2C860.133 1194.78 859.596 1203.94 858.722 1212.66C862.33 1217.07 864.214 1222.18 864.372 1228.01C867.878 1226.25 871.106 1224.1 874.057 1221.55C875.34 1261.43 875.071 1301.28 873.25 1341.08C871.034 1340.83 868.88 1341.1 866.793 1341.89C868.583 1344.82 867.507 1346.17 863.565 1345.93C860.958 1303.31 859.344 1260.77 858.722 1218.32C856.91 1216.28 855.834 1216.82 855.494 1219.93C854.417 1221.55 853.342 1223.16 852.266 1224.78C838.387 1236.56 822.245 1243.02 803.84 1244.16C795.876 1243.72 788.344 1244.8 781.242 1247.39C753.686 1251.2 725.977 1253.89 698.111 1255.47C685.099 1256.09 675.145 1250.98 668.249 1240.12C661.398 1215.85 662.475 1191.89 671.477 1168.24C677.396 1154.78 687.081 1145.09 700.532 1139.16C728.474 1134.95 756.454 1130.91 784.47 1127.05C796.381 1124.69 808.218 1122 819.982 1118.97C828.813 1115.7 836.345 1110.58 842.58 1103.62C844.434 1101.37 846.048 1101.64 847.423 1104.43C845.885 1107.59 843.731 1110.28 840.966 1112.51C842.043 1113.05 843.118 1113.59 844.195 1114.12C838.185 1115.8 838.185 1117.69 844.195 1119.78Z" fill="#2C3252"/>
<path fill-rule="evenodd" clip-rule="evenodd" d="M677.929 1203.78C677.424 1209.5 677.963 1214.88 679.543 1219.93C680.62 1222.62 681.695 1225.31 682.771 1228.01C680.2 1226.64 678.316 1224.48 677.122 1221.55C675.814 1215.31 676.084 1209.39 677.929 1203.78Z" fill="#6B5E4E"/>
<path fill-rule="evenodd" clip-rule="evenodd" d="M840.965 1121.39C842.57 1137.25 843.107 1153.41 842.579 1169.85C839.851 1198.42 824.786 1216.73 797.382 1224.78C762.669 1230.56 727.695 1233.25 692.46 1232.85C688.51 1232.67 685.282 1231.05 682.775 1228.01C681.699 1225.31 680.624 1222.62 679.547 1219.93C704.316 1217.24 729.606 1214.82 755.413 1212.66C775.029 1210.39 793.862 1205.54 811.91 1198.12C824.657 1184.65 830.576 1168.5 829.666 1149.66C829.606 1143.92 829.069 1138.27 828.052 1132.7C829.17 1131.06 830.245 1129.44 831.28 1127.85C834.061 1125.08 837.29 1122.93 840.965 1121.39Z" fill="#FBBB40"/>
<path fill-rule="evenodd" clip-rule="evenodd" d="M840.965 1121.39C841.517 1120.04 842.592 1119.5 844.193 1119.78C844.193 1134.85 844.193 1149.93 844.193 1165.01C844.576 1167.09 844.038 1168.71 842.579 1169.85C843.107 1153.41 842.569 1137.25 840.965 1121.39Z" fill="#AE915F"/>
<path fill-rule="evenodd" clip-rule="evenodd" d="M831.281 1127.85C830.246 1129.44 829.171 1131.06 828.052 1132.7C829.069 1138.27 829.607 1143.92 829.666 1149.66C830.577 1168.5 824.658 1184.65 811.91 1198.12C793.862 1205.54 775.03 1210.39 755.414 1212.66C729.607 1214.82 704.317 1217.24 679.548 1219.93C677.967 1214.88 677.428 1209.5 677.933 1203.78C677.633 1179.85 687.856 1162.35 708.603 1151.28C739.256 1146.86 769.926 1142.56 800.611 1138.35C811.139 1135.59 821.361 1132.09 831.281 1127.85Z" fill="#FDD674"/>
<path fill-rule="evenodd" clip-rule="evenodd" d="M855.492 1219.93C857.101 1247.11 857.639 1274.57 857.106 1302.31C855.398 1304.09 854.052 1306.25 853.071 1308.78C851.048 1335.75 838.942 1356.48 816.751 1370.97C794.732 1378.35 772.134 1383.19 748.956 1385.51C688.75 1390.08 628.488 1393.04 568.168 1394.39C568.168 1386.85 568.168 1379.31 568.168 1371.78C570.285 1368.15 571.36 1363.84 571.396 1358.85C571.36 1353.86 570.285 1349.55 568.168 1345.93C568.168 1344.85 568.168 1343.78 568.168 1342.7C565.553 1338.69 561.787 1336.26 556.868 1335.43C504.154 1335.96 451.423 1336.23 398.678 1336.24C393.807 1335.97 388.964 1336.24 384.151 1337.05C381.207 1338.11 379.055 1340 377.694 1342.7C376.09 1359.64 375.55 1376.87 376.08 1394.39C310.83 1393.34 245.725 1389.84 180.764 1383.89C168.885 1381.46 157.048 1378.77 145.252 1375.81C138.493 1372.73 131.498 1370.03 124.268 1367.74C120.13 1363.65 115.556 1360.15 110.547 1357.24C98.4633 1337.98 91.7386 1316.98 90.3698 1294.24C89.8387 1269.72 90.3763 1245.49 91.984 1221.55C96.8685 1225.9 101.711 1230.21 106.512 1234.47C103.115 1234.95 99.887 1234.41 96.8265 1232.85C95.9355 1229.89 94.5909 1227.2 92.7911 1224.78C89.3141 1241.48 93.3496 1256.02 104.897 1268.39C111.701 1273.87 118.695 1278.98 125.882 1283.74C139.878 1286.53 153.868 1289.22 167.851 1291.81C335.354 1308.18 503.229 1311.41 671.475 1301.51C718.369 1297.61 765.18 1292.76 811.909 1286.97C830.022 1281.76 843.205 1270.72 851.456 1253.85C852.746 1246.44 852.477 1239.17 850.649 1232.05C851.456 1231.24 852.263 1230.43 853.071 1229.62C853.608 1232.85 854.147 1236.08 854.685 1239.32C854.954 1236.89 855.222 1234.47 855.492 1232.05C855.38 1228.84 854.305 1226.41 852.263 1224.78C853.34 1223.16 854.415 1221.55 855.492 1219.93Z" fill="black" fill-opacity="0.35"/>
<path fill-rule="evenodd" clip-rule="evenodd" d="M106.513 1234.47C117.674 1239.98 129.511 1243.21 142.025 1244.16C149.158 1246.54 156.692 1247.61 164.624 1247.39C170.246 1248.22 175.626 1249.29 180.766 1250.62C182.524 1253.23 185.214 1254.58 188.837 1254.66C219.382 1258.62 250.051 1261.32 280.845 1262.74C281.652 1263.55 282.459 1264.35 283.266 1265.16C285.526 1264.17 287.947 1263.63 290.53 1263.55C302.136 1264.46 313.703 1265.53 325.235 1266.78C327.309 1266.05 329.193 1264.97 330.885 1263.55C342.353 1266.8 354.19 1268.41 366.397 1268.39C429.338 1267.12 492.291 1266.32 555.256 1265.97C559.88 1265.67 564.184 1264.87 568.169 1263.55C578.5 1263.48 588.723 1264.55 598.839 1266.78C623.014 1264.76 647.227 1263.41 671.477 1262.74C707.147 1260.48 739.431 1257.25 768.328 1253.05C779.182 1250.62 789.942 1248.2 800.611 1245.78C802.213 1246.05 803.288 1245.51 803.84 1244.16C822.245 1243.02 838.386 1236.56 852.265 1224.78C854.307 1226.41 855.382 1228.84 855.494 1232.05C855.224 1234.47 854.956 1236.89 854.687 1239.31C854.149 1236.08 853.61 1232.85 853.072 1229.62C852.265 1230.43 851.458 1231.24 850.651 1232.05C852.478 1239.17 852.748 1246.44 851.458 1253.85C843.206 1270.72 830.023 1281.76 811.911 1286.97C765.182 1292.76 718.37 1297.61 671.477 1301.51C503.231 1311.41 335.356 1308.18 167.852 1291.81C153.87 1289.22 139.88 1286.53 125.884 1283.74C118.697 1278.98 111.703 1273.87 104.899 1268.39C93.3514 1256.02 89.3159 1241.48 92.7929 1224.78C94.5927 1227.2 95.9373 1229.89 96.8283 1232.85C99.8888 1234.41 103.117 1234.95 106.513 1234.47Z" fill="#464646" fill-opacity="0.05"/>
<path fill-rule="evenodd" clip-rule="evenodd" d="M803.837 1244.16C803.285 1245.51 802.21 1246.05 800.608 1245.78C794.182 1246.62 787.726 1247.16 781.238 1247.39C788.341 1244.8 795.872 1243.72 803.837 1244.16Z" fill="#3A3036"/>
<path fill-rule="evenodd" clip-rule="evenodd" d="M797.379 1224.78C762.898 1234.07 727.924 1236.76 692.457 1232.85C727.691 1233.25 762.666 1230.56 797.379 1224.78Z" fill="#4E4340"/>
<path fill-rule="evenodd" clip-rule="evenodd" d="M398.678 1336.24C446.305 1338.29 494.193 1338.29 542.34 1336.24C551.548 1336.49 560.156 1338.65 568.167 1342.7C568.167 1343.78 568.167 1344.85 568.167 1345.93C568.167 1354.54 568.167 1363.16 568.167 1371.78C568.167 1379.31 568.167 1386.85 568.167 1394.39C566.426 1400.43 563.735 1405.81 560.096 1410.54C501.49 1414.75 442.842 1414.75 384.151 1410.54C382.08 1407.14 380.735 1403.37 380.115 1399.24C378.414 1380.43 377.607 1361.58 377.694 1342.7C379.055 1340 381.206 1338.11 384.151 1337.04C388.964 1336.24 393.807 1335.97 398.678 1336.24Z" fill="#C3C4D4"/>
<path fill-rule="evenodd" clip-rule="evenodd" d="M90.3672 1294.24C91.736 1316.98 98.4607 1337.98 110.544 1357.24C115.553 1360.15 120.128 1363.65 124.265 1367.74C131.495 1370.03 138.491 1372.72 145.249 1375.81C157.046 1378.77 168.883 1381.46 180.761 1383.89C245.722 1389.84 310.827 1393.34 376.077 1394.39C375.548 1376.87 376.087 1359.64 377.691 1342.7C377.604 1361.58 378.411 1380.43 380.113 1399.24C380.733 1403.37 382.077 1407.14 384.148 1410.54C333.505 1410.49 282.926 1408.6 232.415 1404.89C203.639 1402.69 175.123 1398.92 146.864 1393.58C114.176 1385.92 95.3453 1365.73 90.3672 1333.01C90.3672 1320.08 90.3672 1307.16 90.3672 1294.24Z" fill="black" fill-opacity="0.45"/>
<path fill-rule="evenodd" clip-rule="evenodd" d="M857.107 1302.31C857.107 1314.16 857.107 1326.01 857.107 1337.85C855.227 1352.39 848.77 1364.51 837.737 1374.2C821.634 1385.38 803.878 1392.92 784.469 1396.81C710.008 1406.52 635.218 1411.1 560.098 1410.54C563.736 1405.81 566.427 1400.43 568.169 1394.39C628.489 1393.04 688.751 1390.08 748.957 1385.51C772.135 1383.19 794.733 1378.35 816.753 1370.97C838.943 1356.48 851.049 1335.75 853.072 1308.78C854.053 1306.25 855.399 1304.09 857.107 1302.31Z" fill="black" fill-opacity="0.45"/>
<path fill-rule="evenodd" clip-rule="evenodd" d="M863.564 1371.78C868.815 1454.02 830.614 1500.6 748.957 1511.5C631.054 1526.4 512.682 1531.78 393.837 1527.66C327.357 1525.69 261.176 1520.3 195.293 1511.5C167.177 1507.93 141.89 1497.7 119.427 1480.81C102.854 1465.58 92.092 1447 87.1429 1425.08C84.5323 1408.81 85.0703 1392.66 88.7571 1376.62C94.7812 1384.01 101.775 1389.93 109.741 1394.39C108.205 1395.93 106.591 1397.54 104.899 1399.24C103.953 1398.9 103.146 1398.36 102.478 1397.62C102.24 1404.96 100.896 1411.96 98.4422 1418.62C100.847 1424.85 104.076 1430.5 108.127 1435.58C107.39 1436.25 106.85 1437.06 106.513 1438.01C108.804 1441.98 110.418 1446.28 111.356 1450.93C112.636 1450.23 113.982 1449.69 115.391 1449.31C119.517 1453.47 123.552 1453.47 127.497 1449.31C128.603 1453 128.871 1456.77 128.305 1460.62C128.931 1459.12 130.008 1458.04 131.533 1457.39C134.986 1458.58 138.214 1460.19 141.218 1462.24C142.563 1458.2 144.446 1457.93 146.868 1461.43C145.791 1461.97 144.716 1462.51 143.639 1463.04C146.868 1464.12 150.096 1465.2 153.324 1466.27C156.832 1470.25 161.137 1473.21 166.238 1475.16C171.292 1473.24 176.402 1471.62 181.573 1470.31C185.07 1472.74 184.801 1474.62 180.765 1475.97C193.258 1482.64 206.171 1483.45 219.506 1478.39C232.619 1481.63 245.265 1480.55 257.439 1475.16C262.052 1477.87 267.163 1479.49 272.774 1480.01C276.746 1478.23 280.782 1478.23 284.88 1480.01C289.807 1477.19 295.188 1475.57 301.022 1475.16C309.041 1476.58 317.112 1477.65 325.235 1478.39C337.238 1476.05 349.344 1474.97 361.554 1475.16C361.554 1477.31 361.554 1479.47 361.554 1481.62C372.866 1481.89 384.165 1481.62 395.452 1480.81C397.918 1478.61 400.609 1476.73 403.522 1475.16C406.468 1477.02 409.697 1478.1 413.208 1478.39C413.208 1475.16 413.208 1471.93 413.208 1468.7C421.724 1467.56 430.332 1467.56 439.034 1468.7C439.034 1470.85 439.034 1473.01 439.034 1475.16C446.234 1476.15 452.69 1474.54 458.405 1470.31C460.419 1471.19 462.303 1472.26 464.054 1473.54C464.834 1472.01 465.102 1470.4 464.861 1468.7C474.453 1468.4 483.868 1468.4 493.11 1468.7C494.724 1467.62 496.338 1466.54 497.952 1465.47C512.494 1468.55 527.291 1469.63 542.342 1468.7C541.638 1473.32 542.983 1477.09 546.378 1480.01C547.871 1479.12 549.215 1478.05 550.413 1476.77C569.221 1475.43 588.054 1474.62 606.909 1474.35C610.301 1472.57 613.529 1470.68 616.594 1468.7C632.334 1473.38 648.208 1477.68 664.213 1481.62C673.596 1482.48 683.012 1481.4 692.461 1478.39C695.1 1479 697.521 1480.08 699.725 1481.62C705.273 1480.03 710.922 1478.95 716.674 1478.39C727.285 1480.89 738.045 1481.97 748.957 1481.62C748.957 1484.31 748.957 1487 748.957 1489.7C753.262 1489.7 757.566 1489.7 761.871 1489.7C761.609 1486.42 761.879 1483.19 762.678 1480.01C766.739 1483.32 770.235 1482.24 773.17 1476.77C781.104 1475.01 788.907 1472.86 796.576 1470.31C800.154 1471.2 803.383 1472.81 806.261 1475.16C811.699 1468.91 817.888 1463.52 824.824 1459.01C825.77 1459.34 826.577 1459.88 827.245 1460.62C829.358 1456.62 832.317 1453.39 836.123 1450.93C835.232 1448.5 835.232 1445.81 836.123 1442.85C837.737 1442.85 839.352 1442.85 840.966 1442.85C836.921 1438.63 833.692 1432.71 831.281 1425.08C834.349 1422.76 834.887 1420.07 832.895 1417.01C830.9 1418.21 828.746 1418.75 826.438 1418.62C822.054 1426.5 815.06 1430.81 805.454 1431.54C786.661 1430.03 767.829 1429.49 748.957 1429.93C748.957 1432.08 748.957 1434.24 748.957 1436.39C740.349 1436.39 731.739 1436.39 723.13 1436.39C723.13 1438.54 723.13 1440.7 723.13 1442.85C688.679 1442.67 654.244 1443.21 619.823 1444.47C619.823 1442.85 619.823 1441.24 619.823 1439.62C593.278 1440.2 566.912 1438.58 540.728 1434.77C532.838 1434.81 524.767 1435.08 516.515 1435.58C512.073 1435.92 508.038 1437.27 504.409 1439.62C500.007 1435.54 495.704 1435.54 491.495 1439.62C482.868 1435.48 474.259 1436.02 465.668 1441.24C464.12 1437.75 461.699 1437.21 458.405 1439.62C456.083 1439.27 453.932 1438.46 451.948 1437.2C443.607 1436.93 435.269 1436.66 426.928 1436.39C413.816 1436.15 400.903 1437.23 388.188 1439.62C380.672 1438.2 373.14 1438.74 365.589 1441.24C347.084 1439.25 328.521 1438.18 309.9 1438.01C309.9 1436.39 309.9 1434.77 309.9 1433.16C301.354 1432.87 301.354 1432.06 309.9 1430.74C322.006 1430.47 334.113 1430.2 346.219 1429.93C376.393 1429.98 406.794 1430.25 437.42 1430.74C433.327 1430.44 429.561 1429.63 426.121 1428.31C540.4 1429.74 654.47 1425.71 768.328 1416.2C787.102 1413.88 805.397 1409.58 823.21 1403.28C836.113 1397.12 847.413 1389.04 857.107 1379.04C858.638 1378.26 860.252 1378 861.95 1378.24C861.517 1375.65 862.057 1373.5 863.564 1371.78Z" fill="#212743"/>
<path fill-rule="evenodd" clip-rule="evenodd" d="M109.741 1394.39C112.378 1395.53 114.532 1397.42 116.197 1400.04C136.706 1408.99 158.227 1414.37 180.765 1416.2C208.627 1417.4 236.338 1419.82 263.895 1423.47C272.797 1421.67 281.675 1421.94 290.529 1424.27C335.75 1424.99 380.947 1426.33 426.12 1428.31C429.56 1429.63 433.326 1430.44 437.42 1430.74C406.794 1430.25 376.392 1429.98 346.218 1429.93C334.112 1430.2 322.006 1430.47 309.899 1430.74C301.354 1432.06 301.354 1432.87 309.899 1433.16C309.899 1434.77 309.899 1436.39 309.899 1438.01C328.52 1438.18 347.083 1439.25 365.588 1441.24C373.14 1438.74 380.671 1438.2 388.187 1439.62C400.902 1437.23 413.815 1436.15 426.927 1436.39C435.268 1436.66 443.607 1436.93 451.947 1437.2C453.931 1438.46 456.083 1439.27 458.404 1439.62C461.698 1437.21 464.12 1437.75 465.668 1441.24C474.258 1436.02 482.867 1435.48 491.495 1439.62C495.703 1435.54 500.006 1435.54 504.408 1439.62C508.037 1437.27 512.072 1435.93 516.514 1435.58C524.766 1435.08 532.837 1434.81 540.727 1434.77C566.911 1438.58 593.277 1440.2 619.822 1439.62C619.822 1441.24 619.822 1442.85 619.822 1444.47C654.243 1443.21 688.678 1442.67 723.13 1442.85C723.13 1440.7 723.13 1438.54 723.13 1436.39C731.738 1436.39 740.348 1436.39 748.957 1436.39C748.957 1434.24 748.957 1432.08 748.957 1429.93C767.828 1429.49 786.661 1430.03 805.453 1431.54C815.059 1430.81 822.053 1426.5 826.437 1418.62C828.746 1418.75 830.899 1418.21 832.894 1417.01C834.886 1420.07 834.348 1422.76 831.28 1425.08C833.691 1432.71 836.92 1438.63 840.965 1442.85C839.351 1442.85 837.737 1442.85 836.122 1442.85C835.231 1445.81 835.231 1448.5 836.122 1450.93C832.316 1453.39 829.357 1456.62 827.244 1460.62C826.576 1459.88 825.769 1459.34 824.823 1459.01C817.887 1463.52 811.698 1468.91 806.26 1475.16C803.382 1472.81 800.154 1471.2 796.575 1470.31C788.906 1472.86 781.103 1475.01 773.169 1476.77C770.235 1482.24 766.738 1483.32 762.677 1480.01C761.878 1483.19 761.609 1486.42 761.87 1489.7C757.565 1489.7 753.262 1489.7 748.957 1489.7C748.957 1487 748.957 1484.31 748.957 1481.62C738.045 1481.97 727.285 1480.89 716.673 1478.39C710.922 1478.95 705.272 1480.03 699.724 1481.62C697.521 1480.08 695.099 1479 692.46 1478.39C683.011 1481.4 673.595 1482.48 664.212 1481.62C648.207 1477.68 632.334 1473.38 616.594 1468.7C613.528 1470.68 610.3 1472.57 606.909 1474.35C588.053 1474.62 569.221 1475.43 550.412 1476.77C549.215 1478.05 547.87 1479.12 546.377 1480.01C542.982 1477.09 541.638 1473.32 542.341 1468.7C527.291 1469.63 512.493 1468.55 497.951 1465.47C496.337 1466.54 494.723 1467.62 493.109 1468.7C483.868 1468.4 474.452 1468.4 464.861 1468.7C465.101 1470.4 464.833 1472.01 464.054 1473.54C462.302 1472.26 460.418 1471.19 458.404 1470.31C452.69 1474.54 446.233 1476.15 439.034 1475.16C439.034 1473.01 439.034 1470.85 439.034 1468.7C430.332 1467.56 421.723 1467.56 413.207 1468.7C413.207 1471.93 413.207 1475.16 413.207 1478.39C409.696 1478.1 406.468 1477.02 403.522 1475.16C400.608 1476.73 397.917 1478.61 395.451 1480.81C384.164 1481.62 372.865 1481.89 361.553 1481.62C361.553 1479.47 361.553 1477.31 361.553 1475.16C349.343 1474.97 337.237 1476.05 325.234 1478.39C317.111 1477.65 309.04 1476.58 301.021 1475.16C295.188 1475.57 289.806 1477.19 284.879 1480.01C280.781 1478.23 276.746 1478.23 272.773 1480.01C267.162 1479.49 262.052 1477.87 257.438 1475.16C245.264 1480.55 232.619 1481.63 219.505 1478.39C206.17 1483.45 193.257 1482.64 180.765 1475.97C184.8 1474.62 185.07 1472.74 181.572 1470.31C176.402 1471.62 171.291 1473.24 166.237 1475.16C161.136 1473.21 156.831 1470.25 153.324 1466.27C150.095 1465.2 146.867 1464.12 143.638 1463.04C144.715 1462.51 145.79 1461.97 146.867 1461.43C144.446 1457.93 142.562 1458.2 141.217 1462.24C138.213 1460.19 134.985 1458.58 131.532 1457.39C130.007 1458.04 128.93 1459.12 128.304 1460.62C128.87 1456.77 128.602 1453 127.497 1449.31C123.552 1453.47 119.516 1453.47 115.39 1449.31C113.981 1449.69 112.635 1450.23 111.355 1450.93C110.417 1446.28 108.803 1441.98 106.512 1438.01C106.85 1437.06 107.389 1436.25 108.126 1435.58C104.075 1430.5 100.847 1424.85 98.4414 1418.62C100.895 1411.96 102.24 1404.96 102.477 1397.62C103.145 1398.36 103.952 1398.9 104.898 1399.24C106.59 1397.54 108.204 1395.93 109.741 1394.39Z" fill="#202541"/>
</svg>
