
<svg width="950" height="1616" viewBox="0 0 950 1616" fill="none" xmlns="http://www.w3.org/2000/svg">
<g clip-path="url(#clip0_1890_1569)">
<rect x="114.684" y="623.119" width="722.342" height="879.898" fill="#4455A5"/>
<path fill-rule="evenodd" clip-rule="evenodd" d="M372.297 -0.855469C441.335 -0.855469 510.376 -0.855469 579.414 -0.855469C638.521 1.51238 697.861 4.65079 757.432 8.55978C771.348 10.3274 785.042 13.1805 798.513 17.1191C825.041 27.6739 841.874 46.7898 849.009 74.4666C851.48 104.043 852.336 133.715 851.576 163.484C851.576 428.822 851.576 694.161 851.576 959.5C853.235 960.885 854.661 962.597 855.855 964.636C862.617 964.213 869.464 964.213 876.396 964.636C878.796 960.403 881.363 960.403 884.099 964.636C886.61 962.59 889.177 962.59 891.801 964.636C894.818 963.876 894.532 963.02 890.946 962.068C899.504 961.877 908.063 962.447 916.621 963.78C912.654 967.192 908.09 969.188 902.928 969.772C902.928 971.483 902.928 973.195 902.928 974.907C908.171 975.529 913.306 976.67 918.333 978.331C921.322 977.525 924.175 976.383 926.892 974.907C928.033 975.477 929.173 976.049 930.315 976.619C924.334 979.329 924.05 982.183 929.459 985.178C930.305 987.976 930.589 990.829 930.315 993.738C926.65 988.65 922.085 984.37 916.621 980.899C892.621 980.099 868.657 979.528 844.729 979.187C842.785 981.147 841.073 983.145 839.594 985.178C836.072 989.333 832.934 993.897 830.18 998.873C829.038 1018.85 829.038 1038.82 830.18 1058.79C834.108 1065.36 840.099 1068.21 848.153 1067.35C848.153 1069.06 848.153 1070.77 848.153 1072.48C843.06 1072.81 838.781 1071.1 835.315 1067.35C831.176 1071.08 826.613 1071.65 821.621 1069.06C820.774 1072.44 820.488 1075.86 820.765 1079.33C825.129 1079.52 829.122 1078.38 832.747 1075.91C839.106 1079.27 839.392 1083.26 833.603 1087.89C831.322 1085.61 829.038 1083.32 826.756 1081.04C824.398 1083.98 821.544 1086.26 818.198 1087.89C816.876 1078.64 817.446 1069.51 819.91 1060.5C820.748 1062.71 821.034 1065 820.765 1067.35C823.619 1067.35 826.471 1067.35 829.324 1067.35C829.178 1063.19 827.467 1059.77 824.189 1057.08C825.685 1053.23 826.257 1049.24 825.901 1045.09C824.189 1045.09 822.477 1045.09 820.765 1045.09C820.233 1033.81 820.803 1022.69 822.477 1011.71C817.061 1008.58 815.92 1004.3 819.054 998.873C815.452 998.361 812.029 998.932 808.783 1000.59C809.376 1002.63 810.232 1002.63 811.351 1000.59C814.714 1007.51 813.859 1013.79 808.783 1019.42C806.695 1008.05 804.983 996.639 803.648 985.178C803.078 971.483 802.507 957.789 801.937 944.094C804.102 956.214 806.385 968.483 808.783 980.899C806.894 982.835 807.464 984.263 810.495 985.178C811.906 979.555 812.761 973.849 813.063 968.06C815.161 973.646 817.159 979.351 819.054 985.178C820.57 983.766 821.14 982.054 820.765 980.043C824.329 980.091 827.468 978.949 830.18 976.619C830.671 972.526 831.527 968.532 832.747 964.636C830.466 955.507 830.466 946.376 832.747 937.246C831.289 931.03 830.147 924.753 829.324 918.416C829.61 696.443 829.324 474.471 828.468 252.5C827.612 207.989 826.756 163.481 825.901 118.975C826.185 103.558 825.901 88.1509 825.045 72.7547C821.847 60.4188 814.716 51.0036 803.648 44.5089C794.349 40.3289 784.648 37.4757 774.549 35.9496C673.226 26.7631 571.663 23.054 469.865 24.8225C382.442 23.3467 295.145 25.9145 207.973 32.5259C189.519 33.5162 171.26 35.7988 153.198 39.3733C138.648 44.7943 128.663 54.7801 123.243 69.331C121.496 100.692 120.64 132.077 120.675 163.484C116.537 417.404 116.252 671.33 119.819 925.263C120.15 941.372 121.006 957.35 122.387 973.195C122.719 977.324 125.001 979.036 129.234 978.331C129.842 971.73 130.127 964.883 130.09 957.789C130.431 954.533 131.857 951.965 134.369 950.085C132.111 935.973 132.397 921.422 135.225 906.433C135.795 910.998 136.366 915.562 136.937 920.128C138.722 914.552 139.578 908.846 139.504 903.009C137.792 903.009 136.081 903.009 134.369 903.009C134.101 900.659 134.386 898.375 135.225 896.161C135.768 899.245 136.909 899.815 138.648 897.873C142.614 902.358 145.467 907.494 147.207 913.28C147.211 908.913 148.637 905.489 151.486 903.009C148.632 939.537 145.779 976.058 142.928 1012.57C140.626 1040.11 137.203 1067.5 132.657 1094.74C130.413 1091.21 130.413 1087.5 132.657 1083.61C131.758 1082.43 130.617 1081.57 129.234 1081.04C125.721 1084.97 124.009 1089.54 124.099 1094.74C121.285 1094.37 118.717 1094.94 116.396 1096.45C119.243 1085.57 115.82 1077.01 106.126 1070.77C97.9417 1069.2 89.6685 1068.63 81.3059 1069.06C81.7941 1072.12 81.2236 1074.97 79.5942 1077.62C69.0898 1075.53 58.5342 1075.53 47.9275 1077.62C44.0716 1077.39 40.3628 1076.54 36.8014 1075.05C42.5901 1074.75 48.2959 1073.89 53.9185 1072.48C44.8103 1070.94 35.6811 1069.52 26.5311 1068.2C24.8877 1065.77 23.4612 1063.21 22.2519 1060.5C20.5258 1059.68 18.5289 1059.39 16.2609 1059.64C15.1197 1057.93 13.9786 1056.22 12.8375 1054.51C14.4529 1049.85 15.0235 1045 14.5492 1039.96C6.59735 1039.06 4.31506 1042.2 7.70232 1049.37C7.50807 1051.56 6.36694 1052.99 4.27889 1053.65C3.70833 1051.37 3.13775 1049.09 2.56718 1046.81C7.53714 1031.65 6.96657 1016.81 0.855469 1002.3C3.12852 994.46 5.1255 986.473 6.84646 978.331C10.3748 974.383 14.0835 970.674 17.9726 967.204C20.7697 966.358 23.6226 966.074 26.5311 966.348C26.5311 964.636 26.5311 962.924 26.5311 961.212C30.1788 959.819 34.1729 958.963 38.5131 958.644C57.3334 957.789 76.1622 957.503 94.9996 957.789C94.7143 669.054 94.9996 380.319 95.8555 91.5852C101.697 42.3761 129.369 14.701 178.873 8.55978C243.602 4.98997 308.077 1.85155 372.297 -0.855469Z" fill="#1F2A50"/>
<path fill-rule="evenodd" clip-rule="evenodd" d="M798.513 69.331C801.937 73.0474 805.076 77.0417 807.928 81.314C809.235 251.398 807.808 421.443 803.648 591.45C754.784 585.545 705.714 580.696 656.441 576.899C546.895 573.542 437.345 573.542 327.792 576.899C266.25 581.367 204.628 586.788 142.928 593.162C141.715 568.619 140.288 544.082 138.648 519.551C137.59 374.61 137.876 229.673 139.504 84.7378C140.807 78.9963 143.66 74.1461 148.063 70.1869C152.463 68.6447 156.457 66.3623 160.045 63.3395C164.609 62.1982 169.174 61.057 173.738 59.9157C243.129 52.2902 312.74 48.2959 382.567 47.9327C511.74 44.2426 640.69 47.6663 769.414 58.2039C779.768 60.6311 789.467 64.34 798.513 69.331Z" fill="#FDFEFE"/>
<path fill-rule="evenodd" clip-rule="evenodd" d="M825.902 118.974C823.177 120.86 821.751 119.719 821.623 115.551C821.053 120.116 820.481 124.681 819.911 129.246C819.072 127.032 818.786 124.749 819.055 122.398C817.344 122.398 815.632 122.398 813.92 122.398C814.201 126.998 813.915 131.563 813.064 136.093C811.406 116.724 810.264 97.3225 809.641 77.8896C807.785 75.8951 806.359 73.6127 805.362 71.0421C803.326 69.4523 801.045 68.8818 798.515 69.3303C789.468 64.3393 779.77 60.6304 769.416 58.2032C640.691 47.6656 511.741 44.2419 382.569 47.932C312.741 48.2952 243.131 52.2895 173.74 59.915C169.175 61.0563 164.611 62.1975 160.046 63.3388C156.458 66.3616 152.464 68.644 148.064 70.1862C143.661 74.1454 140.808 78.9956 139.506 84.7371C138.083 106.124 137.228 127.808 136.938 149.788C136.89 134.104 135.749 118.697 133.515 103.568C134.431 114.32 134.431 125.162 133.515 136.093C133.462 143.4 131.751 150.247 128.38 156.635C128.073 152.103 128.358 147.538 129.235 142.94C125.422 122.458 125.422 101.915 129.235 81.3133C130.947 80.7428 132.088 79.6015 132.659 77.8896C131.178 77.7802 129.466 77.2095 127.524 76.1777C126.239 77.6773 125.383 79.3892 124.956 81.3133C125.221 109.327 123.795 136.717 120.677 163.483C120.642 132.076 121.498 100.692 123.244 69.3303C128.665 54.7794 138.65 44.7936 153.199 39.3726C171.261 35.7981 189.52 33.5155 207.974 32.5252C295.146 25.9138 382.444 23.346 469.866 24.8218C571.665 23.0533 673.228 26.7624 774.551 35.9489C784.65 37.475 794.35 40.3282 803.65 44.5082C814.718 51.0029 821.849 60.4181 825.046 72.754C825.902 88.1502 826.186 103.557 825.902 118.974Z" fill="#CDD2E3"/>
<path fill-rule="evenodd" clip-rule="evenodd" d="M798.515 69.3307C801.045 68.8822 803.326 69.4527 805.362 71.0425C806.36 73.6131 807.786 75.8955 809.641 77.89C810.264 97.3229 811.406 116.724 813.064 136.093C813.915 131.564 814.201 126.999 813.92 122.398C815.632 122.398 817.344 122.398 819.055 122.398C818.787 124.75 819.073 127.032 819.911 129.246C820.481 124.681 821.053 120.116 821.623 115.551C821.751 119.719 823.177 120.861 825.902 118.975C826.758 163.48 827.614 207.988 828.47 252.5C829.326 474.471 829.612 696.443 829.326 918.415C827.905 935.806 827.049 953.495 826.758 971.483C825.046 973.195 823.335 974.907 821.623 976.619C816.414 917.325 811.849 857.981 807.929 798.585C805.225 768.258 801.801 738.016 797.659 707.856C792.755 686.4 779.917 671.849 759.146 664.204C748.49 660.651 737.648 657.798 726.623 655.644C610.054 641.537 493.087 637.257 375.722 642.805C362.557 642.639 349.434 643.211 336.353 644.517C290.184 645.724 244.538 651.145 199.416 660.78C166.327 670.132 148.925 692.102 147.209 726.687C138.099 809.801 131.253 893.111 126.668 976.619C125.456 975.111 124.029 973.971 122.389 973.195C121.008 957.35 120.152 941.371 119.821 925.263C116.254 671.33 116.539 417.404 120.677 163.483C123.795 136.718 125.221 109.328 124.956 81.3137C125.383 79.3896 126.239 77.6777 127.524 76.1781C129.466 77.2099 131.178 77.7806 132.659 77.89C132.089 79.6018 130.947 80.7431 129.236 81.3137C125.422 101.916 125.422 122.458 129.236 142.941C128.359 147.539 128.073 152.104 128.38 156.636C131.751 150.247 133.463 143.4 133.515 136.093C134.431 125.162 134.431 114.321 133.515 103.568C135.75 118.698 136.891 134.105 136.938 149.788C137.228 127.808 138.084 106.124 139.506 84.7374C137.877 229.672 137.592 374.609 138.65 519.551C140.29 544.082 141.717 568.618 142.929 593.161C204.63 586.788 266.251 581.366 327.794 576.898C437.347 573.541 546.897 573.541 656.443 576.898C705.716 580.695 754.786 585.545 803.65 591.449C807.809 421.442 809.237 251.398 807.929 81.3137C805.078 77.0414 801.938 73.0471 798.515 69.3307Z" fill="#D0D8E5"/>
<path fill-rule="evenodd" clip-rule="evenodd" d="M688.964 117.263C700.347 115.173 709.189 118.597 715.495 127.534C716.637 247.935 716.637 368.337 715.495 488.738C713.352 495.233 708.789 498.085 701.802 497.297C698.664 496.727 695.525 496.155 692.387 495.585C689.744 493.45 687.177 491.169 684.684 488.738C683.543 367.195 683.543 245.653 684.684 124.111C686.559 122.068 687.985 119.785 688.964 117.263Z" fill="#D9DEE9"/>
<path fill-rule="evenodd" clip-rule="evenodd" d="M579.414 117.263C590.972 116.543 598.675 121.679 602.523 132.669C603.664 252.5 603.664 372.33 602.523 492.161C600.588 498.851 596.023 501.703 588.829 500.72C586.261 500.434 583.694 500.15 581.126 499.864C579.129 495.585 575.991 492.447 571.712 490.449C570.57 370.048 570.57 249.646 571.712 129.246C572.282 126.963 572.853 124.681 573.423 122.398C576.022 121.262 578.019 119.551 579.414 117.263Z" fill="#D8DDE9"/>
<path fill-rule="evenodd" clip-rule="evenodd" d="M464.73 117.263C477.054 115 485.327 119.565 489.55 130.958C491.857 249.07 492.427 367.188 491.262 485.314C487.191 498.904 478.917 502.328 466.442 495.585C463.546 492.402 460.978 488.979 458.739 485.314C457.597 365.483 457.597 245.653 458.739 125.822C460.69 122.776 462.688 119.923 464.73 117.263Z" fill="#D8DEEA"/>
<path fill-rule="evenodd" clip-rule="evenodd" d="M350.046 117.263C360.51 115.398 369.353 118.251 376.578 125.822C377.72 246.223 377.72 366.625 376.578 487.026C376.111 490.157 374.683 492.724 372.299 494.729C360.409 500.149 350.995 497.581 344.056 487.026C342.914 366.625 342.914 246.223 344.056 125.822C345.762 122.701 347.76 119.848 350.046 117.263Z" fill="#D8DEEA"/>
<path fill-rule="evenodd" clip-rule="evenodd" d="M240.496 117.263C263.61 116.434 271.598 127.561 264.46 150.644C263.183 264.487 262.613 378.326 262.749 492.161C260.226 493.763 258.514 496.047 257.613 499.009C246.208 502.65 237.934 499.226 232.794 488.737C230.419 368.915 229.848 249.085 231.082 129.246C233.934 124.974 237.073 120.979 240.496 117.263Z" fill="#D9DEEA"/>
<path fill-rule="evenodd" clip-rule="evenodd" d="M375.72 642.805C392.109 643.894 408.655 645.606 425.359 647.941C432.836 647.402 440.539 646.26 448.468 644.517C481.237 645.628 514.045 646.768 546.891 647.941C548.704 649.988 550.987 651.13 553.738 651.365C558.596 651.313 563.445 650.743 568.287 649.653C574.272 652.003 580.263 652.859 586.26 652.221C582.746 654.069 579.037 655.497 575.134 656.5C574.607 655.117 573.751 653.975 572.567 653.077C568.101 654.326 563.536 655.182 558.873 655.644C570.285 656.786 570.285 657.926 558.873 659.068C573.311 660.907 587.577 662.333 601.666 663.348C583.407 663.348 565.15 663.348 546.891 663.348C492.405 661.355 437.631 661.069 382.567 662.492C359.435 663.25 336.612 664.676 314.098 666.771C296.408 667.271 278.721 667.841 261.035 668.483C268.707 667.069 276.696 666.213 284.999 665.916C289.71 665.553 293.989 664.127 297.837 661.636C318.624 662.976 339.449 662.692 360.314 660.78C354.483 657.467 348.206 656.042 341.486 656.5C340.871 652.621 342.013 649.483 344.909 647.085C341.688 646.746 338.836 645.89 336.35 644.517C349.431 643.211 362.555 642.639 375.72 642.805Z" fill="#1D2851"/>
<path fill-rule="evenodd" clip-rule="evenodd" d="M829.322 918.415C830.146 924.753 831.287 931.03 832.746 937.246C830.464 946.375 830.464 955.506 832.746 964.636C831.525 968.532 830.669 972.526 830.178 976.619C827.467 978.949 824.328 980.09 820.764 980.042C821.139 982.054 820.569 983.766 819.052 985.178C817.157 979.351 815.16 973.645 813.061 968.059C812.76 973.849 811.904 979.555 810.493 985.178C807.462 984.262 806.892 982.834 808.782 980.898C806.384 968.482 804.1 956.213 801.935 944.093C799.082 913.28 796.23 882.466 793.376 851.653C789.655 804.761 784.806 757.969 778.827 711.28C778.276 705.86 776.278 701.294 772.836 697.585C770.393 691.997 766.398 687.718 760.854 684.746C749.565 678.7 737.583 674.706 724.908 672.763C683.661 668.339 642.58 665.2 601.665 663.348C587.576 662.332 573.31 660.906 558.872 659.068C570.284 657.926 570.284 656.786 558.872 655.644C563.535 655.182 568.1 654.326 572.566 653.076C573.75 653.975 574.606 655.117 575.133 656.5C579.036 655.497 582.745 654.069 586.259 652.22C580.261 652.859 574.27 652.003 568.286 649.653C563.444 650.743 558.595 651.313 553.737 651.364C550.986 651.13 548.703 649.988 546.89 647.941C514.044 646.768 481.236 645.628 448.466 644.517C440.538 646.26 432.835 647.402 425.358 647.941C408.654 645.606 392.108 643.894 375.719 642.805C493.084 637.257 610.05 641.537 726.62 655.644C737.645 657.798 748.487 660.651 759.142 664.203C779.914 671.849 792.752 686.399 797.656 707.856C801.798 738.016 805.221 768.257 807.926 798.585C811.846 857.981 816.411 917.325 821.62 976.619C823.331 974.907 825.043 973.195 826.755 971.483C827.046 953.495 827.902 935.806 829.322 918.415Z" fill="#20284D"/>
<path fill-rule="evenodd" clip-rule="evenodd" d="M336.351 644.517C338.836 645.89 341.688 646.745 344.909 647.084C342.013 649.483 340.871 652.621 341.486 656.5C348.206 656.041 354.483 657.467 360.315 660.779C339.449 662.691 318.624 662.976 297.837 661.635C293.989 664.126 289.71 665.552 284.999 665.915C276.696 666.213 268.707 667.069 261.035 668.483C245.216 671.037 229.24 673.035 213.107 674.474C203.185 675.452 194.626 679.161 187.432 685.601C178.574 691.336 172.583 699.325 169.459 709.567C166.253 738.616 163.685 767.718 161.756 796.873C157.029 831.875 153.606 867.254 151.486 903.008C148.637 905.489 147.21 908.912 147.207 913.279C145.467 907.493 142.614 902.358 138.648 897.873C136.909 899.814 135.768 899.244 135.225 896.161C134.386 898.374 134.1 900.658 134.369 903.008C136.08 903.008 137.792 903.008 139.504 903.008C139.577 908.846 138.721 914.551 136.936 920.127C136.366 915.561 135.795 910.997 135.225 906.432C132.396 921.421 132.111 935.972 134.369 950.084C131.857 951.964 130.43 954.532 130.089 957.788C130.127 964.882 129.842 971.729 129.234 978.33C125.001 979.035 122.719 977.324 122.387 973.195C124.027 973.97 125.454 975.11 126.666 976.618C131.25 893.11 138.097 809.801 147.207 726.686C148.923 692.101 166.325 670.131 199.414 660.779C244.536 651.145 290.182 645.723 336.351 644.517Z" fill="#21294D"/>
<path fill-rule="evenodd" clip-rule="evenodd" d="M851.578 163.483C853.29 427.965 853.86 692.734 853.29 957.788C855.572 957.788 857.855 957.788 860.137 957.788C857.708 959.416 854.856 959.986 851.578 959.5C851.578 694.161 851.578 428.822 851.578 163.483Z" fill="#B1B5BE"/>
<path fill-rule="evenodd" clip-rule="evenodd" d="M750.586 817.416C749.934 819.865 748.222 821.291 745.451 821.695C749.973 825.829 751.115 830.681 748.874 836.246C743.556 830.472 740.704 823.625 740.315 815.704C730.627 814.884 721.213 813.172 712.072 810.568C703.271 811.599 694.426 812.169 685.541 812.28C627.377 808.945 569.179 806.377 510.946 804.577C505.114 801.264 498.837 799.838 492.117 800.297C437.216 799.722 382.441 799.722 327.793 800.297C338.635 798.238 349.475 796.24 360.315 794.305C413.361 791.97 466.424 791.399 519.505 792.594C538.476 793.617 557.304 795.615 575.991 798.585C583.064 797.258 590.197 796.118 597.388 795.161C598.813 795.731 600.241 796.303 601.667 796.873C598.966 798.239 596.114 799.095 593.108 799.441C594.414 801.057 596.126 801.913 598.243 802.009C640.362 794.444 682.015 796.156 723.198 807.144C734.189 805.484 743.318 808.908 750.586 817.416Z" fill="#222849"/>
<path fill-rule="evenodd" clip-rule="evenodd" d="M755.72 820.839C753.532 820.356 751.82 819.214 750.585 817.415C743.317 808.907 734.188 805.483 723.197 807.144C682.013 796.155 640.361 794.444 598.242 802.008C596.125 801.912 594.413 801.056 593.107 799.44C596.113 799.095 598.965 798.239 601.666 796.873C600.24 796.303 598.812 795.731 597.386 795.161C590.195 796.118 583.063 797.258 575.99 798.585C557.303 795.614 538.474 793.617 519.503 792.593C466.423 791.398 413.36 791.97 360.314 794.305C349.474 796.239 338.634 798.237 327.792 800.296C382.44 799.721 437.215 799.721 492.116 800.296C469.925 803.438 447.103 805.15 423.648 805.432C412.826 804.287 401.986 803.715 391.125 803.72C379.064 806.207 367.082 807.919 355.179 808.856C307.891 810.828 260.535 814.822 213.107 820.839C213.297 819.783 213.867 818.927 214.819 818.271C211.813 817.925 208.961 817.069 206.26 815.703C206.618 814.7 207.19 813.844 207.972 813.135C211.279 812.899 214.418 813.755 217.386 815.703C219.41 812.733 222.263 811.021 225.945 810.568C243.495 810.099 261.182 810.099 279.008 810.568C279.578 809.426 280.15 808.286 280.72 807.144C295.968 808.546 311.657 809.118 327.792 808.856C327.792 807.144 327.792 805.432 327.792 803.72C321.975 804.268 316.268 803.698 310.675 802.008C311.573 800.824 312.715 799.968 314.098 799.44C307.821 798.299 301.546 798.299 295.269 799.44C301.83 801.784 301.258 803.212 293.557 803.72C287.517 800.286 280.956 798.574 273.873 798.585C255.263 799.966 236.72 801.962 218.242 804.576C212.335 806.108 206.63 808.106 201.125 810.568C203.263 807.767 206.116 805.769 209.684 804.576C218.203 802.681 226.761 800.969 235.359 799.44C393.99 786.913 552.61 786.913 711.215 799.44C721.215 800.622 730.915 802.904 740.314 806.288C747.086 809.628 752.221 814.478 755.72 820.839Z" fill="#20274F"/>
<path fill-rule="evenodd" clip-rule="evenodd" d="M213.109 820.839C207.219 824.454 203.223 829.59 201.127 836.245C194.055 879.14 188.92 922.506 185.721 966.347C182.671 990.789 181.245 1015.33 181.442 1039.96C186.782 1051.59 195.627 1058.72 207.973 1061.36C339.044 1070.15 470.274 1073 601.667 1069.91C647.979 1068.5 694.195 1065.65 740.316 1061.36C757.957 1058.55 767.085 1048.28 767.703 1030.54C765.444 997.417 762.59 964.608 759.145 932.11C756.947 901.385 752.952 871.142 747.163 841.381C744.162 830.675 737.315 823.542 726.622 819.983C677.688 814.821 628.62 811.398 579.415 809.712C504.673 808.856 429.928 808.57 355.181 808.856C367.084 807.919 379.066 806.207 391.127 803.72C401.987 803.715 412.828 804.287 423.649 805.432C447.105 805.149 469.927 803.438 492.118 800.296C498.838 799.837 505.115 801.263 510.946 804.576C569.179 806.377 627.377 808.945 685.541 812.279C694.427 812.168 703.271 811.598 712.073 810.567C721.213 813.171 730.628 814.883 740.316 815.703C740.704 823.624 743.556 830.471 748.874 836.245C751.115 830.68 749.973 825.829 745.451 821.695C748.222 821.291 749.934 819.865 750.586 817.415C751.822 819.214 753.534 820.356 755.721 820.839C759.68 823.764 762.248 827.76 763.424 832.822C767.174 856.459 770.884 879.853 774.55 903.008C776.825 921.209 778.537 939.469 779.685 957.788C781.209 980.628 782.92 1003.45 784.82 1026.26C787.891 1052.42 777.049 1069.25 752.298 1076.76C711.256 1080.64 670.175 1083.78 629.055 1086.18C635.58 1084.77 642.426 1083.91 649.595 1083.61C645.682 1081.1 646.538 1079.67 652.163 1079.33C657.957 1083.54 663.948 1083.82 670.136 1080.19C667.222 1077.25 664.085 1076.96 660.721 1079.33C657.801 1077.95 656.375 1075.67 656.442 1072.48C650.246 1072.75 644.539 1074.46 639.325 1077.62C635.841 1076.69 632.418 1075.55 629.055 1074.19C537.771 1072.48 446.478 1071.91 355.181 1072.48C355.181 1074.19 355.181 1075.91 355.181 1077.62C346.603 1077.9 338.045 1077.62 329.505 1076.76C328.723 1076.05 328.151 1075.2 327.793 1074.19C323.228 1073.62 318.665 1073.05 314.1 1072.48C300.389 1074.76 286.981 1074.76 273.874 1072.48C273.036 1074.7 272.75 1076.98 273.018 1079.33C286.502 1079.44 300.195 1078.86 314.1 1077.62C318.665 1078.19 323.228 1078.76 327.793 1079.33C325.032 1080.92 322.181 1082.34 319.235 1083.61C322.456 1083.95 325.308 1084.8 327.793 1086.18C287.857 1083.72 247.918 1081.16 207.973 1078.47C182.017 1078.18 167.468 1065.34 164.325 1039.96C164.3 1026.23 165.156 1012.54 166.892 998.873C168.112 987.501 168.682 976.089 168.604 964.635C171.75 922.306 176.029 880.079 181.442 837.957C182.192 833.034 183.903 828.468 186.577 824.262C190.117 818.151 194.966 813.585 201.127 810.567C206.631 808.106 212.337 806.108 218.244 804.576C236.722 801.962 255.265 799.966 273.874 798.584C280.957 798.574 287.518 800.286 293.559 803.72C301.26 803.212 301.832 801.784 295.271 799.44C301.548 798.299 307.823 798.299 314.1 799.44C312.716 799.968 311.575 800.824 310.676 802.008C316.27 803.698 321.977 804.268 327.793 803.72C327.793 805.432 327.793 807.144 327.793 808.856C311.659 809.118 295.969 808.546 280.721 807.144C280.151 808.286 279.579 809.426 279.009 810.567C261.184 810.098 243.497 810.098 225.946 810.567C222.264 811.021 219.411 812.733 217.388 815.703C214.42 813.755 211.28 812.899 207.973 813.135C207.191 813.844 206.619 814.7 206.262 815.703C208.963 817.069 211.814 817.925 214.82 818.271C213.869 818.926 213.299 819.782 213.109 820.839Z" fill="#1F284D"/>
<path fill-rule="evenodd" clip-rule="evenodd" d="M759.142 932.11C762.588 964.608 765.442 997.418 767.701 1030.54C767.083 1048.28 757.955 1058.56 740.314 1061.36C694.193 1065.65 647.977 1068.5 601.665 1069.92C470.272 1073 339.042 1070.15 207.971 1061.36C195.625 1058.72 186.78 1051.59 181.44 1039.96C181.243 1015.33 182.669 990.79 185.719 966.348C340.697 901.987 501.028 884.012 666.71 912.424C697.699 918.886 727.94 927.731 757.431 938.958C759.021 936.922 759.591 934.64 759.142 932.11Z" fill="#348CD2"/>
<path fill-rule="evenodd" clip-rule="evenodd" d="M747.164 841.382C752.953 871.142 756.948 901.386 759.146 932.11C759.595 934.641 759.025 936.923 757.434 938.958C727.943 927.732 697.702 918.886 666.714 912.424C501.032 884.012 340.701 901.987 185.723 966.348C188.922 922.507 194.057 879.14 201.128 836.246C200.616 839.848 201.186 843.272 202.84 846.517C204.928 844.444 206.926 844.444 208.831 846.517C209.401 849.941 209.972 853.365 210.542 856.788C212.162 852.872 214.159 849.162 216.533 845.661C230.251 843.171 243.945 842.885 257.615 844.805C261.17 842.258 262.881 838.834 262.75 834.534C304.892 839.596 347.115 840.166 389.416 836.246C396.256 839.796 403.103 840.082 409.957 837.102C432.75 835.486 455.572 834.63 478.425 834.534C528.633 835.532 578.843 836.388 629.056 837.102C633.977 838.925 639.112 839.781 644.461 839.67C665.024 837.53 685.565 837.816 706.083 840.526C706.982 841.71 708.123 842.566 709.506 843.094C719.804 838.918 730.074 839.204 740.317 843.949C741.221 850.805 743.219 857.369 746.308 863.636C747.162 856.239 747.448 848.821 747.164 841.382Z" fill="#4F9FDE"/>
<path fill-rule="evenodd" clip-rule="evenodd" d="M355.181 808.856C429.928 808.57 504.673 808.856 579.415 809.712C628.62 811.398 677.688 814.822 726.622 819.983C737.315 823.542 744.162 830.676 747.163 841.382C747.447 848.821 747.161 856.239 746.307 863.636C743.217 857.369 741.22 850.805 740.316 843.949C730.073 839.204 719.803 838.918 709.505 843.094C708.122 842.566 706.981 841.71 706.082 840.526C685.564 837.816 665.023 837.53 644.46 839.67C639.111 839.781 633.976 838.925 629.055 837.102C578.842 836.388 528.632 835.532 478.424 834.534C455.571 834.63 432.749 835.486 409.956 837.102C403.102 840.082 396.255 839.796 389.415 836.246C347.114 840.166 304.891 839.596 262.749 834.534C262.88 838.834 261.169 842.258 257.613 844.805C243.944 842.885 230.25 843.171 216.532 845.661C214.158 849.162 212.161 852.872 210.541 856.788C209.971 853.365 209.4 849.941 208.83 846.517C206.924 844.444 204.927 844.444 202.839 846.517C201.185 843.272 200.615 839.848 201.127 836.246C203.224 829.59 207.219 824.455 213.109 820.839C260.537 814.822 307.893 810.828 355.181 808.856Z" fill="#499ADB"/>
<path fill-rule="evenodd" clip-rule="evenodd" d="M860.136 957.788C874.411 957.504 888.675 957.788 902.928 958.644C926.266 958.285 941.671 968.842 949.145 990.314C949.145 1009.14 949.145 1027.97 949.145 1046.81C942.976 1070.35 927.57 1083.19 902.928 1085.32C881.739 1086.71 860.627 1086.43 839.595 1084.47C839.025 1086.75 838.453 1089.03 837.883 1091.31C839.237 1129.52 840.093 1167.75 840.451 1206.01C847.727 1214.3 851.722 1224 852.433 1235.11C853.02 1285.62 853.876 1336.12 855 1386.61C856.414 1410.4 853.277 1433.51 845.586 1455.94C845.204 1476.53 844.063 1497.08 842.163 1517.57C840.292 1522.38 838.294 1526.94 836.172 1531.26C835.696 1523.84 833.984 1516.71 831.036 1509.86C833.215 1504.23 834.927 1498.53 836.172 1492.75C832.021 1492.24 828.883 1490.25 826.757 1486.75C825.482 1489.3 823.484 1491.02 820.766 1491.89C794.476 1502.17 767.089 1508.73 738.604 1511.58C682.381 1515.73 625.895 1518.3 569.145 1519.28C569.145 1520.99 569.145 1522.7 569.145 1524.42C566.863 1524.42 564.579 1524.42 562.298 1524.42C562.007 1522.15 562.577 1520.15 564.009 1518.42C557.029 1516.49 551.894 1518.77 548.604 1525.27C539.417 1525.08 530.289 1525.37 521.217 1526.13C518.935 1525.84 516.651 1525.56 514.37 1525.27C516.294 1524.84 518.005 1523.99 519.505 1522.7C484.684 1520.48 449.879 1520.48 415.09 1522.7C407.335 1521.9 399.918 1519.9 392.838 1516.71C394.885 1515.59 394.885 1514.74 392.838 1514.14C360.22 1515.74 327.127 1516.31 293.559 1515.86C262.241 1512.32 230.859 1509.75 199.415 1508.15C185.588 1503.28 171.322 1500.43 156.622 1499.59C149.426 1498.23 143.149 1495.09 137.793 1490.18C136.165 1491.59 134.454 1491.88 132.658 1491.03C128.618 1486.99 124.624 1483 120.676 1479.05C116.722 1478.2 112.728 1477.92 108.694 1478.19C107.971 1493.11 107.971 1507.95 108.694 1522.7C106.373 1517.44 104.946 1511.73 104.415 1505.58C103.844 1489.04 103.274 1472.49 102.703 1455.94C98.2752 1444.36 95.4223 1432.38 94.1445 1419.99C93.0033 1358.93 93.0033 1297.88 94.1445 1236.82C95.4614 1224.5 100.026 1213.66 107.838 1204.3C108.694 1171.21 108.979 1138.11 108.694 1105.01C110.377 1098.51 110.948 1091.66 110.406 1084.47C88.7241 1084.47 67.0425 1084.47 45.3607 1084.47C20.2071 1083.62 4.80174 1071.06 -0.855469 1046.81C-0.855469 1027.97 -0.855469 1009.14 -0.855469 990.314C2.3189 975.152 11.448 965.452 26.5319 961.212C26.5319 962.924 26.5319 964.636 26.5319 966.347C23.6234 966.074 20.7705 966.358 17.9734 967.203C14.0842 970.673 10.3755 974.383 6.84723 978.331C5.12628 986.472 3.12929 994.46 0.856243 1002.3C6.96734 1016.81 7.53791 1031.65 2.56795 1046.81C3.13852 1049.09 3.7091 1051.37 4.27967 1053.65C6.36772 1052.99 7.50885 1051.56 7.70309 1049.37C4.31583 1042.2 6.59813 1039.06 14.5499 1039.96C15.0243 1045 14.4537 1049.85 12.8382 1054.51C13.9794 1056.22 15.1205 1057.93 16.2616 1059.64C18.5297 1059.39 20.5266 1059.67 22.2526 1060.5C23.462 1063.21 24.8885 1065.77 26.5319 1068.2C35.6819 1069.52 44.8111 1070.94 53.9193 1072.48C48.2967 1073.89 42.5909 1074.75 36.8022 1075.05C40.3636 1076.54 44.0723 1077.39 47.9283 1077.62C58.5349 1075.53 69.0906 1075.53 79.595 1077.62C81.2244 1074.97 81.7949 1072.12 81.3067 1069.06C89.6693 1068.63 97.9425 1069.2 106.127 1070.77C115.821 1077.01 119.244 1085.57 116.397 1096.45C118.718 1094.94 121.286 1094.37 124.099 1094.74C124.01 1089.54 125.722 1084.97 129.235 1081.04C130.618 1081.57 131.759 1082.43 132.658 1083.61C130.414 1087.5 130.414 1091.21 132.658 1094.74C129.677 1131.36 130.533 1167.88 135.226 1204.3C140.017 1219.28 149.431 1230.41 163.469 1237.68C176.842 1242.73 190.536 1246.73 204.55 1249.66C232.716 1253.27 260.674 1256.4 288.424 1259.08C283.289 1259.08 278.154 1259.08 273.018 1259.08C273.018 1262.5 273.018 1265.92 273.018 1269.35C284.737 1266.41 288.732 1270.97 285 1283.04C283.076 1280.62 281.365 1278.05 279.865 1275.34C276.695 1274.02 274.412 1274.87 273.018 1277.91C269.942 1275.8 266.519 1274.66 262.748 1274.48C238.776 1272.61 214.812 1269.19 190.856 1264.21C188.973 1262.4 186.69 1260.97 184.009 1259.93C186.409 1257.63 185.839 1256.21 182.298 1255.65C180.016 1256.22 177.733 1256.79 175.451 1257.36C170.611 1254.91 165.476 1253.77 160.045 1253.94C155.801 1252.67 151.807 1250.96 148.063 1248.81C141.465 1243.33 134.903 1237.62 128.379 1231.69C128.073 1237.72 127.217 1243.43 125.811 1248.81C125.241 1248.81 124.67 1248.81 124.099 1248.81C124.588 1245.74 124.017 1242.89 122.388 1240.25C120.714 1241.06 119.288 1242.2 118.108 1243.67C116.172 1240.52 114.745 1237.1 113.829 1233.4C118.855 1232.35 123.42 1230.35 127.523 1227.41C124.634 1223.52 121.496 1219.81 118.108 1216.28C115.826 1217.42 114.115 1219.13 112.973 1221.42C112.557 1230.72 111.131 1239.85 108.694 1248.81C108.178 1302.42 109.034 1356.06 111.262 1409.72C112.001 1440.66 125.98 1463.2 153.199 1477.34C174.018 1481.84 194.559 1486.98 214.82 1492.75C265.934 1500.12 317.285 1504.97 368.874 1507.3C375.209 1507.08 381.486 1506.51 387.703 1505.58C387.419 1489.6 387.703 1473.62 388.559 1457.65C388.85 1472.79 389.706 1487.63 391.127 1502.16C391.51 1509.11 394.933 1513.96 401.397 1516.71C450.466 1517.85 499.534 1517.85 548.604 1516.71C552.883 1514.71 556.021 1511.58 558.018 1507.3C558.874 1490.76 559.158 1474.21 558.874 1457.65C561.714 1461.02 564.566 1464.45 567.433 1467.92C567.027 1472.31 566.171 1472.31 564.865 1467.92C564.148 1469.93 563.008 1471.64 561.442 1473.06C561.129 1486.6 560.273 1500.01 558.874 1513.29C564.282 1513.31 569.133 1514.73 573.424 1517.57C574.088 1515.98 575.23 1514.84 576.847 1514.14C622.577 1517.17 667.938 1513.75 712.928 1503.87C715.819 1504.26 718.671 1504.83 721.487 1505.58C730.829 1501.82 740.528 1499.54 750.586 1498.74C752.205 1499.57 753.917 1500.14 755.721 1500.45C762.934 1499.12 769.211 1495.99 774.55 1491.03C777.688 1490.75 780.827 1490.46 783.964 1490.18C787.905 1490.35 791.328 1491.49 794.235 1493.6C796.432 1491.77 797.003 1489.48 795.946 1486.75C797.951 1484.37 800.518 1482.94 803.649 1482.47C804.866 1480.33 806.292 1478.33 807.928 1476.48C812.004 1478.08 816.283 1478.65 820.766 1478.19C823.099 1462.62 827.379 1447.22 833.604 1431.97C835.18 1420.03 836.322 1408.05 837.027 1396.03C836.902 1349.24 836.331 1302.45 835.316 1255.65C833.524 1247.97 833.239 1239.99 834.46 1231.69C829.895 1231.69 825.331 1231.69 820.766 1231.69C820.196 1231.69 819.624 1231.69 819.054 1231.69C812.932 1231.18 807.512 1232.89 802.793 1236.82C801.737 1235.2 802.021 1233.77 803.649 1232.54C797.145 1231.58 796.003 1233.29 800.226 1237.68C797.11 1239.35 795.113 1241.92 794.235 1245.38C793.665 1244.24 793.093 1243.1 792.523 1241.96C787.395 1243.31 782.545 1245.31 777.973 1247.95C773.941 1251.08 772.799 1254.78 774.55 1259.08C768.134 1261.4 761.859 1263.68 755.721 1265.92C732.981 1269.05 710.159 1271.62 687.253 1273.63C685.135 1274.02 683.424 1274.88 682.118 1276.19C675.159 1279.16 670.594 1284.3 668.424 1291.6C666.712 1293.88 665 1296.17 663.289 1298.45C663.967 1293.34 662.825 1288.78 659.865 1284.75C664.222 1281 668.787 1279 673.559 1278.76C670.308 1275.52 667.741 1271.81 665.856 1267.64C663.794 1266.66 661.796 1265.52 659.865 1264.21C662.205 1261.92 664.487 1259.64 666.712 1257.36C701.314 1255.53 735.549 1250.67 769.415 1242.81C783.677 1238.97 795.943 1231.84 806.217 1221.42C813.627 1198.94 816.764 1175.83 815.631 1152.08C813.74 1107.84 811.458 1063.61 808.784 1019.42C813.859 1013.79 814.715 1007.51 811.352 1000.58C810.232 1002.63 809.376 1002.63 808.784 1000.58C812.03 998.931 815.453 998.361 819.054 998.873C815.92 1004.3 817.062 1008.58 822.478 1011.71C820.804 1022.68 820.234 1033.81 820.766 1045.09C822.478 1045.09 824.19 1045.09 825.901 1045.09C826.257 1049.24 825.686 1053.23 824.19 1057.08C827.468 1059.77 829.179 1063.19 829.325 1067.35C826.471 1067.35 823.62 1067.35 820.766 1067.35C821.035 1065 820.749 1062.71 819.91 1060.5C817.447 1069.51 816.877 1078.64 818.199 1087.89C821.545 1086.26 824.398 1083.97 826.757 1081.04C829.039 1083.32 831.322 1085.61 833.604 1087.89C839.393 1083.26 839.107 1079.27 832.748 1075.91C829.123 1078.38 825.129 1079.52 820.766 1079.33C820.489 1075.86 820.775 1072.44 821.622 1069.06C826.613 1071.65 831.177 1071.08 835.316 1067.35C838.782 1071.1 843.061 1072.81 848.154 1072.48C848.154 1070.77 848.154 1069.06 848.154 1067.35C867.561 1067.63 886.961 1067.35 906.352 1066.49C920.128 1064.07 927.83 1055.23 929.46 1039.96C930.314 1030.85 930.6 1021.72 930.316 1012.57C930.316 1006.29 930.316 1000.01 930.316 993.737C930.59 990.829 930.305 987.975 929.46 985.178C924.051 982.182 924.335 979.329 930.316 976.619C929.174 976.049 928.034 975.477 926.892 974.907C924.176 976.382 921.322 977.524 918.334 978.331C913.306 976.67 908.171 975.528 902.928 974.907C902.928 973.195 902.928 971.483 902.928 969.771C908.091 969.187 912.654 967.191 916.622 963.78C908.063 962.446 899.505 961.876 890.946 962.068C894.532 963.02 894.818 963.876 891.802 964.636C889.178 962.59 886.611 962.59 884.099 964.636C881.364 960.402 878.797 960.402 876.397 964.636C869.464 964.213 862.618 964.213 855.856 964.636C854.661 962.597 853.236 960.885 851.577 959.5C854.855 959.986 857.707 959.416 860.136 957.788Z" fill="#232B50"/>
<path fill-rule="evenodd" clip-rule="evenodd" d="M803.65 985.178C804.985 996.639 806.697 1008.05 808.785 1019.42C811.459 1063.61 813.741 1107.84 815.632 1152.08C816.765 1175.83 813.628 1198.94 806.218 1221.42C795.944 1231.84 783.678 1238.97 769.416 1242.81C735.55 1250.67 701.315 1255.53 666.713 1257.36C540.654 1265.83 414.557 1266.4 288.425 1259.08C260.674 1256.4 232.717 1253.27 204.551 1249.66C190.537 1246.73 176.843 1242.73 163.47 1237.68C149.432 1230.41 140.017 1219.28 135.227 1204.3C130.534 1167.88 129.678 1131.36 132.659 1094.74C137.205 1067.5 140.628 1040.11 142.929 1012.57C145.477 1021.72 149.756 1022.86 155.767 1015.99C157.479 1017.7 159.191 1019.42 160.902 1021.13C162.789 1014.42 163.93 1007.58 164.326 1000.58C164.981 999.633 165.836 999.063 166.893 998.873C165.157 1012.54 164.301 1026.24 164.326 1039.96C167.469 1065.34 182.018 1078.18 207.974 1078.47C247.919 1081.16 287.858 1083.72 327.794 1086.18C332.852 1087.31 337.987 1087.88 343.2 1087.89C438.804 1095.19 534.09 1094.62 629.055 1086.18C670.176 1083.78 711.257 1080.64 752.299 1076.76C777.05 1069.25 787.892 1052.42 784.821 1026.26C786.081 1031.73 787.223 1037.44 788.245 1043.38C785.829 1051.49 784.118 1059.19 783.109 1066.49C788.073 1066.51 789.213 1064.23 786.533 1059.64C788.941 1057.16 791.509 1057.44 794.236 1060.5C797.115 1053.15 797.401 1045.73 795.091 1038.25C796.507 1025.03 799.075 1025.03 802.794 1038.25C804.54 1035.86 805.966 1033.3 807.073 1030.54C805.998 1025.51 804.857 1020.66 803.65 1015.99C803.838 1006.08 803.838 995.81 803.65 985.178Z" fill="black" fill-opacity="0.25"/>
<path fill-rule="evenodd" clip-rule="evenodd" d="M629.055 1086.18C534.089 1094.62 438.803 1095.19 343.199 1087.89C348.733 1086.39 354.438 1084.68 360.316 1082.75C364.852 1083.55 369.416 1084.12 374.01 1084.47C381.993 1080.79 389.982 1078.51 397.974 1077.62C400.151 1078.55 402.435 1079.12 404.821 1079.33C461.28 1077.94 517.766 1077.08 574.28 1076.76C578.043 1076.12 581.752 1075.27 585.406 1074.2C586.262 1074.77 587.118 1075.34 587.974 1075.91C585.121 1077.05 582.269 1078.19 579.415 1079.33C587.938 1080.2 596.212 1081.91 604.235 1084.47C612.491 1082.39 620.764 1082.96 629.055 1086.18Z" fill="#22284D"/>
<path fill-rule="evenodd" clip-rule="evenodd" d="M629.056 1086.18C620.764 1082.96 612.491 1082.39 604.236 1084.47C596.213 1081.91 587.939 1080.2 579.416 1079.33C582.269 1078.19 585.121 1077.05 587.975 1075.91C587.119 1075.34 586.263 1074.77 585.407 1074.2C581.752 1075.27 578.043 1076.12 574.281 1076.76C517.767 1077.08 461.28 1077.94 404.821 1079.33C402.435 1079.12 400.152 1078.55 397.975 1077.62C389.983 1078.51 381.994 1080.79 374.011 1084.47C369.416 1084.12 364.853 1083.55 360.317 1082.75C354.439 1084.68 348.734 1086.39 343.2 1087.89C337.988 1087.88 332.852 1087.31 327.794 1086.18C325.309 1084.81 322.457 1083.95 319.236 1083.61C322.182 1082.35 325.033 1080.92 327.794 1079.33C323.229 1078.76 318.666 1078.19 314.101 1077.62C300.196 1078.87 286.503 1079.44 273.02 1079.33C272.751 1076.98 273.037 1074.7 273.875 1072.48C286.982 1074.76 300.39 1074.76 314.101 1072.48C318.666 1073.05 323.229 1073.63 327.794 1074.2C328.152 1075.2 328.724 1076.05 329.506 1076.76C338.046 1077.62 346.604 1077.9 355.182 1077.62C355.182 1075.91 355.182 1074.2 355.182 1072.48C446.479 1071.91 537.772 1072.48 629.056 1074.2C632.419 1075.55 635.843 1076.69 639.326 1077.62C644.54 1074.46 650.247 1072.75 656.443 1072.48C656.376 1075.67 657.802 1077.95 660.722 1079.33C664.086 1076.96 667.223 1077.25 670.137 1080.19C663.949 1083.82 657.958 1083.54 652.164 1079.33C646.539 1079.67 645.683 1081.1 649.596 1083.61C642.427 1083.91 635.581 1084.77 629.056 1086.18Z" fill="#212848"/>
<path fill-rule="evenodd" clip-rule="evenodd" d="M115.54 995.449C117.526 1018.55 117.812 1041.94 116.396 1065.64C93.4162 1067.61 70.3081 1067.9 47.0713 1066.49C38.404 1065.55 30.7013 1062.41 23.9632 1057.08C17.2895 1037.34 14.722 1017.37 16.2605 997.161C14.8838 1015.48 22.8718 1027.75 40.2244 1033.97C65.4874 1038.77 90.5926 1039.63 115.54 1036.53C115.54 1022.84 115.54 1009.14 115.54 995.449Z" fill="#313B6B"/>
<path fill-rule="evenodd" clip-rule="evenodd" d="M839.595 985.178C836.012 992.6 833.445 1000.59 831.892 1009.14C831.192 1019.43 831.478 1029.7 832.748 1039.96C856.173 1038.21 879.567 1036.22 902.928 1033.97C915.357 1030.94 924.487 1023.81 930.316 1012.57C930.6 1021.72 930.314 1030.85 929.46 1039.96C927.83 1055.23 920.128 1064.07 906.352 1066.49C886.961 1067.35 867.561 1067.63 848.153 1067.35C840.1 1068.21 834.109 1065.36 830.181 1058.79C829.039 1038.82 829.039 1018.84 830.181 998.873C832.935 993.896 836.072 989.332 839.595 985.178Z" fill="#323A6B"/>
<path fill-rule="evenodd" clip-rule="evenodd" d="M115.54 995.45C115.54 1009.14 115.54 1022.84 115.54 1036.53C90.5933 1039.63 65.4881 1038.77 40.2251 1033.97C22.8725 1027.75 14.8845 1015.48 16.2612 997.161C17.3774 990.637 20.8008 985.788 26.5314 982.611C47.6634 982.147 68.7744 981.291 89.8648 980.043C101.967 979.522 110.525 984.658 115.54 995.45Z" fill="#3B4478"/>
<path fill-rule="evenodd" clip-rule="evenodd" d="M930.316 993.737C930.316 1000.01 930.316 1006.29 930.316 1012.57C924.487 1023.81 915.357 1030.94 902.928 1033.97C879.567 1036.22 856.173 1038.21 832.748 1039.96C831.478 1029.7 831.192 1019.43 831.892 1009.14C833.445 1000.59 836.013 992.601 839.595 985.178C841.074 983.144 842.786 981.147 844.73 979.187C868.658 979.527 892.622 980.099 916.622 980.898C922.086 984.37 926.651 988.65 930.316 993.737Z" fill="#3B4477"/>
<path fill-rule="evenodd" clip-rule="evenodd" d="M124.098 1248.8C123.813 1264.79 124.098 1280.77 124.954 1296.74C127.465 1302.36 127.18 1307.49 124.098 1312.14C124.668 1313.29 125.239 1314.43 125.81 1315.57C128.146 1313.33 130.428 1313.33 132.656 1315.57C146.285 1332.09 163.402 1343.51 184.008 1349.8C187.39 1352.39 191.383 1353.82 195.99 1354.08C196.56 1354.65 197.131 1355.23 197.701 1355.8C195.488 1356.64 193.205 1356.92 190.855 1356.65C190.855 1358.36 190.855 1360.08 190.855 1361.79C195.557 1362.32 200.122 1361.75 204.548 1360.08C204.19 1359.07 203.619 1358.22 202.837 1357.51C211.376 1356.65 219.935 1356.37 228.512 1356.65C244.229 1357.21 259.635 1356.64 274.728 1354.94C277.582 1353.8 280.434 1352.66 283.287 1351.52C286.556 1348.99 288.552 1345.57 289.278 1341.25C290.42 1332.12 290.42 1322.98 289.278 1313.86C288.867 1309.83 287.441 1306.41 284.999 1303.58C282.376 1294.35 278.383 1285.79 273.017 1277.91C274.41 1274.87 276.693 1274.02 279.864 1275.34C281.363 1278.05 283.075 1280.62 284.999 1283.04C288.73 1270.97 284.735 1266.41 273.017 1269.35C273.017 1265.92 273.017 1262.5 273.017 1259.08C278.152 1259.08 283.287 1259.08 288.422 1259.08C414.555 1266.4 540.651 1265.83 666.71 1257.36C664.485 1259.64 662.203 1261.92 659.864 1264.21C661.794 1265.52 663.792 1266.66 665.855 1267.64C667.739 1271.81 670.307 1275.51 673.557 1278.76C668.785 1279 664.22 1281 659.864 1284.75C662.823 1288.78 663.965 1293.34 663.287 1298.45C662.231 1298.64 661.375 1299.21 660.719 1300.16C656.404 1314.48 655.548 1328.74 658.152 1342.96C662.181 1348.69 667.316 1353.26 673.557 1356.65C673.747 1357.71 674.317 1358.56 675.269 1359.22C694.112 1359.29 712.94 1358.43 731.755 1356.65C737.045 1356.61 741.61 1355.47 745.449 1353.23C749.088 1352.29 752.512 1351.15 755.719 1349.8C765.868 1348.44 775.567 1345.58 784.818 1341.25C789.974 1343.28 795.109 1342.99 800.224 1340.39C799.082 1339.82 797.942 1339.25 796.8 1338.68C798.178 1335.3 800.462 1332.73 803.647 1330.97C805.321 1331.79 806.747 1332.93 807.927 1334.4C808.497 1330.97 809.068 1327.55 809.638 1324.13C822.582 1312.83 828.003 1298.56 825.9 1281.33C825.473 1267.88 824.332 1254.76 822.476 1241.96C821.364 1238.64 820.794 1235.22 820.764 1231.69C825.33 1231.69 829.893 1231.69 834.458 1231.69C833.238 1239.99 833.522 1247.97 835.314 1255.65C836.329 1302.45 836.901 1349.24 837.026 1396.03C836.32 1408.05 835.179 1420.03 833.602 1431.97C827.377 1447.21 823.098 1462.62 820.764 1478.19C816.281 1478.65 812.002 1478.08 807.927 1476.48C806.29 1478.33 804.864 1480.33 803.647 1482.47C800.517 1482.94 797.949 1484.37 795.945 1486.75C797.001 1489.48 796.431 1491.77 794.233 1493.6C791.326 1491.49 787.903 1490.35 783.963 1490.18C780.825 1490.46 777.686 1490.75 774.548 1491.03C769.209 1495.99 762.933 1499.12 755.719 1500.45C753.915 1500.14 752.204 1499.57 750.584 1498.74C740.526 1499.54 730.828 1501.82 721.485 1505.58C718.669 1504.83 715.818 1504.26 712.927 1503.87C667.936 1513.75 622.576 1517.17 576.846 1514.14C575.228 1514.84 574.086 1515.98 573.422 1517.57C569.131 1514.73 564.28 1513.31 558.873 1513.29C560.271 1500.01 561.127 1486.6 561.44 1473.06C563.006 1471.64 564.146 1469.93 564.864 1467.92C566.17 1472.31 567.025 1472.31 567.431 1467.92C564.564 1464.45 561.712 1461.02 558.873 1457.65C556.541 1451.9 552.548 1447.9 546.891 1445.67C498.682 1443.68 450.184 1443.39 401.395 1444.81C400.253 1445.38 399.113 1445.96 397.972 1446.53C398.362 1447.21 398.934 1447.49 399.683 1447.38C396.94 1449.26 394.372 1451.54 391.981 1454.23C391.125 1470.2 390.841 1486.17 391.125 1502.16C389.704 1487.63 388.848 1472.79 388.557 1457.65C387.701 1473.62 387.417 1489.6 387.701 1505.58C381.484 1506.51 375.208 1507.08 368.873 1507.3C317.283 1504.97 265.932 1500.12 214.819 1492.75C194.557 1486.97 174.016 1481.84 153.197 1477.34C125.979 1463.2 112 1440.66 111.26 1409.72C109.032 1356.06 108.176 1302.42 108.692 1248.8C111.129 1239.85 112.556 1230.72 112.972 1221.41C114.113 1219.13 115.825 1217.42 118.107 1216.28C121.494 1219.81 124.633 1223.52 127.521 1227.41C123.418 1230.35 118.853 1232.35 113.828 1233.4C114.743 1237.1 116.17 1240.52 118.107 1243.67C119.286 1242.2 120.713 1241.06 122.386 1240.25C124.015 1242.89 124.586 1245.74 124.098 1248.8Z" fill="#29325B"/>
<path fill-rule="evenodd" clip-rule="evenodd" d="M118.963 1330.97C125.901 1338.78 133.319 1346.48 141.215 1354.08C148.414 1358.54 155.831 1362.53 163.467 1366.07C186.112 1370.33 208.936 1373.18 231.936 1374.63C286.671 1378.16 341.446 1381.01 396.26 1383.19C446.47 1384.33 496.681 1384.33 546.891 1383.19C612.494 1379.55 678.109 1376.13 743.738 1372.92C765.822 1371.39 786.363 1365.12 805.359 1354.08C812.566 1347.17 819.413 1340.03 825.9 1332.69C838.512 1374.51 823.106 1397.62 779.684 1402.02C686.508 1413.66 592.936 1419.08 498.963 1418.28C405.322 1416.99 311.75 1413.85 218.242 1408.86C191.267 1407.35 165.021 1402.21 139.503 1393.46C123.859 1382.13 116.441 1366.73 117.251 1347.24C117.323 1341.67 117.893 1336.25 118.963 1330.97Z" fill="#414141" fill-opacity="0.2"/>
<path fill-rule="evenodd" clip-rule="evenodd" d="M745.45 1353.23C741.611 1355.47 737.046 1356.61 731.757 1356.65C712.942 1358.43 694.113 1359.29 675.27 1359.22C674.319 1358.56 673.749 1357.71 673.559 1356.65C697.613 1357.01 721.577 1355.87 745.45 1353.23Z" fill="#3C353C"/>
<path fill-rule="evenodd" clip-rule="evenodd" d="M184.008 1349.8C186.29 1349.8 188.573 1349.8 190.855 1349.8C203.278 1352.88 215.832 1355.17 228.512 1356.65C219.935 1356.37 211.376 1356.65 202.837 1357.51C203.619 1358.22 204.191 1359.07 204.548 1360.08C200.122 1361.75 195.557 1362.32 190.855 1361.79C190.855 1360.08 190.855 1358.36 190.855 1356.65C193.205 1356.92 195.488 1356.64 197.702 1355.8C197.132 1355.23 196.56 1354.65 195.99 1354.08C191.384 1353.82 187.39 1352.39 184.008 1349.8Z" fill="#313248"/>
<path fill-rule="evenodd" clip-rule="evenodd" d="M659.863 1315.57C658.822 1324.89 659.962 1333.45 663.287 1341.25C663.704 1345.98 665.986 1349.68 670.133 1352.37C698.764 1353.97 727.293 1353.11 755.719 1349.8C752.511 1351.15 749.088 1352.29 745.449 1353.23C721.576 1355.87 697.612 1357.01 673.557 1356.65C667.316 1353.26 662.181 1348.69 658.151 1342.96C657.602 1333.5 658.172 1324.37 659.863 1315.57Z" fill="#E2C17F"/>
<path fill-rule="evenodd" clip-rule="evenodd" d="M190.855 1349.8C218.731 1352.72 246.688 1354.44 274.729 1354.94C259.635 1356.64 244.23 1357.21 228.513 1356.65C215.833 1355.17 203.279 1352.88 190.855 1349.8Z" fill="#DFBF7D"/>
<path fill-rule="evenodd" clip-rule="evenodd" d="M148.062 1248.81C146.208 1248.74 144.496 1248.17 142.927 1247.09C130.215 1304.79 153.038 1335.32 211.395 1338.68C233.648 1339.25 255.9 1339.82 278.152 1340.39C279.051 1341.57 280.193 1342.43 281.576 1342.96C282.726 1340.48 283.868 1338.2 284.999 1336.11C284.999 1338.96 284.999 1341.82 284.999 1344.67C284.429 1346.95 283.857 1349.24 283.287 1351.52C280.434 1352.66 277.582 1353.8 274.729 1354.94C246.688 1354.44 218.73 1352.72 190.855 1349.81C188.573 1349.81 186.29 1349.81 184.008 1349.81C163.402 1343.51 146.285 1332.09 132.657 1315.57C126.708 1293.76 124.426 1271.51 125.81 1248.81C127.216 1243.43 128.072 1237.72 128.377 1231.69C134.902 1237.62 141.464 1243.33 148.062 1248.81Z" fill="#EEC15F"/>
<path fill-rule="evenodd" clip-rule="evenodd" d="M819.055 1231.69C819.625 1231.69 820.197 1231.69 820.767 1231.69C820.796 1235.22 821.366 1238.65 822.478 1241.96C822.764 1260.23 822.478 1278.49 821.622 1296.74C820.357 1303.39 818.074 1309.67 814.776 1315.57C805.974 1325.82 795.988 1334.38 784.821 1341.25C775.569 1345.58 765.87 1348.44 755.721 1349.81C727.295 1353.11 698.766 1353.97 670.136 1352.37C665.988 1349.68 663.707 1345.98 663.289 1341.25C697.475 1340.21 731.71 1338.21 765.992 1335.25C781.798 1329.69 794.636 1320.28 804.505 1307.01C809.623 1290.33 811.905 1273.21 811.352 1255.65C819.291 1252.15 819.291 1248.73 811.352 1245.38C807.157 1248.97 802.306 1250.68 796.803 1250.52C804.723 1244.88 812.14 1238.61 819.055 1231.69Z" fill="#F0C360"/>
<path fill-rule="evenodd" clip-rule="evenodd" d="M822.478 1241.96C824.333 1254.76 825.475 1267.88 825.901 1281.33C828.005 1298.56 822.584 1312.83 809.64 1324.13C809.07 1327.55 808.498 1330.97 807.928 1334.4C806.749 1332.93 805.323 1331.79 803.649 1330.97C800.464 1332.73 798.18 1335.3 796.802 1338.68C797.944 1339.25 799.084 1339.82 800.226 1340.39C795.111 1342.99 789.976 1343.28 784.82 1341.25C795.988 1334.38 805.974 1325.82 814.775 1315.57C818.074 1309.66 820.357 1303.39 821.622 1296.74C822.478 1278.49 822.764 1260.23 822.478 1241.96Z" fill="#3A3645"/>
<path fill-rule="evenodd" clip-rule="evenodd" d="M285.001 1303.58C287.443 1306.41 288.869 1309.83 289.28 1313.86C290.422 1322.99 290.422 1332.12 289.28 1341.25C288.554 1345.57 286.558 1348.99 283.289 1351.52C283.859 1349.24 284.431 1346.95 285.001 1344.67C287.579 1339.78 288.719 1334.36 288.424 1328.41C288.542 1321.4 287.402 1314.84 285.001 1308.72C285.001 1308.15 285.001 1307.58 285.001 1307.01C285.001 1305.87 285.001 1304.73 285.001 1303.58Z" fill="#38353B"/>
<path fill-rule="evenodd" clip-rule="evenodd" d="M285 1308.72C287.402 1314.84 288.542 1321.4 288.423 1328.41C288.718 1334.36 287.578 1339.78 285 1344.67C285 1341.82 285 1338.96 285 1336.11C285 1326.98 285 1317.85 285 1308.72Z" fill="#E2C889"/>
<path fill-rule="evenodd" clip-rule="evenodd" d="M663.288 1298.45C662.147 1304.15 661.007 1309.86 659.865 1315.57C658.174 1324.37 657.604 1333.5 658.153 1342.96C655.55 1328.74 656.405 1314.48 660.721 1300.16C661.376 1299.21 662.232 1298.64 663.288 1298.45Z" fill="#433831"/>
<path fill-rule="evenodd" clip-rule="evenodd" d="M350.043 1283.04C433.926 1282.47 517.8 1283.04 601.665 1284.75C605.13 1288.5 608.267 1292.5 611.079 1296.74C615.14 1311.9 614.284 1326.74 608.512 1341.25C601.579 1348.17 595.304 1355.59 589.683 1363.5C584.877 1366.02 579.741 1367.44 574.278 1367.78C503.502 1369.31 432.752 1368.74 362.025 1366.07C344.818 1353.38 335.689 1336.26 334.638 1314.71C334.599 1306.89 335.455 1299.19 337.206 1291.6C341.449 1288.5 345.728 1285.64 350.043 1283.04Z" fill="#1D2549"/>
<path fill-rule="evenodd" clip-rule="evenodd" d="M682.116 1276.2C677.503 1281.38 672.937 1286.51 668.422 1291.6C670.592 1284.3 675.157 1279.16 682.116 1276.2Z" fill="#DFCB91"/>
<path fill-rule="evenodd" clip-rule="evenodd" d="M262.746 1274.48C266.517 1274.66 269.94 1275.8 273.016 1277.91C278.383 1285.79 282.376 1294.35 284.998 1303.59C284.998 1304.73 284.998 1305.87 284.998 1307.01C280.868 1299.31 277.159 1291.32 273.872 1283.04C270.334 1279.77 266.625 1276.91 262.746 1274.48Z" fill="#ECD58C"/>
<path fill-rule="evenodd" clip-rule="evenodd" d="M190.855 1264.21C214.811 1269.19 238.775 1272.61 262.747 1274.48C250.402 1274 238.136 1274.57 225.946 1276.19C223.599 1274.34 221.031 1272.92 218.243 1271.92C210.29 1271.61 202.588 1270.18 195.135 1267.64C192.779 1267.32 191.354 1266.18 190.855 1264.21Z" fill="#EED283"/>
<path fill-rule="evenodd" clip-rule="evenodd" d="M755.721 1265.92C753.838 1267.73 751.554 1269.16 748.874 1270.2C726.603 1272.2 704.351 1274.2 682.117 1276.2C683.423 1274.88 685.135 1274.02 687.252 1273.63C710.158 1271.62 732.981 1269.05 755.721 1265.92Z" fill="#E5CC87"/>
<path fill-rule="evenodd" clip-rule="evenodd" d="M124.099 1248.8C124.67 1248.8 125.24 1248.8 125.811 1248.8C124.426 1271.51 126.709 1293.76 132.658 1315.57C130.43 1313.33 128.147 1313.33 125.811 1315.57C125.24 1314.43 124.67 1313.29 124.099 1312.14C127.181 1307.49 127.466 1302.36 124.955 1296.74C124.099 1280.77 123.814 1264.79 124.099 1248.8Z" fill="#353341"/>
<path fill-rule="evenodd" clip-rule="evenodd" d="M160.047 1253.94C165.478 1253.77 170.613 1254.91 175.452 1257.36C177.734 1256.79 180.017 1256.22 182.299 1255.65C185.841 1256.21 186.411 1257.63 184.011 1259.93C186.691 1260.97 188.975 1262.4 190.858 1264.21C179.901 1262.34 169.631 1258.92 160.047 1253.94Z" fill="#34313D"/>
<path fill-rule="evenodd" clip-rule="evenodd" d="M663.288 1341.25C659.964 1333.45 658.824 1324.89 659.865 1315.57C661.006 1309.86 662.146 1304.16 663.288 1298.45C665 1296.17 666.711 1293.88 668.423 1291.6C672.939 1286.51 677.504 1281.38 682.117 1276.2C704.35 1274.2 726.603 1272.2 748.874 1270.2C751.554 1269.16 753.838 1267.74 755.72 1265.92C761.859 1263.68 768.134 1261.4 774.549 1259.08C782.156 1256.7 789.573 1253.85 796.802 1250.52C802.305 1250.68 807.156 1248.97 811.351 1245.38C819.29 1248.73 819.29 1252.15 811.351 1255.65C811.904 1273.21 809.622 1290.33 804.504 1307.01C794.635 1320.28 781.797 1329.69 765.991 1335.25C731.709 1338.21 697.474 1340.21 663.288 1341.25Z" fill="#FED66C"/>
<path fill-rule="evenodd" clip-rule="evenodd" d="M148.061 1248.81C151.805 1250.96 155.799 1252.67 160.043 1253.94C169.627 1258.92 179.897 1262.34 190.854 1264.21C191.352 1266.18 192.778 1267.32 195.133 1267.64C202.586 1270.18 210.289 1271.61 218.241 1271.92C221.03 1272.92 223.597 1274.34 225.944 1276.2C238.135 1274.57 250.401 1274 262.746 1274.48C266.625 1276.91 270.334 1279.77 273.872 1283.04C277.159 1291.32 280.868 1299.31 284.998 1307.01C284.998 1307.58 284.998 1308.15 284.998 1308.72C284.998 1317.85 284.998 1326.98 284.998 1336.11C283.867 1338.2 282.725 1340.48 281.575 1342.96C280.192 1342.43 279.05 1341.57 278.151 1340.39C255.899 1339.82 233.647 1339.25 211.395 1338.68C153.037 1335.32 130.214 1304.79 142.926 1247.09C144.495 1248.17 146.207 1248.74 148.061 1248.81Z" fill="#FED66C"/>
<path fill-rule="evenodd" clip-rule="evenodd" d="M819.053 1231.69C812.138 1238.61 804.721 1244.88 796.801 1250.52C789.573 1253.85 782.156 1256.7 774.549 1259.08C772.798 1254.79 773.94 1251.08 777.972 1247.95C782.544 1245.31 787.394 1243.31 792.522 1241.96C793.092 1243.1 793.664 1244.24 794.234 1245.38C795.112 1241.92 797.109 1239.35 800.225 1237.68C796.002 1233.29 797.144 1231.58 803.648 1232.54C802.02 1233.77 801.736 1235.2 802.792 1236.82C807.511 1232.89 812.931 1231.18 819.053 1231.69Z" fill="#262842"/>
<path fill-rule="evenodd" clip-rule="evenodd" d="M546.892 1445.67C497.747 1445.13 448.679 1445.7 399.684 1447.38C398.935 1447.49 398.363 1447.21 397.973 1446.53C399.114 1445.96 400.254 1445.38 401.396 1444.81C450.185 1443.39 498.683 1443.68 546.892 1445.67Z" fill="#33394F"/>
<path fill-rule="evenodd" clip-rule="evenodd" d="M546.892 1445.67C552.549 1447.9 556.542 1451.9 558.874 1457.65C559.158 1474.21 558.874 1490.76 558.018 1507.3C556.02 1511.58 552.883 1514.71 548.604 1516.71C499.534 1517.85 450.466 1517.85 401.396 1516.71C394.933 1513.96 391.509 1509.11 391.126 1502.16C390.842 1486.17 391.126 1470.2 391.982 1454.23C394.373 1451.54 396.941 1449.26 399.685 1447.38C448.679 1445.7 497.747 1445.13 546.892 1445.67Z" fill="#C7C9D4"/>
<path fill-rule="evenodd" clip-rule="evenodd" d="M836.172 1531.26C832.064 1541.19 826.645 1550.32 819.911 1558.65C793.046 1584.65 760.807 1598.91 723.199 1601.45C713.688 1601.82 704.273 1602.96 694.956 1604.87C691.831 1604 691.545 1602.57 694.1 1600.59C699.778 1599.74 705.483 1599.46 711.217 1599.74C711.217 1598.03 711.217 1596.31 711.217 1594.6C703.107 1595.31 695.405 1594.17 688.109 1591.18C686.684 1591.75 685.256 1592.32 683.83 1592.89C686.531 1594.26 689.383 1595.11 692.389 1595.46C680.542 1597.92 668.56 1599.63 656.443 1600.59C660.895 1602.17 665.46 1603.31 670.136 1604.02C659.269 1606.02 648.428 1608.02 637.614 1610.01C631.654 1609.69 625.949 1608.55 620.497 1606.59C542.299 1608.78 463.844 1608.78 385.136 1606.59C380.715 1609.89 376.15 1611.03 371.443 1610.01C368.019 1608.87 364.596 1607.73 361.172 1606.59C359.209 1608.23 357.497 1607.66 356.037 1604.87C355.211 1606.5 354.926 1608.21 355.181 1610.01C341.476 1610.29 327.782 1610.01 314.1 1609.15C311.639 1608.78 309.357 1607.92 307.254 1606.59C307.611 1605.58 308.183 1604.73 308.965 1604.02C297.259 1600.49 285.277 1599.06 273.019 1599.74C273.019 1601.45 273.019 1603.16 273.019 1604.87C268.454 1604.87 263.891 1604.87 259.326 1604.87C229.559 1602.94 200.46 1597.52 172.028 1588.61C140.673 1576.37 119.562 1554.4 108.695 1522.7C107.971 1507.95 107.971 1493.11 108.695 1478.2C112.729 1477.92 116.723 1478.2 120.677 1479.05C124.625 1483 128.619 1486.99 132.659 1491.03C134.455 1491.88 136.166 1491.59 137.794 1490.18C143.15 1495.09 149.427 1498.23 156.623 1499.59C171.323 1500.43 185.589 1503.28 199.416 1508.15C230.86 1509.76 262.242 1512.32 293.56 1515.86C327.128 1516.31 360.221 1515.74 392.839 1514.14C394.886 1514.74 394.886 1515.59 392.839 1516.71C399.919 1519.9 407.336 1521.9 415.091 1522.7C449.88 1520.48 484.684 1520.48 519.506 1522.7C518.006 1523.99 516.295 1524.85 514.371 1525.27C516.652 1525.56 518.936 1525.84 521.218 1526.13C530.29 1525.37 539.418 1525.08 548.605 1525.27C551.895 1518.78 557.03 1516.49 564.01 1518.42C562.578 1520.15 562.008 1522.15 562.299 1524.42C564.58 1524.42 566.864 1524.42 569.145 1524.42C569.145 1522.7 569.145 1520.99 569.145 1519.28C625.896 1518.3 682.382 1515.73 738.605 1511.58C767.089 1508.73 794.477 1502.17 820.767 1491.89C823.485 1491.02 825.483 1489.31 826.758 1486.75C828.884 1490.25 832.022 1492.24 836.172 1492.75C834.928 1498.53 833.216 1504.23 831.037 1509.86C833.985 1516.71 835.697 1523.84 836.172 1531.26Z" fill="#1C2447"/>
<path fill-rule="evenodd" clip-rule="evenodd" d="M723.198 1601.45C708.741 1604.84 693.907 1607.4 678.694 1609.15C653.911 1611.41 629.377 1613.4 605.09 1615.14C524.07 1615.14 443.047 1615.14 362.027 1615.14C327.625 1613.53 293.391 1610.11 259.324 1604.87C263.889 1604.87 268.453 1604.87 273.018 1604.87C273.018 1603.16 273.018 1601.45 273.018 1599.74C285.275 1599.06 297.257 1600.49 308.964 1604.02C308.182 1604.73 307.61 1605.58 307.252 1606.58C309.356 1607.92 311.638 1608.78 314.099 1609.15C327.781 1610.01 341.474 1610.29 355.18 1610.01C354.925 1608.21 355.209 1606.5 356.036 1604.87C357.496 1607.65 359.208 1608.22 361.171 1606.58C364.594 1607.73 368.018 1608.87 371.441 1610.01C376.149 1611.03 380.714 1609.89 385.135 1606.58C463.843 1608.78 542.298 1608.78 620.495 1606.58C625.947 1608.54 631.652 1609.69 637.613 1610.01C648.427 1608.02 659.267 1606.02 670.135 1604.02C665.459 1603.31 660.894 1602.17 656.441 1600.59C668.559 1599.63 680.541 1597.92 692.387 1595.46C689.382 1595.11 686.53 1594.26 683.829 1592.89C685.255 1592.32 686.682 1591.75 688.108 1591.18C695.403 1594.17 703.106 1595.31 711.216 1594.6C711.216 1596.31 711.216 1598.03 711.216 1599.74C705.482 1599.45 699.777 1599.74 694.099 1600.59C691.543 1602.57 691.829 1604 694.955 1604.87C704.272 1602.96 713.686 1601.82 723.198 1601.45Z" fill="#1D2441"/>
</g>
<defs>
<clipPath id="clip0_1890_1569">
<rect width="950" height="1616" fill="white"/>
</clipPath>
</defs>
</svg>
