
<svg width="800" height="925" viewBox="0 0 800 925" fill="none" xmlns="http://www.w3.org/2000/svg">
<path fill-rule="evenodd" clip-rule="evenodd" d="M477.889 2.51311C477.769 3.60518 477.098 4.27548 475.879 4.52398C424.15 2.52966 372.559 1.85938 321.105 2.51311C373.366 -0.156714 425.627 -0.156714 477.889 2.51311Z" fill="#17191C"/>
<path fill-rule="evenodd" clip-rule="evenodd" d="M321.107 2.51357C372.56 1.85984 424.151 2.53012 475.88 4.52444C477.099 4.27594 477.77 3.60564 477.89 2.51357C506.073 3.64173 534.214 5.48502 562.312 8.04346C583.981 9.20197 605.086 13.2237 625.629 20.1087C654 32.428 670.247 54.0448 674.373 84.9592C675.566 93.3157 676.571 101.695 677.388 110.095C692.51 124.941 700.884 143.039 702.514 164.389C704.082 191.537 705.59 218.684 707.036 245.829C706.368 248.827 706.033 252.01 706.031 255.38C706.649 268.279 707.152 281.182 707.539 294.09C708.041 286.389 708.208 278.68 708.041 270.965C709.44 282.236 709.273 293.63 707.539 305.149C706.082 310.075 704.072 314.766 701.508 319.226C698.769 322.46 696.256 325.811 693.971 329.28C697.43 365.778 700.612 402.309 703.519 438.872C706.366 435.353 709.214 431.834 712.061 428.315C715.654 425.345 719.674 423.166 724.122 421.78C740.699 422.616 757.45 423.119 774.373 423.288C777.526 423.892 780.541 424.898 783.418 426.304C785.632 428.689 787.978 430.868 790.453 432.84C793.221 436.617 794.729 440.975 794.976 445.91C795.611 456.326 795.276 466.716 793.971 477.079C790.508 494.947 779.62 504.834 761.307 506.739C744.321 509.389 727.235 510.898 710.051 511.264C714.081 563.309 719.107 615.257 725.127 667.106C724.29 698.439 723.788 729.943 723.619 761.617C722.806 769.73 720.964 777.605 718.091 785.245C718.162 786.014 718.496 786.516 719.096 786.753C718.607 787.731 718.104 788.736 717.589 789.769C717.967 807.406 716.291 824.833 712.564 842.052C702.911 874.83 681.302 894.772 647.74 901.875C623.572 907.804 599.117 911.993 574.373 914.443C566.84 913.688 559.135 913.688 551.257 914.443C552.363 913.379 553.703 912.541 555.277 911.929C554.322 911.207 554.155 910.37 554.775 909.416C555.467 910.277 556.305 910.947 557.287 911.427C564.521 910.099 571.723 910.099 578.895 911.427C580.975 910.658 583.153 910.156 585.428 909.918C585.117 908.034 585.619 906.191 586.936 904.389C589.28 907.07 591.626 907.07 593.971 904.389C594.456 905.342 594.623 906.347 594.473 907.405C597.234 907.72 599.915 907.385 602.514 906.399C603.162 905.161 603.329 903.82 603.016 902.378C604.193 903.778 605.7 904.617 607.539 904.891C606.534 905.226 605.529 905.562 604.524 905.897C611.906 907.233 618.606 905.725 624.624 901.372C626.299 902.043 627.974 902.712 629.649 903.383C631.123 902.745 632.463 901.906 633.669 900.87C631.348 900.37 629.003 900.203 626.634 900.367C626.493 898.734 627.164 897.562 628.644 896.848C627.249 895.954 627.416 895.451 629.147 895.34C630.882 895.486 631.05 896.157 629.649 897.351C636.799 901.816 643.499 901.313 649.75 895.842C652.765 894.837 655.78 893.831 658.795 892.826C659.906 888.577 661.245 888.409 662.815 892.323C663.485 890.983 664.155 889.642 664.825 888.302C665.58 889.182 666.082 890.188 666.333 891.318C667.479 888.33 669.657 886.654 672.865 886.291C673.278 887.057 673.445 888.062 673.368 889.307C674.794 888.342 676.301 887.504 677.89 886.793C675.21 886.123 675.21 885.453 677.89 884.783C671.796 884.586 665.766 883.917 659.8 882.772C661.997 881.456 664.175 881.288 666.333 882.269C667.492 879.799 668.833 879.799 670.353 882.269C671.471 881.051 672.644 881.051 673.87 882.269C674.595 880.071 675.264 877.892 675.88 875.734C675.546 875.399 675.21 875.063 674.875 874.728C675.687 874.419 676.358 873.916 676.885 873.22C676.255 872.298 675.92 871.293 675.88 870.204C686.126 861.768 692.993 851.043 696.483 838.03C698.939 829.39 700.111 820.676 700.001 811.889C697.303 813.591 694.623 815.267 691.961 816.916C691.155 815.456 690.652 813.781 690.453 811.889C688.06 812.829 685.548 813.163 682.916 812.894C683.416 816.092 682.579 818.773 680.403 820.937C678.728 820.603 677.053 820.267 675.378 819.932C675.042 816.648 674.874 813.632 674.875 810.883C669.49 814.833 663.627 817.85 657.287 819.932C656.953 819.597 656.617 819.261 656.282 818.927C654.203 819.695 652.025 820.197 649.75 820.435C652.43 822.111 652.43 823.786 649.75 825.462C650.252 825.965 650.755 826.467 651.257 826.97C652.262 826.635 653.267 826.299 654.272 825.965C655.482 827.331 656.99 828.336 658.795 828.981C658.125 829.316 657.455 829.652 656.785 829.986C651.926 828.995 647.403 827.32 643.217 824.959C640.419 826.762 637.572 827.097 634.674 825.965C631.364 826.485 628.516 827.827 626.132 829.986C623.279 828.805 620.432 828.972 617.589 830.489C619.052 830.914 619.555 831.752 619.096 833.003C618.042 831.98 616.869 831.812 615.579 832.5C619.196 833.519 622.88 834.357 626.634 835.014C621.305 835.847 615.945 836.35 610.554 836.522C613.13 837.289 613.13 837.792 610.554 838.03C608.474 837.704 608.14 836.866 609.549 835.516C608.434 834.875 607.262 834.372 606.031 834.008C601.995 835.587 597.807 836.592 593.468 837.024C588.458 835.803 583.433 835.803 578.393 837.024C578.564 838.354 578.229 839.527 577.388 840.543C574.78 840.771 572.267 841.273 569.85 842.052C567.96 841.193 566.118 841.528 564.323 843.057C563.121 842.709 563.121 842.206 564.323 841.549C560.634 840.907 557.117 841.41 553.77 843.057C547.894 840.559 541.864 840.559 535.679 843.057C533.859 842.476 532.016 841.973 530.152 841.549C530.822 841.214 531.491 840.878 532.162 840.543C530.862 840.051 529.522 839.883 528.142 840.041C564.974 837.049 601.489 831.184 637.689 822.446C657.153 817.655 674.406 808.773 689.448 795.802C698.567 785.932 704.764 774.537 708.041 761.617C709.598 758.807 710.435 755.121 710.554 750.557C711.902 715.623 710.897 680.768 707.539 645.992C707.204 644.316 706.868 642.641 706.534 640.965C706.067 641.562 705.899 642.232 706.031 642.976C703.888 627.576 701.878 612.159 700.001 596.726C686.963 455.087 675.405 313.321 665.328 171.427C662.838 142.833 659.488 114.346 655.277 85.9647C652.781 62.6601 640.888 46.4056 619.599 37.2011C606.673 32.8782 593.608 29.6944 580.403 27.6494C581.46 27.7998 582.465 27.6321 583.418 27.1467C535.01 21.6696 486.434 18.6533 437.689 18.0978C382.709 16.9471 327.767 17.9525 272.865 21.1141C270.849 21.1972 269.844 21.6999 269.85 22.6223C263.634 23.4146 257.269 24.085 250.755 24.6331C228.286 25.3481 206.176 28.5319 184.423 34.1848C165.984 38.9026 152.751 49.7947 144.725 66.8614C142.419 73.4043 140.745 80.1072 139.699 86.9701C137.024 111.569 134.512 136.035 132.162 160.367C132.312 159.309 132.145 158.304 131.659 157.351C127.927 192.635 125.749 227.825 125.127 262.921C116.079 373.546 106.698 484.144 96.9859 594.715C96.3159 598.736 95.6459 602.758 94.9759 606.78C95.1261 605.722 94.9586 604.717 94.4733 603.764C87.2612 653.453 84.9162 703.389 87.4382 753.573C88.1828 766.1 92.0354 777.496 98.996 787.758C97.4709 787.747 96.2984 787.077 95.4784 785.747C94.4236 786.77 93.2511 786.938 91.9608 786.25C91.5707 784.717 91.5707 783.041 91.9608 781.223C89.55 780.488 87.3725 779.314 85.4281 777.704C81.979 780.252 82.1465 780.922 85.9306 779.715C87.1322 780.062 87.1322 780.565 85.9306 781.223C84.2883 781.719 82.6132 781.886 80.9055 781.726C83.1375 786.44 84.4776 791.467 84.9256 796.807C83.9508 805.13 83.6159 813.508 83.9206 821.943C83.0862 812.065 82.5837 802.01 82.413 791.78C82.0781 791.109 81.743 790.44 81.408 789.769C81.0072 789.998 80.8398 790.334 80.9055 790.774C76.0419 781.387 73.0268 771.332 71.8603 760.611C72.6825 726.59 73.52 692.406 74.3728 658.057C75.1635 650.342 76.001 642.634 76.8854 634.932C76.8808 632.724 76.5457 630.713 75.8804 628.899C79.9791 589.728 83.6642 550.516 86.9357 511.264C67.9717 510.803 49.2112 508.625 30.6542 504.728C16.9769 500.765 8.43415 491.884 5.0261 478.084C3.24651 464.983 3.24651 451.913 5.0261 438.872C6.2941 433.972 8.80667 429.95 12.5638 426.807C12.6241 427.353 12.9591 427.688 13.5688 427.812C16.867 425.427 20.552 423.918 24.6241 423.288C42.2516 422.852 59.6721 422.685 76.8854 422.785C83.8742 426.592 89.4019 431.955 93.4683 438.872C96.2452 401.616 99.2603 364.415 102.514 327.269C95.2419 320.768 90.5518 312.724 88.4432 303.139C87.7731 290.403 87.7731 277.668 88.4432 264.932C90.4949 231.084 92.505 197.235 94.4733 163.383C96.2736 142.695 104.314 124.933 118.594 110.095C118.812 89.2228 123.502 69.4493 132.664 50.7744C144.498 32.593 161.081 21.0305 182.413 16.0869C202.953 11.5453 223.724 8.52897 244.725 7.03803C270.129 4.52841 295.59 3.02026 321.107 2.51357Z" fill="#1D212A"/>
<path fill-rule="evenodd" clip-rule="evenodd" d="M580.4 27.6499C477.01 18.9395 373.492 17.2639 269.848 22.6227C269.842 21.7004 270.847 21.1976 272.863 21.1146C327.764 17.953 382.706 16.9476 437.687 18.0983C486.432 18.6538 535.007 21.6701 583.416 27.1472C582.463 27.6326 581.458 27.8002 580.4 27.6499Z" fill="#141517"/>
<path fill-rule="evenodd" clip-rule="evenodd" d="M580.403 27.6495C593.608 29.6944 606.673 32.8782 619.599 37.2011C640.889 46.4057 652.781 62.6601 655.278 85.9647C659.489 114.346 662.838 142.833 665.328 171.427C675.405 313.321 686.963 455.087 700.001 596.726C697.974 608.365 694.792 621.771 690.453 636.943C688.289 637.677 686.111 638.348 683.921 638.954C678.481 638.681 673.121 639.184 667.84 640.462C644.045 651.274 619.255 658.983 593.468 663.587C575.156 671.852 563.263 685.761 557.79 705.312C553.685 717.414 552.345 729.814 553.77 742.514C557.122 751.898 563.654 757.763 573.368 760.109C601.11 760.791 628.245 756.77 654.775 748.044C667.251 743.588 678.139 736.718 687.438 727.432C689.884 723.544 692.061 719.522 693.971 715.367C700.692 731.039 697.341 744.277 683.921 755.082C668.641 764.202 652.226 770.569 634.674 774.185C482.794 804.344 330.701 805.349 178.393 777.201C156.944 773.511 136.509 766.809 117.087 757.092C102.99 748.813 97.7976 736.58 101.509 720.394C101.696 717.844 102.198 715.499 103.016 713.356C105.821 721.471 110.511 728.341 117.087 733.967C136.551 746.888 157.991 754.597 181.408 757.092C239.76 771.109 258.017 750.162 236.182 694.253C229.984 680.009 219.767 669.787 205.529 663.587C184.184 659.59 163.413 653.726 143.217 645.992C140.68 644.112 139.005 641.598 138.192 638.451C136.597 637.584 134.922 636.914 133.167 636.44C126.496 636.652 119.796 636.82 113.066 636.943C113.237 635.614 112.903 634.44 112.061 633.424C117.452 633.252 122.813 632.749 128.142 631.916C122.562 631.224 117.034 630.554 111.559 629.905C111.224 631.245 110.889 632.586 110.554 633.927C110.051 633.424 109.549 632.921 109.046 632.419C110.482 628.926 109.979 628.423 107.539 630.91C107.044 629.856 107.211 628.85 108.041 627.894C105.901 622.58 103.556 617.386 101.006 612.31C103.086 611.984 103.42 611.146 102.011 609.796C102.629 607.243 103.3 604.73 104.021 602.255C102.777 602.333 101.772 602.166 101.006 601.753C101.352 599.203 102.357 597.024 104.021 595.217C103.264 593.722 102.427 593.554 101.509 594.715C101.174 592.369 100.838 590.022 100.504 587.677C100.169 589.353 99.8336 591.028 99.4986 592.704C99.5322 589.091 99.3646 585.572 98.9961 582.147C99.684 580.445 100.689 578.936 102.011 577.622C100.757 574.612 100.757 571.596 102.011 568.573C102.346 568.741 102.682 568.908 103.016 569.076C101.994 570.131 101.826 571.304 102.514 572.595C102.848 571.924 103.184 571.255 103.519 570.584C104.568 571.713 105.237 573.054 105.529 574.606C105.863 581.309 106.199 588.011 106.534 594.715C107.167 583.674 108.004 572.949 109.046 562.541C110.051 562.541 111.056 562.541 112.061 562.541C112.227 558.839 112.06 555.153 111.559 551.481C110.535 552.674 109.362 553.68 108.041 554.497C107.056 551.897 106.722 549.216 107.036 546.454C108.712 546.454 110.386 546.454 112.061 546.454C112.061 541.092 112.061 535.729 112.061 530.367C114.742 530.367 117.421 530.367 120.102 530.367C120.102 525.005 120.102 519.642 120.102 514.28C121.159 514.43 122.164 514.263 123.117 513.777C120.865 508.719 117.85 503.692 114.071 498.696C119.614 498.705 120.451 496.861 116.584 493.166C115.56 494.359 114.387 495.365 113.066 496.182C112.371 495.654 111.868 494.984 111.559 494.171C111.224 494.506 110.889 494.842 110.554 495.177C110.051 494.171 109.549 493.166 109.046 492.16C111.391 489.947 111.726 487.434 110.051 484.62C112.701 477.332 112.701 470.127 110.051 463.003C110.255 461.285 111.093 459.945 112.564 458.981C114.189 460.339 115.362 462.015 116.082 464.008C117.704 459.464 118.373 454.772 118.092 449.932C116.082 449.932 114.071 449.932 112.061 449.932C111.693 445.441 112.195 441.084 113.569 436.861C114.95 439.198 115.285 441.544 114.574 443.899C119.187 435.863 121.029 427.149 120.102 417.758C121.441 417.758 122.782 417.758 124.122 417.758C124.75 413.24 125.419 408.715 126.132 404.185C125.18 392.65 124.845 381.088 125.127 369.497C124.122 369.497 123.117 369.497 122.112 369.497C121.945 362.786 122.112 356.083 122.614 349.389C122.923 345.994 124.765 344.653 128.142 345.367C127.827 342.605 128.162 339.923 129.147 337.323C130.982 350.467 133.327 350.635 136.182 337.826C134.54 337.329 132.864 337.163 131.157 337.323C131.157 331.961 131.157 326.598 131.157 321.236C128.07 321.815 126.06 320.642 125.127 317.717C125.373 312.902 125.373 308.042 125.127 303.139C125.72 301.833 126.725 300.995 128.142 300.625C127.851 292.806 127.851 284.93 128.142 276.997C128.296 273.774 127.625 270.758 126.132 267.948C126.48 266.746 126.982 266.746 127.639 267.948C127.974 255.213 128.31 242.478 128.644 229.742C129.059 226.995 129.73 224.314 130.654 221.698C133.217 225.496 134.725 224.825 135.177 219.688C133.837 216.671 133.837 213.655 135.177 210.639C134.149 207.878 132.808 205.364 131.157 203.098C132.841 201.914 134.181 200.406 135.177 198.573C133.837 197.233 133.837 195.892 135.177 194.552C134.584 193.246 133.579 192.408 132.162 192.038C132.832 191.703 133.502 191.367 134.172 191.033C134.147 186.607 133.812 182.25 133.167 177.962C134.088 177.586 134.926 177.083 135.68 176.454C136.435 179.866 136.267 183.217 135.177 186.508C136.915 193.768 137.92 201.142 138.192 208.628C139.532 208.628 140.872 208.628 142.212 208.628C141.261 203.306 140.591 197.944 140.202 192.541C141.582 192.699 142.923 192.531 144.222 192.038C142.576 187.801 141.235 183.444 140.202 178.967C141.101 172.803 141.435 166.603 141.207 160.367C139.722 160.63 138.382 160.295 137.187 159.361C137.82 155.717 138.825 152.198 140.202 148.804C141.502 148.312 142.842 148.144 144.222 148.302C144.222 146.961 144.222 145.62 144.222 144.28C142.212 144.28 140.202 144.28 138.192 144.28C138.215 141.84 138.718 139.494 139.7 137.242C141.062 136.357 142.57 136.021 144.222 136.236C143.797 128.572 143.797 121.198 144.222 114.117C142.181 112.049 142.181 110.206 144.222 108.587C143.029 104.407 142.359 100.72 142.212 97.5272C144.317 96.1683 146.661 95.6656 149.247 96.019C149.284 89.591 149.116 83.2233 148.745 76.9158C149.75 74.9049 150.755 72.894 151.76 70.8832C155.36 72.1363 158.04 74.4823 159.8 77.9212C160.301 74.5864 160.468 71.235 160.303 67.8669C165.662 67.8669 171.023 67.8669 176.383 67.8669C176.55 61.1556 176.383 54.4527 175.881 47.7582C173.75 47.6314 171.573 47.2963 169.348 46.7527C171.242 46.0516 171.577 45.0462 170.353 43.7364C172.559 42.4604 174.736 42.4604 176.886 43.7364C177.388 42.5634 178.225 41.7256 179.398 41.2228C182.146 41.0113 184.658 40.1735 186.936 38.7093C187.352 39.1691 187.854 39.5043 188.443 39.7147C189.114 38.3741 189.783 37.0335 190.453 35.693C191.238 36.9363 192.243 37.9417 193.468 38.7093C195.844 37.692 197.185 36.3514 197.489 34.6875C200.883 36.5223 204.567 37.1927 208.544 36.6984C208.544 35.0226 208.544 33.347 208.544 31.6712C212.193 32.1415 215.544 31.4711 218.594 29.6603C222.944 29.8882 227.299 30.2233 231.659 30.6658C233.284 30.0472 234.623 29.0418 235.68 27.6495C237.681 28.5814 239.691 28.749 241.71 28.1522C240.868 29.169 240.534 30.3419 240.705 31.6712C241.71 31.6712 242.715 31.6712 243.72 31.6712C244.188 29.9608 244.188 28.4526 243.72 27.1468C246.327 27.5396 248.671 26.7017 250.755 24.6332C257.269 24.085 263.634 23.4147 269.85 22.6223C373.495 17.2634 477.012 18.9391 580.403 27.6495Z" fill="#FCFBF7"/>
<path fill-rule="evenodd" clip-rule="evenodd" d="M267.84 66.8613C354.439 67.6989 441.206 68.2016 528.141 68.3695C533.06 69.172 537.751 70.6802 542.212 72.8939C542.822 72.7697 543.157 72.4346 543.217 71.8885C552.753 78.2452 559.955 86.6238 564.825 97.0244C568.219 110.642 570.564 124.383 571.86 138.247C571.677 150.019 566.82 159.068 557.287 165.394C556.286 165.48 555.449 165.145 554.775 164.388C552.43 165.773 549.917 166.778 547.237 167.405C542.922 166.589 538.568 165.919 534.172 165.394C532.597 165.371 531.257 165.874 530.152 166.902C515.397 167.137 500.656 167.64 485.93 168.41C476.399 165.916 466.851 165.916 457.287 168.41C446.811 166.08 436.258 165.744 425.629 167.405C414.908 166.399 404.189 165.394 393.468 164.388C383.044 165.65 372.659 166.991 362.312 168.41C335.73 166.266 309.265 165.092 282.915 164.891C284.255 165.226 285.596 165.562 286.935 165.897C285.93 166.065 284.925 166.231 283.92 166.399C280.365 164.753 276.68 164.251 272.865 164.891C271.525 165.562 271.525 166.231 272.865 166.902C268.81 168.289 265.963 167.115 264.322 163.383C258.893 165.193 258.055 164.355 261.81 160.869C259.8 160.535 257.79 160.199 255.78 159.864C256.114 159.529 256.45 159.193 256.785 158.859C253.917 158.191 251.238 158.694 248.744 160.367C248.074 160.032 247.405 159.696 246.734 159.361C247.73 158.19 248.735 157.017 249.75 155.842C249.636 154.555 248.966 153.718 247.739 153.329C244.691 156.878 241.844 160.565 239.197 164.388C236.143 161.671 233.463 158.655 231.157 155.34C230.943 152.064 230.441 148.881 229.649 145.788C229.984 145.453 230.319 145.117 230.654 144.783C229.355 144.29 228.014 144.122 226.634 144.28C226.957 139.057 226.621 134.029 225.629 129.198C227.39 116.536 230.237 104.136 234.172 91.9972C238.477 84.1722 244.339 77.8045 251.76 72.8939C256.565 69.5028 261.924 67.4919 267.84 66.8613Z" fill="#1E202A"/>
<path fill-rule="evenodd" clip-rule="evenodd" d="M450.754 128.193C451.088 128.193 451.424 128.193 451.759 128.193C451.431 137.09 451.766 145.805 452.764 154.335C481.067 155.338 509.543 155.673 538.191 155.34C509.551 156.51 480.74 156.677 451.759 155.843C450.769 146.71 450.434 137.495 450.754 128.193Z" fill="#450E16"/>
<path fill-rule="evenodd" clip-rule="evenodd" d="M546.233 152.323C543.644 153.316 540.964 154.322 538.193 155.339C509.545 155.672 481.069 155.337 452.766 154.334C481.579 154.502 510.389 154.334 539.198 153.831C541.386 152.623 543.731 152.12 546.233 152.323Z" fill="#9E2C35"/>
<path fill-rule="evenodd" clip-rule="evenodd" d="M437.69 112.106C438.691 126.005 439.026 140.081 438.695 154.335C438.583 154.955 438.249 155.458 437.69 155.843C411.054 156.677 384.587 156.509 358.293 155.34C358.293 147.967 358.293 140.593 358.293 133.221C358.628 133.221 358.963 133.221 359.298 133.221C359.298 140.259 359.298 147.297 359.298 154.335C385.429 154.335 411.559 154.335 437.69 154.335C437.69 145.956 437.69 137.577 437.69 129.199C437.69 123.501 437.69 117.804 437.69 112.106Z" fill="#82242D"/>
<path fill-rule="evenodd" clip-rule="evenodd" d="M344.222 129.198C344.557 129.198 344.893 129.198 345.227 129.198C345.227 137.242 345.227 145.285 345.227 153.329C345.116 153.949 344.781 154.452 344.222 154.837C314.906 155.671 285.76 155.504 256.785 154.334C285.596 154.334 314.406 154.334 343.217 154.334C344.093 145.989 344.428 137.611 344.222 129.198Z" fill="#9D2C34"/>
<path fill-rule="evenodd" clip-rule="evenodd" d="M358.292 94.0078C358.292 107.078 358.292 120.149 358.292 133.22C358.292 140.593 358.292 147.966 358.292 155.339C356.912 155.497 355.571 155.329 354.272 154.837C355.752 154.123 356.423 152.95 356.282 151.318C352.531 151.804 348.846 152.475 345.227 153.328C345.227 145.285 345.227 137.242 345.227 129.198C345.227 128.527 345.561 128.193 346.232 128.193C346.902 124.841 347.571 121.489 348.242 118.138C349.582 128.181 350.252 138.235 350.252 148.301C351.927 148.301 353.601 148.301 355.277 148.301C356.122 137.265 356.792 126.205 357.287 115.122C357.278 108.509 356.942 101.974 356.282 95.516C356.829 94.7949 357.499 94.2921 358.292 94.0078Z" fill="#271C27"/>
<path fill-rule="evenodd" clip-rule="evenodd" d="M437.688 84.959C438.501 86.7609 439.003 88.7718 439.195 90.9916C440.028 112.278 439.861 133.392 438.693 154.334C439.023 140.08 438.689 126.004 437.688 112.106C437.688 103.057 437.688 94.0079 437.688 84.959Z" fill="#3C121B"/>
<path fill-rule="evenodd" clip-rule="evenodd" d="M245.728 115.122C245.728 116.462 245.728 117.804 245.728 119.144C243.636 127.252 242.631 135.63 242.713 144.28C241.484 135.311 241.986 126.262 244.22 117.133C244.5 116.212 245.002 115.542 245.728 115.122Z" fill="#62171F"/>
<path fill-rule="evenodd" clip-rule="evenodd" d="M360.301 85.9648C360.301 100.376 360.301 114.788 360.301 129.199C385.761 129.199 411.222 129.199 436.682 129.199C437.017 129.199 437.353 129.199 437.687 129.199C437.687 137.577 437.687 145.956 437.687 154.334C411.557 154.334 385.426 154.334 359.296 154.334C359.296 147.296 359.296 140.258 359.296 133.22C358.964 117.292 359.3 101.54 360.301 85.9648Z" fill="#B0101A"/>
<path fill-rule="evenodd" clip-rule="evenodd" d="M245.727 119.144C245.44 120.941 245.775 122.617 246.732 124.171C249.985 125.631 253.335 126.804 256.782 127.69C285.97 127.874 315.116 128.376 344.219 129.198C344.425 137.61 344.09 145.989 343.214 154.334C314.403 154.334 285.593 154.334 256.782 154.334C250.634 152.855 245.944 149.504 242.712 144.279C242.629 135.63 243.634 127.251 245.727 119.144Z" fill="#B0101A"/>
<path fill-rule="evenodd" clip-rule="evenodd" d="M451.758 106.073C452.755 113.26 453.09 120.633 452.763 128.193C481.911 128.361 511.057 128.193 540.2 127.69C543.864 126.967 547.549 126.464 551.256 126.182C551.256 123.836 551.256 121.49 551.256 119.144C552.109 121.545 553.114 123.891 554.271 126.182C554.601 132.252 554.267 138.284 553.266 144.28C551.595 147.622 549.251 150.302 546.231 152.323C543.729 152.12 541.383 152.623 539.195 153.831C510.386 154.334 481.576 154.502 452.763 154.334C451.765 145.804 451.431 137.09 451.758 128.193C451.758 120.82 451.758 113.446 451.758 106.073Z" fill="#B0111A"/>
<path fill-rule="evenodd" clip-rule="evenodd" d="M348.241 90.9922C348.241 92.6679 348.241 94.3436 348.241 96.0194C348.241 103.392 348.241 110.766 348.241 118.139C347.57 121.49 346.901 124.842 346.23 128.193C346.23 122.831 346.23 117.468 346.23 112.106C346.901 105.068 347.57 98.0302 348.241 90.9922Z" fill="#4D1416"/>
<path fill-rule="evenodd" clip-rule="evenodd" d="M546.23 98.0303C546.884 98.3358 547.554 98.671 548.241 99.0357C548.847 103.629 550.187 107.985 552.261 112.106C553.195 116.769 553.866 121.461 554.271 126.182C553.114 123.891 552.109 121.545 551.256 119.144C549.836 111.981 548.161 104.943 546.23 98.0303Z" fill="#4E1920"/>
<path fill-rule="evenodd" clip-rule="evenodd" d="M360.301 85.9648C385.761 85.9648 411.222 85.9648 436.683 85.9648C436.683 100.376 436.683 114.788 436.683 129.199C411.222 129.199 385.761 129.199 360.301 129.199C360.301 114.788 360.301 100.376 360.301 85.9648Z" fill="#D32529"/>
<path fill-rule="evenodd" clip-rule="evenodd" d="M348.241 96.0186C348.241 94.3428 348.241 92.6672 348.241 90.9914C348.544 88.4182 348.209 86.0722 347.236 83.9534C321.611 82.7837 295.816 82.6161 269.849 83.4507C268.606 83.684 267.601 84.1867 266.834 84.9588C260.876 87.5241 255.683 91.2107 251.256 96.0186C249.59 101.616 247.747 106.979 245.728 112.106C246.074 108.969 245.404 106.12 243.718 103.559C243.864 102.783 244.199 102.113 244.723 101.548C242.67 99.7272 241.162 97.5489 240.201 95.0132C239.603 96.4197 239.77 97.7602 240.703 99.0349C239.874 99.9254 238.869 100.261 237.688 100.04C237.776 96.9252 237.273 96.5901 236.181 99.0349C235.343 98.1971 234.505 97.3591 233.668 96.5213C235.433 96.318 237.107 95.8153 238.693 95.0132C238.358 94.3428 238.023 93.6726 237.688 93.0023C239.143 92.1438 240.483 91.1383 241.708 89.986C243.327 90.8106 243.998 92.1513 243.718 94.0077C244.723 94.0077 245.728 94.0077 246.733 94.0077C246.733 92.6672 246.733 91.3265 246.733 89.986C239.382 87.3413 239.047 83.9899 245.728 79.9316C249.56 81.3131 249.226 82.151 244.723 82.4452C244.199 83.0096 243.864 83.6799 243.718 84.4561C245.608 84.6255 247.45 85.4634 249.246 86.9697C250.985 84.7925 252.995 84.4573 255.276 85.9642C257.513 85.4832 259.69 84.813 261.809 83.9534C260.63 81.1594 258.787 80.4892 256.281 81.9425C255.779 81.4398 255.276 80.9371 254.773 80.4344C256.113 80.2668 257.454 80.0992 258.794 79.9316C261.856 79.9945 264.536 80.9999 266.834 82.9479C268.077 82.8911 269.082 82.3884 269.849 81.4398C292.673 81.2618 315.453 80.7591 338.191 79.9316C341.537 81.4956 345.055 82.501 348.743 82.9479C349.561 87.4929 349.394 91.8498 348.241 96.0186Z" fill="#241F29"/>
<path fill-rule="evenodd" clip-rule="evenodd" d="M266.833 84.959C268.173 84.959 269.514 84.959 270.854 84.959C295.979 84.959 321.105 84.959 346.23 84.959C346.23 94.0079 346.23 103.057 346.23 112.106C346.23 117.468 346.23 122.831 346.23 128.193C345.56 128.193 345.225 128.527 345.225 129.198C344.891 129.198 344.555 129.198 344.22 129.198C315.117 128.377 285.971 127.874 256.783 127.69C253.336 126.804 249.986 125.631 246.733 124.171C245.776 122.618 245.442 120.941 245.728 119.144C245.728 117.804 245.728 116.462 245.728 115.122C245.728 114.117 245.728 113.111 245.728 112.106C247.747 106.979 249.589 101.616 251.256 96.0188C255.683 91.2109 260.876 87.5243 266.833 84.959Z" fill="#D32629"/>
<path fill-rule="evenodd" clip-rule="evenodd" d="M530.15 85.9648C537.005 88.1488 542.366 92.1706 546.23 98.0301C548.161 104.942 549.836 111.98 551.255 119.144C551.255 121.49 551.255 123.837 551.255 126.182C547.549 126.465 543.863 126.967 540.2 127.69C511.056 128.193 481.911 128.361 452.763 128.193C453.089 120.633 452.755 113.26 451.758 106.074C451.758 99.3706 451.758 92.6678 451.758 85.9648C477.888 85.9648 504.019 85.9648 530.15 85.9648Z" fill="#D32629"/>
<path fill-rule="evenodd" clip-rule="evenodd" d="M526.132 83.9541C527.472 84.6244 528.812 85.2946 530.152 85.965C504.021 85.965 477.891 85.965 451.76 85.965C451.76 92.6679 451.76 99.3707 451.76 106.074C451.76 113.447 451.76 120.82 451.76 128.193C451.425 128.193 451.09 128.193 450.755 128.193C450.42 113.447 450.085 98.7005 449.75 83.9541C475.21 83.9541 500.672 83.9541 526.132 83.9541Z" fill="#BA3639"/>
<path fill-rule="evenodd" clip-rule="evenodd" d="M360.301 85.9648C385.924 84.9616 411.719 84.6265 437.688 84.9594C437.688 94.0083 437.688 103.057 437.688 112.106C437.688 117.804 437.688 123.501 437.688 129.199C437.353 129.199 437.017 129.199 436.683 129.199C436.683 114.788 436.683 100.376 436.683 85.9648C411.222 85.9648 385.761 85.9648 360.301 85.9648Z" fill="#C13A3E"/>
<path fill-rule="evenodd" clip-rule="evenodd" d="M437.69 84.9591C411.721 84.6262 385.926 84.9613 360.303 85.9646C359.302 101.54 358.966 117.292 359.298 133.22C358.963 133.22 358.627 133.22 358.293 133.22C358.293 120.149 358.293 107.079 358.293 94.008C358.002 90.382 358.337 86.863 359.298 83.451C385.094 82.7807 410.889 82.7807 436.685 83.451C437.243 83.8357 437.578 84.3384 437.69 84.9591Z" fill="#621B21"/>
<path fill-rule="evenodd" clip-rule="evenodd" d="M270.855 84.9589C296.143 83.9558 321.604 83.6206 347.237 83.9535C348.21 86.0724 348.546 88.4183 348.242 90.9916C347.572 98.0296 346.903 105.068 346.232 112.106C346.232 103.057 346.232 94.0079 346.232 84.9589C321.107 84.9589 295.981 84.9589 270.855 84.9589Z" fill="#B34448"/>
<path fill-rule="evenodd" clip-rule="evenodd" d="M347.238 83.9537C321.605 83.6208 296.143 83.956 270.856 84.9591C269.516 84.9591 268.176 84.9591 266.836 84.9591C267.603 84.187 268.608 83.6843 269.851 83.451C295.818 82.6164 321.613 82.784 347.238 83.9537Z" fill="#45090C"/>
<path fill-rule="evenodd" clip-rule="evenodd" d="M526.129 83.9543C500.669 83.9543 475.207 83.9543 449.747 83.9543C450.082 98.7007 450.418 113.447 450.752 128.193C450.216 120.833 449.377 113.46 448.24 106.074C447.422 98.118 447.589 90.242 448.742 82.4461C474.202 81.7758 499.664 81.7758 525.124 82.4461C525.683 82.8308 526.018 83.3335 526.129 83.9543Z" fill="#351518"/>
<path fill-rule="evenodd" clip-rule="evenodd" d="M107.037 256.889C107.375 224.606 109.051 192.432 112.062 160.367C112.845 154.495 114.352 148.797 116.584 143.274C114.405 183.183 111.389 223.066 107.539 262.921C107.042 260.937 106.874 258.927 107.037 256.889Z" fill="#449AD1"/>
<path fill-rule="evenodd" clip-rule="evenodd" d="M225.628 129.198C226.62 134.029 226.956 139.057 226.634 144.28C228.013 144.122 229.354 144.29 230.654 144.782C230.319 145.117 229.983 145.453 229.649 145.788C230.441 148.881 230.943 152.064 231.156 155.34C233.463 158.654 236.143 161.671 239.196 164.388C241.844 160.565 244.691 156.878 247.739 153.329C248.965 153.718 249.636 154.555 249.749 155.842C248.735 157.017 247.73 158.19 246.734 159.361C247.404 159.696 248.074 160.032 248.744 160.367C251.238 158.694 253.917 158.191 256.784 158.859C256.45 159.193 256.114 159.529 255.779 159.864C257.789 160.199 259.799 160.535 261.809 160.869C258.055 164.355 258.893 165.193 264.322 163.383C265.962 167.115 268.809 168.289 272.865 166.902C271.525 166.231 271.525 165.562 272.865 164.891C276.68 164.251 280.364 164.753 283.92 166.399C284.925 166.231 285.93 166.065 286.935 165.897C285.595 165.562 284.255 165.226 282.915 164.891C309.265 165.092 335.73 166.266 362.312 168.41C372.659 166.991 383.044 165.65 393.468 164.388C404.188 165.394 414.908 166.399 425.628 167.405C436.258 165.744 446.81 166.08 457.287 168.41C466.851 165.916 476.398 165.916 485.93 168.41C500.656 167.64 515.396 167.137 530.151 166.902C531.257 165.873 532.596 165.371 534.171 165.394C538.567 165.919 542.922 166.589 547.237 167.405C549.917 166.778 552.43 165.773 554.774 164.388C555.449 165.145 556.286 165.48 557.287 165.394C552.641 169.017 547.28 171.196 541.206 171.929C447.07 172.432 352.932 172.6 258.794 172.432C233.767 168.834 222.712 154.424 225.628 129.198Z" fill="#1B1E25"/>
<path fill-rule="evenodd" clip-rule="evenodd" d="M462.813 221.698C462.02 221.413 461.35 220.911 460.803 220.19C448.412 219.687 436.017 219.519 423.617 219.687C423.946 210.455 423.61 201.406 422.612 192.54C422.157 191.577 421.487 190.739 420.602 190.027C406.532 189.356 392.461 189.356 378.391 190.027C377.762 190.781 377.259 191.619 376.883 192.54C376.688 201.667 376.186 210.716 375.376 219.687C363.311 219.519 351.25 219.687 339.195 220.19C338.636 220.575 338.302 221.078 338.19 221.698C336.777 222.174 336.107 223.179 336.18 224.714C335.181 234.252 334.846 243.97 335.175 253.872C334.397 246.998 333.057 240.128 331.155 233.261C331.489 232.926 331.825 232.59 332.16 232.255C331.567 230.738 330.898 229.23 330.15 227.731C329.159 231.627 327.986 231.627 326.632 227.731C325.962 231.082 325.962 234.434 326.632 237.785C327.048 237.326 327.551 236.99 328.14 236.78C328.993 239.187 329.998 241.532 331.155 243.818C329.881 245.699 329.881 247.542 331.155 249.347C329.717 249.815 328.545 250.654 327.637 251.861C327.136 248.189 326.969 244.503 327.135 240.801C326.13 240.801 325.125 240.801 324.12 240.801C324.03 246.024 323.361 246.024 322.11 240.801C322.65 233.994 323.655 227.291 325.125 220.693C326.464 220.693 327.805 220.693 329.145 220.693C329.145 218.011 329.145 215.331 329.145 212.649C331.825 212.649 334.505 212.649 337.185 212.649C337.185 211.644 337.185 210.638 337.185 209.633C338.753 209.652 340.26 209.987 341.708 210.638C345.057 207.957 348.408 207.957 351.758 210.638C357.446 205.115 362.974 199.418 368.341 193.546C357.977 192.541 347.592 192.207 337.185 192.54C337.185 190.864 337.185 189.189 337.185 187.513C331.825 187.513 326.464 187.513 321.105 187.513C321.368 186.027 321.033 184.687 320.1 183.492C304.402 184.481 288.657 184.817 272.863 184.497C272.863 181.815 272.863 179.135 272.863 176.453C291.669 176.008 310.43 176.679 329.145 178.464C334.56 177.948 339.92 177.11 345.225 175.951C339.865 175.28 334.505 174.61 329.145 173.94C305.523 173.771 282.072 173.268 258.793 172.432C352.931 172.6 447.068 172.432 541.205 171.929C547.278 171.196 552.639 169.017 557.285 165.394C566.818 159.067 571.675 150.019 571.858 138.247C570.562 124.383 568.217 110.642 564.823 97.0241C559.953 86.6235 552.751 78.2449 543.215 71.8882C539.485 69.6938 535.465 68.1856 531.155 67.3638C443.383 66.8611 355.611 66.6935 267.838 66.8611C261.923 67.4917 256.563 69.5026 251.758 72.8937C252.005 69.9074 253.679 68.5669 256.783 68.8719C256.4 66.4169 257.07 65.7465 258.793 66.8611C259.798 66.526 260.468 65.8556 260.803 64.8502C265.266 64.4228 269.454 63.4174 273.366 61.8339C274.481 63.3791 275.989 64.0494 277.888 63.8448C277.888 58.4825 277.888 53.1201 277.888 47.7578C279.899 47.7578 281.909 47.7578 283.919 47.7578C283.919 51.1092 283.919 54.4607 283.919 57.8122C279.899 58.1473 279.899 58.4825 283.919 58.8176C283.919 60.1581 283.919 61.4988 283.919 62.8393C368.344 64.0741 452.766 64.5768 537.185 64.3475C536.85 64.6826 536.515 65.0178 536.18 65.3529C538.209 65.8051 540.051 66.6429 541.708 67.8665C543.44 65.1821 544.613 65.5172 545.225 68.8719C547.561 70.0405 549.907 71.2135 552.26 72.391C553.407 73.1362 553.407 73.974 552.26 74.9046C553.6 75.5749 554.941 76.2451 556.28 76.9154C555.946 77.5857 555.61 78.256 555.275 78.9263C557.805 82.3884 560.652 84.7344 563.818 85.9643C566.255 85.1988 567.595 83.5231 567.838 80.9372C568.173 81.2723 568.509 81.6075 568.843 81.9426C569.898 80.3273 571.405 79.6569 573.366 79.9317C573.069 84.5778 571.059 88.2644 567.336 90.9915C567.683 92.1936 568.186 92.1936 568.843 90.9915C569.346 91.9969 569.848 93.0024 570.351 94.0078C569.725 96.4237 569.39 98.9373 569.346 101.549C570.746 102.726 571.584 104.234 571.858 106.073C572.074 109.447 572.074 112.798 571.858 116.127C572.835 117.942 574.008 119.618 575.376 121.155C575.041 121.825 574.706 122.495 574.371 123.165C574.719 124.368 575.221 124.368 575.878 123.165C576.213 125.176 576.549 127.187 576.883 129.198C577.777 127.802 578.279 127.969 578.391 129.701C578.247 133.818 578.247 138.007 578.391 142.269C578.153 144.846 577.65 144.846 576.883 142.269C576.609 143.878 576.107 145.387 575.376 146.793C576.188 147.103 576.858 147.606 577.386 148.301C575.898 149.287 574.557 150.46 573.366 151.82C574.808 151.508 576.148 151.675 577.386 152.323C578.726 157.35 578.726 162.377 577.386 167.405C574.053 165.065 572.713 162.049 573.366 158.356C572.433 160.201 571.261 160.535 569.848 159.361C567.373 161.574 565.53 164.255 564.321 167.405C558.775 169.076 558.106 171.757 562.311 175.448C556.67 176.173 551.143 176.509 545.728 176.453C544.201 174.918 541.688 174.248 538.19 174.443C536.515 174.61 534.84 174.777 533.165 174.945C534.377 175.969 534.042 176.472 532.16 176.453C525.156 175.353 518.121 175.186 511.054 175.951C512.184 176.201 513.189 176.704 514.069 177.459C492.629 178.799 492.629 180.14 514.069 181.481C497.979 182.487 481.899 183.493 465.828 184.497C465.828 187.178 465.828 189.859 465.828 192.54C460.468 192.54 455.108 192.54 449.748 192.54C449.748 193.546 449.748 194.551 449.748 195.557C444.388 195.557 439.027 195.557 433.667 195.557C433.667 193.211 433.667 190.864 433.667 188.519C432.662 188.519 431.657 188.519 430.652 188.519C431.063 195.308 431.902 202.012 433.165 208.627C433.65 207.674 433.817 206.669 433.667 205.611C439.027 205.611 444.388 205.611 449.748 205.611C449.748 206.617 449.748 207.622 449.748 208.627C452.448 208.462 455.129 208.63 457.788 209.13C456.709 209.873 456.038 210.879 455.778 212.146C456.792 213.321 457.797 214.494 458.793 215.665C457.738 217.276 458.408 218.114 460.803 218.179C462.133 218.999 462.802 220.173 462.813 221.698Z" fill="#F7F6F5"/>
<path fill-rule="evenodd" clip-rule="evenodd" d="M267.84 66.8617C355.613 66.6941 443.385 66.8617 531.156 67.3644C535.467 68.1862 539.487 69.6944 543.217 71.8889C543.156 72.4349 542.822 72.77 542.212 72.8943C537.75 70.6805 533.06 69.1724 528.141 68.3698C441.206 68.2019 354.439 67.6992 267.84 66.8617Z" fill="#010207"/>
<path fill-rule="evenodd" clip-rule="evenodd" d="M132.16 160.367C129.815 194.552 127.47 228.736 125.125 262.921C125.747 227.826 127.925 192.635 131.658 157.351C132.143 158.304 132.31 159.309 132.16 160.367Z" fill="#0A0A0F"/>
<path fill-rule="evenodd" clip-rule="evenodd" d="M680.906 144.28C684.734 151.277 686.912 158.986 687.439 167.405C689.8 195.846 690.973 224.333 690.957 252.867C689.534 244.36 688.865 235.646 688.946 226.726C688.527 207.607 687.689 188.503 686.434 169.416C685.166 160.892 683.323 152.514 680.906 144.28Z" fill="#081529"/>
<path fill-rule="evenodd" clip-rule="evenodd" d="M422.614 192.541C423.612 201.407 423.947 210.456 423.619 219.688C435.638 221.514 448.034 222.353 460.805 222.201C461.642 223.039 462.48 223.877 463.317 224.715C463.988 234.434 463.988 244.153 463.317 253.872C461.792 254.539 460.619 255.544 459.8 256.889C447.357 256.239 435.297 256.91 423.619 258.899C422.621 267.765 422.285 276.814 422.614 286.046C407.873 286.046 393.133 286.046 378.393 286.046C378.086 276.015 377.081 266.295 375.377 256.889C362.647 256.889 349.917 256.889 337.187 256.889C337.187 256.554 337.187 256.218 337.187 255.883C336.23 245.545 335.894 235.156 336.181 224.715C336.108 223.179 336.778 222.174 338.192 221.698C350.536 220.733 362.932 220.397 375.377 220.693C376.34 220.237 377.178 219.568 377.89 218.682C378.072 209.723 378.574 200.841 379.398 192.038C393.836 191.252 408.241 191.419 422.614 192.541Z" fill="#DB292C"/>
<path fill-rule="evenodd" clip-rule="evenodd" d="M422.611 192.541C408.238 191.419 393.833 191.252 379.395 192.038C378.572 200.841 378.069 209.723 377.888 218.682C377.176 219.568 376.338 220.238 375.375 220.693C375.375 220.358 375.375 220.023 375.375 219.688C376.185 210.716 376.688 201.667 376.883 192.541C377.258 191.62 377.761 190.781 378.39 190.027C392.46 189.357 406.531 189.357 420.601 190.027C421.487 190.739 422.156 191.578 422.611 192.541Z" fill="#AF323B"/>
<path fill-rule="evenodd" clip-rule="evenodd" d="M680.905 144.28C683.322 152.514 685.164 160.892 686.432 169.416C687.687 188.503 688.526 207.607 688.945 226.726C688.562 223.087 687.557 219.736 685.93 216.672C683.67 193.244 681.66 169.784 679.9 146.291C679.727 145.294 680.062 144.624 680.905 144.28Z" fill="#3B99D0"/>
<path fill-rule="evenodd" clip-rule="evenodd" d="M112.06 160.367C109.049 192.433 107.374 224.606 107.035 256.889C106.207 260.722 105.705 264.743 105.528 268.954C105.513 248.841 106.015 228.733 107.035 208.628C105.62 195.87 105.788 183.135 107.538 170.422C108.93 166.83 110.437 163.478 112.06 160.367Z" fill="#0B192D"/>
<path fill-rule="evenodd" clip-rule="evenodd" d="M679.898 146.291C681.659 169.784 683.669 193.244 685.928 216.671C686.752 227.385 687.422 238.11 687.938 248.845C688.088 249.903 687.921 250.908 687.436 251.861C683.503 215.707 680.488 179.511 678.391 143.274C678.624 144.518 679.126 145.524 679.898 146.291Z" fill="#071B30"/>
<path fill-rule="evenodd" clip-rule="evenodd" d="M375.377 219.688C375.377 220.023 375.377 220.359 375.377 220.693C362.932 220.398 350.536 220.734 338.191 221.699C338.303 221.078 338.638 220.576 339.196 220.191C351.252 219.688 363.312 219.52 375.377 219.688Z" fill="#94373F"/>
<path fill-rule="evenodd" clip-rule="evenodd" d="M685.93 216.671C687.557 219.735 688.562 223.087 688.945 226.725C688.863 235.645 689.533 244.36 690.955 252.867C691.122 257.905 690.954 262.932 690.452 267.948C689.664 261.425 688.827 255.056 687.94 248.845C687.423 238.11 686.754 227.385 685.93 216.671Z" fill="#60A6CB"/>
<path fill-rule="evenodd" clip-rule="evenodd" d="M250.753 24.6328C248.67 26.7013 246.325 27.5392 243.718 27.1464C244.186 28.4523 244.186 29.9604 243.718 31.6709C242.713 31.6709 241.708 31.6709 240.703 31.6709C240.532 30.3416 240.867 29.1686 241.708 28.1518C239.689 28.7487 237.679 28.5811 235.678 27.6491C234.622 29.0414 233.282 30.0469 231.658 30.6654C227.297 30.2229 222.942 29.8878 218.592 29.66C215.542 31.4708 212.191 32.1411 208.542 31.6709C208.542 33.3466 208.542 35.0223 208.542 36.698C204.565 37.1923 200.881 36.522 197.487 34.6872C197.183 36.3511 195.843 37.6916 193.467 38.7089C192.242 37.9413 191.237 36.9359 190.452 35.6926C189.781 37.0331 189.112 38.3738 188.442 39.7143C187.853 39.5039 187.35 39.1688 186.934 38.7089C184.657 40.1731 182.144 41.0109 179.396 41.2225C178.224 41.7252 177.386 42.563 176.884 43.7361C174.734 42.4601 172.557 42.4601 170.351 43.7361C171.575 45.0459 171.241 46.0513 169.346 46.7524C171.571 47.2959 173.748 47.631 175.879 47.7578C176.381 54.4523 176.548 61.1552 176.381 67.8665C171.022 67.8665 165.661 67.8665 160.301 67.8665C160.467 71.2346 160.299 74.586 159.798 77.9209C158.039 74.482 155.358 72.136 151.758 70.8828C150.753 72.8937 149.748 74.9045 148.743 76.9154C149.114 83.2229 149.282 89.5906 149.246 96.0187C146.66 95.6653 144.315 96.168 142.211 97.5268C142.357 100.72 143.028 104.407 144.221 108.587C142.179 110.205 142.179 112.048 144.221 114.117C143.795 121.198 143.795 128.572 144.221 136.236C142.568 136.021 141.061 136.357 139.698 137.242C138.716 139.494 138.214 141.839 138.19 144.28C140.2 144.28 142.211 144.28 144.221 144.28C144.221 145.62 144.221 146.961 144.221 148.301C142.841 148.143 141.5 148.311 140.2 148.804C138.824 152.197 137.819 155.716 137.185 159.361C138.38 160.295 139.72 160.63 141.205 160.367C141.434 166.602 141.099 172.803 140.2 178.967C141.234 183.443 142.574 187.801 144.221 192.038C142.921 192.53 141.58 192.698 140.2 192.54C140.589 197.944 141.26 203.306 142.211 208.627C140.871 208.627 139.53 208.627 138.19 208.627C137.918 201.142 136.913 193.768 135.175 186.508C136.266 183.217 136.434 179.866 135.678 176.453C134.924 177.083 134.086 177.586 133.165 177.962C133.811 182.25 134.145 186.606 134.17 191.032C133.5 191.367 132.831 191.703 132.16 192.038C133.577 192.408 134.582 193.245 135.175 194.551C133.836 195.892 133.836 197.233 135.175 198.573C134.179 200.406 132.84 201.914 131.155 203.097C132.806 205.364 134.147 207.877 135.175 210.638C133.836 213.655 133.836 216.671 135.175 219.687C134.723 224.825 133.216 225.496 130.653 221.698C129.728 224.313 129.058 226.995 128.643 229.742C128.308 242.477 127.972 255.212 127.638 267.948C126.98 266.746 126.478 266.746 126.13 267.948C127.624 270.757 128.294 273.774 128.14 276.997C127.85 284.93 127.85 292.805 128.14 300.625C126.723 300.995 125.718 301.832 125.125 303.138C125.371 308.042 125.371 312.902 125.125 317.717C126.059 320.642 128.069 321.814 131.155 321.236C131.155 326.598 131.155 331.961 131.155 337.323C132.863 337.162 134.538 337.329 136.18 337.826C133.325 350.635 130.98 350.467 129.145 337.323C128.16 339.923 127.826 342.605 128.14 345.366C124.763 344.653 122.921 345.994 122.613 349.388C122.11 356.082 121.943 362.786 122.11 369.497C123.115 369.497 124.12 369.497 125.125 369.497C124.844 381.088 125.178 392.65 126.13 404.184C125.418 408.715 124.748 413.239 124.12 417.758C122.78 417.758 121.44 417.758 120.1 417.758C121.028 427.149 119.185 435.863 114.572 443.899C115.283 441.543 114.948 439.198 113.567 436.861C112.193 441.084 111.691 445.44 112.06 449.932C114.07 449.932 116.08 449.932 118.09 449.932C118.371 454.772 117.702 459.463 116.08 464.008C115.36 462.015 114.187 460.339 112.562 458.981C111.091 459.945 110.254 461.285 110.05 463.002C112.699 470.127 112.699 477.332 110.05 484.619C111.724 487.433 111.389 489.947 109.045 492.16C109.547 493.165 110.05 494.171 110.552 495.176C110.887 494.841 111.223 494.506 111.557 494.171C111.867 494.983 112.369 495.654 113.065 496.182C114.385 495.364 115.558 494.359 116.582 493.165C120.45 496.86 119.613 498.704 114.07 498.695C117.849 503.691 120.864 508.718 123.115 513.777C122.162 514.262 121.157 514.429 120.1 514.28C120.1 519.642 120.1 525.005 120.1 530.366C117.42 530.366 114.74 530.366 112.06 530.366C112.06 535.728 112.06 541.091 112.06 546.453C110.384 546.453 108.71 546.453 107.035 546.453C106.72 549.215 107.055 551.897 108.04 554.497C109.36 553.68 110.533 552.674 111.557 551.481C112.059 555.152 112.226 558.838 112.06 562.54C111.055 562.54 110.05 562.54 109.045 562.54C108.002 572.949 107.165 583.674 106.532 594.714C106.197 588.011 105.862 581.309 105.527 574.606C105.236 573.053 104.566 571.713 103.517 570.584C103.182 571.255 102.847 571.924 102.512 572.595C101.825 571.304 101.992 570.13 103.015 569.076C102.68 568.908 102.344 568.741 102.01 568.573C100.755 571.595 100.755 574.612 102.01 577.622C100.687 578.936 99.6824 580.444 98.9944 582.146C99.363 585.572 99.5305 589.091 99.4969 592.703C99.8319 591.027 100.167 589.352 100.502 587.676C100.837 590.022 101.172 592.369 101.507 594.714C102.426 593.554 103.263 593.722 104.02 595.217C102.355 597.024 101.35 599.203 101.004 601.752C101.77 602.166 102.775 602.333 104.02 602.255C103.298 604.729 102.628 607.243 102.01 609.796C103.419 611.145 103.084 611.984 101.004 612.309C103.554 617.386 105.899 622.58 108.04 627.894C107.21 628.85 107.043 629.855 107.537 630.91C109.977 628.423 110.48 628.925 109.045 632.418C109.547 632.921 110.05 633.424 110.552 633.926C110.887 632.586 111.223 631.245 111.557 629.905C117.033 630.554 122.56 631.224 128.14 631.915C122.812 632.749 117.451 633.252 112.06 633.424C112.901 634.44 113.236 635.613 113.065 636.943C119.794 636.82 126.494 636.652 133.165 636.44C134.92 636.913 136.595 637.584 138.19 638.451C139.003 641.598 140.678 644.111 143.216 645.992C137.583 643.721 131.888 641.542 126.13 639.456C119.103 638.255 112.403 639.093 106.03 641.97C105.589 642.035 105.254 641.868 105.025 641.467C106.335 640.659 107.005 639.485 107.035 637.948C101.567 623.299 98.2171 608.888 96.9844 594.714C106.697 484.144 116.078 373.546 125.125 262.921C127.47 228.736 129.816 194.551 132.16 160.367C134.51 136.035 137.023 111.569 139.698 86.9698C140.743 80.1069 142.418 73.4039 144.723 66.8611C152.749 49.7944 165.982 38.9022 184.422 34.1844C206.174 28.5316 228.285 25.3478 250.753 24.6328Z" fill="#F8F7F6"/>
<path fill-rule="evenodd" clip-rule="evenodd" d="M336.182 224.715C335.894 235.156 336.23 245.545 337.187 255.883C336.182 255.549 335.511 254.878 335.177 253.872C334.848 243.971 335.183 234.252 336.182 224.715Z" fill="#AA3B41"/>
<path fill-rule="evenodd" clip-rule="evenodd" d="M423.617 219.688C436.017 219.52 448.412 219.688 460.803 220.191C461.35 220.912 462.02 221.414 462.813 221.699C463.098 222.492 463.6 223.163 464.321 223.71C464.991 234.099 464.991 244.489 464.321 254.878C463.902 256.141 463.064 256.812 461.808 256.889C461.138 256.889 460.468 256.889 459.798 256.889C460.617 255.545 461.79 254.539 463.316 253.873C463.986 244.153 463.986 234.435 463.316 224.715C462.478 223.878 461.64 223.039 460.803 222.202C448.032 222.353 435.636 221.515 423.617 219.688Z" fill="#AD353C"/>
<path fill-rule="evenodd" clip-rule="evenodd" d="M337.188 256.889C349.918 256.889 362.648 256.889 375.378 256.889C376.355 266.189 376.69 275.573 376.383 285.041C375.686 276.792 375.016 268.413 374.373 259.905C361.616 259.559 349.221 258.554 337.188 256.889Z" fill="#FAD8DB"/>
<path fill-rule="evenodd" clip-rule="evenodd" d="M375.375 256.889C377.079 266.296 378.084 276.015 378.39 286.046C378.39 286.381 378.39 286.717 378.39 287.052C378.055 287.052 377.72 287.052 377.385 287.052C377.05 286.381 376.715 285.711 376.38 285.041C376.687 275.573 376.352 266.189 375.375 256.889Z" fill="#9F3236"/>
<path fill-rule="evenodd" clip-rule="evenodd" d="M459.798 256.888C460.468 256.888 461.138 256.888 461.808 256.888C449.592 257.889 437.196 258.224 424.622 257.894C424.951 267.125 424.615 276.174 423.617 285.04C423.617 276.326 423.617 267.613 423.617 258.899C435.296 256.909 447.356 256.239 459.798 256.888Z" fill="#A95455"/>
<path fill-rule="evenodd" clip-rule="evenodd" d="M707.036 245.829C707.515 254.2 707.849 262.58 708.041 270.965C708.208 278.681 708.041 286.389 707.539 294.09C707.152 281.182 706.649 268.279 706.031 255.381C706.033 252.011 706.368 248.827 707.036 245.829Z" fill="#05050B"/>
<path fill-rule="evenodd" clip-rule="evenodd" d="M423.617 258.899C423.617 267.614 423.617 276.327 423.617 285.041C423.69 286.576 423.02 287.581 421.607 288.057C407.024 288.388 392.619 288.053 378.391 287.052C378.391 286.717 378.391 286.381 378.391 286.046C393.131 286.046 407.871 286.046 422.612 286.046C422.283 276.814 422.619 267.765 423.617 258.899Z" fill="#BC3138"/>
<path fill-rule="evenodd" clip-rule="evenodd" d="M377.387 287.052C377.721 287.052 378.057 287.052 378.392 287.052C392.62 288.053 407.025 288.388 421.608 288.057C414.413 288.727 407.043 289.063 399.497 289.063C391.761 289.06 384.39 288.39 377.387 287.052Z" fill="#FED8D8"/>
<path fill-rule="evenodd" clip-rule="evenodd" d="M299.999 302.133C293.143 303.294 286.108 303.461 278.893 302.635C245.235 300.448 211.733 298.269 178.391 296.1C181.69 295.516 185.04 295.181 188.441 295.095C225.601 297.931 262.787 300.277 299.999 302.133Z" fill="#0A0A0F"/>
<path fill-rule="evenodd" clip-rule="evenodd" d="M76.8841 422.786C59.6708 422.685 42.2503 422.852 24.6228 423.288C20.5507 423.919 16.8657 425.427 13.5675 427.813C12.9578 427.688 12.6228 427.353 12.5625 426.807C16.1123 424.108 20.1325 422.264 24.6228 421.277C39.6982 420.607 54.7736 420.607 69.8489 421.277C72.2267 421.72 74.5717 422.222 76.8841 422.786Z" fill="#0B0D13"/>
<path fill-rule="evenodd" clip-rule="evenodd" d="M790.453 432.84C787.977 430.868 785.632 428.689 783.418 426.304C780.54 424.898 777.525 423.892 774.372 423.288C757.45 423.119 740.699 422.616 724.121 421.78C740.127 420.624 756.208 420.456 772.362 421.277C780.621 421.875 786.651 425.73 790.453 432.84Z" fill="#090B10"/>
<path fill-rule="evenodd" clip-rule="evenodd" d="M779.398 461.997C755.1 466.25 730.644 469.267 706.031 471.046C709.772 459.706 715.466 449.484 723.117 440.38C724.456 439.71 725.797 439.04 727.137 438.37C743.082 437.554 758.995 437.722 774.875 438.872C777.467 440.469 778.808 442.816 778.896 445.91C779.397 451.262 779.565 456.624 779.398 461.997Z" fill="#363C4D"/>
<path fill-rule="evenodd" clip-rule="evenodd" d="M89.9495 472.052C66.4318 469.865 42.9813 467.183 19.5978 464.008C19.4306 456.962 19.5982 449.924 20.1003 442.894C20.5678 441.455 21.4054 440.283 22.6128 439.375C37.955 437.747 53.3654 437.413 68.844 438.37C74.3185 441.165 78.5061 445.354 81.4068 450.938C84.0712 456.268 86.7513 461.631 89.447 467.025C89.943 468.667 90.1105 470.344 89.9495 472.052Z" fill="#353C4D"/>
<path fill-rule="evenodd" clip-rule="evenodd" d="M779.398 461.997C779.793 469.802 778.286 477.175 774.875 484.117C772.613 486.004 770.101 487.512 767.338 488.641C747.8 492.755 728.034 494.599 708.041 494.171C707.482 486.407 706.811 478.699 706.031 471.046C730.644 469.266 755.1 466.25 779.398 461.997Z" fill="#2A3140"/>
<path fill-rule="evenodd" clip-rule="evenodd" d="M19.5977 464.008C42.9812 467.183 66.4317 469.864 89.9494 472.051C89.7255 479.431 89.3905 486.804 88.9444 494.171C69.5576 494.386 50.4621 492.207 31.658 487.636C27.7567 485.947 24.5741 483.434 22.1102 480.095C21.074 474.746 20.2365 469.384 19.5977 464.008Z" fill="#2A3141"/>
<path fill-rule="evenodd" clip-rule="evenodd" d="M484.925 544.443C428.643 544.437 372.362 544.437 316.081 544.443C271.21 542.416 226.653 537.556 182.412 529.865C171.224 527.318 160.169 524.302 149.246 520.816C128.765 511.848 120.558 496.264 124.623 474.063C131.495 426.446 138.53 378.855 145.729 331.291C149.213 312.56 160.101 300.83 178.392 296.101C211.735 298.27 245.236 300.449 278.895 302.636C286.11 303.462 293.145 303.295 300 302.134C301.925 301.848 303.599 302.183 305.025 303.139C303.645 302.981 302.305 303.149 301.005 303.642C305.214 303.819 309.234 304.321 313.065 305.15C293.01 305.175 273.077 304.17 253.266 302.134C252.094 302.302 250.922 302.468 249.749 302.636C250.778 304.011 250.276 304.848 248.241 305.15C247.292 304.743 246.621 304.072 246.231 303.139C244.426 304.413 242.584 304.413 240.704 303.139C240.395 304.534 240.395 306.21 240.704 308.166C237.671 308 234.655 308.168 231.658 308.669C232.998 309.34 232.998 310.009 231.658 310.68C240.098 311.442 248.474 312.615 256.784 314.199C255.231 315.156 253.556 315.491 251.759 315.204C232.167 313.843 212.569 312.503 192.965 311.183C189.447 311.35 185.93 311.517 182.412 311.685C179.617 312.21 177.272 313.383 175.377 315.204C175.042 315.875 174.707 316.545 174.372 317.215C169.277 319.803 165.759 323.825 163.819 329.28C157.51 369.5 151.312 409.717 145.226 449.933C144.454 450.7 143.952 451.705 143.719 452.949C141.549 465.613 140.544 478.349 140.704 491.155C141.404 493.251 142.577 494.927 144.221 496.183C145.964 499.774 148.644 502.622 152.261 504.729C172.629 511.071 193.4 515.763 214.573 518.805C308.735 530.768 403.207 533.785 497.99 527.854C508.938 527.32 519.658 526.148 530.151 524.335C532.831 523.664 535.511 522.994 538.191 522.324C541.541 522.324 544.892 522.324 548.241 522.324C562.39 521.811 576.46 520.471 590.452 518.302C590.452 519.308 590.452 520.313 590.452 521.318C594.153 521.484 597.837 521.317 601.508 520.816C599.186 520.316 596.841 520.149 594.473 520.313C594.332 518.68 595.002 517.508 596.483 516.794C614.681 514.898 632.102 510.205 648.744 502.718C656.284 495.877 659.131 487.331 657.287 477.079C657.178 473.093 656.341 469.406 654.774 466.019C654.228 460.008 655.233 454.31 657.789 448.927C656.157 441.932 654.817 434.894 653.769 427.813C654.688 420.707 655.859 413.669 657.287 406.699C657.621 409.38 657.957 412.061 658.292 414.742C658.544 412.799 659.046 410.956 659.799 409.212C658.978 401.416 658.476 393.54 658.292 385.585C657.393 391.038 656.891 396.4 656.784 401.672C656.077 398.45 655.407 395.266 654.774 392.12C654.217 389.229 654.888 386.381 656.784 383.574C656.333 379.388 655.328 375.366 653.769 371.509C654.258 370.557 654.593 369.552 654.774 368.492C653.571 365.889 652.566 363.208 651.759 360.449C649.79 363.134 648.283 366.151 647.236 369.498C646.231 367.152 645.226 364.805 644.221 362.46C643.93 364.925 643.26 367.271 642.211 369.498C640.571 362.368 639.398 355.162 638.694 347.881C639.773 339.276 640.778 339.443 641.709 348.384C642.527 346.105 643.029 343.759 643.216 341.346C644.892 343.022 646.566 344.697 648.241 346.373C649.431 342.402 649.767 338.381 649.246 334.308C649.049 332.512 648.212 331.172 646.734 330.286C645.755 332.541 645.419 334.887 645.729 337.324C644.389 337.324 643.048 337.324 641.709 337.324C641.926 332.406 642.931 327.715 644.724 323.248C642.478 319.734 641.64 316.047 642.211 312.188C641.084 310.052 639.576 308.209 637.689 306.658C634.584 305.735 631.569 304.562 628.643 303.139C625.939 304.901 625.269 304.398 626.633 301.631C625.68 301.011 624.842 301.177 624.121 302.134C622.039 299.202 620.699 299.538 620.101 303.139C619.371 300.336 617.528 298.828 614.573 298.615C614.908 298.28 615.243 297.944 615.578 297.609C602.344 297.829 589.279 297.661 576.382 297.106C585.933 296.536 595.481 295.867 605.025 295.096C629.738 294.039 645.149 305.434 651.256 329.28C658.908 379.171 666.278 429.108 673.367 479.09C674.948 501.888 664.731 516.467 642.714 522.827C616.333 530.049 589.533 535.076 562.312 537.908C536.566 540.783 510.77 542.961 484.925 544.443Z" fill="#1D2129"/>
<path fill-rule="evenodd" clip-rule="evenodd" d="M538.192 522.323C535.512 522.994 532.832 523.663 530.152 524.334C463.22 529.267 396.219 530.44 329.147 527.853C309.518 526.921 290.087 525.413 270.855 523.329C335.787 527.027 400.779 528.2 465.83 526.848C489.957 525.365 514.078 523.857 538.192 522.323Z" fill="#4B8DC1"/>
<path fill-rule="evenodd" clip-rule="evenodd" d="M144.223 496.182C153.241 504.446 163.961 508.803 176.383 509.252C206.313 516.643 236.8 521.335 267.841 523.328C268.846 523.328 269.851 523.328 270.856 523.328C290.087 525.413 309.518 526.921 329.147 527.853C396.22 530.44 463.221 529.266 530.152 524.334C519.66 526.147 508.939 527.319 497.992 527.853C403.209 533.784 308.736 530.768 214.574 518.804C193.402 515.762 172.631 511.07 152.263 504.728C148.646 502.621 145.965 499.773 144.223 496.182Z" fill="#04122B"/>
<path fill-rule="evenodd" clip-rule="evenodd" d="M176.383 509.253C193.443 511.662 210.529 514.511 227.639 517.799C239.33 519.342 251.054 520.516 262.815 521.318C264.615 521.992 266.29 522.662 267.84 523.329C236.799 521.335 206.312 516.644 176.383 509.253Z" fill="#4B95CB"/>
<path fill-rule="evenodd" clip-rule="evenodd" d="M654.775 466.019C656.342 469.405 657.179 473.092 657.287 477.078C659.132 487.33 656.284 495.876 648.745 502.717C632.102 510.204 614.681 514.897 596.483 516.793C595.003 517.507 594.333 518.679 594.473 520.312C596.842 520.148 599.187 520.315 601.509 520.815C597.838 521.316 594.154 521.483 590.453 521.317C590.453 520.312 590.453 519.307 590.453 518.301C576.461 520.47 562.391 521.81 548.242 522.323C576.229 519.301 604.035 514.44 631.659 507.744C639.728 506.473 646.595 502.954 652.262 497.187C653.544 494.958 654.549 492.611 655.277 490.149C655.779 482.093 655.612 474.05 654.775 466.019Z" fill="#0A192F"/>
<path fill-rule="evenodd" clip-rule="evenodd" d="M145.227 449.932C145.001 453.631 144.666 457.318 144.222 460.991C142.891 468.439 141.886 475.979 141.206 483.614C141.507 487.999 142.512 492.189 144.222 496.182C142.577 494.926 141.404 493.25 140.704 491.154C140.544 478.348 141.549 465.612 143.719 452.948C143.952 451.704 144.455 450.699 145.227 449.932Z" fill="#031733"/>
<path fill-rule="evenodd" clip-rule="evenodd" d="M648.745 427.813C650.689 440.678 652.699 453.414 654.775 466.019C655.612 474.051 655.779 482.094 655.277 490.15C654.549 492.612 653.544 494.959 652.262 497.188C646.595 502.955 639.728 506.474 631.659 507.745C604.035 514.441 576.229 519.301 548.242 522.324C544.892 522.324 541.542 522.324 538.192 522.324C514.077 523.857 489.957 525.365 465.83 526.848C400.779 528.2 335.787 527.027 270.855 523.329C269.85 523.329 268.845 523.329 267.84 523.329C266.29 522.662 264.615 521.992 262.815 521.318C251.054 520.516 239.33 519.342 227.639 517.799C210.529 514.511 193.443 511.662 176.383 509.253C163.961 508.803 153.24 504.447 144.222 496.182C142.513 492.19 141.508 488 141.207 483.614C141.886 475.98 142.891 468.439 144.222 460.992C145.137 459.465 145.974 457.79 146.735 455.965C147.727 443.157 149.234 430.421 151.257 417.758C152.262 417.758 153.267 417.758 154.272 417.758C153.949 415.524 154.619 413.68 156.282 412.228C188.565 394.983 222.736 382.918 258.795 376.033C347.074 360.451 435.517 359.445 524.122 373.016C550.053 377.937 575.514 384.639 600.504 393.125C615.913 399.496 630.988 406.367 645.73 413.737C646.001 418.714 647.006 423.406 648.745 427.813Z" fill="#2D92DD"/>
<path fill-rule="evenodd" clip-rule="evenodd" d="M621.609 316.209C628.056 318.807 632.243 323.499 634.172 330.285C637.24 348.694 640.087 367.126 642.715 385.584C640.967 382.318 639.794 378.632 639.197 374.524C637.498 359.009 635.153 343.592 632.162 328.274C629.5 323.437 625.982 319.415 621.609 316.209Z" fill="#75B0D7"/>
<path fill-rule="evenodd" clip-rule="evenodd" d="M251.757 315.203C362.906 323.983 474.128 322.977 585.425 312.187C587.304 312.194 588.979 312.529 590.45 313.193C579.73 314.198 569.01 315.203 558.29 316.209C555.06 315.897 552.045 316.232 549.244 317.214C495.547 321.048 441.778 323.059 387.938 323.247C340.812 322.494 293.743 320.483 246.732 317.214C244.958 316.248 242.948 315.912 240.702 316.209C223.958 314.869 207.207 313.528 190.45 312.187C185.251 312.399 180.226 313.405 175.375 315.203C177.269 313.383 179.615 312.209 182.41 311.684C185.928 311.516 189.445 311.35 192.963 311.182C212.567 312.502 232.165 313.842 251.757 315.203Z" fill="#071322"/>
<path fill-rule="evenodd" clip-rule="evenodd" d="M240.705 316.209C242.951 315.913 244.961 316.248 246.735 317.215C245.678 317.065 244.673 317.232 243.72 317.717C250.44 318.592 257.139 319.597 263.821 320.734C354.272 325.689 444.724 325.354 535.177 319.728C541.562 319.238 547.927 318.569 554.273 317.717C552.631 317.221 550.955 317.054 549.248 317.215C552.049 316.232 555.064 315.897 558.293 316.209C559.935 316.874 561.777 317.209 563.821 317.215C579.933 316.663 596.014 315.657 612.062 314.198C615.278 314.769 618.461 315.44 621.61 316.209C625.982 319.415 629.5 323.437 632.162 328.274C635.153 343.592 637.498 359.009 639.198 374.524C639.795 378.633 640.967 382.318 642.715 385.584C644.889 399.633 646.899 413.709 648.745 427.812C647.007 423.406 646.002 418.713 645.73 413.736C630.988 406.366 615.913 399.495 600.504 393.125C575.514 384.639 550.054 377.937 524.122 373.016C435.517 359.445 347.075 360.45 258.796 376.032C222.736 382.918 188.565 394.983 156.283 412.228C154.62 413.68 153.949 415.524 154.273 417.758C153.268 417.758 152.263 417.758 151.258 417.758C149.235 430.42 147.727 443.156 146.735 455.965C145.974 457.789 145.137 459.464 144.223 460.992C144.667 457.318 145.003 453.631 145.228 449.932C151.313 409.717 157.511 369.499 163.821 329.28C165.76 323.824 169.278 319.803 174.373 317.215C175.967 316.297 177.475 316.297 178.896 317.215C182.299 314.356 186.151 313.686 190.454 315.204C187.689 317.773 188.359 318.778 192.464 318.22C192.464 317.215 192.464 316.209 192.464 315.204C206.408 315.024 220.31 315.694 234.172 317.215C236.545 317.211 238.722 316.876 240.705 316.209Z" fill="#54A5DF"/>
<path fill-rule="evenodd" clip-rule="evenodd" d="M246.734 317.214C293.745 320.483 340.814 322.494 387.94 323.247C441.78 323.059 495.549 321.048 549.246 317.214C550.954 317.054 552.629 317.22 554.272 317.717C547.926 318.569 541.561 319.238 535.176 319.728C444.723 325.353 354.271 325.689 263.819 320.733C257.138 319.597 250.438 318.592 243.719 317.717C244.672 317.232 245.677 317.065 246.734 317.214Z" fill="#7CBAE0"/>
<path fill-rule="evenodd" clip-rule="evenodd" d="M240.703 316.209C238.72 316.876 236.543 317.211 234.17 317.215C220.308 315.694 206.405 315.024 192.462 315.204C192.462 316.209 192.462 317.215 192.462 318.22C188.357 318.778 187.687 317.773 190.451 315.204C186.149 313.687 182.297 314.356 178.894 317.215C177.473 316.297 175.965 316.297 174.371 317.215C174.706 316.544 175.041 315.874 175.376 315.204C180.227 313.405 185.253 312.4 190.451 312.188C207.208 313.529 223.959 314.869 240.703 316.209Z" fill="#6EB0DA"/>
<path fill-rule="evenodd" clip-rule="evenodd" d="M570.354 298.112C572.128 297.146 574.138 296.81 576.384 297.106C589.28 297.661 602.346 297.829 615.58 297.609C615.245 297.944 614.909 298.28 614.575 298.614C617.53 298.828 619.373 300.336 620.102 303.139C620.7 299.537 622.041 299.202 624.122 302.133C624.844 301.177 625.681 301.01 626.635 301.631C625.27 304.398 625.941 304.9 628.645 303.139C631.571 304.562 634.586 305.735 637.69 306.658C639.578 308.209 641.085 310.052 642.213 312.188C641.642 316.047 642.479 319.734 644.725 323.248C642.933 327.715 641.927 332.406 641.71 337.324C643.05 337.324 644.391 337.324 645.731 337.324C645.421 334.887 645.757 332.541 646.736 330.286C648.214 331.171 649.051 332.512 649.248 334.307C649.769 338.38 649.433 342.402 648.243 346.373C646.568 344.697 644.893 343.021 643.218 341.345C643.031 343.758 642.529 346.105 641.71 348.383C640.78 339.443 639.775 339.276 638.695 347.881C639.4 355.162 640.573 362.368 642.213 369.498C643.262 367.271 643.932 364.925 644.223 362.46C645.228 364.805 646.233 367.152 647.238 369.498C648.284 366.151 649.792 363.134 651.761 360.449C652.568 363.208 653.573 365.889 654.776 368.492C654.595 369.552 654.26 370.557 653.771 371.508C655.329 375.366 656.335 379.388 656.786 383.574C654.889 386.381 654.219 389.229 654.776 392.12C655.409 395.266 656.078 398.45 656.786 401.672C656.892 396.4 657.395 391.038 658.293 385.585C658.477 393.54 658.98 401.416 659.801 409.212C659.048 410.956 658.546 412.799 658.293 414.742C657.959 412.061 657.623 409.38 657.288 406.699C655.861 413.668 654.689 420.706 653.771 427.813C654.819 434.894 656.159 441.932 657.791 448.927C655.235 454.31 654.23 460.008 654.776 466.019C652.7 453.414 650.69 440.678 648.746 427.813C646.899 413.71 644.889 399.634 642.715 385.585C640.087 367.127 637.24 348.694 634.173 330.286C632.243 323.5 628.056 318.808 621.61 316.21C617.385 313.641 612.695 312.3 607.54 312.188C601.865 312.913 596.17 313.248 590.454 313.193C588.983 312.53 587.307 312.195 585.429 312.188C474.132 322.978 362.909 323.984 251.761 315.204C253.558 315.491 255.233 315.156 256.786 314.199C248.475 312.615 240.099 311.442 231.66 310.68C233 310.009 233 309.339 231.66 308.669C234.657 308.168 237.672 308 240.705 308.166C240.397 306.21 240.397 304.533 240.705 303.139C242.586 304.413 244.428 304.413 246.233 303.139C246.623 304.072 247.293 304.743 248.243 305.15C250.277 304.848 250.78 304.011 249.751 302.636C250.923 302.468 252.095 302.301 253.268 302.133C273.078 304.169 293.012 305.175 313.067 305.15C360.634 307.228 408.206 307.395 455.781 305.653C461.811 305.318 467.841 304.982 473.871 304.647C471.212 304.147 468.532 303.979 465.831 304.144C469.648 303.156 473.668 302.82 477.891 303.139C510.305 303.731 542.802 302.223 575.379 298.614C573.737 298.118 572.061 297.951 570.354 298.112Z" fill="#1D222C"/>
<path fill-rule="evenodd" clip-rule="evenodd" d="M621.61 316.209C618.461 315.44 615.278 314.769 612.062 314.198C596.014 315.657 579.933 316.663 563.821 317.215C561.777 317.209 559.935 316.874 558.293 316.209C569.014 315.204 579.733 314.198 590.454 313.193C596.169 313.247 601.865 312.912 607.539 312.188C612.695 312.3 617.384 313.64 621.61 316.209Z" fill="#6BADDA"/>
<path fill-rule="evenodd" clip-rule="evenodd" d="M305.024 303.138C358.614 305.249 412.216 305.584 465.828 304.144C468.529 303.979 471.209 304.147 473.868 304.647C467.838 304.981 461.808 305.317 455.778 305.652C408.203 307.394 360.631 307.228 313.064 305.149C309.233 304.321 305.213 303.818 301.004 303.641C302.303 303.148 303.644 302.981 305.024 303.138Z" fill="#0F0F13"/>
<path fill-rule="evenodd" clip-rule="evenodd" d="M570.353 298.111C572.06 297.95 573.736 298.117 575.378 298.614C542.801 302.222 510.305 303.73 477.891 303.138C508.717 301.552 539.538 299.875 570.353 298.111Z" fill="#111215"/>
<path fill-rule="evenodd" clip-rule="evenodd" d="M316.082 544.443C372.363 544.437 428.645 544.437 484.926 544.443C428.642 547.089 372.36 547.089 316.082 544.443Z" fill="#111215"/>
<path fill-rule="evenodd" clip-rule="evenodd" d="M423.617 568.573C423.617 577.287 423.617 586 423.617 594.715C422.619 585.849 422.284 576.8 422.612 567.568C407.533 567.4 392.458 567.568 377.386 568.07C377.061 578.601 376.056 588.823 374.371 598.736C374.204 588.676 374.371 578.622 374.874 568.573C375.711 567.736 376.549 566.897 377.386 566.06C392.127 565.389 406.867 565.389 421.607 566.06C422.87 566.479 423.54 567.316 423.617 568.573Z" fill="#B0373C"/>
<path fill-rule="evenodd" clip-rule="evenodd" d="M423.617 594.715C423.376 596.692 423.711 598.536 424.622 600.244C439.121 600.278 453.526 600.948 467.838 602.255C469.349 603.754 470.186 605.597 470.35 607.785C470.853 617.499 471.02 627.218 470.853 636.943C455.959 637.528 441.219 638.199 426.632 638.954C426.632 639.624 426.297 639.959 425.627 639.959C424.628 650.503 424.292 661.228 424.622 672.133C408.207 672.133 391.791 672.133 375.375 672.133C375.542 662.409 375.375 652.689 374.873 642.975C374.662 641.409 374.159 640.069 373.365 638.954C358.799 638.118 344.058 637.615 329.144 637.446C327.986 627.301 327.819 617.079 328.642 606.78C328.952 605.507 329.455 604.334 330.149 603.261C345.208 602.498 359.947 601.324 374.37 599.742C374.37 599.407 374.37 599.071 374.37 598.736C376.055 588.823 377.06 578.602 377.385 568.071C392.457 567.568 407.532 567.4 422.612 567.568C422.283 576.8 422.619 585.849 423.617 594.715Z" fill="#DB292C"/>
<path fill-rule="evenodd" clip-rule="evenodd" d="M94.9749 606.78C92.7987 629.561 90.6211 652.351 88.4422 675.15C87.5619 702.986 87.8969 730.803 89.4472 758.601C92.7168 777.426 101.93 792.508 117.085 803.845C110.128 799.567 104.097 794.205 98.995 787.758C92.0344 777.496 88.1818 766.1 87.4372 753.573C84.9152 703.389 87.2602 653.453 94.4724 603.764C94.9576 604.717 95.1251 605.722 94.9749 606.78Z" fill="#0E0E13"/>
<path fill-rule="evenodd" clip-rule="evenodd" d="M423.618 568.573C424.452 578.452 424.955 588.506 425.126 598.736C439.717 599.264 454.29 600.102 468.844 601.25C470.356 602.749 471.193 604.592 471.357 606.78C471.676 615.004 472.178 623.215 472.864 631.413C472.989 634.017 472.32 636.363 470.854 638.451C456.118 638.954 441.377 639.122 426.633 638.954C441.22 638.199 455.961 637.528 470.854 636.943C471.021 627.218 470.854 617.499 470.352 607.785C470.188 605.597 469.351 603.754 467.839 602.255C453.528 600.948 439.123 600.278 424.623 600.244C423.713 598.536 423.378 596.692 423.618 594.715C423.618 586 423.618 577.287 423.618 568.573Z" fill="#A4363C"/>
<path fill-rule="evenodd" clip-rule="evenodd" d="M75.8798 628.899C76.5451 630.713 76.8802 632.724 76.8848 634.932C76.0004 642.634 75.1629 650.342 74.3722 658.057C73.5194 692.406 72.6819 726.59 71.8597 760.611C71.6922 728.101 71.8597 695.592 72.3622 663.084C73.3847 651.663 74.5571 640.268 75.8798 628.899Z" fill="#0A0D12"/>
<path fill-rule="evenodd" clip-rule="evenodd" d="M96.9858 594.715C98.2186 608.888 101.569 623.299 107.036 637.949C107.007 639.486 106.337 640.659 105.026 641.468C105.255 641.869 105.591 642.036 106.031 641.97C101.367 647.062 98.5188 653.094 97.4883 660.068C95.5424 678.268 97.3849 696.03 103.016 713.356C102.198 715.499 101.695 717.844 101.508 720.394C97.7974 736.58 102.99 748.813 117.086 757.093C136.508 766.809 156.944 773.511 178.393 777.201C330.7 805.349 482.794 804.344 634.674 774.185C652.226 770.569 668.641 764.202 683.92 755.082C697.341 744.277 700.691 731.039 693.971 715.367C699.653 698.404 701.831 680.977 700.503 663.084C700.14 651.243 694.612 643.2 683.92 638.954C686.11 638.348 688.288 637.677 690.453 636.943C694.792 621.771 697.974 608.365 700.001 596.726C701.878 612.159 703.888 627.576 706.031 642.976C709.237 682.465 709.907 722.012 708.041 761.617C704.764 774.537 698.567 785.932 689.448 795.802C674.406 808.773 657.153 817.655 637.689 822.446C601.489 831.184 564.974 837.049 528.142 840.041C519.899 840.058 511.859 840.728 504.021 842.052C498.996 842.052 493.971 842.052 488.946 842.052C489.371 831.917 488.868 821.863 487.438 811.889C484.564 807.847 480.711 805.165 475.88 803.845C470.855 803.845 465.83 803.845 460.805 803.845C465.309 803.015 470 802.512 474.875 802.337C468.677 802.169 462.48 802.002 456.282 801.834C411.219 803.004 366.16 803.172 321.106 802.337C320.548 802.722 320.213 803.225 320.101 803.845C319.758 804.688 319.088 805.024 318.091 804.851C313.303 807.129 310.12 810.816 308.544 815.91C308.041 824.618 307.874 833.332 308.041 842.052C278.146 840.255 248.33 837.575 218.594 834.008C218.25 833.166 217.581 832.83 216.584 833.003C202.439 831.092 188.369 828.745 174.373 825.965C154.084 821.767 134.989 814.394 117.086 803.845C101.931 792.508 92.7177 777.426 89.4481 758.601C87.8978 730.803 87.5628 702.986 88.4431 675.15C90.622 652.351 92.7996 629.561 94.9757 606.78C95.6458 602.758 96.3157 598.737 96.9858 594.715Z" fill="#D7DADC"/>
<path fill-rule="evenodd" clip-rule="evenodd" d="M530.151 717.377C532.449 702.412 526.084 693.865 511.056 691.739C471.888 693.27 432.692 694.108 393.468 694.252C370.336 694.311 347.221 693.808 324.121 692.744C325.763 692.248 327.439 692.081 329.146 692.242C391.14 692.468 453.117 691.965 515.076 690.733C528.824 694.607 533.849 703.488 530.151 717.377Z" fill="#17181B"/>
<path fill-rule="evenodd" clip-rule="evenodd" d="M373.368 638.954C374.162 640.069 374.664 641.409 374.875 642.976C375.378 652.689 375.545 662.409 375.378 672.133C391.793 672.133 408.209 672.133 424.624 672.133C424.294 661.229 424.63 650.504 425.629 639.96C425.952 651.269 425.616 662.496 424.624 673.642C408.212 674.144 391.797 674.312 375.378 674.144C375.093 673.351 374.591 672.68 373.87 672.133C373.368 661.079 373.2 650.019 373.368 638.954Z" fill="#B82F36"/>
<path fill-rule="evenodd" clip-rule="evenodd" d="M143.217 645.992C163.413 653.726 184.183 659.59 205.528 663.587C219.766 669.788 229.983 680.009 236.181 694.253C258.017 750.162 239.759 771.109 181.408 757.092C157.99 754.597 136.55 746.888 117.086 733.967C110.51 728.341 105.821 721.471 103.016 713.356C97.3845 696.03 95.542 678.268 97.4879 660.068C98.5184 653.094 101.366 647.062 106.031 641.97C112.405 639.094 119.104 638.255 126.131 639.457C131.889 641.543 137.584 643.722 143.217 645.992Z" fill="#1F222B"/>
<path fill-rule="evenodd" clip-rule="evenodd" d="M129.147 659.062C126.069 658.697 123.054 658.027 120.102 657.051C118.218 656.941 116.711 657.611 115.579 659.062C115.019 672.813 115.187 686.553 116.082 700.285C114.814 697.512 113.977 694.496 113.569 691.236C112.899 680.511 112.899 669.787 113.569 659.062C115.086 656.668 117.263 655.663 120.102 656.046C123.545 656.077 126.56 657.083 129.147 659.062Z" fill="#F4D574"/>
<path fill-rule="evenodd" clip-rule="evenodd" d="M160.301 671.128C174.313 674.502 188.383 677.685 202.512 680.68C206.353 683.022 210.037 685.536 213.567 688.22C213.567 688.891 213.567 689.561 213.567 690.231C206.974 687.744 201.28 684.56 196.482 680.68C188.551 678.231 180.511 677.561 172.361 678.669C171.732 677.915 171.229 677.076 170.854 676.155C170.519 676.49 170.183 676.826 169.849 677.161C166.305 675.485 163.123 673.475 160.301 671.128Z" fill="#F3D46C"/>
<path fill-rule="evenodd" clip-rule="evenodd" d="M132.16 659.062C153.534 667.761 175.645 673.961 198.492 677.663C204.712 679.744 209.737 683.263 213.567 688.22C210.038 685.536 206.353 683.022 202.512 680.679C188.383 677.685 174.313 674.502 160.301 671.128C150.673 667.693 141.293 663.671 132.16 659.062Z" fill="#201A10"/>
<path fill-rule="evenodd" clip-rule="evenodd" d="M130.15 659.062C130.82 659.062 131.49 659.062 132.16 659.062C141.293 663.671 150.673 667.693 160.301 671.128C150.296 668.852 140.58 665.669 131.155 661.576C130.399 660.901 130.064 660.064 130.15 659.062Z" fill="#EAD37F"/>
<path fill-rule="evenodd" clip-rule="evenodd" d="M129.145 659.063C129.479 659.063 129.815 659.063 130.15 659.063C130.063 660.064 130.399 660.902 131.155 661.576C140.58 665.669 150.296 668.853 160.301 671.128C163.123 673.475 166.305 675.485 169.848 677.16C170.183 676.826 170.519 676.49 170.853 676.155C171.229 677.076 171.732 677.915 172.361 678.669C180.511 677.561 188.551 678.231 196.481 680.68C201.279 684.559 206.974 687.744 213.567 690.231C219.679 697.443 223.364 705.821 224.622 715.367C225.292 723.393 225.626 731.437 225.627 739.497C223.285 739.495 221.274 740.333 219.597 742.011C213.912 742.513 208.216 742.681 202.512 742.514C201.841 742.514 201.172 742.514 200.502 742.514C198.845 741.079 196.835 740.241 194.471 740C188.204 738.413 181.838 737.575 175.376 737.487C174.706 737.487 174.036 737.487 173.366 737.487C173.254 736.866 172.92 736.364 172.361 735.978C161.128 733.704 150.072 730.856 139.195 727.432C134.439 722.679 129.246 718.321 123.617 714.362C120.805 709.736 118.293 705.043 116.079 700.285C115.185 686.553 115.017 672.813 115.577 659.063C116.709 657.611 118.216 656.941 120.1 657.052C123.051 658.027 126.066 658.698 129.145 659.063Z" fill="#FDCB53"/>
<path fill-rule="evenodd" clip-rule="evenodd" d="M369.346 599.742C371.021 599.742 372.695 599.742 374.371 599.742C359.948 601.324 345.208 602.498 330.15 603.261C329.455 604.334 328.953 605.507 328.642 606.78C327.819 617.079 327.987 627.301 329.145 637.445C344.058 637.615 358.799 638.118 373.366 638.954C358.286 639.122 343.211 638.954 328.14 638.451C327.637 637.948 327.134 637.445 326.632 636.943C326.483 626.552 326.818 616.162 327.637 605.774C327.985 603.414 329.158 601.571 331.155 600.244C343.88 599.742 356.611 599.574 369.346 599.742Z" fill="#BC4046"/>
<path fill-rule="evenodd" clip-rule="evenodd" d="M369.346 599.742C356.611 599.574 343.881 599.742 331.155 600.244C329.158 601.571 327.985 603.414 327.637 605.774C326.818 616.162 326.484 626.552 326.632 636.943C327.135 637.445 327.637 637.948 328.14 638.451C343.211 638.954 358.287 639.122 373.366 638.954C373.198 650.018 373.366 661.078 373.869 672.133C374.589 672.68 375.092 673.351 375.376 674.144C374.375 674.23 373.538 673.894 372.863 673.138C372.695 662.398 372.192 651.673 371.356 640.964C356.951 640.964 342.545 640.964 328.14 640.964C326.938 641.312 326.938 641.815 328.14 642.473C326.498 642.969 324.822 643.136 323.115 642.975C322.954 641.267 323.121 639.591 323.617 637.948C324.511 639.344 325.013 639.177 325.125 637.445C322.739 628.027 321.901 618.475 322.612 608.791C323.85 614.04 324.521 619.402 324.622 624.878C325.439 616.232 326.612 607.686 328.14 599.239C342.049 598.407 355.784 598.574 369.346 599.742Z" fill="#FDE4E4"/>
<path fill-rule="evenodd" clip-rule="evenodd" d="M116.082 700.285C118.295 705.043 120.808 709.735 123.62 714.361C129.249 718.321 134.442 722.678 139.198 727.432C126.798 722.399 119.092 713.35 116.082 700.285Z" fill="#EAD37C"/>
<path fill-rule="evenodd" clip-rule="evenodd" d="M683.92 638.954C694.612 643.2 700.14 651.243 700.503 663.084C701.831 680.977 699.653 698.404 693.971 715.367C692.061 719.522 689.883 723.544 687.438 727.432C678.139 736.718 667.251 743.588 654.775 748.043C628.245 756.77 601.109 760.791 573.368 760.109C563.654 757.763 557.121 751.898 553.77 742.513C552.345 729.814 553.684 717.414 557.79 705.312C563.263 685.761 575.156 671.851 593.468 663.587C619.255 658.983 644.045 651.274 667.84 640.462C673.12 639.184 678.48 638.681 683.92 638.954Z" fill="#1E222A"/>
<path fill-rule="evenodd" clip-rule="evenodd" d="M679.898 707.324C684.826 691.578 686.165 675.492 683.918 659.063C682.72 656.628 680.71 655.622 677.888 656.046C674.507 656.244 671.492 657.249 668.843 659.063C668.508 659.063 668.172 659.063 667.838 659.063C657.226 664.278 646.17 668.3 634.672 671.128C648.327 666.485 661.727 660.955 674.873 654.538C679.826 652.886 683.343 654.395 685.426 659.063C686.59 673.932 685.92 688.678 683.416 703.302C682.915 705.357 681.742 706.698 679.898 707.324Z" fill="#1D1A09"/>
<path fill-rule="evenodd" clip-rule="evenodd" d="M667.84 659.062C666.51 661.26 664.5 662.769 661.81 663.587C653.355 666.742 644.98 670.093 636.684 673.641C621.671 676.303 606.931 679.99 592.463 684.701C589.552 687.124 586.537 689.303 583.418 691.236C586.316 687.165 590.002 683.981 594.473 681.685C607.998 678.214 621.398 674.695 634.674 671.128C646.173 668.299 657.228 664.278 667.84 659.062Z" fill="#EBD171"/>
<path fill-rule="evenodd" clip-rule="evenodd" d="M682.913 659.063C683.247 672.506 682.744 685.912 681.406 699.28C680.86 701.423 680.023 703.434 678.893 705.313C677.218 703.637 676.213 703.973 675.878 706.318C676.912 708.634 676.912 710.979 675.878 713.356C672.872 713.185 670.862 714.526 669.848 717.378C669.019 718.269 668.014 718.604 666.833 718.383C667.053 719.565 666.718 720.57 665.828 721.4C661.964 725.515 657.274 728.364 651.757 729.946C639.793 734.361 627.398 736.707 614.571 736.984C610.717 738.619 606.697 739.624 602.511 740C601.952 740.385 601.618 740.888 601.506 741.508C599.389 742.482 597.043 742.818 594.471 742.514C588.014 742.886 581.649 742.383 575.375 741.006C574.082 739.588 572.909 738.08 571.858 736.481C571.356 732.137 571.189 727.78 571.355 723.411C572.624 711.518 576.644 700.793 583.416 691.237C586.534 689.303 589.549 687.125 592.461 684.701C606.928 679.99 621.669 676.303 636.682 673.642C644.977 670.093 653.352 666.742 661.808 663.587C664.498 662.769 666.508 661.261 667.838 659.063C668.172 659.063 668.508 659.063 668.843 659.063C671.921 658.698 674.936 658.027 677.888 657.052C679.912 656.989 681.588 657.658 682.913 659.063Z" fill="#FDCB53"/>
<path fill-rule="evenodd" clip-rule="evenodd" d="M683.919 659.063C683.584 659.063 683.249 659.063 682.914 659.063C681.588 657.658 679.913 656.989 677.889 657.052C674.937 658.027 671.922 658.698 668.844 659.063C671.493 657.249 674.508 656.244 677.889 656.047C680.711 655.622 682.721 656.628 683.919 659.063Z" fill="#E9D688"/>
<path fill-rule="evenodd" clip-rule="evenodd" d="M708.042 761.617C709.908 722.012 709.238 682.465 706.032 642.976C705.9 642.233 706.068 641.562 706.534 640.965C706.869 642.641 707.205 644.316 707.539 645.992C710.898 680.768 711.903 715.623 710.554 750.557C710.436 755.121 709.599 758.807 708.042 761.617Z" fill="#18191C"/>
<path fill-rule="evenodd" clip-rule="evenodd" d="M224.625 715.367C227.061 722.409 228.066 729.782 227.64 737.487C226.97 738.157 226.3 738.827 225.63 739.498C225.629 731.437 225.294 723.394 224.625 715.367Z" fill="#EDD77E"/>
<path fill-rule="evenodd" clip-rule="evenodd" d="M139.195 727.432C150.073 730.855 161.128 733.704 172.361 735.978C172.92 736.363 173.255 736.866 173.366 737.486C168.696 736.686 164.005 736.015 159.296 735.475C152.366 733.388 145.667 730.706 139.195 727.432Z" fill="#E4CF7E"/>
<path fill-rule="evenodd" clip-rule="evenodd" d="M725.125 667.105C726.234 697.926 726.401 728.76 725.628 759.605C724.551 768.941 722.373 777.99 719.095 786.752C718.495 786.516 718.16 786.013 718.09 785.244C720.962 777.605 722.804 769.729 723.617 761.616C723.786 729.942 724.289 698.439 725.125 667.105Z" fill="#1D1D20"/>
<path fill-rule="evenodd" clip-rule="evenodd" d="M682.915 659.062C683.25 659.062 683.585 659.062 683.92 659.062C686.167 675.491 684.827 691.578 679.9 707.323C675.703 717.723 668.332 724.928 657.789 728.94C651.416 731.456 645.051 733.634 638.694 735.476C626.42 738.248 614.025 740.258 601.508 741.508C601.619 740.888 601.954 740.385 602.513 740C606.699 739.624 610.719 738.619 614.573 736.984C627.399 736.706 639.794 734.361 651.759 729.946C657.276 728.364 661.966 725.515 665.829 721.399C666.72 720.57 667.055 719.565 666.834 718.383C668.015 718.603 669.02 718.269 669.85 717.378C670.864 714.525 672.874 713.185 675.88 713.356C676.914 710.979 676.914 708.633 675.88 706.318C676.214 703.972 677.219 703.636 678.895 705.313C680.024 703.433 680.862 701.422 681.407 699.28C682.746 685.912 683.249 672.506 682.915 659.062Z" fill="#F2D770"/>
<path fill-rule="evenodd" clip-rule="evenodd" d="M571.358 723.41C571.191 727.78 571.359 732.136 571.86 736.481C572.911 738.079 574.084 739.588 575.378 741.005C581.651 742.383 588.016 742.885 594.473 742.513C588.961 743.672 583.266 743.839 577.388 743.016C574.989 742.449 572.979 741.277 571.358 739.497C570.094 734.003 570.094 728.641 571.358 723.41Z" fill="#E6D084"/>
<path fill-rule="evenodd" clip-rule="evenodd" d="M159.297 735.476C164.006 736.016 168.697 736.686 173.367 737.486C174.038 737.486 174.707 737.486 175.377 737.486C183.503 739.783 191.879 741.458 200.503 742.514C201.173 742.514 201.843 742.514 202.513 742.514C208.361 743.673 214.391 743.84 220.603 743.016C222.996 742.792 224.671 741.619 225.629 739.497C226.299 738.827 226.968 738.157 227.639 737.486C227.746 739.903 226.741 741.745 224.624 743.016C221.199 744.25 217.682 745.088 214.071 745.53C195.371 743.819 177.113 740.468 159.297 735.476Z" fill="#150E06"/>
<path fill-rule="evenodd" clip-rule="evenodd" d="M175.375 737.486C181.837 737.575 188.203 738.412 194.47 740C196.834 740.241 198.844 741.079 200.501 742.514C191.877 741.458 183.501 739.783 175.375 737.486Z" fill="#E2CC7A"/>
<path fill-rule="evenodd" clip-rule="evenodd" d="M225.627 739.497C224.67 741.619 222.995 742.792 220.602 743.016C214.39 743.84 208.36 743.673 202.512 742.513C208.216 742.68 213.912 742.512 219.597 742.011C221.275 740.333 223.285 739.495 225.627 739.497Z" fill="#DECD85"/>
<path fill-rule="evenodd" clip-rule="evenodd" d="M638.692 735.476C632.375 738.231 625.675 740.074 618.592 741.005C604.624 743.673 590.553 745.014 576.381 745.027C573.789 743.945 572.113 742.102 571.355 739.497C572.977 741.277 574.987 742.449 577.386 743.016C583.264 743.839 588.958 743.672 594.471 742.514C597.043 742.817 599.389 742.481 601.506 741.508C614.024 740.258 626.419 738.248 638.692 735.476Z" fill="#151109"/>
<path fill-rule="evenodd" clip-rule="evenodd" d="M329.146 692.242C327.439 692.081 325.763 692.248 324.121 692.744C347.22 693.808 370.336 694.311 393.468 694.252C432.692 694.108 471.888 693.27 511.056 691.739C526.084 693.865 532.449 702.412 530.151 717.377C526.87 731.846 522.347 745.922 516.583 759.606C510.845 768.544 502.971 774.577 492.965 777.704C491.838 777.044 490.498 776.709 488.945 776.698C428.979 782.06 369.012 782.06 309.046 776.698C307.493 776.709 306.153 777.044 305.026 777.704C294.962 775.093 287.09 769.397 281.407 760.611C272.871 742.711 267.846 723.943 266.332 704.307C268.939 697.341 273.796 692.817 280.905 690.733C297.177 690.007 313.258 690.509 329.146 692.242Z" fill="#1E222B"/>
<path fill-rule="evenodd" clip-rule="evenodd" d="M286.934 707.323C285.714 709.644 285.714 711.989 286.934 714.361C287.63 713.833 288.132 713.163 288.442 712.35C352.104 715.158 415.923 715.995 479.899 714.864C489.975 714.008 500.026 713.17 510.05 712.35C511.522 713.465 512.527 712.963 513.065 710.842C512.309 710.168 511.973 709.33 512.06 708.329C512.68 708.44 513.182 708.775 513.567 709.334C511.073 724.539 506.717 739.286 500.502 753.573C494.235 760.473 486.361 763.657 476.884 763.125C425.963 766.46 375.043 766.46 324.12 763.125C316.878 762.756 309.843 761.416 303.015 759.103C297.304 754.571 293.452 748.706 291.457 741.508C288.453 731.835 285.606 722.115 282.914 712.35C283.091 709.611 284.432 707.935 286.934 707.323Z" fill="#343A4C"/>
<path fill-rule="evenodd" clip-rule="evenodd" d="M497.989 729.443C500.481 733.372 500.314 737.393 497.487 741.509C494.58 744.079 491.397 746.258 487.939 748.044C461.173 752.605 434.205 754.448 407.034 753.574C379.617 754.093 352.314 752.584 325.125 749.049C318.608 748.142 312.243 746.634 306.029 744.525C305.44 744.735 304.938 745.071 304.522 745.53C303.478 742.135 301.97 741.465 299.999 743.519C298.9 742.144 299.235 740.971 301.004 740C298.302 737.502 297.297 734.654 297.989 731.454C302.158 738.575 308.523 742.094 317.085 742.011C372.358 747.985 427.634 747.985 482.914 742.011C490.83 741.094 495.856 736.906 497.989 729.443Z" fill="#2D3444"/>
<path fill-rule="evenodd" clip-rule="evenodd" d="M497.989 729.443C495.855 736.905 490.83 741.094 482.913 742.011C427.634 747.984 372.357 747.984 317.084 742.011C308.522 742.093 302.157 738.574 297.989 731.454C297.818 730.124 298.152 728.951 298.994 727.935C361.945 732.363 424.927 732.53 487.938 728.437C491.474 728.439 494.824 728.774 497.989 729.443Z" fill="#1D212C"/>
<path fill-rule="evenodd" clip-rule="evenodd" d="M512.06 708.329C511.974 709.33 512.309 710.168 513.065 710.843C512.528 712.963 511.523 713.466 510.05 712.351C500.026 713.17 489.976 714.009 479.899 714.864C415.924 715.995 352.104 715.158 288.442 712.351C288.133 713.163 287.63 713.834 286.935 714.362C285.715 711.99 285.715 709.644 286.935 707.324C289.763 706.655 292.778 706.32 295.98 706.318C365.161 711.665 434.341 711.665 503.518 706.318C506.683 706.177 509.531 706.848 512.06 708.329Z" fill="#2D3444"/>
<path fill-rule="evenodd" clip-rule="evenodd" d="M305.023 777.704C306.151 777.044 307.491 776.709 309.044 776.698C369.01 782.06 428.977 782.06 488.943 776.698C490.496 776.709 491.835 777.044 492.963 777.704C430.27 784.354 367.623 784.354 305.023 777.704Z" fill="#18191B"/>
<path fill-rule="evenodd" clip-rule="evenodd" d="M98.9967 787.758C104.099 794.205 110.129 799.567 117.087 803.845C134.99 814.394 154.085 821.767 174.374 825.965C173.933 825.9 173.598 826.067 173.369 826.468C187.643 830.841 202.048 833.02 216.585 833.003C217.582 832.83 218.251 833.166 218.595 834.008C221.404 835.566 225.088 836.403 229.65 836.522C228.98 836.857 228.31 837.193 227.64 837.527C233.897 838.301 240.262 839.642 246.735 841.549C245.706 842.924 246.209 843.761 248.243 844.063C249.193 843.656 249.863 842.985 250.253 842.052C250.563 842.864 251.065 843.535 251.761 844.063C252.69 842.916 253.528 842.916 254.273 844.063C254.592 842.252 255.262 841.917 256.283 843.057C257.026 841.978 258.031 841.307 259.298 841.046C261.64 842.598 264.152 843.101 266.836 842.555C266.166 842.22 265.496 841.884 264.826 841.549C279.658 841.376 294.398 842.382 309.047 844.566C305.697 844.9 302.346 845.236 298.997 845.571C301.131 847.162 303.308 847.329 305.529 846.074C307.848 847.414 309.691 849.257 311.057 851.604C314.727 852.105 318.412 852.272 322.112 852.106C321.945 846.733 322.113 841.371 322.615 836.019C323.047 843.749 323.717 851.457 324.625 859.144C325.462 859.982 326.3 860.82 327.137 861.658C331.347 862.474 335.368 862.306 339.198 861.155C340.495 860.917 341.5 861.252 342.213 862.161C343.771 863.123 346.786 863.626 351.258 863.669C390.828 864.801 430.36 864.13 469.851 861.658C470.521 861.323 471.191 860.987 471.861 860.652C471.632 860.251 471.296 860.084 470.856 860.15C471.383 858.334 472.053 856.659 472.866 855.123C472.716 856.18 472.883 857.186 473.369 858.139C474.374 850.095 475.379 850.095 476.384 858.139C477.38 857.204 477.882 856.031 477.891 854.62C477.462 847.165 476.457 839.791 474.876 832.5C476.868 827.112 476.198 822.253 472.866 817.921C478.015 816.408 480.527 818.419 480.404 823.954C480.405 833.329 480.238 842.712 479.901 852.106C484.307 852.434 488.662 852.098 492.967 851.101C492.318 849.862 492.151 848.522 492.464 847.079C491.544 847.912 490.875 848.917 490.454 850.095C490.204 848.965 489.701 847.96 488.946 847.079C487.991 847.91 486.986 848.076 485.931 847.582C486.773 846.565 487.107 845.392 486.936 844.063C494.317 843.782 501.687 843.28 509.047 842.555C507.405 842.058 505.729 841.891 504.022 842.052C511.86 840.728 519.9 840.058 528.142 840.041C529.522 839.883 530.863 840.051 532.163 840.544C531.492 840.879 530.823 841.214 530.152 841.549C532.017 841.974 533.86 842.476 535.68 843.057C541.865 840.559 547.895 840.559 553.771 843.057C557.117 841.41 560.635 840.908 564.323 841.549C563.121 842.207 563.121 842.709 564.323 843.057C566.118 841.528 567.961 841.193 569.851 842.052C572.268 841.274 574.781 840.771 577.389 840.544C578.23 839.527 578.565 838.354 578.394 837.025C583.434 835.803 588.459 835.803 593.469 837.025C597.808 836.592 601.996 835.587 606.032 834.008C607.263 834.372 608.435 834.875 609.549 835.517C608.14 836.866 608.475 837.704 610.555 838.03C613.13 837.792 613.13 837.289 610.555 836.522C615.945 836.35 621.306 835.847 626.635 835.014C622.881 834.357 619.197 833.52 615.58 832.5C616.87 831.813 618.043 831.98 619.097 833.003C619.555 831.752 619.053 830.915 617.59 830.489C620.433 828.972 623.28 828.805 626.132 829.987C628.516 827.827 631.365 826.486 634.675 825.965C637.573 827.097 640.42 826.762 643.218 824.96C647.404 827.32 651.926 828.995 656.786 829.987C657.456 829.652 658.125 829.316 658.796 828.981C656.991 828.337 655.483 827.331 654.273 825.965C653.268 826.3 652.263 826.636 651.258 826.97C650.755 826.468 650.253 825.965 649.75 825.462C652.431 823.786 652.431 822.111 649.75 820.435C652.026 820.198 654.204 819.695 656.283 818.927C656.618 819.262 656.953 819.598 657.288 819.932C663.628 817.85 669.491 814.834 674.876 810.883C674.875 813.632 675.043 816.649 675.379 819.932C677.054 820.267 678.728 820.603 680.404 820.938C682.58 818.773 683.417 816.093 682.916 812.894C685.548 813.164 688.061 812.829 690.454 811.889C690.653 813.781 691.156 815.456 691.962 816.916C680.702 825.102 668.306 831.303 654.776 835.517C622.948 845.047 590.453 851.415 557.288 854.62C534.557 857.129 511.776 858.972 488.946 860.15C487.273 868.695 482.248 874.225 473.871 876.739C450.338 879.472 426.72 880.646 403.017 880.258C381.066 880.106 359.122 879.603 337.188 878.75C324.8 879.512 315.588 874.653 309.549 864.171C309.053 862.529 308.886 860.853 309.047 859.144C261.692 857.486 214.791 851.956 168.343 842.555C158.238 839.743 148.188 836.727 138.193 833.506C123.758 827.294 110.023 820.088 96.9867 811.889C98.0713 829.718 103.264 846.14 112.565 861.155C124.191 872.754 138.093 880.295 154.273 883.777C172.16 888.212 190.25 891.564 208.544 893.832C315.589 904.005 422.792 906.016 530.152 899.864C568.813 897.627 607.004 892.265 644.725 883.777C655.999 881.087 666.384 876.562 675.881 870.204C675.92 871.293 676.256 872.298 676.886 873.22C676.359 873.916 675.688 874.419 674.876 874.729C675.211 875.063 675.546 875.399 675.881 875.734C675.265 877.893 674.596 880.071 673.871 882.269C672.645 881.052 671.472 881.052 670.354 882.269C668.834 879.799 667.493 879.799 666.333 882.269C664.176 881.288 661.998 881.456 659.801 882.772C665.767 883.917 671.797 884.587 677.891 884.783C675.211 885.454 675.211 886.123 677.891 886.794C676.302 887.505 674.795 888.342 673.369 889.307C673.446 888.063 673.279 887.057 672.866 886.291C669.658 886.654 667.48 888.33 666.333 891.318C666.083 890.188 665.581 889.183 664.826 888.302C664.156 889.642 663.486 890.983 662.816 892.324C661.246 888.41 659.906 888.577 658.796 892.826C655.781 893.832 652.766 894.837 649.75 895.843C643.5 901.313 636.8 901.816 629.65 897.351C631.051 896.157 630.883 895.487 629.147 895.34C627.417 895.452 627.25 895.954 628.645 896.848C627.165 897.562 626.494 898.734 626.635 900.367C629.004 900.203 631.348 900.37 633.67 900.87C632.464 901.906 631.123 902.745 629.65 903.383C627.975 902.713 626.3 902.043 624.625 901.373C618.607 905.725 611.907 907.233 604.524 905.897C605.529 905.562 606.534 905.226 607.539 904.892C605.701 904.617 604.194 903.779 603.017 902.378C603.329 903.821 603.163 905.161 602.514 906.4C599.915 907.385 597.235 907.72 594.474 907.405C594.624 906.347 594.457 905.342 593.972 904.389C591.627 907.07 589.281 907.07 586.936 904.389C585.62 906.192 585.117 908.035 585.429 909.919C583.154 910.156 580.976 910.659 578.896 911.427C571.723 910.1 564.521 910.1 557.288 911.427C556.305 910.947 555.468 910.278 554.776 909.416C554.156 910.37 554.322 911.208 555.278 911.93C553.704 912.541 552.364 913.379 551.258 914.443C531.557 916.412 513.801 918.088 497.992 919.47C496.918 920.409 495.579 920.745 493.972 920.476C435.507 920.893 376.881 920.39 318.092 918.968C283.503 917.607 248.998 915.094 214.575 911.427C212.696 911.434 211.021 911.769 209.549 912.432C182.258 910.228 155.792 904.364 130.152 894.837C118.933 889.476 109.051 882.27 100.504 873.22C98.3365 870.891 96.829 868.209 95.9816 865.177C88.6976 851.692 84.6775 837.281 83.9213 821.943C83.6166 813.509 83.9516 805.13 84.9264 796.807C84.4783 791.467 83.1382 786.44 80.9062 781.726C82.614 781.887 84.2891 781.72 85.9314 781.223C87.133 780.566 87.133 780.063 85.9314 779.715C82.1473 780.922 81.9797 780.252 85.4289 777.704C87.3733 779.315 89.5508 780.488 91.9615 781.223C91.5715 783.041 91.5715 784.717 91.9615 786.25C93.2519 786.938 94.4243 786.77 95.4791 785.748C96.2991 787.078 97.4717 787.747 98.9967 787.758Z" fill="#1E222D"/>
<path fill-rule="evenodd" clip-rule="evenodd" d="M460.805 803.845C413.904 803.845 367.003 803.845 320.102 803.845C320.213 803.225 320.548 802.722 321.107 802.337C366.16 803.171 411.219 803.003 456.282 801.834C462.48 802.002 468.677 802.169 474.875 802.337C470 802.512 465.31 803.014 460.805 803.845Z" fill="#F9FAFB"/>
<path fill-rule="evenodd" clip-rule="evenodd" d="M320.1 803.845C367.002 803.845 413.902 803.845 460.804 803.845C465.829 803.845 470.854 803.845 475.879 803.845C445.742 805.32 415.424 805.989 384.925 805.856C365.303 805.844 345.705 805.509 326.131 804.85C323.735 805.365 321.39 806.036 319.095 806.861C318.293 806.402 317.959 805.731 318.09 804.85C319.087 805.023 319.757 804.687 320.1 803.845Z" fill="#1A1C20"/>
<path fill-rule="evenodd" clip-rule="evenodd" d="M691.959 816.916C694.622 815.267 697.302 813.591 699.999 811.889C700.109 820.676 698.937 829.39 696.482 838.03C692.991 851.043 686.124 861.768 675.879 870.204C666.381 876.562 655.996 881.087 644.723 883.777C607.001 892.265 568.811 897.627 530.15 899.864C422.789 906.015 315.586 904.005 208.542 893.832C190.248 891.563 172.157 888.212 154.271 883.777C138.091 880.294 124.188 872.754 112.562 861.155C103.262 846.14 98.069 829.718 96.9844 811.889C110.021 820.088 123.755 827.294 138.19 833.506C148.185 836.727 158.236 839.743 168.341 842.554C214.788 851.956 261.69 857.486 309.045 859.144C308.884 860.852 309.051 862.528 309.547 864.171C315.585 874.653 324.797 879.512 337.185 878.75C359.12 879.603 381.064 880.105 403.015 880.258C426.718 880.645 450.336 879.472 473.869 876.739C482.246 874.225 487.271 868.695 488.944 860.15C511.773 858.972 534.554 857.129 557.286 854.62C590.451 851.414 622.946 845.047 654.773 835.516C668.304 831.303 680.7 825.102 691.959 816.916Z" fill="#282E3E"/>
<path fill-rule="evenodd" clip-rule="evenodd" d="M475.88 803.845C480.711 805.165 484.564 807.846 487.438 811.888C488.868 821.862 489.371 831.916 488.946 842.051C493.971 842.051 498.996 842.051 504.021 842.051C505.728 841.89 507.404 842.057 509.046 842.554C501.686 843.279 494.316 843.782 486.935 844.062C487.106 845.391 486.772 846.565 485.93 847.581C486.985 848.076 487.99 847.909 488.946 847.078C489.7 847.959 490.203 848.965 490.453 850.095C490.874 848.916 491.544 847.911 492.463 847.078C492.151 848.521 492.317 849.861 492.966 851.1C488.661 852.098 484.306 852.433 479.9 852.106C480.237 842.712 480.404 833.328 480.403 823.953C480.526 818.419 478.014 816.408 472.865 817.921C476.197 822.252 476.867 827.111 474.875 832.5C476.456 839.79 477.461 847.164 477.89 854.619C477.881 856.031 477.379 857.203 476.383 858.138C475.378 850.095 474.373 850.095 473.368 858.138C472.882 857.185 472.715 856.18 472.865 855.122C473.188 843.478 472.853 831.915 471.86 820.434C459.135 820.394 446.406 820.561 433.669 820.937C397.634 820.1 361.453 819.262 325.126 818.424C327.346 818.616 329.356 819.118 331.157 819.932C329.147 819.932 327.136 819.932 325.126 819.932C325.126 830.657 325.126 841.381 325.126 852.106C324.787 854.777 325.457 857.123 327.136 859.144C331.012 860.655 335.032 861.325 339.197 861.155C335.367 862.306 331.347 862.474 327.136 861.657C326.299 860.82 325.461 859.981 324.624 859.144C323.716 851.456 323.046 843.748 322.614 836.019C322.112 841.371 321.945 846.733 322.111 852.106C318.411 852.271 314.726 852.105 311.056 851.603C309.69 849.256 307.847 847.413 305.528 846.073C303.307 847.329 301.13 847.161 298.996 845.57C302.346 845.235 305.696 844.9 309.046 844.565C294.397 842.381 279.657 841.376 264.825 841.549C265.495 841.883 266.165 842.219 266.835 842.554C264.152 843.1 261.639 842.597 259.297 841.046C258.03 841.306 257.025 841.977 256.282 843.057C255.261 841.917 254.591 842.251 254.272 844.062C253.527 842.915 252.689 842.915 251.76 844.062C251.064 843.534 250.562 842.864 250.252 842.051C249.862 842.984 249.192 843.655 248.242 844.062C246.208 843.76 245.705 842.923 246.734 841.549C240.261 839.641 233.896 838.3 227.639 837.527C228.309 837.192 228.979 836.856 229.649 836.521C225.087 836.403 221.403 835.565 218.594 834.008C248.329 837.574 278.146 840.255 308.041 842.051C307.874 833.331 308.041 824.617 308.544 815.91C310.12 810.815 313.303 807.128 318.091 804.85C317.96 805.731 318.294 806.402 319.096 806.861C321.391 806.036 323.735 805.365 326.131 804.85C345.706 805.509 365.304 805.844 384.925 805.856C415.425 805.989 445.742 805.32 475.88 803.845Z" fill="#1D2129"/>
<path fill-rule="evenodd" clip-rule="evenodd" d="M433.668 820.937C401.497 821.168 369.336 820.832 337.185 819.932C335.175 819.932 333.165 819.932 331.155 819.932C329.354 819.119 327.344 818.616 325.125 818.424C361.452 819.262 397.633 820.1 433.668 820.937Z" fill="#01040E"/>
<path fill-rule="evenodd" clip-rule="evenodd" d="M337.185 819.932C369.336 820.832 401.497 821.167 433.667 820.937C446.404 820.561 459.134 820.394 471.858 820.434C472.851 831.915 473.186 843.478 472.863 855.122C472.05 856.658 471.38 858.333 470.853 860.149C428.029 863.232 385.149 863.902 342.21 862.16C341.498 861.251 340.493 860.916 339.195 861.154C335.03 861.325 331.01 860.655 327.135 859.144C325.455 857.123 324.785 854.777 325.125 852.106C326.124 841.897 326.459 831.508 326.13 820.937C330.02 821.254 333.706 820.919 337.185 819.932Z" fill="#99A5B4"/>
<path fill-rule="evenodd" clip-rule="evenodd" d="M174.372 825.965C188.368 828.745 202.439 831.092 216.583 833.003C202.047 833.02 187.642 830.841 173.367 826.468C173.596 826.067 173.932 825.9 174.372 825.965Z" fill="#090B10"/>
<path fill-rule="evenodd" clip-rule="evenodd" d="M83.9202 821.943C84.6764 837.281 88.6965 851.692 95.9805 865.177C90.0957 856.758 86.2431 847.373 84.4227 837.025C81.4258 821.755 80.2534 806.339 80.9051 790.775C80.8394 790.335 81.0068 789.999 81.4076 789.77C81.7426 790.44 82.0777 791.11 82.4127 791.78C82.5833 802.011 83.0858 812.065 83.9202 821.943Z" fill="#0E0F14"/>
<path fill-rule="evenodd" clip-rule="evenodd" d="M331.155 819.932C333.165 819.932 335.175 819.932 337.185 819.932C333.706 820.919 330.02 821.254 326.13 820.937C326.46 831.508 326.124 841.897 325.125 852.106C325.125 841.381 325.125 830.657 325.125 819.932C327.135 819.932 329.145 819.932 331.155 819.932Z" fill="#CDD4DF"/>
<path fill-rule="evenodd" clip-rule="evenodd" d="M470.854 860.15C471.294 860.084 471.63 860.251 471.859 860.652C471.189 860.987 470.519 861.323 469.849 861.658C430.358 864.13 390.826 864.801 351.256 863.669C346.784 863.625 343.769 863.123 342.211 862.16C385.15 863.903 428.03 863.232 470.854 860.15Z" fill="#070A12"/>
<path fill-rule="evenodd" clip-rule="evenodd" d="M574.37 914.443C548.973 917.071 523.513 918.748 497.988 919.47C513.797 918.088 531.553 916.412 551.255 914.443C559.132 913.688 566.838 913.688 574.37 914.443Z" fill="#0A0B10"/>
<path fill-rule="evenodd" clip-rule="evenodd" d="M209.547 912.432C211.018 911.769 212.694 911.434 214.572 911.427C248.995 915.094 283.501 917.607 318.09 918.968C376.879 920.39 435.505 920.893 493.969 920.476C437.695 921.583 381.413 921.751 325.125 920.978C286.472 919.717 247.945 916.867 209.547 912.432Z" fill="#151518"/>
</svg>
