<svg width="150" height="191" viewBox="0 0 150 191" fill="none" xmlns="http://www.w3.org/2000/svg">
<path d="M47.5023 3.15039H74.9988H96.9756L124.063 11.0184L133.876 23.9954L137.352 36.155V55.2629V77.7428V87.8588L138.783 98.7922L144.405 125.972L142.565 151.109L137.352 173.589L103.313 182.785L55.6797 185.442L20.108 177.37L12.6461 170.728L6.71751 156.218L5.08203 129.14L6.71751 114.937L12.6461 96.7486V68.24V36.155L16.326 23.9954L30.2275 8.46383L47.5023 3.15039Z" fill="#F22D47"/>
<path fill-rule="evenodd" clip-rule="evenodd" d="M83.5854 0.187375C76.9409 0.401466 70.2626 0.503647 63.5508 0.49392C64.6784 0.458503 65.7687 0.356322 66.8217 0.187375C72.4114 -0.0624584 77.9994 -0.0624584 83.5854 0.187375Z" fill="#2A2D47"/>
<path fill-rule="evenodd" clip-rule="evenodd" d="M66.8229 0.1875C65.7698 0.356447 64.6796 0.458628 63.5519 0.494044C70.2637 0.503772 76.942 0.401591 83.5866 0.1875C90.9769 0.565224 98.3365 1.28049 105.666 2.33331C106.675 2.44945 107.63 2.68788 108.528 3.04858C108.301 3.21003 108.028 3.31221 107.71 3.35512C107.94 3.40605 108.144 3.50823 108.323 3.66167C108.187 3.72978 108.051 3.79792 107.914 3.86603C108.184 4.16943 108.491 4.44191 108.834 4.68348C109.414 4.4471 109.959 4.17462 110.47 3.86603C111.455 4.23971 112.443 4.61437 113.434 4.99003C113.298 5.05814 113.162 5.12628 113.025 5.19439C113.453 5.38905 113.521 5.66154 113.23 6.01184C113.526 6.24012 113.867 6.37636 114.252 6.42057C114.184 6.62493 114.115 6.82929 114.047 7.03366C114.276 7.25306 114.48 7.49147 114.661 7.74893C114.85 7.51585 115.02 7.51585 115.172 7.74893C115.231 7.43337 115.367 7.16089 115.581 6.93148C116.021 7.29469 115.986 7.60123 115.478 7.85111C115.925 7.81277 116.334 7.7787 116.705 7.74893C116.773 7.85111 116.841 7.95329 116.909 8.05547C116.605 8.39533 116.469 8.73592 116.501 9.07729C116.755 9.1705 116.925 9.06831 117.012 8.77074C117.22 9.05491 117.391 9.36145 117.523 9.69037C118.118 9.86449 118.663 10.0689 119.158 10.3035C119.022 10.031 118.817 9.82662 118.545 9.69037C119.013 9.68723 119.456 9.65316 119.874 9.58819C119.966 10.0008 120.136 10.3755 120.385 10.7122C120.249 10.7803 120.112 10.8484 119.976 10.9166C120.369 10.9902 120.71 11.1605 120.998 11.4275C121.407 11.155 121.816 11.155 122.225 11.4275C122.196 11.8121 122.298 12.2209 122.531 12.6536C122.94 13.1986 123.349 13.1986 123.758 12.6536C123.811 13.0205 123.947 13.4292 124.167 13.8798C124.83 14.4759 125.545 14.9868 126.313 15.4125C126.16 15.5497 126.091 15.7199 126.109 15.9234C122.106 12.0815 117.404 9.3907 112.003 7.85111C108.637 6.96021 105.23 6.27901 101.781 5.80748C83.1585 3.38856 64.5549 3.52481 45.9705 6.21621C39.3938 7.12372 33.3291 9.33766 27.7758 12.858C27.1854 12.9153 26.8787 12.6428 26.8558 12.0405C26.0162 11.7955 25.8118 11.3187 26.2425 10.61C26.4296 10.7792 26.5657 10.9836 26.6514 11.2231C26.7195 11.0868 26.7877 10.9506 26.8558 10.8144C27.0603 10.8144 27.2647 10.8144 27.4691 10.8144C27.5117 10.3491 27.6822 9.90635 27.9802 9.48601C30.7282 7.83997 33.5903 6.40943 36.5665 5.19439C36.4451 5.09951 36.3087 5.06544 36.1576 5.09221C38.5119 3.81946 41.0332 2.96794 43.7217 2.53767C49.0413 1.88627 54.3566 1.20506 59.6677 0.494044C62.0505 0.331412 64.4357 0.229231 66.8229 0.1875Z" fill="#1C244B"/>
<path fill-rule="evenodd" clip-rule="evenodd" d="M108.529 3.04883C114.816 4.89739 120.609 7.72443 125.906 11.5299C127.787 13.0701 129.457 14.8073 130.914 16.7411C133.894 21.1317 136.279 25.832 138.07 30.8422C139.326 37.1866 139.735 43.5899 139.296 50.0523C138.968 56.1202 138.593 62.1831 138.172 68.2406C138.002 69.9076 137.9 71.6105 137.865 73.3497C137.79 73.0615 137.62 72.8571 137.354 72.7366C137.106 72.8947 137.106 73.065 137.354 73.2475C136.824 73.2937 136.312 73.3958 135.821 73.554C135.753 73.486 135.684 73.4177 135.616 73.3497C135.558 71.9647 135.388 70.6022 135.105 69.2624C135.217 65.0965 135.489 60.9412 135.923 56.7963C135.922 56.3475 135.854 55.9388 135.719 55.5701C136.168 48.392 135.93 41.2393 135.003 34.112C134.048 28.8691 132.038 24.1005 128.972 19.8066C128.181 18.4012 127.227 17.1067 126.11 15.9237C126.093 15.7201 126.161 15.5499 126.315 15.4128C125.546 14.9871 124.831 14.4762 124.168 13.8801C123.948 13.4294 123.812 13.0207 123.759 12.6539C123.35 13.1989 122.941 13.1989 122.532 12.6539C122.299 12.2211 122.197 11.8124 122.226 11.4277C121.817 11.1552 121.408 11.1552 120.999 11.4277C120.711 11.1607 120.37 10.9904 119.977 10.9168C120.113 10.8487 120.25 10.7806 120.386 10.7124C120.137 10.3757 119.967 10.001 119.875 9.58844C119.457 9.65341 119.014 9.68747 118.546 9.69062C118.819 9.82687 119.023 10.0312 119.159 10.3037C118.664 10.0691 118.119 9.86474 117.524 9.69062C117.392 9.3617 117.221 9.05516 117.013 8.77099C116.926 9.06856 116.756 9.17074 116.502 9.07753C116.47 8.73617 116.606 8.39557 116.911 8.05572C116.842 7.95354 116.774 7.85136 116.706 7.74917C116.335 7.77895 115.926 7.81302 115.479 7.85136C115.987 7.60148 116.022 7.29494 115.582 6.93172C115.368 7.16114 115.232 7.43362 115.173 7.74917C115.021 7.5161 114.851 7.5161 114.662 7.74917C114.481 7.49172 114.277 7.25331 114.048 7.0339C114.117 6.82954 114.185 6.62518 114.253 6.42082C113.868 6.37661 113.527 6.24036 113.231 6.01209C113.522 5.66179 113.454 5.38929 113.026 5.19464C113.163 5.12652 113.299 5.05839 113.435 4.99028C112.444 4.61462 111.456 4.23996 110.471 3.86628C109.96 4.17487 109.415 4.44734 108.835 4.68373C108.492 4.44215 108.185 4.16968 107.915 3.86628C108.052 3.79817 108.188 3.73003 108.324 3.66192C108.145 3.50848 107.941 3.4063 107.711 3.35537C108.029 3.31246 108.302 3.21027 108.529 3.04883Z" fill="#1C2346"/>
<path fill-rule="evenodd" clip-rule="evenodd" d="M36.1562 5.09184C36.3073 5.06507 36.4436 5.09914 36.5651 5.19402C33.5889 6.40906 30.7268 7.83961 27.9788 9.48565C27.6807 9.90598 27.5102 10.3488 27.4677 10.814C27.2633 10.814 27.0588 10.814 26.8544 10.814C26.7863 10.9503 26.718 11.0865 26.65 11.2227C26.5643 10.9832 26.4281 10.7788 26.2411 10.6096C25.8103 11.3183 26.0148 11.7952 26.8544 12.0402C26.8773 12.6425 27.1839 12.9149 27.7743 12.8576C26.4187 13.9399 25.1238 15.0981 23.8901 16.3318C22.6514 17.4689 21.5951 18.7631 20.7213 20.2147C18.8824 23.2783 17.315 26.4801 16.0193 29.8198C14.6445 35.3895 14.0653 41.0436 14.2816 46.7819C14.5345 54.3474 14.8751 61.9088 15.3038 69.4662C15.2079 70.6594 15.0718 71.8176 14.8949 72.9403C14.9281 72.5261 14.8939 72.1174 14.7927 71.7142C14.7246 72.4635 14.6564 73.2127 14.5883 73.9621C14.4648 73.0854 14.0559 73.0174 13.3617 73.7578C13.2936 73.6215 13.2253 73.4854 13.1572 73.3491C13.1399 73.673 13.1059 73.9454 13.055 74.1665C12.9187 73.8258 12.7825 73.4854 12.6462 73.1447C12.3736 73.4171 12.1009 73.6897 11.8284 73.9621C9.34902 73.8297 6.8958 73.6934 4.46875 73.5534C6.90562 73.3533 9.35884 73.2853 11.8284 73.3491C11.8626 70.8276 11.8284 68.3072 11.7262 65.7876C10.8287 56.4019 10.5562 47.0012 10.9085 37.5855C11.2086 33.1834 12.3669 29.0281 14.3839 25.1194C16.2236 21.7121 18.2679 18.4423 20.5169 15.31C24.945 10.7151 30.1581 7.30908 36.1562 5.09184Z" fill="#1D2447"/>
<path fill-rule="evenodd" clip-rule="evenodd" d="M108.324 14.2881C109.007 14.9055 109.825 15.2801 110.778 15.4121C110.949 15.6187 111.017 15.8572 110.982 16.1274C111.554 15.892 112.1 15.9941 112.617 16.4339C113.838 17.1629 114.963 18.0143 115.991 18.9885C116.025 19.0565 116.059 19.1248 116.093 19.1928C115.486 19.4283 115.111 19.7689 114.968 20.2146C114.842 20.0207 114.876 19.8505 115.071 19.7037C114.825 19.5192 114.655 19.2809 114.56 18.9885C114.375 19.2339 114.137 19.4044 113.844 19.4994C114.117 19.6357 114.117 19.7718 113.844 19.9081C114.923 20.4691 114.923 20.6054 113.844 20.3168C113.599 20.1323 113.428 19.894 113.333 19.6016C113.238 19.723 113.204 19.8593 113.231 20.0103C110.721 17.973 107.859 16.6446 104.644 16.0252C98.9751 14.9149 93.2509 14.3359 87.4719 14.2881C82.3623 14.0699 77.2173 13.9336 72.0371 13.8794C68.4215 13.8686 64.8439 14.0049 61.3043 14.2881C54.7098 14.4563 48.236 15.4101 41.8829 17.1492C41.8707 17.0382 41.8026 16.9702 41.6785 16.9448C40.8767 17.2608 40.0931 17.6015 39.3275 17.9667C39.2253 17.8986 39.1231 17.8303 39.0208 17.7623C39.0707 17.1799 39.1388 16.6009 39.2253 16.0252C39.0889 15.9572 38.9528 15.8889 38.8164 15.8208C43.6266 13.7413 48.6352 12.6173 53.8424 12.4489C53.9446 12.3467 54.0468 12.2445 54.149 12.1423C55.512 12.0061 56.8748 11.8698 58.2377 11.7336C57.8344 11.6323 57.4255 11.5983 57.0111 11.6314C68.9642 10.6642 80.9576 10.562 92.9917 11.3249C96.2837 11.5659 99.5547 11.9746 102.805 12.551C104.737 12.9134 106.577 13.4924 108.324 14.2881Z" fill="#1A2145"/>
<path fill-rule="evenodd" clip-rule="evenodd" d="M108.324 14.2881C111.174 15.2018 113.764 16.5982 116.093 18.4775C118.547 20.7928 120.693 23.3473 122.532 26.1411C126.434 33.0964 128.785 40.5215 129.585 48.4167C130.552 57.6563 131.063 66.9209 131.119 76.21C132.058 74.7368 133.387 73.9193 135.105 73.7577C134.718 67.6444 134.922 61.5817 135.719 55.5694C135.854 55.9381 135.922 56.3468 135.923 56.7956C135.489 60.9405 135.217 65.0958 135.105 69.2617C135.388 70.6015 135.558 71.964 135.616 73.349C135.684 73.417 135.753 73.4853 135.821 73.5533C136.312 73.3951 136.823 73.293 137.354 73.2468C137.106 73.0643 137.106 72.8941 137.354 72.7359C137.62 72.8564 137.79 73.0608 137.865 73.349C137.9 71.6098 138.002 69.9069 138.172 68.2399C138.172 69.9428 138.172 71.646 138.172 73.349C140.558 73.3148 142.943 73.349 145.327 73.4511C147.367 73.9913 148.764 75.2514 149.518 77.2319C150.085 79.5365 150.153 81.8525 149.722 84.1802C148.759 85.4589 147.771 86.7192 146.758 87.9609C144.201 88.9831 141.543 89.494 138.785 89.4936C139.074 92.0247 139.449 94.5453 139.909 97.0551C141.637 103.349 143.204 109.685 144.611 116.061C145.26 119.58 145.737 123.123 146.042 126.688C146.595 137.272 146.016 147.762 144.305 158.16C143.859 158.115 143.518 158.286 143.283 158.67C143.487 158.739 143.691 158.807 143.896 158.875C143.63 159.972 143.255 161.028 142.772 162.042C142.482 161.492 142.073 161.356 141.545 161.634C141.419 161.44 141.453 161.27 141.647 161.123C141.443 160.987 141.238 160.987 141.034 161.123C141.281 161.305 141.281 161.476 141.034 161.634C140.756 161.575 140.483 161.507 140.216 161.429C140.882 160.147 141.325 158.785 141.545 157.342C142.014 154.491 142.389 151.63 142.669 148.759C142.976 143.792 143.18 138.819 143.283 133.84C143.317 131.347 143.181 128.894 142.874 126.483C142.698 122.356 142.187 118.269 141.34 114.222C140.062 108.752 138.699 103.303 137.252 97.8725C136.606 95.0885 136.027 92.2957 135.514 89.4936C133.905 89.3555 132.269 89.1852 130.608 88.9827C129.942 88.7547 129.397 88.3801 128.972 87.8587C128.297 86.7123 127.786 85.4861 127.439 84.1802C124.509 73.4853 121.578 62.7901 118.648 52.0952C117.993 48.7756 117.447 45.4377 117.013 42.0814C116.586 36.0813 116.11 30.0868 115.582 24.0975C115.054 22.5636 114.271 21.2011 113.231 20.0102C113.204 19.8592 113.238 19.7229 113.333 19.6015C113.428 19.894 113.598 20.1323 113.844 20.3168C114.923 20.6054 114.923 20.469 113.844 19.9081C114.116 19.7718 114.116 19.6356 113.844 19.4993C114.137 19.4043 114.375 19.2339 114.559 18.9884C114.655 19.2809 114.825 19.5192 115.071 19.7037C114.876 19.8504 114.842 20.0207 114.968 20.2146C115.111 19.7689 115.486 19.4282 116.093 19.1928C116.059 19.1247 116.025 19.0565 115.991 18.9884C114.963 18.0142 113.838 17.1629 112.617 16.4339C112.1 15.9941 111.554 15.8919 110.982 16.1274C111.017 15.8572 110.949 15.6187 110.777 15.4121C109.825 15.2801 109.007 14.9055 108.324 14.2881Z" fill="#1C234E"/>
<path fill-rule="evenodd" clip-rule="evenodd" d="M57.0103 11.6314C57.4247 11.5983 57.8335 11.6323 58.2369 11.7336C56.8739 11.8698 55.5112 12.0061 54.1482 12.1423C54.046 12.2445 53.9438 12.3467 53.8415 12.4488C48.6344 12.6173 43.6257 13.7413 38.8156 15.8208C38.9519 15.8889 39.0881 15.9571 39.2244 16.0252C39.138 16.6009 39.0699 17.1798 39.02 17.7623C39.1222 17.8303 39.2244 17.8986 39.3267 17.9666C40.0923 17.6014 40.8759 17.2608 41.6777 16.9448C41.8018 16.9702 41.8698 17.0382 41.8821 17.1492C38.5048 18.311 36.1538 20.559 34.8291 23.8932C34.2912 30.3625 33.746 36.8338 33.1936 43.3076C32.7827 45.9764 32.3057 48.6331 31.7626 51.2778C28.5597 62.8584 25.357 74.4389 22.1541 86.0195C21.8356 86.8089 21.4609 87.5583 21.0297 88.2675C20.5137 88.5591 19.9687 88.7976 19.3942 88.9828C17.7308 89.1759 16.0953 89.3461 14.4878 89.4937C13.094 96.2301 11.4243 102.906 9.47914 109.521C8.41056 114.376 7.69503 119.281 7.33257 124.235C6.72724 133.818 6.86339 143.423 7.74144 153.051C7.95528 154.835 8.26193 156.606 8.6614 158.364C9.27082 159.99 9.98634 161.557 10.808 163.064C9.77884 163.782 9.40391 163.51 9.68357 162.247C9.86532 162.531 9.96753 162.497 9.99023 162.145C9.68357 161.497 9.37692 160.85 9.07027 160.203C8.6845 160.515 8.48006 160.924 8.45696 161.429C8.25253 161.157 8.04809 160.884 7.84366 160.612C7.38654 160.639 6.94353 160.639 6.51483 160.612C5.98575 159.247 5.61102 157.816 5.39044 156.32C4.93577 151.754 4.45862 147.19 3.95939 142.628C3.08911 130.723 4.17936 119.006 7.23035 107.478C9.1545 101.742 10.5514 95.8839 11.4213 89.9024C11.6061 89.7575 11.6742 89.5531 11.6257 89.2893C10.9443 89.2893 10.2627 89.2893 9.58136 89.2893C7.29557 89.229 5.11486 88.7181 3.03943 87.7566C2.04036 86.5537 1.1204 85.2934 0.27956 83.9759C-0.199227 81.5548 -0.0630731 79.1705 0.68843 76.8232C1.4201 75.103 2.68065 74.013 4.47048 73.5534C6.89753 73.6933 9.35075 73.8297 11.8301 73.9621C12.1027 73.6897 12.3754 73.417 12.6479 73.1446C12.7842 73.4853 12.9204 73.8258 13.0568 74.1664C13.1077 73.9453 13.1416 73.6729 13.159 73.349C13.227 73.4853 13.2953 73.6214 13.3634 73.7577C14.0577 73.0173 14.4665 73.0854 14.59 73.9621C14.6581 73.2127 14.7264 72.4635 14.7944 71.7141C14.8956 72.1173 14.9298 72.526 14.8967 72.9403C14.8619 73.2104 14.93 73.4489 15.1011 73.6555C16.8112 73.9141 18.14 74.7656 19.0876 76.2101C19.0483 66.1573 19.6277 56.1435 20.8253 46.1687C21.3243 43.2347 21.9718 40.3053 22.7674 37.3811C24.6454 30.8315 27.848 25.0413 32.3759 20.0103C33.9613 18.2203 35.8353 16.8238 37.9978 15.8208C44.0618 13.2119 50.3993 11.8154 57.0103 11.6314Z" fill="#1D244E"/>
<path fill-rule="evenodd" clip-rule="evenodd" d="M117.934 24.5068C118.332 24.7553 118.639 25.0958 118.854 25.5287C122.679 31.8218 125.132 38.634 126.213 45.9649C127.493 55.9374 128.106 65.9512 128.053 76.0063C124.975 65.6731 122.249 55.2506 119.876 44.7388C119.321 39.5735 118.912 34.3964 118.649 29.2072C118.529 27.6187 118.29 26.0518 117.934 24.5068Z" fill="#1160BC"/>
<path fill-rule="evenodd" clip-rule="evenodd" d="M32.2732 24.3018C32.4243 24.275 32.5606 24.3092 32.6821 24.404C32.3417 25.1481 32.1031 25.9316 31.9665 26.7542C31.611 33.1848 30.9977 39.5883 30.1266 45.9643C27.6556 56.2535 24.9299 66.4717 21.9492 76.6187C21.9797 66.2293 22.6613 55.8748 23.9936 45.5555C25.3312 37.8964 28.0911 30.812 32.2732 24.3018Z" fill="#1160BD"/>
<path fill-rule="evenodd" clip-rule="evenodd" d="M23.8908 16.3321C24.0419 16.3053 24.1783 16.3394 24.2997 16.4343C19.0192 25.5574 17.52 35.2647 19.8021 45.556C20.0066 45.556 20.211 45.556 20.4154 45.556C20.4502 45.8261 20.3821 46.0646 20.211 46.2712C20.4312 46.3673 20.6356 46.3332 20.8243 46.1691C19.6267 56.1438 19.0474 66.1576 19.0866 76.2104C18.1391 74.766 16.8102 73.9144 15.1001 73.6559C14.929 73.4493 14.8609 73.2108 14.8957 72.9406C15.0725 71.8178 15.2087 70.6597 15.3046 69.4664C14.8759 61.9091 14.5353 54.3477 14.2824 46.7821C14.0661 41.0438 14.6453 35.3897 16.0201 29.82C17.3158 26.4803 18.8832 23.2786 20.7221 20.215C21.5958 18.7634 22.6522 17.4691 23.8908 16.3321Z" fill="black" fill-opacity="0.2"/>
<path fill-rule="evenodd" clip-rule="evenodd" d="M128.973 19.8057C132.038 24.0995 134.049 28.8681 135.003 34.1111C135.93 41.2384 136.168 48.3911 135.719 55.5692C134.923 61.5815 134.718 67.6442 135.106 73.7575C133.387 73.9191 132.059 74.7366 131.119 76.2098C131.064 66.9207 130.553 57.6561 129.586 48.4165C129.891 46.5703 130.47 44.7992 131.324 43.103C132.196 37.0537 131.923 31.0591 130.506 25.1191C129.908 23.3021 129.397 21.5309 128.973 19.8057Z" fill="black" fill-opacity="0.2"/>
<path fill-rule="evenodd" clip-rule="evenodd" d="M61.3039 14.2878C61.8532 14.2543 62.3984 14.2885 62.9393 14.39C56.1803 14.9704 49.502 16.0605 42.9047 17.6598C41.8602 18.2502 40.7698 18.727 39.6337 19.0904C37.6096 20.7181 36.5533 22.8639 36.465 25.5278C35.7395 33.9053 34.8195 42.25 33.7051 50.5623C33.8124 50.7037 33.9488 50.8059 34.114 50.8688C35.5651 49.3612 37.2006 48.1009 39.0204 47.0881C41.6832 46.0362 44.4772 45.5595 47.4023 45.6576C66.6208 45.4677 85.8377 45.5358 105.053 45.8619C109.407 45.697 112.985 47.2297 115.786 50.4601C115.922 48.9615 115.922 47.4627 115.786 45.9641C114.944 39.0315 114.263 32.0832 113.741 25.1191C113.409 23.364 112.796 21.7291 111.902 20.2144C110.897 19.4131 109.841 18.6978 108.733 18.0686C106.667 17.304 104.554 16.691 102.395 16.2293C100.092 15.9761 97.8088 15.6015 95.5467 15.1053C92.3128 14.8282 89.0759 14.5897 85.8361 14.39C86.377 14.2885 86.9222 14.2543 87.4715 14.2878C93.2505 14.3357 98.9747 14.9146 104.644 16.0249C107.858 16.6444 110.72 17.9727 113.23 20.01C114.27 21.2008 115.054 22.5633 115.581 24.0973C116.109 30.0865 116.586 36.0811 117.012 42.0812C117.447 45.4375 117.992 48.7753 118.648 52.095C121.578 62.7899 124.508 73.485 127.439 84.18C127.786 85.4858 128.297 86.712 128.972 87.8585C128.427 87.9265 127.882 87.9948 127.336 88.0629C127.336 88.4035 127.336 88.744 127.336 89.0847C126.651 89.2884 126.037 89.2204 125.496 88.8803C125.288 87.4324 124.981 86.0019 124.577 84.5887C122.6 77.6403 120.624 70.692 118.648 63.7437C117.748 60.703 116.725 57.7056 115.581 54.7517C113.545 50.8402 110.376 48.4559 106.075 47.599C106.882 47.5596 106.882 47.4574 106.075 47.2925C85.87 47.1224 65.699 47.1564 45.5624 47.3946C40.9763 48.0028 37.3986 50.2508 34.8295 54.1386C33.7151 56.5266 32.761 58.9789 31.9674 61.4957C29.5459 69.7476 27.0927 77.9902 24.6078 86.2236C24.5057 87.3114 24.4716 88.4013 24.5055 89.4934C24.5188 89.5829 24.4849 89.6512 24.4033 89.6978C24.3011 89.3232 24.0625 89.0847 23.6878 88.9825C23.199 88.9238 22.7221 88.8217 22.2568 88.6759C22.0756 88.5073 22.0076 88.303 22.0523 88.0629C21.6659 88.0214 21.3593 88.1575 21.1324 88.4716C21.0508 88.425 21.0169 88.3567 21.0301 88.2672C21.4613 87.5581 21.836 86.8087 22.1545 86.0192C25.3574 74.4386 28.5601 62.8582 31.763 51.2775C32.3062 48.6329 32.7831 45.9762 33.194 43.3074C33.7464 36.8336 34.2916 30.3622 34.8295 23.8929C36.1543 20.5587 38.5053 18.3107 41.8825 17.1489C48.2355 15.4098 54.7094 14.456 61.3039 14.2878Z" fill="black" fill-opacity="0.2"/>
<path fill-rule="evenodd" clip-rule="evenodd" d="M17.9632 81.932C17.7518 82.1746 17.4793 82.3448 17.1454 82.4429C13.6404 82.7019 10.165 82.4975 6.71924 81.8298C5.41208 81.415 4.18547 80.8358 3.03941 80.0928C2.89999 80.2446 2.76363 80.3807 2.63054 80.5015C2.12436 78.4156 2.80595 76.8828 4.67489 75.9033C8.08385 75.926 11.491 76.0623 14.8966 76.312C16.2431 76.8493 17.0949 77.837 17.4521 79.2753C17.6886 80.1504 17.8589 81.0361 17.9632 81.932Z" fill="#3B4373"/>
<path fill-rule="evenodd" clip-rule="evenodd" d="M147.369 78.0491C147.369 78.5942 147.369 79.139 147.369 79.684C145.402 80.3858 143.426 81.1011 141.44 81.8298C138.533 82.4832 135.603 82.6536 132.65 82.3408C132.698 82.0769 132.63 81.8726 132.445 81.7277C132.579 80.2035 133.022 78.773 133.774 77.436C134.175 76.8975 134.686 76.5227 135.307 76.312C138.713 76.0548 142.12 75.9184 145.529 75.9033C146.408 76.4058 147.021 77.1211 147.369 78.0491Z" fill="#3B4272"/>
<path fill-rule="evenodd" clip-rule="evenodd" d="M17.9645 81.932C18.2905 83.1439 18.4608 84.3701 18.4755 85.6106C18.1217 86.0432 17.6787 86.3498 17.1467 86.5302C14.0749 86.6904 11.0083 86.6222 7.94713 86.3258C6.12112 86.1871 4.51978 85.5399 3.14291 84.3844C2.71421 83.1263 2.54391 81.8319 2.63182 80.5015C2.76491 80.3807 2.90127 80.2446 3.04069 80.0928C4.18675 80.8358 5.41336 81.415 6.72052 81.8299C10.1663 82.4975 13.6417 82.7019 17.1467 82.4429C17.4806 82.3449 17.7531 82.1746 17.9645 81.932Z" fill="#27325F"/>
<path fill-rule="evenodd" clip-rule="evenodd" d="M147.37 78.0498C147.607 79.7166 147.641 81.4197 147.473 83.1589C147.285 84.1169 146.773 84.8322 145.939 85.3047C141.506 86.64 137.009 86.9465 132.447 86.2243C131.941 85.9302 131.669 85.4874 131.629 84.896C131.858 83.821 132.131 82.7651 132.447 81.7283C132.631 81.8732 132.7 82.0776 132.651 82.3414C135.604 82.6543 138.535 82.4839 141.442 81.8305C143.427 81.1018 145.403 80.3865 147.37 79.6847C147.37 79.1397 147.37 78.5948 147.37 78.0498Z" fill="#27315F"/>
<path opacity="0.271" fill-rule="evenodd" clip-rule="evenodd" d="M9.58203 89.2891C10.2634 89.2891 10.945 89.2891 11.6264 89.2891C11.6748 89.5529 11.6068 89.7573 11.4219 89.9022C10.8694 89.5731 10.2561 89.3688 9.58203 89.2891Z" fill="#A1A5B4"/>
<path fill-rule="evenodd" clip-rule="evenodd" d="M14.4879 89.4941C15.3737 89.4941 16.2598 89.4941 17.1456 89.4941C17.1795 90.3145 17.1454 91.1319 17.0434 91.9465C15.7231 98.0179 14.3601 104.081 12.9547 110.135C12.4509 113.46 12.0762 116.798 11.8303 120.149C10.4162 123.554 9.93924 127.096 10.3992 130.775C10.426 130.926 10.3919 131.063 10.297 131.184C10.2289 130.98 10.1606 130.775 10.0926 130.571C10.0245 128.868 9.9562 127.165 9.88813 125.462C9.43081 126.128 8.78356 126.468 7.94599 126.484C8.00426 126.118 7.93618 125.778 7.74156 125.462C7.62176 125.505 7.51954 125.573 7.43491 125.666C7.3333 125.194 7.29937 124.718 7.33269 124.236C7.69515 119.281 8.41067 114.377 9.47926 109.522C11.4245 102.906 13.0941 96.2306 14.4879 89.4941Z" fill="black" fill-opacity="0.2"/>
<path fill-rule="evenodd" clip-rule="evenodd" d="M135.513 89.4941C136.026 92.2962 136.605 95.089 137.251 97.873C138.698 103.303 140.061 108.753 141.34 114.222C142.186 118.269 142.697 122.357 142.873 126.484C142.906 126.898 142.872 127.307 142.771 127.71C142.611 125.797 142.407 123.89 142.157 121.988C142.113 122.586 142.011 123.165 141.851 123.725C142.224 124.025 142.326 124.399 142.157 124.849C141.923 124.653 141.718 124.721 141.544 125.053C141.183 124.603 140.944 124.126 140.828 123.623C140.576 123.775 140.303 123.843 140.011 123.827C140.06 124.317 139.924 124.726 139.602 125.053C139.463 123.198 138.918 121.496 137.966 119.944C137.989 119.818 138.057 119.716 138.171 119.638C137.805 116.806 137.362 113.979 136.842 111.157C135.29 104.168 133.756 97.1853 132.242 90.2094C132.26 89.9832 132.328 89.7788 132.447 89.5963C133.467 89.4943 134.489 89.4602 135.513 89.4941Z" fill="black" fill-opacity="0.25"/>
<path fill-rule="evenodd" clip-rule="evenodd" d="M45.5617 47.3953C65.7364 47.3295 85.9072 47.3978 106.074 47.5997C110.376 48.4566 113.544 50.8409 115.581 54.7524C116.725 57.7063 117.747 60.7036 118.647 63.7444C120.623 70.6927 122.6 77.641 124.576 84.5894C124.98 86.0025 125.287 87.4331 125.496 88.881C125.702 89.6192 125.737 90.3685 125.598 91.129C125.413 91.3744 125.175 91.5449 124.882 91.6399C115.045 94.792 104.959 96.4949 94.6261 96.749C80.9968 97.424 67.3678 97.424 53.7391 96.749C46.2461 96.1788 38.8184 95.157 31.4557 93.6835C29.1194 93.099 26.9387 92.1794 24.9137 90.9246C24.7978 90.4174 24.6615 89.9404 24.5049 89.4941C24.4709 88.402 24.5051 87.3121 24.6071 86.2243C27.092 77.9909 29.5452 69.7483 31.9668 61.4964C32.7604 58.9796 33.7145 56.5273 34.8288 54.1393C37.398 50.2515 40.9756 48.0035 45.5617 47.3953Z" fill="#1E234F"/>
<path fill-rule="evenodd" clip-rule="evenodd" d="M118.138 72.7362C119.886 77.9505 121.385 83.2639 122.635 88.6765C122.567 88.8128 122.499 88.9489 122.431 89.0852C118.435 90.4904 114.346 91.5463 110.165 92.2528C93.1986 94.5944 76.1625 95.2758 59.0559 94.2964C49.8971 93.7377 40.8338 92.5115 31.8661 90.6179C30.3886 90.152 28.9576 89.573 27.5729 88.8808C27.299 88.638 27.1626 88.3315 27.1641 87.9612C27.9816 84.5927 28.9357 81.289 30.0262 78.0496C30.1701 78.4264 30.4426 78.5286 30.8439 78.3561C48.8166 70.0298 67.761 66.1128 87.6769 66.6053C87.6464 66.3903 87.6803 66.1859 87.7791 65.9922C87.8422 66.2509 87.9445 66.4894 88.0857 66.7075C98.4072 67.2359 108.391 69.3818 118.035 73.1449C118.13 73.0235 118.164 72.8872 118.138 72.7362Z" fill="#1972D0"/>
<path fill-rule="evenodd" clip-rule="evenodd" d="M45.3561 50.461C46.5827 50.461 47.8093 50.461 49.0359 50.461C67.6397 50.4269 86.2433 50.461 104.847 50.5632C107.487 50.76 109.702 51.816 111.491 53.7308C113.003 56.1515 114.162 58.7402 114.966 61.4966C116.119 65.2222 117.176 68.9688 118.135 72.7366C118.162 72.8876 118.128 73.0239 118.033 73.1453C108.388 69.3822 98.4045 67.2364 88.083 66.7079C87.9417 66.4898 87.8395 66.2513 87.7763 65.9926C87.6776 66.1864 87.6437 66.3907 87.6741 66.6057C67.7583 66.1132 48.8139 70.0302 30.8412 78.3566C30.4399 78.5291 30.1674 78.4269 30.0234 78.05C31.7223 72.2516 33.46 66.4612 35.2365 60.6792C35.9768 58.2507 37.0672 56.0028 38.5075 53.9352C40.3519 51.8724 42.6348 50.7145 45.3561 50.461Z" fill="#2986DE"/>
<path fill-rule="evenodd" clip-rule="evenodd" d="M49.0353 50.4605C47.8087 50.4605 46.5821 50.4605 45.3555 50.4605C46.0855 50.2846 46.9713 50.1824 48.0131 50.154C64.3679 50.0177 80.7227 50.0177 97.0775 50.154C81.0292 50.1881 65.0152 50.2903 49.0353 50.4605Z" fill="#160C2A"/>
<path fill-rule="evenodd" clip-rule="evenodd" d="M25.7305 98.0771C26.3765 98.603 26.8195 99.2841 27.0593 100.121C29.314 107.56 31.6311 114.985 34.0101 122.396C35.4242 126.042 37.2641 129.448 39.5298 132.614C39.6705 132.785 39.6363 132.921 39.4276 133.023C38.1454 132.224 36.8849 131.406 35.6456 130.571C34.0753 128.522 32.7125 126.342 31.5569 124.031C31.0366 122.289 30.4233 120.586 29.717 118.922C28.9816 115.414 28.0956 111.94 27.0593 108.5C26.39 105.052 25.947 101.578 25.7305 98.0771Z" fill="black" fill-opacity="0.25"/>
<path fill-rule="evenodd" clip-rule="evenodd" d="M124.064 97.4639C124.299 101.032 123.925 104.574 122.94 108.091C121.288 113.877 119.448 119.599 117.42 125.257C116.596 126.696 115.608 128.024 114.456 129.242C112.974 130.554 111.407 131.746 109.754 132.819C109.545 132.716 109.511 132.58 109.651 132.41C109.992 132.206 110.265 131.933 110.469 131.592C111.968 129.004 113.467 126.415 114.967 123.827C117.813 115.992 120.403 108.09 122.735 100.121C123.082 99.1768 123.525 98.2913 124.064 97.4639Z" fill="black" fill-opacity="0.25"/>
<path fill-rule="evenodd" clip-rule="evenodd" d="M142.872 126.483C143.179 128.894 143.315 131.347 143.281 133.84C143.178 138.819 142.974 143.792 142.668 148.759C142.499 147.843 142.396 146.889 142.361 145.898C142.193 146.365 142.056 146.842 141.952 147.328C140.849 148.909 139.827 150.544 138.885 152.233C137.236 154.061 135.566 155.866 133.877 157.649C133.405 158.086 132.86 158.392 132.241 158.568C133.553 159.429 134.166 160.656 134.081 162.247C134.041 163.091 133.87 163.908 133.57 164.699C133.417 165.159 133.111 165.432 132.65 165.517C133.617 164.029 133.924 162.394 133.57 160.612C132.778 159.023 131.484 158.274 129.686 158.364C128.956 158.373 128.241 158.475 127.539 158.67C122.407 160.857 117.092 162.424 111.593 163.371C109.316 163.845 107.305 164.833 105.563 166.334C103.979 168.086 103.297 170.13 103.518 172.465C103.947 173.602 104.73 174.351 105.869 174.713C105.821 174.835 105.719 174.903 105.563 174.917C105.222 174.781 104.881 174.645 104.54 174.509C102.775 174.967 101.105 175.615 99.5318 176.45C97.1055 176.642 94.7206 177.051 92.3765 177.676C76.4054 179.022 60.5278 178.681 44.7432 176.654C44.402 176.313 43.9931 176.143 43.5165 176.143C43.4879 175.812 43.6243 175.573 43.9254 175.428C42.1246 175.435 40.3527 175.23 38.6101 174.815C38.7315 174.72 38.8679 174.686 39.019 174.713C40.7211 175.105 42.4247 175.139 44.1299 174.815C46.4056 173.762 47.1894 172.025 46.4809 169.604C45.8044 167.908 44.7481 166.511 43.3121 165.414C39.6057 163.68 35.7214 162.522 31.6593 161.94C28.2087 160.904 24.8013 159.746 21.4376 158.466C20.4835 158.33 19.5296 158.33 18.5755 158.466C17.9374 158.733 17.3924 159.108 16.94 159.59C16.783 159.434 16.6808 159.23 16.6333 158.977C16.5653 159.045 16.497 159.113 16.4289 159.181C15.2274 158.08 14.0689 156.922 12.9535 155.707C11.5225 153.595 10.0914 151.484 8.66037 149.372C8.16707 148.412 7.82648 147.39 7.6382 146.306C7.60426 148.184 7.70648 150.057 7.94485 151.926C7.94362 152.342 7.87555 152.717 7.74041 153.05C6.86237 143.423 6.72621 133.818 7.33154 124.235C7.29822 124.717 7.33216 125.194 7.43376 125.666C7.5184 125.572 7.62062 125.504 7.74041 125.461C7.93504 125.777 8.00311 126.118 7.94485 126.483C8.78242 126.468 9.42966 126.127 9.88698 125.461C9.95506 127.164 10.0233 128.868 10.0914 130.571C10.1595 130.775 10.2278 130.979 10.2959 131.184C10.3907 131.062 10.4249 130.926 10.3981 130.775C10.8867 134.181 12.0111 137.382 13.7712 140.38C15.1031 142.186 16.7728 143.582 18.7799 144.569C23.1681 146.985 27.802 148.756 32.6815 149.883C36.6804 150.208 39.4743 148.539 41.0633 144.876C59.2466 148.86 77.5777 149.644 96.0564 147.226C100.428 146.653 104.755 145.869 109.038 144.876C110.244 148.053 112.561 149.756 115.989 149.985C122.051 148.965 127.673 146.819 132.855 143.548C135.2 141.885 136.938 139.739 138.068 137.11C139.393 133.187 139.904 129.168 139.601 125.053C139.923 124.725 140.059 124.317 140.01 123.827C140.302 123.843 140.575 123.775 140.828 123.622C140.943 124.126 141.182 124.603 141.543 125.053C141.718 124.721 141.922 124.653 142.156 124.848C142.325 124.399 142.223 124.024 141.85 123.724C142.01 123.164 142.112 122.585 142.156 121.987C142.406 123.889 142.61 125.796 142.77 127.709C142.871 127.306 142.905 126.898 142.872 126.483Z" fill="black" fill-opacity="0.3"/>
<path fill-rule="evenodd" clip-rule="evenodd" d="M137.967 119.944C138.919 121.495 139.464 123.198 139.603 125.053C139.906 129.168 139.394 133.188 138.07 137.11C136.939 139.74 135.202 141.886 132.856 143.548C127.674 146.819 122.052 148.965 115.991 149.985C112.562 149.756 110.246 148.053 109.04 144.876C104.757 145.869 100.43 146.653 96.0581 147.226C77.5795 149.644 59.2484 148.86 41.0651 144.876C39.476 148.539 36.6822 150.208 32.6833 149.883C27.8038 148.757 23.1699 146.986 18.7817 144.57C16.7745 143.582 15.1049 142.186 13.773 140.38C12.0128 137.382 10.8884 134.181 10.3998 130.775C9.93985 127.096 10.4168 123.553 11.8309 120.148C12.4333 119.847 13.0467 119.541 13.6708 119.229C15.6624 118.415 17.5023 118.688 19.1905 120.046C22.1814 122.559 25.1118 125.147 27.9813 127.812C30.5025 129.787 33.0241 131.763 35.5453 133.738C38.2132 135.941 40.1212 138.666 41.2695 141.913C61.2379 146.944 81.3406 147.557 101.578 143.752C104.135 143.337 106.622 142.69 109.04 141.811C110.274 138.015 112.489 134.916 115.684 132.512C117.969 130.859 120.218 129.156 122.43 127.403C125.178 124.587 128.109 121.998 131.221 119.637C133.517 118.404 135.766 118.507 137.967 119.944Z" fill="#1C224F"/>
<path fill-rule="evenodd" clip-rule="evenodd" d="M13.0572 122.601C12.4655 124.942 12.2952 127.326 12.5461 129.753C12.8247 131.616 13.1995 133.455 13.6705 135.271C13.6838 135.361 13.6498 135.429 13.5683 135.475C12.2012 131.832 11.7923 128.085 12.3417 124.235C12.4208 123.602 12.6593 123.057 13.0572 122.601Z" fill="#18134F"/>
<path fill-rule="evenodd" clip-rule="evenodd" d="M35.1357 147.124C32.3671 147.082 29.7094 146.503 27.1628 145.387C23.7483 144.055 20.4773 142.454 17.3499 140.585C15.7252 139.096 14.4986 137.325 13.67 135.271C13.199 133.455 12.8243 131.616 12.5456 129.753C12.2948 127.326 12.4651 124.942 13.0567 122.601C13.4922 122.268 13.901 121.894 14.2833 121.477C15.0068 121.169 15.7563 121.101 16.5321 121.272C17.8841 121.743 19.1107 122.425 20.212 123.316C21.6919 124.659 23.0207 126.123 24.1984 127.71C27.3948 130.857 30.9724 133.479 34.9313 135.578C36.4762 137.065 37.4644 138.87 37.8956 140.993C38.9505 144.013 38.0305 146.057 35.1357 147.124Z" fill="#FDDE53"/>
<path fill-rule="evenodd" clip-rule="evenodd" d="M133.467 121.17C135.741 121.092 137.07 122.182 137.453 124.44C137.872 128.442 137.395 132.325 136.022 136.088C134.692 138.924 132.613 141.002 129.787 142.321C125.776 144.462 121.551 146.029 117.112 147.022C115.629 147.309 114.266 147.037 113.023 146.204C112.284 145.475 111.875 144.59 111.797 143.548C112.001 140.891 112.853 138.473 114.352 136.293C117.165 134.495 119.925 132.622 122.632 130.673C125.227 128.146 127.749 125.558 130.196 122.907C131.217 122.159 132.307 121.58 133.467 121.17Z" fill="#FDDE53"/>
<path fill-rule="evenodd" clip-rule="evenodd" d="M17.35 140.585C20.4774 142.454 23.7484 144.055 27.1629 145.387C29.7095 146.503 32.3672 147.082 35.1358 147.125C34.3375 147.358 33.3834 147.392 32.2737 147.227C26.966 145.912 21.9913 143.8 17.35 140.892C17.0969 140.75 17.0969 140.648 17.35 140.585Z" fill="#120F4F"/>
<path fill-rule="evenodd" clip-rule="evenodd" d="M144.305 158.16C144.188 159.311 143.881 160.401 143.385 161.43C143.147 163.878 142.976 166.33 142.874 168.787C142.706 169.36 142.604 169.973 142.567 170.626C142.499 170.286 142.431 169.945 142.363 169.604C142.008 169.758 141.634 169.86 141.238 169.911C140.999 170.27 140.658 170.474 140.216 170.524C140.421 170.592 140.625 170.66 140.829 170.728C140.522 171.158 140.182 171.396 139.807 171.444C139.976 171.625 140.18 171.693 140.421 171.648C140.302 172.534 139.893 173.249 139.194 173.794C139.33 173.862 139.466 173.93 139.603 173.998C139.157 174.089 139.021 174.293 139.194 174.611C138.908 174.905 138.567 175.075 138.172 175.122C138.172 175.327 138.172 175.531 138.172 175.735C137.957 175.705 137.752 175.739 137.559 175.838C137.592 176.066 137.66 176.304 137.763 176.553C137.315 176.831 136.974 177.205 136.741 177.677C136.281 178.095 135.872 178.06 135.514 177.575C135.556 177.785 135.454 177.989 135.207 178.188C135.003 178.12 134.799 178.051 134.594 177.983C134.76 178.452 134.589 178.826 134.083 179.107C132.891 179.927 131.597 180.574 130.199 181.049C129.661 181.333 129.184 181.708 128.768 182.173C128.185 182.228 127.64 182.398 127.132 182.684C127.013 182.641 126.91 182.573 126.826 182.479C126.577 182.79 126.27 183.028 125.906 183.195C125.393 183.214 124.95 183.384 124.577 183.705C124.462 183.599 124.326 183.531 124.168 183.501C123.785 183.655 123.376 183.86 122.941 184.114C122.873 184.046 122.805 183.978 122.737 183.91C122.217 184.238 121.672 184.51 121.101 184.727C120.68 184.558 120.203 184.49 119.67 184.523C119.242 184.695 118.833 184.9 118.444 185.136C118.376 185.068 118.307 185 118.239 184.932C117.508 185.189 116.827 185.53 116.195 185.953C116.03 185.157 115.689 185.021 115.173 185.545C114.945 185.297 114.707 185.297 114.457 185.545C114.308 185.838 114.104 186.076 113.844 186.26C113.163 186.311 112.515 186.481 111.902 186.771C111.389 186.616 110.843 186.548 110.266 186.567C109.517 186.771 108.767 186.975 108.018 187.18C106.746 187.363 105.452 187.363 104.133 187.18C103.793 187.316 103.452 187.452 103.111 187.588C103.043 187.452 102.975 187.316 102.907 187.18C102.348 187.508 101.735 187.712 101.067 187.793C100.552 187.529 100.075 187.597 99.6358 187.997C99.478 187.967 99.3416 187.899 99.2269 187.793C98.5455 187.929 97.864 188.065 97.1826 188.201C95.9141 188.186 94.6194 188.118 93.2983 187.997C91.0996 188.289 88.9189 188.494 86.7564 188.61C85.9889 188.433 85.2053 188.297 84.4054 188.201C83.5484 188.221 82.6965 188.221 81.8499 188.201C81.4944 188.486 81.0856 188.623 80.6233 188.61C80.0681 188.441 79.5229 188.373 78.9879 188.406C78.6669 188.581 78.3261 188.717 77.9657 188.815C77.5041 188.661 77.0952 188.661 76.7391 188.815C76.6761 188.649 76.5739 188.513 76.4324 188.406C75.6686 188.606 74.9531 188.606 74.2858 188.406C73.8516 188.554 73.4086 188.691 72.957 188.815C72.7125 188.744 72.7125 188.642 72.957 188.508C72.3096 188.474 71.6623 188.44 71.0149 188.406C69.5924 188.491 68.1614 188.559 66.7218 188.61C66.5854 188.474 66.4492 188.338 66.3129 188.201C65.4418 188.371 64.624 188.507 63.8597 188.61C63.7233 188.474 63.5871 188.338 63.4508 188.201C61.8656 188.436 60.2643 188.47 58.6466 188.304C58.4853 187.671 58.2467 187.637 57.931 188.201C57.7266 188.065 57.5222 187.929 57.3177 187.793C57.1585 188.044 56.954 188.248 56.7044 188.406C56.2537 188.322 55.7767 188.322 55.2734 188.406C54.0112 188.016 52.6824 187.947 51.2869 188.201C49.585 187.922 47.9495 187.615 46.3805 187.282C46.8088 187.168 46.8429 187.066 46.4827 186.975C45.8994 187.082 45.2861 187.082 44.6428 186.975C44.4361 187.055 44.3339 187.192 44.3361 187.384C43.8645 187.079 43.3534 186.875 42.8028 186.771C42.6749 187.28 42.5046 187.28 42.2918 186.771C41.2303 186.919 40.1401 186.919 39.0208 186.771C38.7971 186.402 38.4564 186.334 37.9986 186.567C37.4509 186.477 36.9059 186.375 36.3631 186.26C36.2752 186.072 36.207 185.902 36.1587 185.749C36.0224 185.817 35.8862 185.885 35.7498 185.953C34.8702 185.672 34.0183 185.331 33.1944 184.932C32.532 185.33 31.9187 185.194 31.3545 184.523C30.8473 184.686 30.2681 184.72 29.6168 184.625C29.1 184.417 29.1 184.179 29.6168 183.91C29.5487 183.842 29.4804 183.774 29.4124 183.705C29.0857 183.907 28.7449 183.941 28.3902 183.808C28.6347 183.674 28.6347 183.572 28.3902 183.501C27.7472 183.845 27.0998 183.981 26.448 183.91C26.1804 183.421 25.976 183.421 25.8347 183.91C25.4267 183.808 25.0859 183.604 24.8126 183.297C24.3649 183.518 24.0243 183.382 23.7904 182.888C23.5759 183.096 23.3374 183.13 23.0749 182.99C23.2112 182.922 23.3474 182.854 23.4837 182.786C22.9377 182.526 22.4605 182.219 22.0527 181.866C22.5331 181.606 22.499 181.333 21.9505 181.049C21.6326 181.385 21.292 181.453 20.9283 181.253C20.898 180.756 21.0342 180.347 21.3372 180.027C21.2008 180.299 21.0647 180.299 20.9283 180.027C20.6995 180.625 20.2907 181.033 19.7017 181.253C19.3086 180.903 18.8658 180.631 18.3729 180.436C18.2531 180.478 18.1508 180.547 18.0662 180.64C17.4521 180.264 16.941 179.787 16.5329 179.21C16.777 178.572 17.0837 178.504 17.4529 179.005C18.0779 178.795 18.0779 178.522 17.4529 178.188C17.3061 178.382 17.1358 178.416 16.9418 178.29C17.1362 178.143 17.1702 177.973 17.044 177.779C16.8171 178.135 16.5105 178.408 16.1241 178.596C16.4011 178.837 16.3669 179.041 16.0219 179.21C14.8995 178.277 13.8773 177.255 12.9553 176.144C12.7493 176.243 12.5107 176.276 12.2398 176.246C11.89 176.478 11.7878 176.784 11.9332 177.166C12.092 176.716 12.3306 176.716 12.6487 177.166C12.5413 177.307 12.405 177.409 12.2398 177.472C12.3328 177.945 12.5373 178.354 12.8531 178.699C12.1492 178.744 12.0812 178.948 12.6487 179.312C12.535 179.39 12.4669 179.492 12.4442 179.618C10.3874 177.487 8.78608 175.034 7.64002 172.261C7.26754 168.729 6.99482 165.187 6.82228 161.634C6.69798 161.296 6.59576 160.956 6.51562 160.612C6.94433 160.639 7.38734 160.639 7.84445 160.612C8.04889 160.885 8.25332 161.158 8.45776 161.43C8.48086 160.924 8.68529 160.516 9.07106 160.204C9.37772 160.851 9.68437 161.498 9.99102 162.145C9.96833 162.497 9.86611 162.531 9.68437 162.247C9.4047 163.51 9.77964 163.783 10.8088 163.065C11.5149 164.477 12.2304 165.907 12.9553 167.356C15.346 170.513 18.3786 172.863 22.0527 174.407C28.7154 176.975 35.5981 178.678 42.7006 179.516C45.3519 179.89 48.0096 180.197 50.6736 180.436C60.7991 181.483 70.9525 181.892 81.1344 181.662C92.2651 181.427 103.305 180.303 114.253 178.29C119.592 177.351 124.703 175.716 129.586 173.385C134.613 170.71 138.156 166.725 140.216 161.43C140.483 161.507 140.756 161.575 141.034 161.634C141.281 161.476 141.281 161.306 141.034 161.123C141.238 160.987 141.443 160.987 141.647 161.123C141.453 161.27 141.419 161.44 141.545 161.634C142.073 161.356 142.482 161.492 142.772 162.043C143.255 161.029 143.63 159.973 143.896 158.875C143.692 158.807 143.487 158.739 143.283 158.671C143.518 158.286 143.859 158.116 144.305 158.16Z" fill="#192143"/>
<path fill-rule="evenodd" clip-rule="evenodd" d="M142.872 168.787C142.928 170.265 142.69 171.696 142.156 173.079C140.21 177.341 137.246 180.713 133.263 183.195C126.359 186.027 119.204 187.934 111.798 188.917C89.6041 191.473 67.3887 191.677 45.1519 189.53C35.5966 188.777 26.3289 186.733 17.3487 183.399C15.5587 182.323 13.9232 181.063 12.4423 179.618C12.465 179.492 12.533 179.39 12.6467 179.312C12.0792 178.948 12.1473 178.744 12.8512 178.699C12.5353 178.354 12.3309 177.945 12.2378 177.473C12.403 177.41 12.5394 177.307 12.6467 177.166C12.3286 176.716 12.09 176.716 11.9312 177.166C11.7858 176.784 11.8881 176.478 12.2378 176.246C12.5087 176.277 12.7473 176.243 12.9534 176.144C13.8754 177.255 14.8975 178.277 16.0199 179.21C16.365 179.041 16.3991 178.837 16.1221 178.597C16.5085 178.408 16.8151 178.135 17.0421 177.779C17.1682 177.973 17.1343 178.143 16.9399 178.29C17.1339 178.416 17.3042 178.382 17.4509 178.188C18.0759 178.523 18.0759 178.795 17.4509 179.005C17.0817 178.504 16.7751 178.572 16.531 179.21C16.939 179.787 17.4501 180.264 18.0642 180.64C18.1489 180.547 18.2511 180.479 18.3709 180.436C18.8638 180.631 19.3066 180.903 19.6997 181.253C20.2887 181.033 20.6976 180.625 20.9263 180.027C21.0627 180.299 21.1988 180.299 21.3352 180.027C21.0322 180.348 20.8961 180.756 20.9263 181.253C21.29 181.453 21.6306 181.385 21.9485 181.049C22.497 181.334 22.5312 181.606 22.0507 181.866C22.4586 182.219 22.9357 182.526 23.4818 182.786C23.3454 182.854 23.2093 182.922 23.0729 182.99C23.3354 183.13 23.574 183.096 23.7884 182.888C24.0223 183.382 24.3629 183.518 24.8106 183.297C25.0839 183.604 25.4247 183.809 25.8328 183.91C25.974 183.421 26.1785 183.421 26.4461 183.91C27.0978 183.981 27.7453 183.845 28.3882 183.501C28.6327 183.572 28.6327 183.674 28.3882 183.808C28.7429 183.941 29.0837 183.907 29.4104 183.706C29.4785 183.774 29.5467 183.842 29.6148 183.91C29.098 184.179 29.098 184.417 29.6148 184.625C30.2662 184.72 30.8453 184.686 31.3525 184.523C31.9168 185.194 32.5301 185.33 33.1924 184.932C34.0163 185.332 34.8682 185.672 35.7479 185.954C35.8842 185.886 36.0204 185.817 36.1567 185.749C36.205 185.902 36.2733 186.072 36.3612 186.26C36.904 186.375 37.449 186.478 37.9967 186.567C38.4544 186.335 38.7952 186.403 39.0188 186.771C40.1381 186.919 41.2284 186.919 42.2898 186.771C42.5026 187.28 42.6729 187.28 42.8009 186.771C43.3514 186.875 43.8625 187.079 44.3342 187.384C44.3319 187.192 44.4341 187.056 44.6408 186.975C45.2842 187.082 45.8975 187.082 46.4807 186.975C46.8409 187.066 46.8068 187.168 46.3785 187.282C47.9475 187.615 49.583 187.922 51.2849 188.202C52.6804 187.948 54.0092 188.016 55.2714 188.406C55.7747 188.322 56.2517 188.322 56.7025 188.406C56.9521 188.248 57.1565 188.044 57.3158 187.793C57.5202 187.929 57.7246 188.065 57.9291 188.202C58.2447 187.637 58.4833 187.671 58.6446 188.304C60.2623 188.47 61.8636 188.436 63.4488 188.202C63.5852 188.338 63.7213 188.474 63.8577 188.61C64.6221 188.507 65.4398 188.371 66.3109 188.202C66.4473 188.338 66.5834 188.474 66.7198 188.61C68.1594 188.559 69.5905 188.491 71.0129 188.406C71.6604 188.44 72.3076 188.474 72.9551 188.508C72.7106 188.642 72.7106 188.744 72.9551 188.815C73.4067 188.691 73.8497 188.555 74.2839 188.406C74.9512 188.606 75.6667 188.606 76.4305 188.406C76.5719 188.513 76.6741 188.65 76.7371 188.815C77.0932 188.661 77.5021 188.661 77.9637 188.815C78.3241 188.718 78.6649 188.581 78.9859 188.406C79.5209 188.373 80.0661 188.441 80.6214 188.61C81.0836 188.623 81.4925 188.486 81.848 188.202C82.6946 188.221 83.5464 188.221 84.4034 188.202C85.2034 188.297 85.987 188.433 86.7544 188.61C88.9169 188.494 91.0977 188.289 93.2964 187.997C94.6174 188.118 95.9121 188.186 97.1806 188.202C97.862 188.065 98.5436 187.929 99.225 187.793C99.3397 187.9 99.476 187.968 99.6338 187.997C100.073 187.597 100.55 187.529 101.065 187.793C101.733 187.712 102.346 187.508 102.905 187.18C102.973 187.316 103.041 187.452 103.109 187.588C103.45 187.452 103.791 187.316 104.131 187.18C105.45 187.363 106.745 187.363 108.016 187.18C108.765 186.975 109.515 186.771 110.264 186.567C110.841 186.548 111.387 186.616 111.9 186.771C112.513 186.481 113.161 186.311 113.842 186.26C114.102 186.076 114.306 185.838 114.455 185.545C114.705 185.297 114.943 185.297 115.171 185.545C115.687 185.021 116.028 185.157 116.193 185.954C116.825 185.53 117.506 185.189 118.237 184.932C118.306 185 118.374 185.068 118.442 185.136C118.831 184.9 119.24 184.696 119.668 184.523C120.201 184.49 120.678 184.558 121.1 184.727C121.67 184.51 122.215 184.238 122.735 183.91C122.803 183.978 122.871 184.046 122.939 184.114C123.374 183.86 123.783 183.656 124.166 183.501C124.324 183.531 124.46 183.599 124.575 183.706C124.948 183.384 125.391 183.214 125.904 183.195C126.268 183.028 126.575 182.79 126.824 182.479C126.908 182.573 127.011 182.641 127.13 182.684C127.638 182.398 128.183 182.228 128.766 182.173C129.182 181.708 129.659 181.333 130.197 181.049C131.595 180.574 132.889 179.927 134.081 179.107C134.588 178.826 134.758 178.452 134.592 177.983C134.797 178.051 135.001 178.12 135.206 178.188C135.452 177.989 135.554 177.785 135.512 177.575C135.87 178.06 136.279 178.095 136.739 177.677C136.972 177.205 137.313 176.831 137.761 176.553C137.658 176.304 137.59 176.066 137.557 175.838C137.75 175.739 137.955 175.705 138.17 175.735C138.17 175.531 138.17 175.327 138.17 175.122C138.565 175.076 138.906 174.905 139.192 174.611C139.019 174.293 139.155 174.089 139.601 173.998C139.465 173.93 139.328 173.862 139.192 173.794C139.891 173.249 140.3 172.534 140.419 171.648C140.178 171.693 139.974 171.625 139.805 171.444C140.18 171.396 140.52 171.158 140.828 170.729C140.623 170.661 140.419 170.592 140.214 170.524C140.656 170.474 140.997 170.27 141.236 169.911C141.632 169.86 142.006 169.758 142.361 169.605C142.429 169.945 142.497 170.286 142.565 170.626C142.602 169.973 142.704 169.36 142.872 168.787Z" fill="#1D2448"/>
<path fill-rule="evenodd" clip-rule="evenodd" d="M142.669 148.76C142.388 151.631 142.013 154.492 141.544 157.343C141.324 158.785 140.881 160.148 140.215 161.43C138.155 166.725 134.612 170.71 129.585 173.385C124.702 175.716 119.591 177.351 114.252 178.29C103.304 180.304 92.2642 181.428 81.1336 181.662C72.7518 181.838 64.528 181.566 55.9881 180.947C55.1704 180.844 55.3748 180.947 54.2504 180.742C53.5349 180.742 53.5349 180.64 52.9216 180.64C52.3083 180.64 52.0016 180.555 50.6727 180.436C48.0087 180.197 45.3511 179.89 42.6998 179.516C35.5973 178.678 28.7146 176.975 22.0518 174.407C18.3777 172.863 15.3451 170.513 12.9545 167.357C12.2295 165.907 11.514 164.477 10.8079 163.065C9.98628 161.558 9.27075 159.991 8.66133 158.365C8.26187 156.607 7.95521 154.836 7.74137 153.051C7.87651 152.717 7.94458 152.343 7.94581 151.927C7.70744 150.057 7.60522 148.184 7.63916 146.307C7.82744 147.39 8.16803 148.412 8.66133 149.373C10.0924 151.484 11.5234 153.596 12.9545 155.708C14.0699 156.923 15.2284 158.081 16.4299 159.182C16.4979 159.114 16.5662 159.046 16.6343 158.978C16.6817 159.23 16.7839 159.435 16.941 159.591C16.7357 159.833 16.5652 160.105 16.4299 160.408C16.2506 161.787 16.3187 163.15 16.6343 164.495C18.8665 167.406 21.6945 169.552 25.1184 170.933C29.7439 172.327 34.3776 173.587 39.0199 174.714C38.8689 174.687 38.7325 174.721 38.6111 174.816C40.3537 175.231 42.1255 175.435 43.9264 175.429C43.6252 175.574 43.4889 175.812 43.5175 176.144C43.994 176.144 44.4029 176.314 44.7441 176.655C60.5288 178.682 76.4064 179.023 92.3775 177.677C94.7215 177.052 97.1065 176.643 99.5327 176.451C101.106 175.615 102.776 174.968 104.541 174.509C104.882 174.646 105.223 174.782 105.564 174.918C105.72 174.904 105.822 174.836 105.87 174.714C106.518 174.977 107.2 175.114 107.915 175.122C113.811 174.074 119.604 172.61 125.292 170.729C128.082 169.439 130.535 167.702 132.651 165.517C133.112 165.432 133.418 165.16 133.571 164.7C133.871 163.909 134.042 163.091 134.082 162.247C134.167 160.656 133.554 159.43 132.242 158.569C132.861 158.393 133.406 158.086 133.878 157.649C135.567 155.867 137.237 154.062 138.886 152.234C139.828 150.544 140.85 148.91 141.953 147.329C142.057 146.843 142.194 146.366 142.362 145.898C142.397 146.89 142.5 147.844 142.669 148.76Z" fill="black" fill-opacity="0.55"/>
<path fill-rule="evenodd" clip-rule="evenodd" d="M96.2609 163.882C99.5216 164.179 100.919 165.95 100.452 169.195C99.2988 171.303 97.8338 173.176 96.0564 174.815C95.3515 175.209 94.6019 175.482 93.8077 175.633C81.7513 176.508 69.6896 176.576 57.6226 175.837C55.8856 175.786 54.3862 175.172 53.1251 173.998C52.0581 172.727 51.0701 171.399 50.1608 170.013C48.9622 167.544 49.5413 165.603 51.8985 164.188C59.1849 164.488 66.4765 164.727 73.773 164.904C79.635 164.792 85.4955 164.621 91.3544 164.393C93.0296 164.309 94.6651 164.139 96.2609 163.882Z" fill="#1B234E"/>
<path fill-rule="evenodd" clip-rule="evenodd" d="M132.653 165.517C130.537 167.702 128.084 169.439 125.293 170.729C119.605 172.61 113.813 174.074 107.916 175.122C107.202 175.114 106.52 174.978 105.872 174.714C104.733 174.352 103.949 173.602 103.521 172.466C103.3 170.13 103.982 168.087 105.565 166.335C107.308 164.834 109.318 163.846 111.596 163.372C117.095 162.425 122.41 160.858 127.542 158.671C128.243 158.476 128.959 158.374 129.689 158.365C131.486 158.275 132.781 159.024 133.573 160.613C133.927 162.395 133.62 164.03 132.653 165.517Z" fill="#1B234E"/>
<path fill-rule="evenodd" clip-rule="evenodd" d="M39.0196 174.713C34.3772 173.587 29.7435 172.326 25.118 170.933C21.6941 169.552 18.8661 167.406 16.6339 164.495C16.3183 163.15 16.2502 161.787 16.4295 160.408C16.5648 160.105 16.7353 159.832 16.9406 159.59C17.393 159.108 17.938 158.733 18.5761 158.466C19.5301 158.33 20.484 158.33 21.4381 158.466C24.8019 159.746 28.2092 160.904 31.6599 161.941C35.722 162.522 39.6063 163.68 43.3127 165.415C44.7486 166.512 45.805 167.908 46.4814 169.604C47.19 172.026 46.4062 173.763 44.1304 174.816C42.4252 175.139 40.7217 175.106 39.0196 174.713Z" fill="#1B234E"/>
</svg>
