<svg width="700" height="661" viewBox="0 0 700 661" fill="none" xmlns="http://www.w3.org/2000/svg">
<rect x="8.71875" y="145.629" width="679.078" height="213.648" rx="11" fill="#F37520"/>
<path fill-rule="evenodd" clip-rule="evenodd" d="M128.581 1.3078C143.292 3.35776 155.351 10.0433 164.758 21.3645C178.233 42.1273 178.088 62.7655 164.322 83.2788C163.849 83.2265 163.558 82.9358 163.45 82.4068C173.735 67.3263 175.914 51.0483 169.988 33.573C162.025 15.2949 148.223 5.55724 128.581 4.35992C128.051 5.11851 127.325 5.55453 126.402 5.66796C118.148 1.90042 110.011 2.19109 101.993 6.53999C101.412 7.12135 101.412 7.7027 101.993 8.28406C103.087 8.90372 104.104 9.63047 105.044 10.4641C104.217 11.0024 103.491 10.8571 102.865 10.0281C101.289 11.8229 99.3998 12.1137 97.1987 10.9002C97.3713 12.7099 97.5169 14.4539 97.6346 16.1323C96.7533 15.4028 95.736 15.1121 94.5835 15.2603C94.8259 16.8704 94.2444 18.0332 92.8401 18.7484C91.4357 18.0332 90.8543 16.8704 91.0966 15.2603C87.302 15.9742 84.2512 18.009 81.9434 21.3645C74.9613 31.8306 71.3291 43.167 71.0468 55.3738C70.7919 28.7003 83.2868 11.1143 108.531 2.61585C115.152 1.43331 121.836 0.997291 128.581 1.3078Z" fill="#272A31"/>
<path fill-rule="evenodd" clip-rule="evenodd" d="M627.209 47.5254C629.652 61.354 627.037 74.1437 619.364 85.8948C618.891 85.8425 618.6 85.5518 618.492 85.0228C625.399 73.3782 628.304 60.8791 627.209 47.5254Z" fill="#16171C"/>
<path fill-rule="evenodd" clip-rule="evenodd" d="M625.469 134.728C643.487 134.583 661.503 134.728 679.516 135.164C687.74 137.869 693.406 143.246 696.515 151.297C697.957 216.951 698.248 282.645 697.387 348.376C696.911 355.14 694.152 360.663 689.105 364.945C688.723 365.002 688.432 364.857 688.233 364.509C692.664 360.37 695.133 355.283 695.643 349.248C696.504 283.226 696.214 217.243 694.771 151.297C692.21 143.793 687.125 138.997 679.516 136.909C661.189 137.046 643.173 136.319 625.469 134.728Z" fill="#191A1C"/>
<path fill-rule="evenodd" clip-rule="evenodd" d="M16.1287 135.601C16.7728 135.487 17.354 135.633 17.8721 136.037C10.0897 138.88 5.00465 144.258 2.61683 152.17C2.03567 219.026 2.03567 285.881 2.61683 352.737C3.55437 355.697 4.57139 358.604 5.66789 361.457C3.17304 358.792 1.57486 355.594 0.873366 351.865C0.292211 285.591 0.292211 219.316 0.873366 153.042C3.04412 144.624 8.12922 138.81 16.1287 135.601Z" fill="#090B0F"/>
<path fill-rule="evenodd" clip-rule="evenodd" d="M164.322 83.7146C160.818 88.0905 156.751 91.869 152.117 95.051C156.317 95.6327 160.384 96.2143 164.322 96.7951C160.243 96.6503 156.175 96.796 152.117 97.2311C154.424 97.6645 156.749 97.8101 159.091 97.6671C159.091 98.5392 159.091 99.4112 159.091 100.283C161.054 101.01 162.943 101.01 164.758 100.283C165.852 100.903 166.868 101.63 167.809 102.463C166.971 104.328 165.954 106.508 164.758 109.004C164.322 107.405 163.304 106.387 161.706 105.951C135.687 105.787 109.971 105.351 84.5583 104.643C83.355 105.303 83.2097 105.883 84.1224 106.387C83.8759 107.075 83.44 107.657 82.8148 108.132C82.2336 116.561 82.2336 124.991 82.8148 133.42C82.9631 125.128 83.3989 116.99 84.1224 109.004C84.1224 117.142 84.1224 125.282 84.1224 133.42C109.544 134.291 135.114 134.581 160.835 134.292C158.405 135.144 155.79 135.435 152.989 135.164C152.989 136.037 152.989 136.909 152.989 137.781C129.755 136.667 106.508 136.231 83.2507 136.473C84.4129 137.345 84.4129 138.217 83.2507 139.089C85.7991 140.58 88.4139 140.725 91.0962 139.525C92.0953 140.087 92.967 140.814 93.7114 141.705C71.6219 141.85 49.538 142.286 27.4599 143.013C77.5802 143.984 127.559 144.856 177.398 145.629C177.398 145.919 177.398 146.211 177.398 146.501C150.084 146.501 122.769 146.501 95.4549 146.501C70.0252 146.212 44.745 146.503 19.6143 147.373C15.6915 148.245 15.2557 149.553 13.5122 151.733C13.1272 152.215 12.6405 152.605 12.2046 153.477C11.7687 153.913 11.5756 154.422 11.3329 155.221C10.6074 220.479 10.7527 285.591 11.7687 350.556C12.3499 350.847 12.931 351.138 13.5122 351.428C14.0249 355.585 16.3496 358.347 20.486 359.713C29.1985 360.149 37.9158 360.293 46.638 360.149C72.7899 360.149 98.9418 360.149 125.094 360.149C151.536 360.149 177.979 360.149 204.421 360.149C229.701 360.149 254.982 360.149 280.262 360.149C307.576 360.149 334.891 360.149 362.205 360.149C387.775 360.149 413.346 360.149 438.917 360.149C466.522 360.149 494.126 360.149 521.731 360.149C547.593 360.149 573.454 360.149 599.315 360.149C624.888 360.294 650.459 360.149 676.028 359.713C681.372 358.003 684.279 354.369 684.745 348.812C685.035 348.812 685.326 348.812 685.617 348.812C686.49 309.137 687.072 269.314 687.36 229.344C687.411 204.771 686.829 180.354 685.617 156.093C683.92 151.49 680.725 148.292 676.028 146.501C641.307 145.63 606.437 145.339 571.42 145.629C558.648 144.466 545.572 143.886 532.192 143.885C466.226 145.073 400.264 144.781 334.309 143.013C358.711 142.141 383.119 141.85 407.535 142.141C410.592 142.582 413.353 142.001 415.816 140.397C416.73 141.284 417.748 141.429 418.867 140.833C418.577 140.542 418.286 140.251 417.995 139.961C431.946 139.525 445.893 139.67 459.838 140.397C467.204 140.523 474.469 139.941 481.632 138.653C485.051 138.688 488.102 139.56 490.785 141.269C492.046 140.881 493.208 140.299 494.272 139.525C495.388 139.623 496.114 140.205 496.451 141.269C521.441 142.431 546.43 142.431 571.42 141.269C547.598 140.542 523.77 140.106 499.938 139.961C507.493 139.67 515.048 139.379 522.603 139.089C523.537 138.346 524.408 137.619 525.218 136.909C525.949 136.61 526.24 136.03 526.09 135.164C526.09 134.874 526.09 134.583 526.09 134.292C526.643 123.945 527.37 113.481 528.269 102.899C528.995 101.01 530.303 99.7016 532.192 98.9752C535.389 98.6848 538.585 98.3935 541.781 98.1031C540.983 97.8607 540.402 97.4247 540.038 96.7951C540.915 96.4131 540.915 95.8324 540.038 95.051C540.419 95.1077 540.711 94.963 540.909 94.615C523.698 78.5922 519.484 59.5528 528.269 37.4969C530.45 33.1312 533.065 29.0617 536.115 25.2885C536.718 24.4716 536.573 23.8903 535.679 23.5444C546.115 12.4431 559.046 6.62954 574.471 6.1038C602.264 7.32056 619.844 21.2731 627.211 47.9613C628.306 61.315 625.4 73.8141 618.493 85.4587C618.602 85.9877 618.892 86.2784 619.365 86.3307C616.934 90.3621 613.738 93.7046 609.776 96.3591C616.336 95.358 621.422 97.5381 625.031 102.899C625.467 113.651 625.613 124.405 625.467 135.164C643.171 136.755 661.187 137.482 679.515 137.345C687.124 139.433 692.209 144.229 694.77 151.733C696.213 217.679 696.503 283.662 695.642 349.684C695.132 355.719 692.662 360.806 688.232 364.945C688.431 365.293 688.722 365.438 689.104 365.381C688.813 366.253 688.232 366.835 687.36 367.125C687.308 366.651 687.018 366.361 686.489 366.253C684.488 367.98 682.164 368.997 679.515 369.305C663.823 369.595 648.132 369.887 632.441 370.177C647.548 370.613 662.658 370.759 677.771 370.613C662.813 371.482 647.703 371.773 632.441 371.485C642.147 420.611 651.736 469.735 661.208 518.858C660.645 522.491 660.5 526.27 660.772 530.195C659.419 524.536 658.547 524.536 658.157 530.195C657.867 529.904 657.576 529.613 657.286 529.323C655.934 530.274 654.917 531.437 654.234 532.811C644.44 480.324 633.979 428.583 622.852 377.589C622.122 377.291 621.831 376.71 621.98 375.845C622.13 374.98 621.839 374.399 621.109 374.101C616.057 372.941 610.681 372.361 604.982 372.357C599.606 372.503 594.231 372.647 588.855 372.793C588.361 373.661 587.78 374.387 587.111 374.973C586.273 376.512 585.982 378.256 586.239 380.205C581.268 379.544 576.329 378.527 571.42 377.153C568.29 376.465 565.239 376.611 562.267 377.589C555.077 414.932 548.829 452.43 543.525 490.081C551.08 490.081 558.634 490.081 566.19 490.081C572.156 454.571 578.403 419.108 584.932 383.694C585.533 384.773 585.969 384.773 586.239 383.694C588.275 392.563 590.164 401.575 591.906 410.727C592.327 409.9 592.471 409.028 592.342 408.11C593.156 409.042 593.447 410.204 593.213 411.599C592.649 412.273 592.359 413.146 592.342 414.215C596.392 435.778 600.605 457.289 604.982 478.745C605.386 478.227 605.532 477.645 605.418 477.001C606.206 477.619 606.496 478.491 606.289 479.617C605.725 480.292 605.435 481.164 605.418 482.233C615.498 536.98 626.105 591.627 637.236 646.175C637.962 648.065 639.269 649.373 641.159 650.099C651.329 650.681 661.499 650.681 671.669 650.099C673.631 649.447 674.793 648.139 675.156 646.175C674.149 638.524 672.697 630.967 670.797 623.502C671.354 622.982 671.645 622.255 671.669 621.322C670.668 614.351 669.215 608.101 667.31 602.573C666.58 602.275 666.289 601.694 666.439 600.829C666.996 600.309 667.286 599.582 667.31 598.649C665.67 591.573 664.653 584.451 664.259 577.285C664.512 578.631 665.093 579.793 666.003 580.773C666.175 577.989 666.901 575.373 668.182 572.924C667.284 572.877 666.267 572.586 665.131 572.052C664.662 569.571 663.79 567.246 662.516 565.076C662.226 566.239 661.934 567.402 661.644 568.564C659.297 557.842 657.117 547.086 655.106 536.299C655.611 534.455 656.337 532.711 657.286 531.067C657.551 532.861 657.551 534.605 657.286 536.299C657.576 536.009 657.867 535.717 658.157 535.427C659.471 538.685 660.197 538.685 660.337 535.427C661.208 535.427 662.08 535.427 662.952 535.427C665.418 547.318 667.888 559.235 670.362 571.18C670.783 570.354 670.927 569.482 670.797 568.564C676.075 593.405 681.16 618.403 686.053 643.559C686.634 647.337 686.634 651.117 686.053 654.895C685.724 656.153 684.998 657.025 683.873 657.511C682.809 656.67 681.647 656.816 680.386 657.948C664.695 658.529 649.004 658.529 633.313 657.948C630.49 655.937 628.891 653.176 628.518 649.663C625.395 630.04 621.617 610.564 617.186 591.237C616.781 591.755 616.636 592.337 616.75 592.981C615.962 592.363 615.672 591.491 615.878 590.365C616.867 588.215 617.012 585.889 616.314 583.389C614.545 574.978 612.947 566.548 611.52 558.1C612.632 559.898 613.359 561.933 613.699 564.204C613.989 563.914 614.28 563.622 614.571 563.332C615.442 565.076 616.314 566.82 617.186 568.564C618.072 567.575 618.653 567.866 618.929 569.436C618.737 567.055 618.881 564.729 619.365 562.46C618.011 560.085 616.849 557.615 615.878 555.048C615.721 549.515 615.286 543.846 614.571 538.043C613.479 536.734 612.608 535.281 611.956 533.683C611.385 534.726 610.95 534.726 610.648 533.683C611.457 532.577 611.602 531.415 611.084 530.195C610.502 531.357 609.922 531.357 609.34 530.195C609.05 531.357 608.759 532.521 608.469 533.683C606.673 530.995 605.365 528.379 604.546 525.835C605.012 524.29 605.739 524 606.725 524.963C606.875 522.062 606.729 519.156 606.289 516.242C605.418 516.242 604.546 516.242 603.674 516.242C603.542 513.738 602.961 511.994 601.931 511.01C601.157 507.871 600.286 504.673 599.315 501.418C432.817 499.675 266.026 499.094 98.9418 499.674C218.599 498.946 338.898 498.51 459.838 498.366C463.325 497.93 466.812 497.494 470.299 497.058C483.002 497.871 495.788 498.163 508.655 497.93C515.573 496.783 522.546 496.201 529.577 496.186C529.577 495.023 529.577 493.86 529.577 492.697C408.406 492.843 287.236 492.697 166.065 492.261C288.398 491.971 410.731 491.68 533.064 491.389C410.294 491.244 287.671 490.808 165.193 490.081C287.817 490.081 410.44 490.081 533.064 490.081C534.448 480.023 536.192 470.141 538.294 460.432C538.218 463.134 538.654 463.425 539.602 461.304C543.671 436.883 547.739 412.466 551.806 388.054C552.504 385.554 552.359 383.228 551.37 381.077C551.137 379.683 551.428 378.521 552.242 377.589C552.112 378.507 552.257 379.379 552.678 380.205C553.574 376.741 554.3 373.253 554.857 369.741C418.286 369.595 281.714 369.741 145.144 370.177C144.003 372.956 144.003 373.974 145.144 373.229C149.024 393.399 152.511 413.747 155.604 434.271C155.04 434.946 154.75 435.818 154.733 436.887C157.54 454.313 160.155 471.754 162.578 489.209C162.635 489.591 162.49 489.883 162.142 490.081C161.737 488.834 161.01 487.817 159.963 487.029C160.792 486.403 160.937 485.677 160.399 484.849C158.859 485.998 157.696 487.451 156.912 489.209C156.04 484.849 155.168 480.489 154.297 476.129C153.892 476.647 153.747 477.229 153.861 477.873C148.441 444.743 142.484 411.605 135.99 378.461C134.77 377.924 133.462 377.634 132.068 377.589C125.288 378.307 118.605 379.469 112.018 381.077C111.972 383.173 112.263 385.207 112.89 387.182C112.306 390.234 112.161 393.431 112.454 396.774C112.088 392.979 111.507 392.689 110.71 395.902C110.109 396.982 109.673 396.982 109.403 395.902C109.756 391.518 110.337 387.158 111.146 382.822C111.136 381.474 110.846 380.312 110.274 379.333C109.543 377.344 108.671 375.309 107.659 373.229C97.5052 372.358 87.3356 372.068 77.1486 372.357C77.1939 374.453 76.9032 376.487 76.2768 378.461C76.2768 378.752 76.2768 379.043 76.2768 379.333C76.4264 380.198 76.1358 380.779 75.4051 381.077C75.4621 380.695 75.3169 380.404 74.9692 380.205C67.4614 415.578 60.3422 451.041 53.6118 486.593C53.2218 484.139 53.0765 481.523 53.176 478.745C51.723 479.617 50.5608 480.779 49.689 482.233C48.8173 479.907 47.9456 479.907 47.0738 482.233C47.6997 473.309 49.0072 464.443 50.9966 455.636C50.9842 454.428 50.6936 453.412 50.1249 452.584C49.918 451.458 50.2086 450.586 50.9966 449.968C50.8824 450.612 51.0277 451.194 51.4325 451.712C53.9564 441.176 56.1357 430.567 57.9705 419.883C57.9461 418.95 57.6554 418.223 57.0987 417.703C60.0054 402.292 62.9113 386.887 65.816 371.485C49.9729 371.773 34.2817 371.482 18.7426 370.613C34.4364 370.759 50.1276 370.613 65.816 370.177C49.8343 369.887 33.8526 369.595 17.8708 369.305C13.1963 367.65 9.12826 365.179 5.66661 361.893C4.57012 359.039 3.55309 356.132 2.61556 353.172C2.0344 286.316 2.0344 219.461 2.61556 152.605C5.00337 144.693 10.0885 139.315 17.8708 136.473C17.3527 136.068 16.7715 135.922 16.1274 136.037C34.864 135.167 53.7515 134.876 72.7899 135.164C72.6447 124.115 72.79 113.069 73.2258 102.027C74.5882 99.2124 76.7675 97.3227 79.7637 96.3591C84.1511 96.21 88.5098 95.7739 92.8397 95.051C79.4693 85.4581 72.2048 72.3776 71.0464 55.8096C71.3288 43.6028 74.9609 32.2664 81.9431 21.8004C84.2509 18.4448 87.3016 16.41 91.0962 15.6962C90.8539 17.3063 91.4353 18.469 92.8397 19.1843C94.2441 18.469 94.8255 17.3063 94.5832 15.6962C95.7356 15.5479 96.7529 15.8386 97.6342 16.5682C97.5165 14.8898 97.371 13.1457 97.1984 11.336C99.3995 12.5495 101.289 12.2588 102.865 10.464C103.491 11.2929 104.217 11.4382 105.044 10.9C104.103 10.0663 103.087 9.33956 101.993 8.7199C101.411 8.13854 101.411 7.55719 101.993 6.97583C110.011 2.62693 118.148 2.33626 126.401 6.1038C127.325 5.99037 128.051 5.55435 128.581 4.79575C148.223 5.99308 162.025 15.7308 169.988 34.0088C175.914 51.4842 173.735 67.7621 163.45 82.8426C163.558 83.3717 163.848 83.6623 164.322 83.7146Z" fill="#363A3F"/>
<path fill-rule="evenodd" clip-rule="evenodd" d="M165.192 316.983C152.407 330.064 139.622 343.144 126.836 356.225C126.546 356.225 126.255 356.225 125.964 356.225C125.071 355.879 124.925 355.298 125.529 354.481C138.405 342.039 150.755 329.249 162.577 316.111C163.703 315.905 164.574 316.195 165.192 316.983Z" fill="#FEF2D3"/>
<ellipse cx="122.912" cy="51.4494" rx="40.0996" ry="39.2414" fill="#F37520"/>
<ellipse cx="576.564" cy="55.8098" rx="40.0996" ry="39.2414" fill="#F37520"/>
<path fill-rule="evenodd" clip-rule="evenodd" d="M513.884 283.847C489.476 308.554 465.067 333.262 440.659 357.969C439.787 358.26 439.206 358.841 438.915 359.713C413.345 359.713 387.774 359.713 362.203 359.713C362.203 359.423 362.203 359.132 362.203 358.841C387.182 358.174 412.172 357.738 437.172 357.533C439.638 355.215 442.253 353.035 445.018 350.993C445.583 349.141 446.31 347.397 447.197 345.761C448.228 346.834 449.245 346.834 450.248 345.761C452.282 343.145 454.607 340.819 457.222 338.785C458 334.893 460.325 332.568 464.196 331.808C466.811 328.611 469.716 325.704 472.913 323.088C473.549 321.483 474.131 319.883 474.656 318.292C475.571 317.863 476.443 318.008 477.272 318.728C484.253 311.714 491.227 304.738 498.193 297.799C499.424 293.878 502.039 291.262 506.039 289.951C507.918 286.901 510.533 284.866 513.884 283.847Z" fill="#FEF2D3"/>
<path fill-rule="evenodd" clip-rule="evenodd" d="M336.925 226.292C338.037 227.065 338.037 227.937 336.925 228.908C297.007 268.114 257.489 307.791 218.37 347.94C217.109 349.072 215.947 349.218 214.883 348.376C217.788 345.179 220.695 341.982 223.6 338.784C261.54 301.121 299.314 263.624 336.925 226.292Z" fill="#FEF2D3"/>
<path fill-rule="evenodd" clip-rule="evenodd" d="M627.209 168.738C627.324 169.383 627.178 169.964 626.773 170.482C601.39 195.437 576.545 220.726 552.24 246.349C539.455 258.848 526.67 271.348 513.884 283.847C510.533 284.866 507.918 286.9 506.039 289.951C502.039 291.261 499.424 293.877 498.193 297.799C491.227 304.738 484.253 311.714 477.272 318.728C476.443 318.007 475.571 317.863 474.656 318.292C474.131 319.883 473.549 321.483 472.913 323.088C469.716 325.704 466.811 328.611 464.196 331.808C460.325 332.568 458 334.893 457.222 338.785C454.607 340.819 452.282 343.145 450.248 345.761C449.245 346.834 448.228 346.834 447.197 345.761C446.31 347.397 445.583 349.141 445.018 350.993C442.253 353.034 439.638 355.214 437.172 357.533C412.172 357.738 387.182 358.174 362.203 358.841C362.203 358.551 362.203 358.26 362.203 357.969C370.363 350.388 378.208 342.539 385.74 334.424C407.126 313.901 428.048 292.682 448.505 270.766C462.162 257.395 475.818 244.023 489.476 230.653C489.822 231.546 490.403 231.692 491.219 231.089C495.426 226.129 499.93 222.205 504.731 219.316C505.603 220.188 506.475 221.06 507.346 221.932C509.077 220.419 508.786 219.257 506.475 218.444C505.893 217.572 505.893 216.7 506.475 215.828C513.139 209.888 519.387 203.492 525.217 196.643C527.175 194.918 529.208 194.046 531.319 194.027C532.091 193.308 532.382 192.436 532.191 191.411C533.062 191.411 533.934 191.411 534.806 191.411C534.615 190.387 534.905 189.514 535.678 188.795C536.929 191.966 538.383 192.111 540.036 189.231C539.165 188.505 538.293 187.777 537.421 187.051C537.711 186.761 538.003 186.469 538.293 186.179C539.486 187.595 540.939 188.031 542.651 187.487C541.904 186.886 541.324 186.16 540.908 185.307C542.149 183.745 543.312 182.146 544.395 180.511C543.6 178.341 544.472 176.887 547.01 176.151C545.883 175.723 544.72 175.578 543.523 175.715C544.212 174.929 545.084 174.347 546.138 173.971C546.484 174.864 547.065 175.01 547.882 174.407C550.98 170.726 554.322 167.383 557.907 164.378C558.533 165.207 559.259 165.352 560.086 164.814C559.257 164.188 559.112 163.462 559.65 162.634C562.213 160.345 564.974 158.455 567.932 156.966C566.995 154.376 568.013 152.778 570.983 152.17C571.273 151.298 571.564 150.426 571.854 149.554C572.145 149.844 572.436 150.135 572.726 150.426C573.016 149.554 573.308 148.682 573.598 147.81C594.34 148.609 615.261 148.609 636.363 147.81C639.123 148.1 641.883 148.391 644.644 148.682C643.967 150.46 642.95 151.04 641.593 150.426C641.172 151.252 641.027 152.124 641.157 153.042C640.032 154.156 638.288 154.738 635.927 154.786C635.82 157.966 634.368 160.437 631.568 162.198C630.303 161.969 629.141 162.114 628.081 162.634C627.553 164.56 626.971 166.45 626.338 168.302C626.536 168.65 626.828 168.795 627.209 168.738Z" fill="#FEF2D3"/>
<path fill-rule="evenodd" clip-rule="evenodd" d="M250.622 230.652C234.931 246.93 218.95 262.917 202.677 278.614C201.913 278.728 201.332 278.438 200.934 277.742C202.987 275.543 204.876 273.218 206.6 270.766C218.559 259.381 230.473 248.045 242.341 236.756C242.631 235.012 242.922 233.268 243.213 231.524C244.127 232.411 245.144 232.557 246.264 231.96C247.297 230.78 248.459 229.763 249.751 228.908C250.446 229.307 250.736 229.888 250.622 230.652Z" fill="#FEF2D3"/>
<path fill-rule="evenodd" clip-rule="evenodd" d="M11.7695 230.652C12.0601 230.652 12.3507 230.652 12.6413 230.652C13.1932 230.984 13.7743 231.274 14.3847 231.524C13.2291 257.685 13.2291 283.846 14.3847 310.007C13.8531 310.784 13.5626 311.656 13.513 312.623C12.9318 312.623 12.3507 312.623 11.7695 312.623C11.7695 285.3 11.7695 257.976 11.7695 230.652Z" fill="#FEF2D3"/>
<path fill-rule="evenodd" clip-rule="evenodd" d="M685.615 188.795C685.615 216.118 685.615 243.443 685.615 270.766C685.325 270.766 685.034 270.766 684.743 270.766C683.059 245.54 682.333 220.251 682.564 194.899C680.361 197.898 677.746 200.514 674.718 202.747C674.542 204.279 674.106 205.732 673.411 207.108C672.444 206.157 671.572 206.157 670.796 207.108C672.767 208.859 672.332 209.149 669.488 207.98C669.052 208.416 668.616 208.852 668.18 209.288C668.91 210.169 669.2 211.187 669.052 212.34C667.024 212.119 665.28 212.701 663.822 214.084C663.126 213.685 662.836 213.104 662.95 212.34C670.559 204.439 678.115 196.591 685.615 188.795Z" fill="#FEF2D3"/>
<path fill-rule="evenodd" clip-rule="evenodd" d="M543.524 175.715C544.721 175.578 545.884 175.724 547.011 176.151C544.472 176.888 543.601 178.341 544.396 180.511C543.313 182.146 542.15 183.745 540.909 185.307C541.325 186.16 541.905 186.886 542.652 187.487C540.94 188.031 539.487 187.595 538.294 186.179C538.003 186.47 537.712 186.761 537.422 187.051C538.294 187.778 539.165 188.505 540.037 189.231C538.383 192.112 536.93 191.966 535.678 188.795C534.906 189.515 534.616 190.387 534.807 191.411C533.935 191.411 533.063 191.411 532.191 191.411C532.382 192.436 532.092 193.308 531.32 194.027C529.209 194.047 527.175 194.919 525.218 196.644C519.387 203.493 513.14 209.888 506.475 215.828C505.894 216.7 505.894 217.572 506.475 218.444C508.786 219.257 509.077 220.42 507.347 221.932C506.475 221.06 505.604 220.188 504.732 219.316C499.93 222.205 495.427 226.13 491.22 231.089C490.403 231.692 489.823 231.547 489.477 230.653C507.493 212.34 525.508 194.027 543.524 175.715Z" fill="#FEF2D3"/>
<path fill-rule="evenodd" clip-rule="evenodd" d="M684.744 270.766C684.454 271.348 684.163 271.929 683.872 272.51C656.031 300.797 627.99 328.993 599.75 357.097C599.329 357.924 599.185 358.796 599.315 359.713C573.453 359.713 547.592 359.713 521.73 359.713C521.73 359.423 521.73 359.132 521.73 358.841C539.434 341.131 556.869 323.109 574.034 304.775C604.038 274.182 633.677 243.37 662.951 212.34C662.837 213.104 663.127 213.686 663.823 214.084C665.281 212.701 667.024 212.119 669.053 212.34C669.201 211.187 668.911 210.17 668.181 209.288C668.617 208.852 669.053 208.416 669.489 207.98C672.332 209.149 672.768 208.859 670.796 207.108C671.573 206.157 672.445 206.157 673.412 207.108C674.107 205.732 674.543 204.279 674.719 202.748C677.747 200.514 680.362 197.898 682.565 194.899C682.334 220.251 683.06 245.54 684.744 270.766Z" fill="#FEF2D3"/>
<path fill-rule="evenodd" clip-rule="evenodd" d="M685.617 155.657C686.83 179.918 687.411 204.335 687.361 228.908C687.072 268.878 686.491 308.701 685.617 348.376C685.617 322.506 685.617 296.636 685.617 270.765C685.617 243.442 685.617 216.118 685.617 188.794C685.617 177.748 685.617 166.703 685.617 155.657Z" fill="#170B05"/>
<path fill-rule="evenodd" clip-rule="evenodd" d="M254.982 146.065C281.424 146.065 307.867 146.065 334.309 146.065C334.309 146.356 334.309 146.647 334.309 146.937C320.943 160.018 307.576 173.098 294.21 186.179C293.565 186.293 292.984 186.147 292.466 185.743C295.704 183.251 298.028 180.198 299.44 176.587C300.312 176.587 301.183 176.587 302.055 176.587C302.055 175.715 302.055 174.842 302.055 173.97C304.308 173.91 306.051 172.893 307.286 170.918C305.84 170.286 305.404 169.268 305.978 167.866C306.708 169.18 307.725 169.616 309.029 169.174C311.138 167.305 312.591 165.125 313.388 162.634C315.482 162.727 317.08 161.855 318.182 160.018C318.656 158.16 319.382 156.416 320.362 154.786C322.485 155.999 323.066 155.563 322.105 153.478C323.26 153.607 324.277 153.462 325.156 153.042C325.877 152.028 326.603 151.011 327.335 149.99C326.982 149.166 326.401 148.584 325.592 148.246C302.927 147.664 280.262 147.664 257.597 148.246C256.397 150.252 254.943 150.688 253.238 149.554C253.238 149.263 253.238 148.972 253.238 148.682C254.464 148.269 255.045 147.397 254.982 146.065Z" fill="#FEF2D3"/>
<path fill-rule="evenodd" clip-rule="evenodd" d="M571.421 146.065C597.573 146.065 623.725 146.065 649.877 146.065C642.612 153.914 635.057 161.472 627.212 168.738C626.83 168.795 626.539 168.65 626.34 168.302C626.974 166.45 627.555 164.56 628.083 162.634C629.143 162.114 630.305 161.969 631.57 162.198C634.37 160.437 635.823 157.966 635.929 154.786C638.29 154.738 640.034 154.156 641.159 153.042C641.029 152.124 641.174 151.252 641.595 150.426C642.952 151.04 643.969 150.46 644.646 148.682C641.885 148.391 639.126 148.1 636.365 147.809C615.264 148.609 594.342 148.609 573.6 147.809C573.31 148.682 573.019 149.554 572.728 150.426C572.438 150.135 572.147 149.844 571.857 149.554C571.566 150.426 571.275 151.298 570.985 152.17C568.015 152.777 566.998 154.376 567.934 156.966C564.976 158.455 562.215 160.345 559.652 162.634C559.115 163.462 559.259 164.188 560.088 164.814C559.261 165.352 558.535 165.207 557.909 164.378C554.324 167.383 550.982 170.726 547.884 174.406C547.067 175.01 546.487 174.864 546.141 173.97C554.293 165.379 562.574 156.949 570.985 148.682C571.389 148.164 571.535 147.582 571.421 146.937C571.421 146.647 571.421 146.356 571.421 146.065Z" fill="#FEF2D3"/>
<path fill-rule="evenodd" clip-rule="evenodd" d="M294.211 186.179C279.927 201.339 265.398 216.164 250.624 230.653C250.739 229.889 250.448 229.307 249.753 228.909C248.462 229.763 247.299 230.781 246.266 231.961C245.146 232.557 244.129 232.412 243.215 231.525C242.924 233.269 242.633 235.013 242.343 236.757C230.475 248.045 218.561 259.382 206.602 270.766C204.879 273.218 202.99 275.543 200.936 277.742C201.334 278.438 201.916 278.729 202.679 278.615C194.281 288.179 185.564 297.481 176.527 306.52C172.75 310.008 168.972 313.496 165.195 316.984C164.577 316.196 163.705 315.905 162.58 316.112C150.757 329.25 138.407 342.039 125.531 354.481C124.928 355.298 125.073 355.879 125.967 356.225C125.435 357.002 125.145 357.874 125.095 358.841C99.3747 359.13 73.8041 358.84 48.3828 357.969C65.3107 341.038 81.8736 323.888 98.0715 306.52C149.826 254.04 201.549 201.718 253.24 149.554C254.945 150.688 256.398 150.252 257.598 148.246C280.263 147.664 302.928 147.664 325.593 148.246C326.402 148.584 326.984 149.166 327.337 149.99C326.604 151.011 325.878 152.029 325.157 153.042C324.279 153.462 323.261 153.607 322.106 153.478C323.067 155.563 322.486 155.999 320.363 154.786C319.383 156.416 318.657 158.16 318.184 160.018C317.082 161.856 315.484 162.728 313.389 162.634C312.592 165.125 311.139 167.305 309.03 169.175C307.726 169.617 306.709 169.181 305.979 167.867C305.406 169.269 305.842 170.286 307.287 170.919C306.053 172.894 304.309 173.911 302.057 173.971C302.057 174.843 302.057 175.715 302.057 176.587C301.185 176.587 300.313 176.587 299.441 176.587C298.029 180.199 295.705 183.251 292.467 185.743C292.985 186.148 293.567 186.293 294.211 186.179Z" fill="#FEF2D3"/>
<path fill-rule="evenodd" clip-rule="evenodd" d="M95.4551 146.065C122.769 146.065 150.084 146.065 177.398 146.065C177.398 146.356 177.398 146.647 177.398 146.937C174.202 149.987 170.861 152.894 167.373 155.658C130.051 193.654 92.7117 231.733 55.3554 269.894C41.6983 283.265 28.0412 296.637 14.3841 310.007C13.2284 283.846 13.2284 257.685 14.3841 231.525C13.7736 231.274 13.1925 230.984 12.6406 230.652C13.2218 230.071 13.8029 229.49 14.3841 228.908C41.0472 202.235 67.4898 175.202 93.7116 147.809C94.5833 147.519 95.1648 146.937 95.4551 146.065Z" fill="#FEF2D3"/>
<path fill-rule="evenodd" clip-rule="evenodd" d="M415.38 146.938C436.837 147.638 458.63 148.074 480.76 148.246C482.213 148.536 483.665 148.827 485.119 149.118C484.065 152.278 482.321 155.04 479.888 157.402C479.996 157.931 480.287 158.222 480.76 158.274C453.736 185.597 426.713 212.922 399.689 240.245C372.645 266.426 346.203 293.168 320.361 320.472C307.621 331.762 295.417 343.68 283.749 356.225C282.587 357.097 281.424 357.969 280.262 358.841C255.123 359.13 230.133 358.839 205.293 357.969C208.175 354.505 211.372 351.307 214.882 348.377C215.946 349.218 217.108 349.073 218.369 347.941C257.488 307.792 297.006 268.114 336.924 228.908C338.037 227.937 338.037 227.065 336.924 226.292C358.954 203.818 381.183 181.437 403.612 159.146C406.221 155.231 409.272 151.743 412.765 148.682C413.346 148.682 413.637 148.391 413.637 147.81C414.218 147.519 414.799 147.228 415.38 146.938Z" fill="#FEF2D3"/>
<path fill-rule="evenodd" clip-rule="evenodd" d="M415.379 146.065C441.241 146.065 467.101 146.065 492.963 146.065C492.673 146.647 492.382 147.228 492.091 147.809C488.515 151.492 484.738 154.98 480.759 158.274C480.285 158.222 479.995 157.931 479.887 157.402C482.32 155.04 484.063 152.278 485.117 149.118C483.664 148.827 482.212 148.536 480.759 148.246C458.629 148.074 436.836 147.638 415.379 146.937C415.379 146.647 415.379 146.356 415.379 146.065Z" fill="#FEF2D3"/>
<path fill-rule="evenodd" clip-rule="evenodd" d="M331.695 144.321C411.542 145.191 491.451 145.482 571.421 145.193C606.438 144.904 641.308 145.194 676.029 146.065C667.311 146.065 658.594 146.065 649.877 146.065C623.725 146.065 597.573 146.065 571.421 146.065C545.269 146.065 519.117 146.065 492.965 146.065C467.103 146.065 441.243 146.065 415.381 146.065C388.357 146.065 361.334 146.065 334.31 146.065C307.868 146.065 281.425 146.065 254.982 146.065C229.121 146.065 203.26 146.065 177.398 146.065C177.398 145.775 177.398 145.484 177.398 145.193C228.831 144.922 280.263 144.632 331.695 144.321Z" fill="#160905"/>
<path fill-rule="evenodd" clip-rule="evenodd" d="M407.536 141.705C383.12 141.415 358.712 141.705 334.311 142.577C400.266 144.346 466.227 144.637 532.193 143.449C545.574 143.45 558.65 144.031 571.421 145.193C491.451 145.482 411.542 145.191 331.695 144.321C332.351 142.926 333.223 141.618 334.311 140.397C346.515 140.251 358.719 140.107 370.923 139.961C383.433 139.962 395.637 140.543 407.536 141.705Z" fill="#323846"/>
<path fill-rule="evenodd" clip-rule="evenodd" d="M536.549 109.44C536.264 117.738 536.554 125.876 537.421 133.857C563.133 134.728 588.994 135.018 615.005 134.729C589 135.744 562.848 135.89 536.549 135.165C535.395 126.006 535.395 117.432 536.549 109.44Z" fill="#040508"/>
<path fill-rule="evenodd" clip-rule="evenodd" d="M172.169 134.729C290.143 134.729 408.117 134.729 526.091 134.729C526.241 135.594 525.95 136.174 525.22 136.473C407.244 136.763 289.27 136.473 171.297 135.601C171.405 135.071 171.695 134.781 172.169 134.729Z" fill="#1B1C1E"/>
<path fill-rule="evenodd" clip-rule="evenodd" d="M159.092 97.2314C164.456 96.4326 168.088 98.4671 169.989 103.336C170.715 144.026 171.151 144.026 171.297 103.336C172.164 113.645 172.454 124.109 172.168 134.729C171.695 134.781 171.405 135.071 171.297 135.601C289.27 136.473 407.244 136.763 525.219 136.473C524.409 137.184 523.538 137.91 522.604 138.653C515.049 138.943 507.494 139.235 499.939 139.525C523.771 139.671 547.599 140.107 571.421 140.833C546.431 141.995 521.442 141.995 496.452 140.833C496.115 139.769 495.389 139.187 494.273 139.089C493.209 139.863 492.047 140.445 490.786 140.833C488.103 139.125 485.052 138.253 481.633 138.217C474.47 139.506 467.205 140.087 459.84 139.961C445.894 139.235 431.947 139.089 417.996 139.525C418.287 139.815 418.578 140.107 418.868 140.397C417.749 140.993 416.732 140.848 415.817 139.961C413.354 141.565 410.593 142.146 407.536 141.705C395.637 140.543 383.432 139.962 370.923 139.961C358.719 140.107 346.514 140.251 334.31 140.397C333.222 141.618 332.351 142.926 331.695 144.321C280.263 144.632 228.831 144.922 177.399 145.193C127.56 144.421 77.5813 143.548 27.4609 142.577C49.5391 141.851 71.6229 141.415 93.7125 141.269C92.968 140.378 92.0963 139.651 91.0973 139.089C88.415 140.29 85.8001 140.144 83.2517 138.653C84.414 137.781 84.414 136.909 83.2517 136.037C106.51 135.795 129.756 136.231 152.99 137.345C152.99 136.473 152.99 135.601 152.99 134.729C155.791 134.999 158.406 134.709 160.836 133.857C160.836 133.566 160.836 133.275 160.836 132.985C160.836 125.136 160.836 117.288 160.836 109.44C161.559 117.426 161.995 125.565 162.143 133.857C162.725 125.136 162.725 116.416 162.143 107.696C161.708 107.26 161.272 106.824 160.836 106.388C135.267 105.952 109.696 105.806 84.1235 105.952C83.2108 105.448 83.3561 104.867 84.5593 104.208C109.972 104.916 135.688 105.352 161.708 105.516C163.305 105.952 164.323 106.969 164.759 108.568C165.955 106.072 166.972 103.892 167.81 102.028C166.869 101.194 165.853 100.468 164.759 99.8475C162.944 100.574 161.055 100.574 159.092 99.8475C159.092 98.9755 159.092 98.1034 159.092 97.2314Z" fill="#393F45"/>
<path fill-rule="evenodd" clip-rule="evenodd" d="M536.551 109.44C536.842 109.44 537.133 109.44 537.423 109.44C537.423 110.022 537.713 110.312 538.295 110.312C538.295 117.87 538.295 125.427 538.295 132.985C563.575 132.985 588.855 132.985 614.135 132.985C614.4 125.064 614.11 117.215 613.264 109.44C613.554 109.44 613.845 109.44 614.135 109.44C614.426 109.44 614.717 109.44 615.007 109.44C615.007 117.579 615.007 125.719 615.007 133.857C589.145 133.857 563.285 133.857 537.423 133.857C536.556 125.876 536.266 117.738 536.551 109.44Z" fill="#CFCFCD"/>
<path fill-rule="evenodd" clip-rule="evenodd" d="M159.09 132.113C159.38 132.113 159.671 132.113 159.962 132.113C159.962 132.694 160.252 132.985 160.833 132.985C160.833 133.275 160.833 133.566 160.833 133.857C135.113 134.145 109.543 133.855 84.1211 132.985C84.4116 132.985 84.7023 132.985 84.9928 132.985C109.653 132.128 134.353 131.836 159.09 132.113Z" fill="#A0A19B"/>
<path fill-rule="evenodd" clip-rule="evenodd" d="M164.321 96.3598C168.067 97.2004 170.392 99.5253 171.295 103.336C171.15 144.027 170.714 144.027 169.988 103.336C168.086 98.4675 164.455 96.433 159.091 97.2318C156.749 97.3748 154.424 97.2292 152.117 96.7958C156.175 96.3607 160.243 96.215 164.321 96.3598Z" fill="#18191D"/>
<path fill-rule="evenodd" clip-rule="evenodd" d="M540.037 96.3598C540.402 96.9894 540.982 97.4254 541.781 97.6678C538.584 97.9582 535.389 98.2495 532.192 98.5399C530.303 99.2663 528.995 100.574 528.269 102.464C527.369 113.045 526.642 123.51 526.09 133.857C525.944 123.68 526.09 113.506 526.526 103.336C528.994 97.2318 533.499 94.9061 540.037 96.3598Z" fill="#191C20"/>
<path fill-rule="evenodd" clip-rule="evenodd" d="M615.006 134.729C588.995 135.018 563.134 134.728 537.422 133.857C563.284 133.857 589.144 133.857 615.006 133.857C615.006 125.719 615.006 117.579 615.006 109.44C614.949 109.058 615.094 108.767 615.442 108.568C615.732 109.15 616.023 109.731 616.314 110.312C616.895 118.161 616.895 126.009 616.314 133.857C615.98 134.342 615.544 134.633 615.006 134.729Z" fill="#29292D"/>
<path fill-rule="evenodd" clip-rule="evenodd" d="M613.262 109.44C614.108 117.215 614.399 125.063 614.134 132.985C588.853 132.985 563.573 132.985 538.293 132.985C538.293 125.427 538.293 117.87 538.293 110.312C563.133 109.442 588.123 109.151 613.262 109.44Z" fill="#777976"/>
<path fill-rule="evenodd" clip-rule="evenodd" d="M614.134 109.44C613.844 109.44 613.553 109.44 613.262 109.44C588.123 109.151 563.134 109.441 538.294 110.312C537.712 110.312 537.422 110.021 537.422 109.44C537.519 108.902 537.809 108.466 538.294 108.132C563.284 107.55 588.273 107.55 613.262 108.132C613.747 108.466 614.037 108.902 614.134 109.44Z" fill="#D9D9D2"/>
<path fill-rule="evenodd" clip-rule="evenodd" d="M84.1224 105.952C109.695 105.806 135.266 105.952 160.835 106.388C161.271 106.824 161.706 107.26 162.142 107.696C162.724 116.416 162.724 125.137 162.142 133.857C161.994 125.565 161.558 117.426 160.835 109.44C148.353 108.278 135.568 107.697 122.479 107.696C109.545 107.696 96.759 107.987 84.1224 108.568C83.3989 116.554 82.9631 124.693 82.8148 132.985C82.2336 124.555 82.2336 116.126 82.8148 107.696C83.44 107.222 83.8759 106.64 84.1224 105.952Z" fill="#1C1D1B"/>
<path fill-rule="evenodd" clip-rule="evenodd" d="M160.833 109.44C160.833 117.289 160.833 125.137 160.833 132.985C160.252 132.985 159.962 132.695 159.962 132.113C159.962 124.555 159.962 116.998 159.962 109.44C134.972 109.44 109.983 109.44 84.9928 109.44C84.9928 116.998 84.9928 124.555 84.9928 132.113C84.9928 132.404 84.9928 132.695 84.9928 132.985C84.7023 132.985 84.4116 132.985 84.1211 132.985C84.1211 124.847 84.1211 116.707 84.1211 108.568C96.7577 107.987 109.543 107.696 122.477 107.696C135.567 107.697 148.352 108.278 160.833 109.44Z" fill="#E6E6E1"/>
<path fill-rule="evenodd" clip-rule="evenodd" d="M159.089 132.112C134.352 131.836 109.653 132.127 84.9922 132.984C84.9922 132.694 84.9922 132.403 84.9922 132.112C85.8576 125.005 86.1482 117.739 85.8639 110.312C110.272 110.312 134.681 110.312 159.089 110.312C159.089 117.578 159.089 124.846 159.089 132.112Z" fill="#7C7E7B"/>
<path fill-rule="evenodd" clip-rule="evenodd" d="M159.961 132.113C159.671 132.113 159.38 132.113 159.089 132.113C159.089 124.847 159.089 117.579 159.089 110.312C134.681 110.312 110.272 110.312 85.8639 110.312C86.1482 117.74 85.8576 125.006 84.9922 132.113C84.9922 124.555 84.9922 116.998 84.9922 109.44C109.982 109.44 134.971 109.44 159.961 109.44C159.961 116.998 159.961 124.555 159.961 132.113Z" fill="#61615D"/>
<path fill-rule="evenodd" clip-rule="evenodd" d="M160.833 38.8055C167.302 62.6343 159.165 79.3483 136.425 88.9473C127.917 91.621 119.491 91.7666 111.144 89.3833C110.227 87.8521 108.774 87.2704 106.786 87.6393C106.934 86.4864 106.644 85.4691 105.914 84.5872C134.779 80.5666 150.761 64.1433 153.859 35.3174C155.021 35.3174 156.184 35.3174 157.346 35.3174C157.27 38.0192 157.706 38.3098 158.654 36.1894C158.944 37.3521 159.235 38.5149 159.526 39.6775C159.859 39.1927 160.295 38.902 160.833 38.8055Z" fill="#313131" fill-opacity="0.25"/>
<path fill-rule="evenodd" clip-rule="evenodd" d="M614.485 43.1659C620.955 66.9946 612.818 83.7086 590.077 93.3077C581.57 95.9813 573.144 96.127 564.797 93.7437C563.88 92.2124 562.427 91.6308 560.438 91.9996C560.586 90.8467 560.296 89.8294 559.566 88.9475C588.431 84.9269 604.413 68.5037 607.512 39.6777C608.674 39.6777 609.837 39.6777 610.999 39.6777C610.923 42.3796 611.359 42.6702 612.306 40.5498C612.596 41.7124 612.888 42.8752 613.178 44.0379C613.512 43.553 613.948 43.2624 614.485 43.1659Z" fill="#313131" fill-opacity="0.25"/>
<path fill-rule="evenodd" clip-rule="evenodd" d="M535.678 23.1084C536.572 23.4542 536.717 24.0355 536.114 24.8525C533.064 28.6257 530.448 32.6952 528.268 37.0609C519.483 59.1168 523.697 78.1562 540.908 94.179C540.71 94.5269 540.418 94.6717 540.037 94.615C536.261 91.5646 532.92 88.0765 530.012 84.1506C518.525 62.4365 520.414 42.0891 535.678 23.1084Z" fill="#1B1C21"/>
<path fill-rule="evenodd" clip-rule="evenodd" d="M123.35 19.6209C114.025 26.8954 104.726 34.1623 95.4543 41.4217C93.0788 43.6997 90.7539 43.5543 88.4805 40.9857C93.8991 28.88 102.907 20.741 115.504 16.5688C118.911 15.811 121.526 16.8284 123.35 19.6209Z" fill="#E8E8E8" fill-opacity="0.5"/>
<path fill-rule="evenodd" clip-rule="evenodd" d="M577.002 23.9813C567.677 31.2557 558.378 38.5226 549.107 45.782C546.731 48.06 544.406 47.9147 542.133 45.346C547.551 33.2404 556.559 25.1014 569.156 20.9291C572.563 20.1713 575.178 21.1887 577.002 23.9813Z" fill="#E8E8E8" fill-opacity="0.5"/>
<path fill-rule="evenodd" clip-rule="evenodd" d="M130.324 13.5172C133.516 13.712 136.422 14.584 139.041 16.1333C134.672 15.7671 130.313 15.6217 125.965 15.6972C126.547 16.2786 127.127 16.8599 127.709 17.4413C125.962 17.733 124.509 18.4597 123.35 19.6214C121.526 16.8289 118.911 15.8115 115.504 16.5693C102.907 20.7415 93.8994 28.8805 88.4807 40.9862C90.7542 43.5548 93.0791 43.7002 95.4545 41.4222C95.5295 42.2906 95.2383 43.0173 94.5828 43.6023C91.8996 44.3991 89.8659 45.9979 88.4807 48.3984C87.0564 47.9903 86.0394 47.1183 85.4296 45.7823C85.1391 46.073 84.8484 46.3637 84.5579 46.6544C84.0145 52.7783 84.1597 58.8825 84.9938 64.967C78.5709 44.7416 84.3824 29.0451 102.428 17.8773C106.554 16.8358 110.622 15.5277 114.633 13.9532C119.855 13.5176 125.086 13.3722 130.324 13.5172Z" fill="#E1E1E1" fill-opacity="0.3"/>
<path fill-rule="evenodd" clip-rule="evenodd" d="M583.972 17.8765C587.164 18.0713 590.07 18.9434 592.69 20.4926C588.32 20.1265 583.962 19.9811 579.614 20.0566C580.195 20.638 580.776 21.2193 581.357 21.8007C579.611 22.0924 578.158 22.8191 576.998 23.9808C575.175 21.1882 572.56 20.1709 569.153 20.9286C556.555 25.1009 547.548 33.2399 542.129 45.3455C544.403 47.9142 546.727 48.0596 549.103 45.7815C549.178 46.65 548.887 47.3767 548.231 47.9616C545.548 48.7585 543.514 50.3573 542.129 52.7578C540.705 52.3497 539.688 51.4777 539.078 50.1417C538.788 50.4324 538.497 50.7231 538.206 51.0137C537.663 57.1377 537.808 63.2419 538.642 69.3264C532.219 49.101 538.031 33.4045 556.077 22.2367C560.203 21.1951 564.27 19.8871 568.281 18.3126C573.504 17.877 578.734 17.7316 583.972 17.8765Z" fill="#E1E1E1" fill-opacity="0.3"/>
<path fill-rule="evenodd" clip-rule="evenodd" d="M130.325 13.5165C125.087 13.3715 119.856 13.5169 114.634 13.9525C110.623 15.527 106.556 16.8351 102.43 17.8766C105.737 15.3627 109.514 13.764 113.762 13.0805C119.441 12.3654 124.961 12.5108 130.325 13.5165Z" fill="#E8E8E8" fill-opacity="0.15"/>
<path fill-rule="evenodd" clip-rule="evenodd" d="M48.3802 357.969C73.8015 358.839 99.3721 359.129 125.093 358.841C125.093 359.131 125.093 359.422 125.093 359.713C98.9406 359.713 72.7886 359.713 46.6367 359.713C46.9273 358.841 47.5084 358.259 48.3802 357.969Z" fill="#BAAD9D"/>
<path fill-rule="evenodd" clip-rule="evenodd" d="M204.422 357.969C204.712 357.969 205.003 357.969 205.294 357.969C230.134 358.839 255.123 359.129 280.262 358.841C280.262 359.131 280.262 359.422 280.262 359.713C254.982 359.713 229.702 359.713 204.422 359.713C204.422 359.131 204.422 358.55 204.422 357.969Z" fill="#BEB2A1"/>
<path fill-rule="evenodd" clip-rule="evenodd" d="M5.66797 361.457C9.12961 364.744 13.1976 367.214 17.8722 368.869C33.8539 369.16 49.8357 369.451 65.8174 369.741C50.129 370.177 34.4378 370.323 18.7439 370.177C15.1664 369.842 11.9701 368.534 9.15489 366.253C7.44276 364.988 6.28046 363.389 5.66797 361.457Z" fill="#101116"/>
<path fill-rule="evenodd" clip-rule="evenodd" d="M552.243 377.154C552.394 375.095 552.685 373.061 553.114 371.05C416.831 370.47 280.84 371.051 145.144 372.794C144.004 373.538 144.004 372.521 145.144 369.742C281.715 369.306 418.286 369.16 554.858 369.306C554.301 372.817 553.575 376.305 552.678 379.77C552.257 378.943 552.113 378.071 552.243 377.154Z" fill="#26272B"/>
<path fill-rule="evenodd" clip-rule="evenodd" d="M687.36 366.689C684.573 368.879 681.377 370.042 677.771 370.178C662.658 370.323 647.549 370.178 632.441 369.742C648.133 369.451 663.824 369.16 679.515 368.869C682.164 368.562 684.488 367.544 686.489 365.817C687.018 365.926 687.308 366.216 687.36 366.689Z" fill="#0F1015"/>
<path fill-rule="evenodd" clip-rule="evenodd" d="M110.275 378.898C110.275 379.48 110.275 380.061 110.275 380.642C98.9554 379.613 87.6229 378.741 76.2773 378.026C76.9038 376.052 77.1944 374.017 77.1491 371.922C87.3361 371.632 97.5057 371.923 107.66 372.794C108.672 374.874 109.543 376.909 110.275 378.898Z" fill="#515659"/>
<path fill-rule="evenodd" clip-rule="evenodd" d="M621.108 373.665C621.838 373.963 622.129 374.544 621.98 375.409C611.399 377.748 600.648 379.201 589.726 379.769C588.414 380.763 588.414 378.583 589.726 373.229C600.253 372.522 610.713 372.667 621.108 373.665Z" fill="#4F5456"/>
<path fill-rule="evenodd" clip-rule="evenodd" d="M586.238 379.77C586.238 380.932 586.238 382.096 586.238 383.258C585.968 384.338 585.532 384.338 584.931 383.258C578.402 418.672 572.155 454.135 566.188 489.646C558.633 489.646 551.079 489.646 543.523 489.646C548.828 451.994 555.076 414.497 562.266 377.154C565.237 376.176 568.288 376.03 571.419 376.718C576.328 378.091 581.267 379.109 586.238 379.77Z" fill="#4D5155"/>
<path fill-rule="evenodd" clip-rule="evenodd" d="M153.859 477.437C154.441 481.507 155.021 485.576 155.603 489.645C147.092 490.19 138.811 489.608 130.759 487.901C124.894 454.156 118.938 420.438 112.888 386.746C112.261 384.771 111.971 382.737 112.016 380.641C118.603 379.033 125.287 377.871 132.066 377.153C133.461 377.198 134.768 377.488 135.989 378.025C142.482 411.17 148.44 444.307 153.859 477.437Z" fill="#4D5156"/>
<path fill-rule="evenodd" clip-rule="evenodd" d="M76.2752 378.897C76.2752 378.607 76.2752 378.316 76.2752 378.025C87.6208 378.74 98.9533 379.612 110.273 380.641C107.956 392.512 105.922 404.43 104.171 416.395C89.7287 490.086 75.4905 563.918 61.4558 637.891C61.0524 640.359 60.4712 642.684 59.7124 644.867C59.7694 644.485 59.6241 644.194 59.2765 643.995C58.871 645.243 58.1445 646.26 57.0972 647.047C47.2176 647.629 37.3379 647.629 27.4583 647.047C26.9839 646.422 26.4027 645.986 25.7148 645.739C42.5772 557.334 59.7212 468.969 77.147 380.641C77.1097 379.843 76.8191 379.261 76.2752 378.897Z" fill="#6C6E6D"/>
<path fill-rule="evenodd" clip-rule="evenodd" d="M621.107 373.666C610.713 372.667 600.252 372.523 589.725 373.23C588.414 378.583 588.414 380.763 589.725 379.77C600.648 379.202 611.399 377.749 621.979 375.41C621.829 376.275 622.12 376.856 622.851 377.154C627.747 403.969 632.978 430.712 638.542 457.381C637.985 457.902 637.695 458.628 637.67 459.561C638.96 467.698 640.704 475.11 642.901 481.798C644.379 486.856 645.541 492.088 646.388 497.494C645.403 499.35 645.258 501.385 645.952 503.599C648.033 513.817 650.213 522.828 652.49 530.632C653.304 531.563 653.595 532.725 653.361 534.12C654.898 540.438 656.061 546.833 656.848 553.304C655.531 550.817 654.515 547.621 653.797 543.712C652.587 547.001 651.715 547.001 651.182 543.712C650.385 546.926 649.804 546.635 649.439 542.84C648.123 545.307 647.979 547.778 649.003 550.252C648.176 550.674 647.305 550.818 646.388 550.688C646.388 553.014 646.388 555.339 646.388 557.665C644.644 557.665 642.901 557.665 641.157 557.665C641.418 559.499 641.128 561.243 640.286 562.897C636.871 564.855 634.837 567.762 634.183 571.617C633.021 571.617 631.858 571.617 630.696 571.617C630.696 566.967 630.696 562.315 630.696 557.665C629.16 557.54 627.707 557.831 626.338 558.537C625.393 557.521 624.667 556.358 624.158 555.049C623.469 556.134 623.033 557.297 622.851 558.537C622.561 558.537 622.269 558.537 621.979 558.537C613.298 509.052 604.145 459.637 594.52 410.291C593.032 401.442 591.143 393.303 588.853 385.874C587.499 382.328 586.918 378.549 587.11 374.538C587.779 373.952 588.36 373.226 588.853 372.358C594.229 372.212 599.604 372.068 604.98 371.922C610.68 371.925 616.056 372.506 621.107 373.666Z" fill="#686966"/>
<path fill-rule="evenodd" clip-rule="evenodd" d="M587.111 374.537C586.919 378.548 587.499 382.327 588.854 385.874C590.016 393.139 591.178 400.406 592.341 407.674C592.471 408.592 592.326 409.464 591.905 410.29C590.163 401.138 588.274 392.127 586.239 383.257C586.239 382.095 586.239 380.932 586.239 379.769C585.982 377.82 586.273 376.076 587.111 374.537Z" fill="#101112"/>
<path fill-rule="evenodd" clip-rule="evenodd" d="M110.274 378.897C110.846 379.876 111.136 381.038 111.146 382.386C110.337 386.722 109.755 391.082 109.402 395.466C107.698 402.944 105.955 409.92 104.172 416.395C105.923 404.43 107.957 392.512 110.274 380.642C110.274 380.06 110.274 379.479 110.274 378.897Z" fill="#191C1E"/>
<path fill-rule="evenodd" clip-rule="evenodd" d="M112.89 386.746C118.94 420.439 124.897 454.157 130.761 487.902C138.813 489.608 147.094 490.19 155.605 489.646C155.024 485.576 154.443 481.507 153.862 477.437C153.747 476.793 153.893 476.211 154.298 475.693C155.169 480.053 156.041 484.414 156.913 488.774C157.696 487.016 158.859 485.562 160.4 484.414C160.938 485.241 160.793 485.968 159.964 486.594C161.011 487.381 161.738 488.398 162.143 489.646C162.491 489.447 162.636 489.156 162.579 488.774C163.36 489.651 163.941 489.651 164.322 488.774C164.904 488.774 165.194 489.064 165.194 489.646C287.672 490.372 410.295 490.808 533.065 490.954C410.732 491.244 288.399 491.536 166.066 491.826C287.237 492.262 408.407 492.408 529.578 492.262C529.578 493.424 529.578 494.588 529.578 495.75C522.547 495.766 515.573 496.347 508.656 497.494C495.789 497.727 483.003 497.436 470.3 496.622C466.813 497.058 463.326 497.494 459.839 497.93C338.899 498.075 218.6 498.511 98.9426 499.238C98.6523 499.82 98.3612 500.401 98.0709 500.982C96.5706 508.486 95.4086 516.044 94.584 523.655C94.1106 523.707 93.8203 523.998 93.7122 524.527C263.844 525.69 433.832 525.69 603.675 524.527C602.981 519.891 602.4 515.241 601.931 510.575C602.962 511.558 603.543 513.302 603.675 515.807C604.547 515.807 605.418 515.807 606.29 515.807C606.73 518.72 606.876 521.627 606.726 524.527C605.74 523.564 605.013 523.855 604.547 525.399C605.366 527.944 606.674 530.56 608.469 533.247C608.76 532.085 609.051 530.922 609.341 529.759C609.923 530.922 610.503 530.922 611.085 529.759C611.603 530.979 611.458 532.142 610.649 533.247C610.95 534.29 611.386 534.29 611.956 533.247C612.608 534.845 613.48 536.299 614.572 537.608C615.286 543.411 615.722 549.079 615.879 554.612C616.85 557.179 618.012 559.65 619.366 562.024C618.882 564.293 618.737 566.619 618.93 569.001C618.654 567.43 618.072 567.14 617.187 568.129C616.315 566.385 615.443 564.641 614.572 562.896C614.281 563.187 613.99 563.478 613.7 563.769C613.36 561.498 612.633 559.462 611.52 557.664C609.739 550.467 608.141 543.2 606.726 535.864C606.305 536.69 606.16 537.562 606.29 538.48C605.767 537.259 604.895 536.387 603.675 535.864C593.075 534.852 582.324 534.706 571.421 535.427C569.072 539.843 568.49 544.349 569.677 548.944C569.884 550.07 569.594 550.942 568.806 551.56C568.92 550.916 568.774 550.334 568.37 549.816C564.708 567.935 561.366 586.102 558.345 604.318C558.863 604.723 559.444 604.868 560.088 604.754C559.143 606.574 557.69 607.736 555.73 608.242C543.676 607.517 531.472 607.081 519.117 606.934C516.96 605.154 516.089 602.829 516.502 599.958C517.475 592.084 518.637 584.236 519.989 576.413C519.977 575.205 519.685 574.188 519.117 573.361C518.883 571.966 519.174 570.804 519.989 569.873C519.859 570.79 520.004 571.662 520.425 572.489C523.042 562.003 524.35 551.538 524.347 541.096C524.141 539.97 524.431 539.098 525.219 538.48C526.403 538.683 526.403 537.375 525.219 534.555C407.245 533.974 289.27 533.974 171.296 534.555C170.156 537.335 170.156 538.352 171.296 537.608C172.084 538.226 172.375 539.098 172.168 540.224C171.6 541.051 171.309 542.068 171.296 543.276C174.965 564.082 178.161 584.865 180.885 605.626C180.595 606.498 180.014 607.08 179.142 607.37C166.859 607.474 154.365 607.329 141.657 606.934C140.931 606.208 140.204 605.48 139.478 604.754C138.793 600.638 137.921 596.569 136.863 592.546C136.458 593.064 136.313 593.645 136.427 594.29C135.613 593.358 135.322 592.196 135.555 590.802C136.124 589.974 136.415 588.957 136.427 587.749C134.404 574.144 131.934 560.627 129.017 547.2C128.613 547.718 128.467 548.3 128.581 548.944C127.476 544.731 126.604 540.371 125.966 535.864C120.622 534.704 114.955 534.122 108.968 534.119C103.301 534.265 97.635 534.41 91.9688 534.555C91.5329 534.991 91.0971 535.427 90.6612 535.864C83.6969 569.234 77.0136 602.661 70.6114 636.147C69.9134 638.647 70.0586 640.973 71.0472 643.123C71.2541 644.249 70.9636 645.121 70.1755 645.74C69.9053 644.66 69.4694 644.66 68.8679 645.74C68.2148 649.01 67.3431 652.208 66.2527 655.332C65.466 656.379 64.4489 657.106 63.2017 657.512C47.9422 657.658 32.8321 658.094 17.8716 658.82C14.2308 657.498 12.1968 654.882 11.7695 650.972C24.2817 584.631 37.0672 518.357 50.1257 452.148C50.6944 452.976 50.985 453.993 50.9974 455.201C49.008 464.007 47.7005 472.873 47.0746 481.798C47.9464 479.472 48.8181 479.472 49.6898 481.798C50.5616 480.344 51.7238 479.181 53.1768 478.309C53.0773 481.088 53.2226 483.704 53.6126 486.158C43.3892 538.601 33.219 591.068 23.102 643.559C23.2749 646.525 24.7277 648.56 27.4607 649.664C37.3403 650.245 47.22 650.245 57.0995 649.664C60.629 647.527 62.3725 644.329 62.3299 640.071C62.3055 639.138 62.0149 638.412 61.4582 637.891C75.4929 563.919 89.731 490.086 104.173 416.395C105.956 409.92 107.699 402.944 109.403 395.466C109.674 396.546 110.11 396.546 110.711 395.466C111.508 392.253 112.089 392.543 112.454 396.338C112.162 392.996 112.307 389.798 112.89 386.746Z" fill="#31363B"/>
<path fill-rule="evenodd" clip-rule="evenodd" d="M654.234 532.375C654.384 533.24 654.093 533.821 653.362 534.119C653.596 532.725 653.305 531.562 652.49 530.631C650.681 519.544 648.647 508.499 646.388 497.494C645.542 492.087 644.38 486.855 642.901 481.797C641.637 473.627 640.184 465.488 638.543 457.38C632.978 430.711 627.748 403.968 622.852 377.153C633.978 428.147 644.439 479.888 654.234 532.375Z" fill="#0F1112"/>
<path fill-rule="evenodd" clip-rule="evenodd" d="M551.37 380.642C552.358 382.792 552.504 385.118 551.805 387.618C547.738 412.03 543.67 436.447 539.601 460.869C538.654 462.989 538.218 462.698 538.294 459.996C542.316 433.483 546.674 407.031 551.37 380.642Z" fill="#191B1E"/>
<path fill-rule="evenodd" clip-rule="evenodd" d="M593.212 411.163C597.561 432.908 601.629 454.709 605.416 476.565C605.53 477.21 605.384 477.792 604.98 478.31C600.603 456.853 596.39 435.343 592.34 413.779C592.357 412.71 592.648 411.838 593.212 411.163Z" fill="#141416"/>
<path fill-rule="evenodd" clip-rule="evenodd" d="M57.0968 417.268C57.6535 417.788 57.9442 418.515 57.9686 419.448C56.1338 430.132 53.9545 440.741 51.4306 451.277C51.0258 450.759 50.8805 450.177 50.9947 449.533C52.5631 438.662 54.5971 427.907 57.0968 417.268Z" fill="#191B1E"/>
<path fill-rule="evenodd" clip-rule="evenodd" d="M155.602 433.836C158.975 452.043 161.88 470.356 164.32 488.774C163.938 489.651 163.357 489.651 162.576 488.774C160.153 471.318 157.537 453.878 154.73 436.452C154.748 435.383 155.038 434.511 155.602 433.836Z" fill="#1E2022"/>
<path fill-rule="evenodd" clip-rule="evenodd" d="M596.702 488.774C593.702 472.222 590.796 455.653 587.984 439.068C588.718 438.624 589.153 439.205 589.292 440.812C592.433 457.099 595.339 473.377 598.009 489.646C597.675 489.161 597.24 488.871 596.702 488.774Z" fill="#141518"/>
<path fill-rule="evenodd" clip-rule="evenodd" d="M106.787 453.02C104.753 464.645 102.719 476.272 100.685 487.902C99.8968 488.52 99.6065 489.392 99.8131 490.518C99.2561 489.997 98.9658 489.271 98.9414 488.338C101.306 475.642 103.775 462.997 106.351 450.404C106.772 451.231 106.917 452.103 106.787 453.02Z" fill="#18181B"/>
<path fill-rule="evenodd" clip-rule="evenodd" d="M638.544 457.381C640.185 465.488 641.638 473.628 642.902 481.798C640.705 475.11 638.962 467.698 637.672 459.561C637.696 458.628 637.987 457.901 638.544 457.381Z" fill="#989A95"/>
<path fill-rule="evenodd" clip-rule="evenodd" d="M120.735 484.413C119.863 478.599 118.991 472.786 118.12 466.973C118.005 466.328 118.151 465.747 118.556 465.229C120.483 471.675 121.209 478.071 120.735 484.413Z" fill="#0E0F12"/>
<path fill-rule="evenodd" clip-rule="evenodd" d="M76.2759 378.897C76.8198 379.261 77.1104 379.843 77.1476 380.642C59.7219 468.969 42.5778 557.334 25.7155 645.739C25.4249 645.739 25.1343 645.739 24.8438 645.739C41.3206 557.31 58.174 468.943 75.4042 380.642C76.1348 380.343 76.4255 379.763 76.2759 378.897Z" fill="#DBDBDC"/>
<path fill-rule="evenodd" clip-rule="evenodd" d="M100.686 487.901C107.309 489.617 114.283 490.198 121.608 489.645C114.503 490.511 107.239 490.802 99.8144 490.517C99.6078 489.392 99.8981 488.52 100.686 487.901Z" fill="#909094"/>
<path fill-rule="evenodd" clip-rule="evenodd" d="M98.942 499.238C266.027 498.658 432.818 499.239 599.316 500.982C432.525 500.982 265.733 500.982 98.942 500.982C98.6518 500.982 98.3606 500.982 98.0703 500.982C98.3606 500.4 98.6518 499.819 98.942 499.238Z" fill="#141515"/>
<path fill-rule="evenodd" clip-rule="evenodd" d="M277.645 502.727C369.467 502.727 461.29 502.727 553.112 502.727C553.209 503.265 553.499 503.701 553.984 504.035C546.148 504.997 538.448 506.596 530.883 508.831C528.423 509.828 526.534 511.426 525.217 513.627C522.737 514.096 520.412 514.968 518.243 516.243C517.953 517.115 517.661 517.987 517.371 518.859C520.315 519.253 523.221 519.834 526.089 520.603C524.899 522.07 523.591 522.216 522.166 521.039C513.37 521.755 504.508 522.191 495.578 522.347C367.433 522.941 239.289 523.377 111.145 523.655C111.145 523.365 111.145 523.074 111.145 522.783C183.211 522.972 255.275 522.536 327.334 521.475C328.206 520.603 329.077 519.731 329.949 518.859C327.085 518.632 324.179 517.76 321.232 516.243C325.581 515.808 329.939 515.662 334.308 515.807C334.308 514.353 334.308 512.901 334.308 511.447C337.365 511.279 340.27 511.859 343.025 513.191C343.797 512.472 344.088 511.599 343.897 510.575C349.841 508.746 355.943 507.438 362.203 506.651C383.694 505.502 405.197 504.63 426.711 504.035C376.876 503.889 327.187 503.453 277.645 502.727Z" fill="#676765"/>
<path fill-rule="evenodd" clip-rule="evenodd" d="M98.9407 500.982C265.732 500.982 432.523 500.982 599.314 500.982C600.285 504.238 601.156 507.435 601.929 510.575C602.398 515.241 602.979 519.892 603.673 524.527C433.83 524.818 264.133 524.527 94.582 523.655C100.103 523.655 105.624 523.655 111.145 523.655C239.289 523.377 367.434 522.941 495.578 522.347C504.508 522.191 513.37 521.755 522.166 521.039C523.591 522.216 524.899 522.07 526.089 520.603C523.222 519.834 520.315 519.253 517.372 518.859C517.662 517.987 517.953 517.115 518.243 516.243C520.412 514.968 522.737 514.096 525.217 513.627C526.534 511.426 528.423 509.827 530.883 508.831C538.448 506.596 546.148 504.997 553.984 504.035C553.5 503.701 553.209 503.265 553.113 502.726C428.311 502.088 276.921 501.507 98.9407 500.982Z" fill="#767775"/>
<path fill-rule="evenodd" clip-rule="evenodd" d="M277.648 502.726C327.19 503.452 376.879 503.888 426.714 504.034C405.199 504.63 383.696 505.502 362.206 506.65C355.946 507.438 349.844 508.746 343.899 510.574C344.09 511.599 343.8 512.471 343.027 513.19C340.273 511.859 337.367 511.278 334.31 511.446C334.31 512.9 334.31 514.353 334.31 515.807C329.942 515.662 325.583 515.807 321.234 516.243C324.181 517.76 327.088 518.632 329.951 518.859C329.08 519.731 328.208 520.603 327.336 521.475C255.277 522.535 183.214 522.971 111.147 522.783C107.756 516.706 104.85 510.311 102.43 503.598C160.833 502.726 219.239 502.436 277.648 502.726Z" fill="#6C6E6D"/>
<path fill-rule="evenodd" clip-rule="evenodd" d="M621.981 558.536C616.325 532.278 611.094 505.826 606.29 479.181C606.497 478.056 606.206 477.184 605.418 476.565C601.632 454.709 597.563 432.908 593.214 411.163C593.448 409.769 593.157 408.606 592.342 407.675C591.18 400.406 590.017 393.14 588.855 385.874C591.145 393.303 593.034 401.442 594.522 410.291C604.147 459.637 613.301 509.052 621.981 558.536Z" fill="#E4E4E3"/>
<path fill-rule="evenodd" clip-rule="evenodd" d="M98.069 500.982C98.3592 500.982 98.6504 500.982 98.9407 500.982C276.921 501.507 428.311 502.088 553.113 502.726C461.291 502.726 369.468 502.726 277.646 502.726C219.237 502.436 160.831 502.726 102.428 503.599C104.848 510.311 107.754 516.706 111.145 522.783C111.145 523.074 111.145 523.365 111.145 523.655C105.624 523.655 100.103 523.655 94.582 523.655C95.4067 516.044 96.5687 508.486 98.069 500.982Z" fill="#535657"/>
<path fill-rule="evenodd" clip-rule="evenodd" d="M646.39 497.494C648.648 508.499 650.682 519.544 652.492 530.631C650.215 522.828 648.035 513.817 645.954 503.598C645.26 501.384 645.405 499.35 646.39 497.494Z" fill="#8F908E"/>
<path fill-rule="evenodd" clip-rule="evenodd" d="M94.5827 523.655C264.133 524.527 433.831 524.818 603.674 524.527C433.831 525.69 263.843 525.69 93.7109 524.527C93.819 523.998 94.1093 523.708 94.5827 523.655Z" fill="#3E3F40"/>
<path fill-rule="evenodd" clip-rule="evenodd" d="M661.209 518.423C664.961 534.863 668.157 551.432 670.798 568.129C670.928 569.046 670.783 569.918 670.362 570.745C667.889 558.8 665.418 546.882 662.952 534.991C662.081 534.991 661.209 534.991 660.337 534.991C660.198 538.249 659.472 538.249 658.158 534.991C657.868 535.282 657.576 535.573 657.286 535.863C657.552 534.169 657.552 532.425 657.286 530.631C656.338 532.275 655.611 534.019 655.107 535.863C657.118 546.651 659.297 557.406 661.645 568.129C661.935 566.966 662.226 565.803 662.516 564.641C663.791 566.81 664.663 569.136 665.132 571.617C666.268 572.15 667.285 572.442 668.183 572.489C666.901 574.937 666.175 577.554 666.003 580.337C665.093 579.358 664.513 578.195 664.26 576.849C664.654 584.015 665.67 591.137 667.311 598.214C667.287 599.147 666.996 599.873 666.439 600.394C663.446 584.546 660.249 568.85 656.85 553.304C656.063 546.833 654.9 540.437 653.363 534.119C654.094 533.821 654.385 533.24 654.235 532.375C654.918 531.001 655.935 529.839 657.286 528.887C657.576 529.178 657.868 529.469 658.158 529.759C658.547 524.101 659.419 524.101 660.773 529.759C660.5 525.834 660.646 522.056 661.209 518.423Z" fill="#26282C"/>
<path fill-rule="evenodd" clip-rule="evenodd" d="M525.219 538.48C525.219 537.607 525.219 536.735 525.219 535.863C406.951 535.284 288.977 535.865 171.297 537.607C170.156 538.352 170.156 537.335 171.297 534.555C289.271 533.974 407.245 533.974 525.219 534.555C526.403 537.375 526.403 538.683 525.219 538.48Z" fill="#131418"/>
<path fill-rule="evenodd" clip-rule="evenodd" d="M603.673 535.864C593.208 535.718 582.748 535.864 572.291 536.3C570.907 540.386 570.035 544.601 569.676 548.944C568.489 544.349 569.07 539.844 571.419 535.428C582.322 534.706 593.073 534.852 603.673 535.864Z" fill="#141517"/>
<path fill-rule="evenodd" clip-rule="evenodd" d="M135.555 535.864C144.489 535.586 153.352 535.876 162.142 536.736C165.438 556.079 168.78 575.41 172.167 594.726C172.295 596.5 171.714 597.953 170.424 599.086C162.563 599.812 154.717 599.666 146.887 598.65C142.547 577.829 138.769 556.901 135.555 535.864Z" fill="#4D5155"/>
<path fill-rule="evenodd" clip-rule="evenodd" d="M534.808 535.863C543.815 535.863 552.824 535.863 561.831 535.863C559.303 557.216 555.525 578.29 550.499 599.086C542.363 599.667 534.226 599.667 526.09 599.086C525.548 597.717 525.257 596.264 525.219 594.725C528.276 575.066 531.473 555.446 534.808 535.863Z" fill="#4D5054"/>
<path fill-rule="evenodd" clip-rule="evenodd" d="M611.519 557.664C612.946 566.112 614.544 574.542 616.313 582.953C617.011 585.453 616.866 587.779 615.877 589.929C612.775 572.76 609.578 555.61 606.288 538.479C606.158 537.562 606.303 536.69 606.724 535.863C608.139 543.2 609.737 550.467 611.519 557.664Z" fill="#141418"/>
<path fill-rule="evenodd" clip-rule="evenodd" d="M524.346 541.096C524.349 551.538 523.041 562.003 520.423 572.489C520.002 571.662 519.858 570.79 519.987 569.873C521.156 560.239 522.61 550.646 524.346 541.096Z" fill="#17181C"/>
<path fill-rule="evenodd" clip-rule="evenodd" d="M135.554 590.802C132.891 576.902 130.567 562.95 128.581 548.944C128.466 548.3 128.612 547.718 129.016 547.2C131.933 560.628 134.403 574.144 136.426 587.75C136.414 588.957 136.123 589.974 135.554 590.802Z" fill="#16181B"/>
<path fill-rule="evenodd" clip-rule="evenodd" d="M568.805 551.56C566.181 569.344 563.275 587.076 560.087 604.754C559.443 604.869 558.862 604.723 558.344 604.318C561.365 586.103 564.707 567.935 568.369 549.816C568.773 550.334 568.919 550.916 568.805 551.56Z" fill="#16171A"/>
<path fill-rule="evenodd" clip-rule="evenodd" d="M656.849 553.304C660.248 568.85 663.445 584.547 666.438 600.394C666.288 601.259 666.579 601.84 667.31 602.138C668.359 609.133 669.522 616.109 670.797 623.067C672.696 630.531 674.149 638.088 675.155 645.74C674.574 646.03 673.993 646.321 673.412 646.612C662.7 647.594 651.949 647.739 641.158 647.048C640.041 645.819 639.169 644.511 638.543 643.123C633.312 614.929 628.082 586.734 622.852 558.536C623.034 557.296 623.47 556.134 624.159 555.048C624.667 556.358 625.394 557.52 626.338 558.536C627.708 557.831 629.161 557.54 630.697 557.664C630.697 562.315 630.697 566.966 630.697 571.617C631.859 571.617 633.022 571.617 634.184 571.617C634.838 567.762 636.872 564.855 640.286 562.897C641.128 561.243 641.419 559.499 641.158 557.664C642.901 557.664 644.645 557.664 646.388 557.664C646.388 555.339 646.388 553.014 646.388 550.688C647.305 550.818 648.177 550.673 649.003 550.252C647.979 547.777 648.124 545.307 649.439 542.84C649.805 546.635 650.386 546.925 651.183 543.712C651.715 547.001 652.587 547.001 653.798 543.712C654.515 547.62 655.532 550.817 656.849 553.304Z" fill="#63635F"/>
<path fill-rule="evenodd" clip-rule="evenodd" d="M621.98 558.536C622.271 558.536 622.562 558.536 622.852 558.536C628.083 586.733 633.313 614.929 638.543 643.123C638.543 643.705 638.253 643.995 637.672 643.995C632.104 615.567 626.873 587.08 621.98 558.536Z" fill="#D3D3D0"/>
<path fill-rule="evenodd" clip-rule="evenodd" d="M75.4054 380.642C58.1753 468.943 41.3219 557.31 24.845 645.739C25.2397 646.575 25.8209 647.302 26.5885 647.919C37.0493 648.501 47.51 648.501 57.9708 647.919C59.1239 647.208 59.705 646.19 59.7143 644.867C60.4731 642.684 61.0543 640.359 61.4577 637.891C62.0144 638.411 62.305 639.138 62.3295 640.071C62.372 644.329 60.6285 647.527 57.0991 649.663C47.2195 650.245 37.3398 650.245 27.4602 649.663C24.7273 648.559 23.2744 646.525 23.1016 643.559C33.2185 591.068 43.3887 538.6 53.6121 486.157C60.3425 450.605 67.4617 415.142 74.9696 379.77C75.3172 379.968 75.4624 380.26 75.4054 380.642Z" fill="#131316"/>
<path fill-rule="evenodd" clip-rule="evenodd" d="M519.114 573.36C519.683 574.188 519.974 575.205 519.986 576.412C518.634 584.235 517.472 592.084 516.499 599.957C516.086 602.828 516.958 605.154 519.114 606.934C531.469 607.081 543.673 607.517 555.727 608.242C543.878 609.242 531.965 609.387 519.986 608.678C517.516 607.951 515.918 606.352 515.191 603.881C515.646 593.612 516.953 583.439 519.114 573.36Z" fill="#1D1D21"/>
<path fill-rule="evenodd" clip-rule="evenodd" d="M172.169 540.224C175.405 558.487 178.456 576.799 181.322 595.162C181.927 598.697 181.781 602.185 180.886 605.626C178.162 584.865 174.965 564.082 171.297 543.276C171.309 542.068 171.6 541.051 172.169 540.224Z" fill="#1D1E22"/>
<path fill-rule="evenodd" clip-rule="evenodd" d="M683.872 657.076C682.702 658.204 681.249 658.93 679.513 659.256C665.859 659.692 652.202 659.838 638.542 659.692C633.909 660.355 630.568 658.611 628.517 654.46C624.405 633.845 620.482 613.207 616.749 592.546C616.634 591.901 616.78 591.32 617.184 590.802C621.615 610.129 625.394 629.605 628.517 649.228C628.89 652.74 630.489 655.502 633.311 657.512C649.003 658.094 664.694 658.094 680.385 657.512C681.645 656.38 682.807 656.235 683.872 657.076Z" fill="#1C1E21"/>
<path fill-rule="evenodd" clip-rule="evenodd" d="M179.139 607.37C178.291 607.795 177.419 608.231 176.524 608.678C165.192 609.26 153.859 609.26 142.526 608.678C140.347 607.661 138.749 606.062 137.732 603.882C136.916 600.731 136.48 597.534 136.424 594.29C136.31 593.646 136.456 593.064 136.86 592.546C137.919 596.569 138.79 600.638 139.475 604.754C140.202 605.481 140.929 606.208 141.655 606.934C154.362 607.329 166.857 607.474 179.139 607.37Z" fill="#1D1D20"/>
<path fill-rule="evenodd" clip-rule="evenodd" d="M125.964 535.863C114.417 535.582 102.939 535.873 91.5306 536.735C84.6449 572.193 77.8164 607.656 71.045 643.123C70.0563 640.973 69.9111 638.647 70.6091 636.147C77.0114 602.661 83.6947 569.233 90.6589 535.863C91.0948 535.427 91.5306 534.991 91.9665 534.555C97.6328 534.41 103.299 534.265 108.965 534.119C114.953 534.122 120.619 534.703 125.964 535.863Z" fill="#18181C"/>
<path fill-rule="evenodd" clip-rule="evenodd" d="M670.796 623.066C669.521 616.109 668.358 609.132 667.309 602.138C669.213 607.666 670.667 613.915 671.667 620.886C671.643 621.819 671.353 622.546 670.796 623.066Z" fill="#0F1212"/>
<path fill-rule="evenodd" clip-rule="evenodd" d="M606.29 479.182C611.094 505.827 616.324 532.278 621.981 558.537C626.874 587.081 632.104 615.567 637.672 643.996C638.21 645.503 639.082 646.811 640.287 647.92C651.038 648.501 661.79 648.501 672.541 647.92C673.026 647.586 673.316 647.15 673.413 646.612C673.994 646.321 674.575 646.03 675.156 645.74C674.794 647.704 673.632 649.012 671.67 649.664C661.499 650.245 651.329 650.245 641.159 649.664C639.27 648.937 637.962 647.629 637.236 645.74C626.105 591.191 615.499 536.545 605.418 481.798C605.435 480.729 605.726 479.857 606.29 479.182Z" fill="#131416"/>
<path fill-rule="evenodd" clip-rule="evenodd" d="M59.713 644.867C59.7038 646.19 59.1227 647.208 57.9695 647.919C47.5088 648.501 37.048 648.501 26.5872 647.919C25.8197 647.302 25.2385 646.575 24.8438 645.739C25.1343 645.739 25.4249 645.739 25.7155 645.739C26.4034 645.986 26.9845 646.422 27.4589 647.047C37.3385 647.629 47.2182 647.629 57.0978 647.047C58.1451 646.26 58.8716 645.243 59.2771 643.995C59.6248 644.194 59.77 644.485 59.713 644.867Z" fill="#A6A6A5"/>
<path fill-rule="evenodd" clip-rule="evenodd" d="M638.544 643.123C639.17 644.51 640.042 645.818 641.159 647.047C651.95 647.739 662.701 647.594 673.413 646.611C673.316 647.149 673.026 647.585 672.541 647.919C661.79 648.501 651.038 648.501 640.287 647.919C639.081 646.811 638.21 645.503 637.672 643.995C638.253 643.995 638.544 643.705 638.544 643.123Z" fill="#979892"/>
<path fill-rule="evenodd" clip-rule="evenodd" d="M70.175 645.739C70.3367 651.967 67.7215 656.473 62.3294 659.256C47.3603 659.978 32.5408 659.833 17.8711 658.82C32.8316 658.094 47.9416 657.658 63.2011 657.512C64.4484 657.106 65.4654 656.379 66.2522 655.332C67.3425 652.208 68.2143 649.01 68.8674 645.739C69.4688 644.66 69.9047 644.66 70.175 645.739Z" fill="#1D1E22"/>
</svg>
